<svg xmlns="http://www.w3.org/2000/svg" viewBox="0 0 1000 1000" role="img" aria-label="Adelaide Street Circuit track outline">
  <path d="M 688.1,564.2 L 652.0,516.0 L 634.1,491.7 L 628.3,484.5 L 624.3,481.4 L 620.0,479.6 L 612.3,478.9 L 604.7,480.0 L 599.2,480.6 L 593.9,480.0 L 588.4,478.1 L 534.1,441.4 L 510.0,427.4 L 486.3,422.1 L 481.1,420.9 L 329.4,431.6 L 294.0,434.1 L 272.7,435.6 L 204.3,437.2 L 547.2,137.3 L 405.6,137.6 L 319.1,137.2 L 206.8,137.2 L 147.6,135.5 L 124.0,137.0 L 79.0,139.3 L 53.8,141.0 L 50.9,141.2 L 40.0,142.1 L 40.6,152.4 L 45.4,273.5 L 45.6,277.3 L 46.2,291.7 L 60.7,290.5 L 73.6,289.7 L 92.9,288.4 L 133.0,285.8 L 183.3,282.6 L 189.5,283.9 L 194.8,288.9 L 196.5,293.3 L 196.5,294.4 L 197.9,315.9 L 202.6,388.5 L 202.9,395.6 L 203.2,402.9 L 203.8,421.0 L 204.3,437.2 L 761.2,446.0 L 755.1,450.3 L 753.0,452.1 L 751.6,454.5 L 750.5,457.0 L 749.8,460.7 L 750.1,463.8 L 750.6,466.8 L 753.6,474.5 L 760.0,492.1 L 768.5,512.5 L 778.5,538.8 L 784.4,554.2 L 790.1,566.8 L 797.3,577.9 L 805.1,586.9 L 827.5,607.9 L 862.2,640.4 L 876.1,653.4 L 887.8,664.0 L 911.4,685.3 L 915.1,689.8 L 918.7,694.3 L 925.3,706.0 L 930.6,718.1 L 935.0,736.9 L 936.5,752.2 L 938.5,802.0 L 941.5,841.7 L 941.5,847.3 L 941.3,849.8 L 941.0,851.3 L 940.4,853.2 L 939.5,854.8 L 937.5,857.1 L 935.0,859.5 L 932.8,861.2 L 931.3,862.1 L 929.6,862.9 L 927.3,863.8 L 925.0,864.3 L 923.1,864.5 L 920.8,864.4 L 918.7,864.2 L 916.8,863.6 L 914.8,862.7 L 912.9,861.4 L 911.2,859.8 L 908.9,857.3 L 688.1,564.2 L 835.1,401.0 L 834.8,401.2 L 816.9,411.3 L 804.1,420.3 L 761.2,446.0 L 907.6,410.1 L 869.7,405.0 L 835.1,401.0 L 907.6,410.1 L 930.4,411.0 L 940.9,410.5 L 950.6,408.1 L 959.6,402.5 L 959.3,398.7 L 960.0,395.0 L 946.3,383.3 L 866.2,311.2 L 862.4,308.0 L 849.2,296.5 L 789.3,244.4 L 774.0,231.1 L 732.9,195.1 L 690.3,157.9 L 667.4,148.5 L 661.3,146.7 L 652.3,144.2 L 618.7,139.5 L 593.0,139.5 L 547.2,137.3" fill="none" stroke="currentColor" stroke-width="10" stroke-linejoin="round" stroke-linecap="round"/>
</svg>
