<svg xmlns="http://www.w3.org/2000/svg" viewBox="0 0 1000 1000" role="img" aria-label="TI Circuit Aida track outline"><path d="M 702.5 122.5 L 701.2 137.7 L 697.9 153.2 L 665.9 254.8 L 636.2 351.3 L 590.8 493.9 L 585.0 513.8 L 542.4 676.7 L 540.9 681.1 L 538.1 686.1 L 533.9 690.1 L 529.5 692.5 L 522.2 692.7 L 516.3 691.3 L 510.9 688.8 L 506.1 683.4 L 503.6 676.7 L 503.8 669.0 L 506.9 652.0 L 516.5 601.5 L 518.4 585.9 L 517.6 578.3 L 513.2 572.2 L 507.1 568.5 L 500.2 566.3 L 473.8 561.6 L 448.5 556.0 L 421.2 552.8 L 414.5 553.7 L 408.9 555.2 L 402.8 558.2 L 398.5 561.4 L 393.6 566.0 L 390.2 571.3 L 388.5 576.8 L 387.8 582.3 L 393.3 787.0 L 394.2 796.8 L 396.4 804.7 L 399.4 810.0 L 403.4 813.5 L 412.6 818.3 L 421.9 819.4 L 431.0 816.9 L 437.3 811.9 L 441.6 804.8 L 457.6 768.2 L 462.6 756.5 L 467.9 750.4 L 475.9 746.0 L 481.4 745.0 L 488.7 745.1 L 496.6 749.1 L 501.9 754.3 L 505.5 761.7 L 506.8 769.0 L 503.5 800.1 L 497.5 851.3 L 491.5 900.8 L 489.5 907.3 L 485.2 914.3 L 479.9 920.4 L 472.6 925.9 L 461.4 931.0 L 385.6 957.2 L 371.8 960.0 L 360.8 959.4 L 353.0 956.9 L 347.6 953.3 L 339.7 946.1 L 335.7 939.7 L 333.6 934.4 L 332.7 927.8 L 323.7 830.4 L 301.3 527.7 L 299.5 478.0 L 297.5 458.3 L 299.2 448.2 L 302.2 440.5 L 306.5 433.7 L 309.7 429.7 L 316.5 424.0 L 327.4 420.0 L 333.8 418.7 L 346.5 419.7 L 360.5 422.0 L 378.8 429.0 L 441.7 474.0 L 461.0 486.2 L 468.7 491.0 L 478.4 492.4 L 493.7 492.4 L 506.6 489.3 L 520.6 483.6 L 530.1 476.0 L 542.0 461.5 L 559.8 417.2 L 582.8 364.4 L 590.3 344.6 L 593.5 331.5 L 594.6 319.7 L 594.7 309.9 L 592.7 300.2 L 584.3 272.9 L 581.6 262.0 L 580.3 252.0 L 580.0 241.8 L 581.6 231.8 L 584.3 223.3 L 589.4 211.1 L 598.4 189.7 L 603.1 175.9 L 607.6 153.6 L 611.2 127.8 L 613.6 97.8 L 615.1 71.6 L 616.4 61.3 L 620.5 51.6 L 627.6 45.3 L 639.2 40.9 L 651.1 40.0 L 662.6 40.9 L 674.7 45.8 L 685.6 52.7 L 693.6 60.9 L 698.9 71.1 L 701.1 82.2 L 702.4 96.0 L 702.5 122.5 Z" fill="none" stroke="currentColor" stroke-width="10" stroke-linejoin="round" stroke-linecap="round"/></svg>