<svg xmlns="http://www.w3.org/2000/svg" viewBox="0 0 1000 1000" role="img" aria-label="Aintree Motor Racing Circuit track outline"><path d="M 409.8 571.9 L 417.9 570.8 L 425.1 568.1 L 431.6 563.6 L 437.3 557.8 L 441.5 550.8 L 443.7 543.7 L 444.5 537.4 L 441.9 382.3 L 442.1 364.0 L 444.1 346.6 L 447.4 334.5 L 450.7 327.4 L 458.0 315.7 L 464.3 308.2 L 470.2 302.9 L 482.9 293.8 L 493.0 289.0 L 501.3 286.1 L 510.0 284.4 L 517.6 283.9 L 525.8 284.4 L 536.4 286.5 L 546.6 289.3 L 557.5 293.3 L 573.7 300.3 L 891.7 438.5 L 926.0 453.4 L 931.6 456.3 L 937.8 461.0 L 943.1 466.7 L 948.0 472.8 L 952.6 480.1 L 956.4 488.9 L 958.5 497.0 L 959.6 505.6 L 960.0 515.7 L 959.6 527.0 L 958.3 539.8 L 956.8 547.4 L 953.0 559.6 L 948.2 570.9 L 944.9 576.7 L 939.3 586.6 L 929.5 599.5 L 919.4 610.3 L 910.4 618.8 L 900.0 627.4 L 889.8 634.7 L 882.2 639.4 L 862.5 648.9 L 841.6 657.6 L 813.8 668.0 L 797.9 673.3 L 786.9 676.5 L 767.1 680.8 L 736.5 685.7 L 717.5 687.6 L 697.1 689.1 L 683.5 690.0 L 520.8 697.5 L 429.4 701.6 L 352.2 705.2 L 293.6 707.8 L 254.2 709.8 L 235.8 710.6 L 153.4 714.7 L 126.6 716.1 L 116.9 716.1 L 105.3 715.0 L 93.9 712.5 L 84.2 708.6 L 76.0 704.2 L 69.2 699.3 L 62.2 693.2 L 54.2 684.6 L 49.8 678.7 L 46.5 673.8 L 44.0 669.0 L 42.4 665.0 L 41.3 661.5 L 40.6 657.3 L 40.0 647.9 L 40.7 643.2 L 41.6 639.6 L 43.3 634.6 L 45.5 630.3 L 48.0 626.1 L 50.8 622.1 L 55.0 617.9 L 59.0 614.5 L 65.2 610.0 L 72.6 605.5 L 83.3 600.2 L 95.7 595.0 L 108.6 590.4 L 123.1 587.3 L 135.3 585.2 L 155.4 582.9 L 233.9 579.2 L 249.2 578.6 L 325.2 575.6 L 409.8 571.9 Z" fill="none" stroke="currentColor" stroke-width="10" stroke-linejoin="round" stroke-linecap="round"/></svg>