<svg xmlns="http://www.w3.org/2000/svg" viewBox="0 0 1000 1000" role="img" aria-label="Albert Park Circuit track outline">
  <path d="M 374.3,676.4 L 357.6,659.3 L 346.2,647.6 L 329.9,632.3 L 307.4,609.5 L 305.3,607.1 L 303.4,604.8 L 302.3,603.4 L 301.5,602.2 L 300.8,601.2 L 300.3,600.2 L 299.9,599.0 L 299.7,598.2 L 299.6,597.3 L 299.7,596.5 L 299.9,595.6 L 300.4,594.4 L 301.0,592.8 L 302.2,590.5 L 304.0,587.0 L 305.8,583.0 L 307.7,578.8 L 308.8,575.5 L 310.1,570.5 L 311.1,564.8 L 311.5,557.8 L 311.4,552.3 L 310.9,546.1 L 310.1,541.1 L 309.7,538.4 L 309.1,536.2 L 307.9,533.0 L 306.5,529.6 L 304.8,526.1 L 300.9,519.7 L 298.1,516.1 L 295.1,513.0 L 291.6,509.2 L 288.3,506.1 L 279.7,497.9 L 254.7,474.8 L 252.5,472.5 L 236.3,455.9 L 214.6,431.8 L 189.4,400.6 L 182.9,392.3 L 174.9,381.1 L 167.8,370.5 L 164.5,365.0 L 157.0,352.7 L 132.1,308.2 L 124.9,293.2 L 124.5,291.5 L 124.4,289.7 L 124.6,287.5 L 125.2,285.6 L 126.3,283.5 L 127.9,281.8 L 129.9,280.7 L 132.8,279.8 L 136.6,279.0 L 143.8,278.0 L 149.3,276.9 L 153.8,275.2 L 159.3,274.3 L 168.2,272.8 L 180.7,270.6 L 186.1,269.2 L 189.5,268.1 L 192.3,266.2 L 194.6,263.6 L 196.0,260.8 L 197.0,258.6 L 197.9,255.6 L 198.2,253.0 L 198.4,250.5 L 195.3,174.6 L 195.3,173.3 L 195.3,171.0 L 194.8,158.7 L 194.6,155.4 L 194.5,154.9 L 196.9,151.3 L 198.2,149.5 L 199.5,147.8 L 200.9,146.1 L 201.4,145.6 L 203.0,144.0 L 204.2,142.7 L 205.6,141.5 L 207.9,139.9 L 214.3,135.2 L 251.2,108.5 L 260.3,102.1 L 265.0,99.3 L 270.4,96.2 L 278.9,92.1 L 287.5,88.4 L 289.7,87.7 L 291.7,87.6 L 293.9,87.5 L 295.2,86.4 L 295.9,85.8 L 296.6,85.2 L 299.0,84.3 L 300.6,83.5 L 325.6,73.3 L 332.2,70.6 L 340.2,67.3 L 347.8,63.9 L 356.5,59.3 L 363.0,55.7 L 372.3,50.0 L 377.7,46.7 L 381.5,44.5 L 389.3,40.0 L 391.4,43.6 L 394.4,47.8 L 397.2,50.9 L 400.3,54.3 L 402.1,56.1 L 403.7,57.7 L 405.8,59.7 L 407.8,61.4 L 409.2,62.5 L 410.8,63.6 L 412.5,64.8 L 414.7,66.1 L 416.7,67.2 L 418.6,68.3 L 420.9,69.3 L 424.0,70.5 L 426.2,71.3 L 428.8,72.2 L 432.0,73.0 L 434.8,73.6 L 441.9,74.6 L 450.5,75.1 L 457.2,75.5 L 462.0,75.9 L 468.3,76.8 L 474.8,78.1 L 480.7,79.8 L 485.5,81.5 L 492.1,84.2 L 497.8,86.8 L 502.2,89.4 L 509.9,94.7 L 518.6,101.6 L 524.7,107.8 L 531.3,115.7 L 534.6,121.0 L 538.6,127.0 L 541.3,132.5 L 544.7,140.4 L 546.7,145.9 L 548.4,152.9 L 552.0,171.4 L 561.3,218.7 L 562.4,231.2 L 562.7,239.8 L 562.3,245.2 L 562.1,249.4 L 561.7,254.6 L 560.8,260.4 L 559.8,265.0 L 558.2,271.9 L 556.3,278.3 L 554.2,284.5 L 551.5,292.6 L 549.2,298.9 L 547.3,303.5 L 545.5,308.1 L 543.6,312.7 L 541.8,317.6 L 540.4,320.9 L 537.8,326.9 L 534.5,334.9 L 527.9,351.9 L 520.9,370.0 L 517.3,381.5 L 512.6,399.5 L 511.3,407.0 L 510.7,412.0 L 510.0,419.7 L 509.6,431.1 L 509.7,438.0 L 510.6,452.2 L 511.3,457.9 L 513.1,468.9 L 514.4,475.5 L 515.6,480.2 L 517.5,486.9 L 521.3,498.8 L 524.8,507.7 L 529.2,517.0 L 534.6,526.9 L 540.9,537.2 L 546.7,545.6 L 553.6,555.0 L 560.4,562.3 L 567.9,569.8 L 582.3,582.7 L 597.4,595.7 L 619.4,615.0 L 628.2,623.3 L 630.0,624.7 L 632.1,626.2 L 634.2,627.2 L 636.3,628.0 L 639.1,628.8 L 641.8,629.1 L 644.5,629.3 L 660.8,627.3 L 669.9,625.9 L 692.7,622.7 L 695.7,622.2 L 697.9,622.2 L 700.0,622.4 L 701.0,622.8 L 702.1,623.3 L 703.0,623.9 L 716.2,635.9 L 726.9,645.0 L 750.5,665.3 L 766.6,679.1 L 778.1,688.4 L 784.2,693.5 L 791.1,699.3 L 794.1,702.6 L 798.9,707.4 L 802.2,711.2 L 805.8,715.5 L 806.3,716.0 L 808.7,718.9 L 811.0,721.4 L 814.1,725.9 L 817.3,730.9 L 820.3,736.2 L 823.1,742.4 L 827.1,751.1 L 829.8,758.0 L 832.7,766.9 L 835.5,776.0 L 838.8,787.6 L 844.1,805.5 L 854.5,842.0 L 856.6,848.6 L 858.9,856.5 L 862.0,866.7 L 875.6,929.6 L 873.4,916.8 L 871.1,902.8 L 869.2,895.2 L 867.1,886.6 L 875.6,929.6 L 831.0,940.1 L 815.0,943.8 L 801.0,947.3 L 794.0,949.2 L 787.8,951.0 L 780.7,953.3 L 775.4,955.0 L 770.6,956.4 L 761.8,959.0 L 758.7,959.7 L 756.9,959.9 L 754.7,960.0 L 751.1,959.9 L 749.1,959.6 L 746.7,959.0 L 743.4,958.0 L 740.6,956.9 L 737.2,955.2 L 734.6,953.5 L 731.8,951.4 L 729.7,949.3 L 727.2,946.4 L 724.6,942.8 L 694.3,887.8 L 680.6,865.5 L 677.0,860.0 L 674.9,857.3 L 673.2,855.7 L 671.3,854.7 L 668.8,854.3 L 666.8,854.5 L 665.2,855.2 L 663.8,856.2 L 661.3,858.9 L 648.1,873.8 L 638.0,885.3 L 633.9,890.0 L 630.6,893.4 L 628.4,895.5 L 625.2,897.4 L 621.9,898.9 L 617.7,900.5 L 612.7,901.4 L 608.1,901.5 L 603.7,900.8 L 598.8,899.4 L 594.8,897.6 L 591.7,895.6 L 588.0,892.8 L 585.3,890.0 L 543.3,847.3 L 435.9,738.9 L 389.1,691.3 L 374.3,676.4 Z" fill="none" stroke="currentColor" stroke-width="10" stroke-linejoin="round" stroke-linecap="round"/>
</svg>
