<svg xmlns="http://www.w3.org/2000/svg" viewBox="0 0 1000 1000" role="img" aria-label="Scandinavian Raceway track outline"><path d="M677.5,48.6 L 681.7,44.7 L 685.3,42.2 L 688.8,40.8 L 691.8,40.0 L 695.2,40.0 L 698.5,40.8 L 704.2,43.1 L 729.7,57.0 L 740.4,62.9 L 773.9,83.9 L 827.9,117.9 L 851.7,132.9 L 868.2,144.8 L 874.6,150.3 L 878.9,154.8 L 881.6,158.1 L 883.6,161.2 L 884.8,164.0 L 885.6,167.5 L 886.1,172.3 L 886.1,176.7 L 885.4,181.9 L 883.7,189.0 L 882.3,193.2 L 880.2,197.9 L 871.9,211.4 L 859.6,231.1 L 826.7,284.6 L 794.0,336.3 L 724.9,445.7 L 671.7,527.2 L 660.4,544.4 L 657.1,548.7 L 653.7,552.4 L 649.5,556.4 L 644.8,559.9 L 639.2,563.1 L 633.4,565.8 L 626.7,567.8 L 619.6,569.0 L 611.8,569.5 L 604.2,568.9 L 596.1,567.8 L 587.5,565.5 L 580.4,562.6 L 573.9,558.9 L 568.2,554.5 L 563.1,548.8 L 557.7,542.3 L 553.5,535.7 L 550.5,529.3 L 548.7,522.3 L 547.9,515.3 L 547.6,509.1 L 547.6,502.5 L 548.3,495.4 L 549.7,488.5 L 552.4,481.1 L 555.8,474.8 L 559.5,469.9 L 566.8,461.4 L 727.5,266.1 L 735.1,255.7 L 738.9,249.4 L 741.6,243.0 L 743.9,236.2 L 745.4,230.0 L 746.2,223.9 L 746.4,217.4 L 745.6,210.6 L 744.0,203.8 L 741.9,197.6 L 739.1,191.8 L 735.8,185.9 L 732.1,180.6 L 726.0,174.1 L 720.7,169.9 L 715.4,166.9 L 709.2,163.8 L 701.6,161.2 L 694.3,159.5 L 687.1,158.8 L 680.1,158.7 L 673.6,159.5 L 666.9,160.9 L 661.0,162.9 L 654.6,165.9 L 649.1,169.3 L 643.5,173.7 L 638.9,178.0 L 634.4,183.3 L 627.0,194.1 L 585.2,259.5 L 524.0,356.5 L 470.7,440.2 L 415.1,530.1 L 408.4,540.7 L 405.5,546.5 L 403.4,551.5 L 401.8,556.1 L 401.0,560.3 L 400.7,564.4 L 400.7,568.9 L 401.0,573.1 L 401.8,577.6 L 403.0,582.1 L 404.6,586.9 L 406.6,591.2 L 408.8,594.7 L 412.1,598.8 L 416.0,602.8 L 419.7,605.8 L 425.5,609.7 L 432.4,613.2 L 440.9,616.6 L 459.3,623.4 L 485.7,631.9 L 509.6,639.4 L 521.6,643.0 L 530.6,645.9 L 540.6,649.6 L 547.6,652.6 L 554.0,655.9 L 560.2,659.9 L 566.1,664.2 L 570.7,668.1 L 575.7,673.4 L 581.0,679.3 L 585.7,685.5 L 589.7,692.4 L 592.5,698.2 L 595.0,703.8 L 596.9,710.0 L 598.6,717.5 L 599.5,723.5 L 600.1,729.9 L 600.3,736.9 L 599.8,743.9 L 598.6,750.6 L 597.2,757.0 L 594.8,764.1 L 591.6,772.1 L 587.7,779.8 L 584.1,785.1 L 579.9,790.8 L 574.8,796.3 L 569.0,801.6 L 562.8,806.3 L 556.6,810.3 L 549.1,814.1 L 541.8,817.2 L 534.8,819.5 L 526.4,821.4 L 518.5,822.5 L 510.5,822.9 L 502.8,822.9 L 495.3,822.2 L 488.3,820.4 L 480.7,818.0 L 474.8,815.7 L 469.0,812.9 L 464.0,810.2 L 458.3,806.6 L 453.0,802.6 L 448.5,798.0 L 443.8,792.7 L 439.6,787.8 L 435.4,781.9 L 431.1,774.8 L 419.3,753.5 L 405.4,728.8 L 401.5,724.0 L 398.1,720.7 L 394.6,718.2 L 390.1,715.9 L 386.2,714.7 L 381.9,714.2 L 377.2,714.7 L 373.0,715.4 L 368.8,716.7 L 365.3,718.3 L 361.5,720.7 L 358.3,723.7 L 355.5,727.3 L 351.3,733.8 L 339.8,752.0 L 270.9,861.4 L 262.8,874.4 L 227.4,930.8 L 222.9,937.8 L 219.5,941.8 L 215.9,945.4 L 211.6,948.6 L 206.9,951.6 L 200.8,954.6 L 194.0,957.4 L 187.6,959.1 L 181.5,959.8 L 174.5,960.0 L 168.8,959.5 L 163.3,958.8 L 157.9,957.4 L 152.2,955.5 L 147.2,953.3 L 142.0,950.6 L 137.5,947.5 L 133.3,944.1 L 129.4,939.6 L 126.0,934.9 L 122.7,929.7 L 120.6,925.0 L 118.5,919.9 L 116.4,913.8 L 115.0,907.5 L 114.2,901.9 L 113.9,895.3 L 114.2,890.0 L 115.1,884.1 L 116.7,878.2 L 119.5,870.5 L 139.9,827.3 L 151.8,802.0 L 180.6,738.0 L 214.8,670.1 L 229.7,643.6 L 260.2,588.4 L 418.6,338.2 L 438.8,313.6 L 458.1,288.1 L 515.2,217.8 L 584.2,142.9 L 605.1,122.4 L 677.5,48.6 Z" fill="none" stroke="currentColor" stroke-width="10" stroke-linejoin="round" stroke-linecap="round"/></svg>