<svg xmlns="http://www.w3.org/2000/svg" viewBox="0 0 1000 1000" role="img" aria-label="Scandinavian Raceway track outline"><path d="M 653.6 266.1 L 661.2 255.7 L 665.0 249.4 L 667.7 243.0 L 670.0 236.2 L 671.6 230.0 L 672.3 223.9 L 672.5 217.4 L 671.7 210.6 L 670.2 203.8 L 668.0 197.6 L 665.2 191.8 L 661.9 185.9 L 658.2 180.6 L 652.1 174.1 L 646.8 169.9 L 641.5 166.9 L 635.3 163.8 L 627.7 161.2 L 620.4 159.5 L 613.2 158.8 L 606.2 158.7 L 599.7 159.5 L 593.0 160.9 L 587.1 162.9 L 580.7 165.9 L 575.3 169.3 L 569.7 173.7 L 565.0 178.0 L 560.5 183.3 L 553.1 194.1 L 511.4 259.5 L 450.1 356.5 L 396.8 440.2 L 341.2 530.1 L 334.5 540.7 L 331.7 546.5 L 329.5 551.5 L 327.9 556.1 L 327.1 560.3 L 326.8 564.4 L 326.8 568.9 L 327.1 573.1 L 327.9 577.6 L 329.2 582.1 L 330.7 586.9 L 332.8 591.2 L 334.9 594.7 L 338.2 598.8 L 342.1 602.8 L 345.8 605.8 L 351.6 609.7 L 358.6 613.2 L 367.1 616.6 L 385.5 623.4 L 411.8 631.9 L 435.7 639.4 L 447.7 643.0 L 456.7 645.9 L 466.7 649.6 L 473.7 652.6 L 480.1 655.9 L 486.3 659.9 L 492.2 664.2 L 496.9 668.1 L 501.8 673.4 L 507.1 679.3 L 511.8 685.5 L 515.8 692.4 L 518.7 698.2 L 521.1 703.8 L 523.0 710.0 L 524.7 717.5 L 525.6 723.5 L 526.3 729.9 L 526.4 736.9 L 526.0 743.9 L 524.7 750.6 L 523.3 757.0 L 521.0 764.1 L 517.7 772.1 L 513.8 779.8 L 510.2 785.1 L 506.1 790.8 L 500.9 796.3 L 495.2 801.6 L 489.0 806.3 L 482.7 810.3 L 475.3 814.1 L 467.9 817.2 L 460.9 819.5 L 452.5 821.4 L 444.6 822.5 L 436.7 822.9 L 428.9 822.9 L 421.4 822.2 L 414.4 820.4 L 406.8 818.0 L 400.9 815.7 L 395.2 812.9 L 390.2 810.2 L 384.4 806.6 L 379.1 802.6 L 374.6 798.0 L 369.9 792.7 L 365.8 787.8 L 361.5 781.9 L 357.2 774.8 L 345.4 753.5 L 331.5 728.8 L 327.6 724.0 L 324.2 720.7 L 320.8 718.2 L 316.3 715.9 L 312.4 714.7 L 308.0 714.2 L 303.3 714.7 L 299.1 715.4 L 295.0 716.7 L 291.4 718.3 L 287.6 720.7 L 284.4 723.7 L 281.6 727.3 L 277.4 733.8 L 265.9 752.0 L 197.1 861.4 L 188.9 874.4 L 153.6 930.8 L 149.0 937.8 L 145.6 941.8 L 142.0 945.4 L 137.7 948.6 L 133.0 951.6 L 126.9 954.6 L 120.1 957.4 L 113.7 959.1 L 107.7 959.8 L 100.7 960.0 L 94.9 959.5 L 89.5 958.8 L 84.0 957.4 L 78.3 955.5 L 73.3 953.3 L 68.2 950.6 L 63.6 947.5 L 59.4 944.1 L 55.5 939.6 L 52.1 934.9 L 48.9 929.7 L 46.7 925.0 L 44.7 919.9 L 42.5 913.8 L 41.1 907.5 L 40.3 901.9 L 40.0 895.3 L 40.3 890.0 L 41.2 884.1 L 42.8 878.2 L 45.6 870.5 L 66.0 827.3 L 77.9 802.0 L 106.7 738.0 L 140.9 670.1 L 155.8 643.6 L 186.3 588.4 L 344.7 338.2 L 365.0 313.6 L 384.2 288.1 L 441.3 217.8 L 510.3 142.9 L 531.2 122.4 L 603.6 48.6 L 607.8 44.7 L 611.4 42.2 L 614.9 40.8 L 617.9 40.0 L 621.3 40.0 L 624.6 40.8 L 630.3 43.1 L 655.9 57.0 L 666.6 62.9 L 700.0 83.9 L 754.0 117.9 L 777.8 132.9 L 794.3 144.8 L 800.7 150.3 L 805.0 154.8 L 807.7 158.1 L 809.7 161.2 L 811.0 164.0 L 811.7 167.5 L 812.3 172.3 L 812.2 176.7 L 811.6 181.9 L 809.9 189.0 L 808.5 193.2 L 806.3 197.9 L 798.0 211.4 L 785.7 231.1 L 752.8 284.6 L 720.1 336.3 L 651.0 445.7 L 597.8 527.2 L 586.5 544.4 L 583.2 548.7 L 579.8 552.4 L 575.6 556.4 L 570.9 559.9 L 565.3 563.1 L 559.6 565.8 L 552.9 567.8 L 545.7 569.0 L 537.9 569.5 L 530.3 568.9 L 522.2 567.8 L 513.7 565.5 L 506.5 562.6 L 500.0 558.9 L 494.4 554.5 L 489.2 548.8 L 483.8 542.3 L 479.6 535.7 L 476.6 529.3 L 474.8 522.3 L 474.0 515.3 L 473.7 509.1 L 473.7 502.5 L 474.5 495.4 L 475.9 488.5 L 478.5 481.1 L 481.9 474.8 L 485.7 469.9 L 492.9 461.4 L 653.6 266.1 L 653.6 266.1 Z" fill="none" stroke="currentColor" stroke-width="10" stroke-linejoin="round" stroke-linecap="round"/></svg>