<svg xmlns="http://www.w3.org/2000/svg" viewBox="0 0 1000 1000" role="img" aria-label="TT Circuit Assen track outline"><path d="M507.5,383.3 L 508.4,357.2 L 509.4,344.9 L 511.4,339.4 L 514.6,335.9 L 519.4,333.9 L 536.6,331.4 L 542.7,327.8 L 548.3,319.1 L 561.6,293.3 L 570.8,280.8 L 590.7,262.1 L 785.9,104.6 L 824.5,73.5 L 845.1,57.1 L 850.0,53.8 L 854.2,51.7 L 857.8,50.8 L 861.4,50.7 L 865.2,51.7 L 871.1,54.9 L 891.0,70.0 L 926.6,99.1 L 931.6,103.1 L 939.8,109.5 L 943.4,113.3 L 946.4,118.1 L 947.8,122.2 L 948.4,126.8 L 949.2,134.7 L 950.0,140.0 L 955.4,184.4 L 957.4,203.8 L 960.0,224.5 L 959.2,230.0 L 957.9,234.0 L 956.7,237.2 L 954.1,241.8 L 951.6,245.5 L 948.5,248.7 L 945.0,251.6 L 941.7,253.9 L 937.9,256.0 L 934.6,257.3 L 931.2,258.3 L 926.5,259.1 L 921.0,259.1 L 916.7,258.6 L 912.1,257.4 L 902.2,253.6 L 894.5,250.3 L 889.3,247.9 L 886.0,245.8 L 883.0,243.6 L 879.5,239.9 L 877.2,236.4 L 875.3,233.0 L 873.8,230.0 L 872.0,225.4 L 871.0,221.9 L 870.6,217.5 L 870.3,213.0 L 871.4,207.2 L 872.8,202.8 L 877.3,194.2 L 883.8,184.1 L 895.2,165.0 L 896.4,160.5 L 897.0,156.5 L 896.9,152.9 L 895.9,148.5 L 894.9,145.3 L 893.5,142.1 L 892.3,139.9 L 890.1,137.2 L 887.9,135.3 L 885.0,134.0 L 881.8,133.2 L 878.0,133.4 L 874.5,134.5 L 871.9,136.2 L 869.1,138.7 L 865.5,142.8 L 862.2,147.3 L 850.1,168.0 L 837.2,194.2 L 822.8,240.5 L 810.8,263.0 L 771.9,323.7 L 723.8,397.6 L 709.0,417.7 L 663.7,476.7 L 636.9,512.4 L 624.3,529.0 L 590.6,574.6 L 584.0,579.0 L 575.9,580.5 L 553.1,582.2 L 538.0,586.2 L 521.4,596.7 L 509.3,607.4 L 499.7,621.5 L 493.2,639.7 L 491.0,674.6 L 488.3,725.3 L 486.8,758.4 L 484.7,771.7 L 482.8,777.4 L 479.8,782.7 L 475.0,788.5 L 470.5,792.2 L 464.3,796.7 L 457.8,800.0 L 452.0,801.7 L 446.2,802.5 L 434.5,802.4 L 414.7,800.8 L 382.0,798.2 L 364.1,798.7 L 311.2,805.4 L 285.4,806.3 L 217.4,805.7 L 200.2,805.6 L 188.4,806.3 L 175.8,810.3 L 167.1,818.3 L 162.4,828.3 L 159.5,843.2 L 143.6,924.9 L 140.7,931.4 L 137.2,937.2 L 131.9,942.4 L 126.6,945.8 L 121.9,948.0 L 116.8,948.9 L 110.3,949.3 L 104.0,948.7 L 92.1,943.6 L 71.8,930.5 L 59.9,921.3 L 51.9,911.6 L 45.5,900.4 L 41.6,886.8 L 40.0,872.8 L 42.0,855.3 L 47.1,842.6 L 60.5,820.8 L 117.0,732.3 L 122.5,724.1 L 127.5,717.0 L 133.0,711.4 L 139.9,706.5 L 148.6,702.5 L 313.2,626.3 L 320.0,623.5 L 331.8,621.5 L 383.1,615.1 L 394.5,611.8 L 407.4,605.6 L 465.9,573.0 L 476.1,564.2 L 482.9,556.0 L 495.7,533.3 L 500.8,515.5 L 503.0,497.2 L 503.6,477.4 L 504.5,436.0 L 505.8,414.1 L 507.5,383.3 Z" fill="none" stroke="currentColor" stroke-width="10" stroke-linejoin="round" stroke-linecap="round"/></svg>