<svg xmlns="http://www.w3.org/2000/svg" viewBox="0 0 1000 1000" role="img" aria-label="AVUS track outline"><path d="M 40.0 597.7 L 103.3 507.2 L 157.9 439.5 L 168.7 426.1 L 243.9 354.4 L 352.2 265.1 L 447.3 213.5 L 537.1 180.3 L 597.4 172.8 L 651.2 177.4 L 719.1 187.6 L 788.3 217.3 L 841.5 249.4 L 907.0 315.7 L 930.9 358.2 L 949.0 406.5 L 960.0 458.6 L 958.0 510.2 L 947.0 555.7 L 933.1 596.1 L 903.7 638.5 L 865.8 672.0 L 803.9 708.1 L 737.9 731.6 L 644.5 756.5 L 639.4 792.8 L 376.1 816.6 L 377.2 826.4 L 368.8 827.2 L 367.2 805.6 L 365.3 780.2 L 647.7 714.3 L 707.0 693.7 L 766.2 668.5 L 806.9 643.4 L 839.0 613.3 L 868.5 570.9 L 888.5 529.0 L 895.9 501.0 L 899.0 465.7 L 891.2 430.9 L 878.6 400.5 L 865.9 379.2 L 852.0 357.2 L 833.9 333.3 L 794.1 297.0 L 745.5 268.0 L 695.6 250.9 L 642.7 244.6 L 590.3 245.0 L 515.9 261.7 L 478.8 277.0 L 418.5 307.3 L 335.6 371.0 L 164.5 502.2 L 137.9 522.6 L 63.0 574.5 L 40.0 597.7 Z" fill="none" stroke="currentColor" stroke-width="10" stroke-linejoin="round" stroke-linecap="round"/></svg>