<svg xmlns="http://www.w3.org/2000/svg" viewBox="0 0 1000 1000" role="img" aria-label="Bahrain International Circuit track outline"><path d="M 713.3 448.5 L 715.3 446.6 L 717.0 444.3 L 718.2 441.8 L 718.9 439.2 L 719.2 436.1 L 718.9 432.9 L 717.9 429.9 L 716.8 426.0 L 714.5 418.5 L 711.8 404.7 L 709.8 392.7 L 708.4 380.6 L 707.9 372.2 L 707.7 369.2 L 707.6 357.9 L 708.0 349.2 L 708.2 330.9 L 707.9 325.9 L 707.6 320.3 L 706.8 316.3 L 705.3 312.5 L 703.3 308.9 L 700.8 305.7 L 698.0 303.1 L 694.8 300.9 L 691.3 299.2 L 687.6 298.0 L 683.7 297.4 L 666.5 295.8 L 661.8 302.6 L 656.9 311.1 L 652.7 320.0 L 645.2 338.0 L 642.5 344.0 L 640.4 347.8 L 637.2 352.2 L 633.4 356.2 L 629.1 359.7 L 624.1 362.9 L 618.6 365.3 L 612.9 367.0 L 607.0 368.0 L 601.1 368.1 L 595.3 367.5 L 568.3 362.9 L 562.8 361.8 L 556.0 361.0 L 547.8 361.2 L 540.6 362.4 L 535.5 363.9 L 530.6 366.0 L 526.0 368.6 L 520.1 372.9 L 514.6 377.6 L 509.5 382.7 L 504.9 388.3 L 423.0 495.0 L 420.8 497.3 L 418.1 499.1 L 415.1 500.3 L 411.9 500.9 L 408.6 500.7 L 405.5 499.9 L 402.6 498.5 L 400.1 496.4 L 398.1 494.0 L 396.7 491.1 L 395.8 488.0 L 394.7 482.7 L 394.0 477.4 L 393.7 471.9 L 393.9 465.7 L 394.7 459.6 L 413.1 344.8 L 427.5 253.8 L 428.1 248.0 L 428.2 242.1 L 427.7 236.3 L 426.6 230.6 L 425.1 225.6 L 423.2 220.8 L 421.0 216.2 L 418.3 211.8 L 412.0 204.3 L 405.1 197.4 L 400.0 192.9 L 394.8 188.8 L 389.3 184.9 L 377.0 175.3 L 375.5 174.4 L 373.7 173.9 L 372.0 173.9 L 370.2 174.5 L 368.5 175.6 L 367.2 177.3 L 366.6 179.3 L 360.4 223.8 L 355.4 261.7 L 353.1 284.9 L 351.3 308.1 L 350.0 336.5 L 346.0 449.2 L 341.3 563.0 L 336.7 676.8 L 335.9 697.0 L 335.9 701.7 L 336.0 706.4 L 336.9 711.0 L 338.4 715.5 L 340.3 719.1 L 342.7 722.5 L 345.4 725.6 L 348.6 728.2 L 353.5 730.8 L 359.5 732.2 L 365.7 733.3 L 371.8 734.0 L 377.9 734.3 L 382.1 734.2 L 390.1 733.7 L 397.8 732.5 L 405.4 730.6 L 412.9 728.2 L 420.8 724.9 L 428.5 720.9 L 435.7 716.3 L 442.5 711.1 L 449.1 705.2 L 455.3 698.9 L 461.0 692.2 L 465.6 686.0 L 469.9 679.5 L 473.7 672.7 L 477.2 665.7 L 481.0 656.4 L 484.2 647.0 L 495.7 615.5 L 499.2 608.6 L 503.2 601.9 L 507.8 595.7 L 512.9 589.8 L 518.0 584.8 L 523.5 580.2 L 529.4 576.0 L 535.6 572.3 L 542.0 569.1 L 548.6 566.4 L 555.4 564.2 L 562.3 562.4 L 569.3 561.2 L 576.8 560.5 L 584.2 560.4 L 591.6 560.8 L 599.0 561.9 L 607.5 563.9 L 615.8 566.6 L 622.5 569.3 L 628.9 572.4 L 640.0 578.3 L 685.7 600.6 L 691.8 603.4 L 697.7 606.8 L 703.3 610.7 L 708.5 615.0 L 713.3 619.8 L 717.3 624.6 L 720.9 629.6 L 724.1 634.9 L 726.8 640.5 L 728.6 644.1 L 729.8 648.0 L 730.4 652.0 L 730.3 656.1 L 729.6 660.0 L 728.3 663.8 L 726.5 667.4 L 724.1 670.6 L 720.9 674.0 L 714.8 680.0 L 708.2 685.4 L 703.0 689.0 L 697.6 692.2 L 684.0 699.8 L 579.1 758.7 L 558.1 770.5 L 485.4 811.4 L 382.0 869.5 L 242.4 947.7 L 224.4 957.8 L 221.2 959.2 L 217.7 960.0 L 214.1 960.0 L 210.6 959.3 L 207.6 958.1 L 204.8 956.3 L 202.5 954.0 L 200.6 951.3 L 186.2 919.7 L 183.7 913.2 L 181.7 906.5 L 180.2 899.7 L 179.3 892.7 L 178.8 885.8 L 178.9 878.8 L 179.6 871.8 L 180.5 847.4 L 183.6 758.2 L 183.8 755.6 L 207.0 165.7 L 209.3 111.2 L 211.7 52.0 L 211.8 49.4 L 212.3 46.8 L 213.4 44.5 L 215.1 42.5 L 217.3 41.0 L 219.6 40.2 L 222.1 40.0 L 224.6 40.4 L 226.8 41.5 L 228.8 43.1 L 232.3 46.1 L 270.0 82.5 L 272.3 84.3 L 274.8 85.8 L 277.6 86.8 L 280.4 87.3 L 283.9 87.3 L 287.3 86.7 L 290.5 85.4 L 343.6 67.4 L 350.5 65.9 L 357.5 65.0 L 364.5 64.6 L 372.4 64.8 L 380.3 65.8 L 384.7 66.8 L 410.4 71.8 L 530.1 94.6 L 655.7 118.0 L 701.6 126.8 L 785.8 143.2 L 788.4 143.8 L 790.9 145.0 L 793.0 146.7 L 794.7 148.8 L 796.0 151.1 L 796.7 153.7 L 796.9 156.4 L 796.4 164.6 L 795.6 169.9 L 794.2 175.2 L 791.9 180.9 L 789.0 186.3 L 785.6 190.5 L 780.1 195.7 L 763.0 227.3 L 760.7 232.3 L 759.0 237.6 L 758.0 243.1 L 757.8 248.6 L 758.2 254.4 L 759.5 260.1 L 761.5 265.6 L 764.2 270.8 L 806.0 350.2 L 809.7 357.2 L 812.9 364.4 L 815.6 371.9 L 818.0 380.3 L 819.7 388.9 L 820.8 397.6 L 821.2 406.4 L 820.8 415.1 L 819.9 423.8 L 818.2 432.4 L 815.9 440.9 L 813.3 447.9 L 809.5 456.8 L 805.5 464.3 L 800.9 471.4 L 795.9 478.2 L 782.8 492.0 L 780.5 494.3 L 778.6 496.9 L 777.2 499.9 L 776.2 503.0 L 775.7 506.6 L 775.9 510.2 L 776.8 513.8 L 778.2 517.1 L 790.1 537.1 L 792.3 540.4 L 793.8 544.0 L 794.6 547.9 L 794.7 551.2 L 794.3 554.5 L 793.3 557.7 L 791.9 560.6 L 773.9 588.8 L 772.0 590.8 L 769.7 592.3 L 767.1 593.3 L 764.4 593.7 L 761.6 593.6 L 758.9 592.8 L 756.5 591.5 L 754.4 589.7 L 749.2 582.8 L 742.9 573.4 L 738.0 566.6 L 732.7 560.0 L 727.0 553.8 L 721.3 548.3 L 715.4 543.1 L 708.2 537.5 L 700.7 532.5 L 695.6 529.6 L 690.5 526.9 L 686.9 525.5 L 683.6 523.6 L 681.1 521.9 L 678.7 519.9 L 676.2 517.1 L 674.2 513.9 L 672.7 510.5 L 671.7 506.8 L 671.3 502.8 L 671.5 498.7 L 672.8 494.6 L 674.6 490.6 L 676.8 486.9 L 679.9 482.7 L 683.6 478.9 L 696.6 465.8 L 713.3 448.5 L 678.9 458.1 L 669.1 462.3 L 659.5 467.0 L 650.2 472.3 L 641.2 478.0 L 632.7 484.0 L 624.5 490.5 L 616.6 497.4 L 560.5 547.0 L 554.9 552.4 L 549.8 558.2 L 545.7 563.5 L 542.0 569.1" fill="none" stroke="currentColor" stroke-width="10" stroke-linejoin="round" stroke-linecap="round"/></svg>