<svg xmlns="http://www.w3.org/2000/svg" viewBox="0 0 1000 1000" role="img" aria-label="Bahrain International Circuit track outline"><path d="M 589.5,663.8 L 587.6,667.4 L 585.2,670.6 L 582.0,674.0 L 575.9,680.0 L 569.3,685.4 L 564.1,689.0 L 558.7,692.2 L 545.1,699.8 L 440.2,758.7 L 419.3,770.5 L 346.5,811.4 L 243.2,869.5 L 103.5,947.7 L 85.6,957.8 L 82.3,959.2 L 78.8,960.0 L 75.2,960.0 L 71.7,959.3 L 68.7,958.1 L 66.0,956.3 L 63.6,954.0 L 61.7,951.3 L 47.4,919.7 L 44.9,913.2 L 42.9,906.5 L 41.4,899.7 L 40.4,892.7 L 40.0,885.8 L 40.1,878.8 L 40.7,871.8 L 41.6,847.4 L 44.8,758.2 L 44.9,755.6 L 68.1,165.7 L 70.4,111.2 L 72.9,52.0 L 72.9,49.4 L 73.4,46.8 L 74.5,44.5 L 76.2,42.5 L 78.4,41.0 L 80.8,40.2 L 83.3,40.0 L 85.7,40.4 L 88.0,41.5 L 89.9,43.1 L 93.5,46.1 L 131.1,82.5 L 133.4,84.3 L 136.0,85.8 L 138.7,86.8 L 141.6,87.3 L 145.0,87.3 L 148.4,86.7 L 151.6,85.4 L 204.8,67.4 L 211.7,65.9 L 218.6,65.0 L 225.7,64.6 L 233.6,64.8 L 241.5,65.8 L 245.8,66.8 L 271.5,71.8 L 391.3,94.6 L 516.8,118.0 L 562.7,126.8 L 647.0,143.2 L 649.6,143.8 L 652.0,145.0 L 654.1,146.7 L 655.9,148.8 L 657.1,151.1 L 657.9,153.7 L 658.1,156.4 L 657.6,164.6 L 656.8,169.9 L 655.4,175.2 L 653.1,180.9 L 650.1,186.3 L 646.8,190.5 L 641.2,195.7 L 628.1,203.5 L 618.0,210.2 L 608.0,217.6 L 598.6,225.6 L 589.5,233.4 L 576.7,244.8 L 564.2,256.6 L 551.1,269.7 L 538.3,283.3 L 532.7,289.4 L 527.6,295.8 L 523.0,302.6 L 518.0,311.1 L 513.8,320.0 L 506.4,338.0 L 503.7,344.0 L 501.6,347.8 L 498.3,352.2 L 494.5,356.2 L 490.3,359.7 L 485.2,362.9 L 479.8,365.3 L 474.1,367.0 L 468.2,368.0 L 462.2,368.1 L 456.4,367.5 L 429.5,362.9 L 423.9,361.8 L 417.1,361.0 L 409.0,361.2 L 401.7,362.4 L 396.6,363.9 L 391.7,366.0 L 387.1,368.6 L 381.2,372.9 L 375.8,377.6 L 370.7,382.7 L 366.0,388.3 L 284.2,495.0 L 281.9,497.3 L 279.2,499.1 L 276.2,500.3 L 273.0,500.9 L 269.8,500.7 L 266.6,499.9 L 263.8,498.5 L 261.3,496.4 L 259.3,494.0 L 257.8,491.1 L 257.0,488.0 L 255.8,482.7 L 255.1,477.4 L 254.8,471.9 L 255.1,465.7 L 255.9,459.6 L 274.3,344.8 L 288.6,253.8 L 289.3,248.0 L 289.3,242.1 L 288.8,236.3 L 287.7,230.6 L 286.3,225.6 L 284.4,220.8 L 282.1,216.2 L 279.4,211.8 L 273.1,204.3 L 266.2,197.4 L 261.2,192.9 L 255.9,188.8 L 250.4,184.9 L 238.2,175.3 L 236.6,174.4 L 234.9,173.9 L 233.1,173.9 L 231.4,174.5 L 229.7,175.6 L 228.4,177.3 L 227.7,179.3 L 221.5,223.8 L 216.5,261.7 L 214.2,284.9 L 212.5,308.1 L 211.1,336.5 L 207.2,449.2 L 202.5,563.0 L 197.8,676.8 L 197.1,697.0 L 197.0,701.7 L 197.2,706.4 L 198.0,711.0 L 199.5,715.5 L 201.4,719.1 L 203.8,722.5 L 206.6,725.6 L 209.8,728.2 L 214.7,730.8 L 220.7,732.2 L 226.8,733.3 L 233.0,734.0 L 239.1,734.3 L 243.2,734.2 L 251.2,733.7 L 259.0,732.5 L 266.6,730.6 L 274.1,728.2 L 282.0,724.9 L 289.6,720.9 L 296.9,716.3 L 303.7,711.1 L 310.3,705.2 L 316.4,698.9 L 322.1,692.2 L 326.8,686.0 L 331.0,679.5 L 334.9,672.7 L 338.3,665.7 L 342.2,656.4 L 345.4,647.0 L 356.8,615.5 L 360.3,608.6 L 364.4,601.9 L 369.0,595.7 L 374.0,589.8 L 379.2,584.8 L 384.7,580.2 L 390.6,576.0 L 396.7,572.3 L 403.1,569.1 L 409.7,566.4 L 416.5,564.2 L 423.4,562.4 L 430.5,561.2 L 437.9,560.5 L 445.4,560.4 L 452.8,560.8 L 460.2,561.9 L 468.7,563.9 L 477.0,566.6 L 483.6,569.3 L 490.1,572.4 L 501.2,578.3 L 546.8,600.6 L 553.0,603.4 L 558.9,606.8 L 564.5,610.7 L 569.7,615.0 L 574.5,619.8 L 578.5,624.6 L 582.1,629.6 L 585.2,634.9 L 588.0,640.5 L 589.8,644.1 L 591.0,648.0 L 591.5,652.0 L 591.5,656.1 L 590.8,660.0 L 589.5,663.8 Z" fill="none" stroke="currentColor" stroke-width="10" stroke-linejoin="round" stroke-linecap="round"/></svg>