<svg xmlns="http://www.w3.org/2000/svg" viewBox="0 0 1000 1000" role="img" aria-label="Baku City Circuit track outline"><path d="M 40.0 318.6 L 40.0 335.3 L 53.7 346.0 L 69.1 357.3 L 74.5 373.9 L 66.2 391.2 L 51.9 398.9 L 49.5 412.0 L 55.5 425.7 L 71.5 432.2 L 116.1 432.2 L 150.0 442.3 L 173.8 459.6 L 190.4 491.1 L 189.9 506.0 L 172.6 522.6 L 120.3 541.6 L 105.4 548.8 L 101.8 572.0 L 116.7 582.1 L 168.5 573.1 L 329.0 549.4 L 337.3 539.8 L 332.6 525.0 L 314.8 511.9 L 314.1 494.7 L 326.1 481.6 L 343.9 485.7 L 361.1 507.1 L 396.2 542.2 L 414.7 548.8 L 433.7 541.6 L 448.6 523.8 L 442.6 509.5 L 424.8 493.5 L 404.5 482.2 L 384.3 472.0 L 365.9 460.7 L 368.9 441.7 L 390.3 432.2 L 416.4 433.4 L 439.0 454.8 L 455.1 480.4 L 480.1 490.5 L 517.5 491.1 L 541.9 500.0 L 536.0 535.1 L 536.0 565.4 L 566.9 592.8 L 605.6 597.5 L 805.4 624.3 L 844.0 635.6 L 893.4 665.3 L 912.4 690.3 L 931.4 697.4 L 949.3 687.9 L 960.0 670.1 L 955.2 636.2 L 935.0 592.2 L 912.4 561.3 L 876.2 541.6 L 825.6 524.4 L 794.7 524.4 L 763.8 538.1 L 730.4 558.3 L 695.9 561.9 L 666.8 542.2 L 647.8 512.5 L 628.7 480.4 L 600.2 456.6 L 345.7 385.2 L 323.7 384.6 L 313.0 404.3 L 315.9 426.9 L 310.0 445.9 L 298.7 455.4 L 277.9 464.3 L 252.3 456.0 L 232.1 426.9 L 176.8 354.3 L 154.8 334.1 L 120.9 316.8 L 88.7 306.7 L 58.4 302.6 L 40.0 318.6 Z" fill="none" stroke="currentColor" stroke-width="10" stroke-linejoin="round" stroke-linecap="round"/></svg>