<svg xmlns="http://www.w3.org/2000/svg" viewBox="0 0 1000 1000" role="img" aria-label="Baku City Circuit track outline"><path d="M 246.3,404.6 L 248.3,404.6 L 250.2,404.5 L 257.0,404.0 L 258.7,403.9 L 260.2,404.0 L 261.4,404.2 L 262.6,404.6 L 263.9,405.4 L 273.0,410.6 L 273.9,410.8 L 275.0,410.7 L 277.4,410.1 L 278.9,409.6 L 280.5,409.4 L 281.9,409.5 L 283.3,410.2 L 284.1,411.0 L 284.7,412.2 L 310.9,489.8 L 311.4,491.3 L 312.1,492.7 L 312.4,493.1 L 312.9,493.8 L 314.3,495.0 L 315.6,495.8 L 319.7,497.4 L 320.0,496.6 L 320.6,495.5 L 321.6,494.0 L 323.0,492.3 L 324.7,490.6 L 327.1,488.4 L 329.5,486.4 L 339.1,479.1 L 346.0,473.9 L 392.4,438.3 L 427.9,410.6 L 451.1,393.0 L 452.4,391.7 L 453.3,390.2 L 454.0,388.5 L 454.4,386.3 L 454.2,384.5 L 449.8,369.9 L 449.4,368.5 L 449.2,366.4 L 449.3,364.9 L 449.7,363.0 L 450.6,361.2 L 452.4,358.8 L 455.4,355.8 L 459.3,352.5 L 464.6,349.0 L 468.2,346.7 L 507.7,322.8 L 511.4,321.0 L 514.4,319.7 L 531.8,312.4 L 536.3,310.4 L 554.4,302.6 L 558.4,300.9 L 579.6,291.0 L 576.4,283.7 L 556.0,236.3 L 554.8,233.0 L 554.0,231.1 L 553.5,229.9 L 552.6,227.3 L 542.0,197.7 L 540.9,194.4 L 546.0,192.2 L 639.3,149.4 L 641.8,148.3 L 646.1,146.3 L 650.2,144.6 L 749.4,99.5 L 753.7,97.6 L 756.8,96.3 L 770.8,90.8 L 820.3,70.5 L 822.6,69.6 L 823.3,69.4 L 825.3,68.5 L 832.0,65.7 L 873.5,50.1 L 894.6,41.7 L 899.5,40.0 L 901.3,44.0 L 909.5,63.5 L 912.6,71.0 L 914.4,74.7 L 916.7,79.6 L 917.2,80.6 L 920.1,87.0 L 939.7,127.6 L 940.2,128.7 L 945.3,140.0 L 950.0,151.3 L 950.8,153.0 L 953.4,158.2 L 958.2,170.9 L 959.1,173.5 L 959.8,176.2 L 960.0,178.8 L 959.6,180.7 L 958.6,182.3 L 874.2,218.4 L 828.4,238.0 L 817.1,242.9 L 788.6,255.0 L 785.2,256.6 L 782.8,257.6 L 767.1,264.1 L 750.3,271.3 L 715.7,286.0 L 713.3,287.0 L 710.7,288.1 L 668.9,305.8 L 598.7,336.3 L 596.0,337.4 L 587.3,341.1 L 494.9,380.5 L 456.3,398.1 L 450.0,401.3 L 443.6,405.4 L 434.1,412.1 L 360.1,469.5 L 349.2,478.0 L 331.9,491.0 L 330.2,492.4 L 328.0,494.4 L 327.0,495.4 L 326.3,496.3 L 325.4,497.6 L 324.7,499.1 L 324.1,500.5 L 323.5,502.3 L 322.8,504.4 L 322.2,506.8 L 321.8,508.7 L 320.8,513.7 L 312.9,559.4 L 311.5,563.5 L 310.0,566.3 L 305.8,570.9 L 233.5,637.4 L 231.5,639.8 L 229.9,642.1 L 210.5,680.0 L 202.5,699.3 L 199.7,706.1 L 196.4,710.3 L 192.9,713.0 L 192.2,713.3 L 189.3,714.6 L 187.1,715.2 L 184.3,715.5 L 180.9,715.5 L 178.2,714.8 L 175.0,713.5 L 125.2,690.5 L 78.7,666.5 L 48.8,651.1 L 47.3,650.4 L 46.9,649.9 L 46.5,649.5 L 46.3,649.1 L 46.1,648.5 L 45.9,647.6 L 45.8,646.3 L 44.6,623.5 L 41.8,583.2 L 40.5,558.3 L 40.1,552.5 L 40.0,548.4 L 40.1,544.4 L 40.6,540.1 L 41.2,537.5 L 41.9,534.9 L 42.7,532.1 L 46.8,519.0 L 56.0,488.3 L 58.6,479.4 L 63.7,462.1 L 64.6,459.6 L 65.8,457.3 L 67.3,454.5 L 69.1,452.2 L 69.9,451.2 L 71.6,449.4 L 74.4,447.0 L 77.2,444.9 L 95.7,433.6 L 120.5,418.7 L 130.0,414.2 L 153.5,402.8 L 177.3,392.0 L 182.0,390.0 L 182.8,389.6 L 183.8,389.3 L 184.6,389.2 L 185.5,389.1 L 186.8,389.3 L 187.4,389.3 L 188.0,389.2 L 189.4,388.7 L 190.4,388.4 L 224.8,376.9 L 226.3,376.7 L 227.6,377.2 L 228.5,377.9 L 229.3,378.9 L 229.7,380.0 L 236.2,401.0 L 236.8,402.3 L 237.4,403.2 L 238.2,403.7 L 239.9,404.4 L 240.4,404.5 L 241.2,404.6 L 246.3,404.6 Z" fill="none" stroke="currentColor" stroke-width="10" stroke-linejoin="round" stroke-linecap="round"/></svg>