<svg xmlns="http://www.w3.org/2000/svg" viewBox="0 0 1000 1000" role="img" aria-label="Balaton Park Circuit track outline"><path d="M153.4,672.1 L 159.9,666.2 L 164.3,658.7 L 178.2,631.8 L 393.3,215.5 L 396.4,207.8 L 398.0,201.3 L 398.1,193.9 L 389.8,142.8 L 390.1,136.4 L 392.0,131.6 L 394.4,127.8 L 396.5,124.9 L 400.2,121.9 L 405.3,119.7 L 475.9,108.5 L 482.2,108.7 L 489.2,110.8 L 495.2,114.3 L 500.7,118.3 L 541.3,156.6 L 543.8,159.7 L 546.0,162.5 L 548.0,167.8 L 548.4,174.0 L 546.7,180.2 L 540.0,192.8 L 538.8,198.1 L 538.8,203.2 L 540.5,209.4 L 544.5,214.0 L 690.7,291.6 L 715.5,307.2 L 743.0,327.6 L 770.0,350.7 L 795.3,376.8 L 817.1,402.9 L 834.4,426.7 L 845.2,443.7 L 845.9,445.0 L 852.9,457.0 L 854.2,459.3 L 867.0,484.6 L 883.1,523.7 L 893.4,558.6 L 894.5,562.1 L 895.2,564.5 L 896.8,569.8 L 897.3,571.5 L 959.4,853.7 L 960.0,863.3 L 958.4,871.5 L 953.8,879.7 L 947.3,885.9 L 937.4,890.6 L 927.5,891.5 L 919.0,889.6 L 911.6,884.4 L 905.7,877.8 L 902.0,867.7 L 888.8,765.4 L 886.5,758.9 L 881.6,753.8 L 875.4,750.4 L 869.1,750.1 L 860.5,753.1 L 852.8,754.7 L 846.8,753.2 L 841.9,750.0 L 838.2,746.3 L 836.1,741.6 L 747.8,415.9 L 738.7,396.4 L 722.8,375.8 L 705.5,359.2 L 685.9,346.0 L 662.2,336.9 L 639.6,332.6 L 617.5,331.9 L 525.6,344.5 L 514.4,344.4 L 503.6,342.2 L 497.2,338.5 L 490.7,332.6 L 458.8,297.4 L 451.9,293.8 L 444.3,292.5 L 436.1,294.1 L 429.7,297.6 L 425.3,302.8 L 221.5,697.4 L 193.1,752.2 L 185.5,762.6 L 175.7,771.5 L 164.2,777.4 L 150.2,780.4 L 136.6,779.8 L 124.1,776.4 L 111.9,769.5 L 104.0,761.6 L 51.9,694.1 L 45.9,682.9 L 41.8,669.3 L 40.0,653.8 L 41.6,638.1 L 45.2,625.1 L 51.3,612.6 L 70.2,573.8 L 75.2,567.5 L 82.9,562.4 L 91.4,560.2 L 101.6,560.5 L 110.0,563.8 L 117.5,570.3 L 122.9,578.2 L 124.6,586.7 L 125.4,651.4 L 126.5,663.4 L 130.5,670.4 L 137.3,674.1 L 145.9,674.4 L 153.4,672.1 Z" fill="none" stroke="currentColor" stroke-width="10" stroke-linejoin="round" stroke-linecap="round"/></svg>