<svg xmlns="http://www.w3.org/2000/svg" viewBox="0 0 1000 1000" role="img" aria-label="Brands Hatch track outline"><path d="M 225.4 302.4 L 229.9 329.2 L 234.3 335.8 L 242.0 343.4 L 249.1 349.1 L 258.7 354.4 L 270.5 358.4 L 345.0 376.1 L 423.1 394.3 L 448.7 401.2 L 461.3 405.4 L 471.6 409.7 L 503.1 424.9 L 619.8 481.9 L 669.5 505.4 L 746.2 542.6 L 781.6 559.7 L 843.9 590.5 L 858.8 599.0 L 869.7 606.9 L 884.3 620.5 L 896.7 636.2 L 904.0 649.9 L 908.4 664.4 L 910.5 679.6 L 910.8 693.8 L 909.4 705.7 L 904.6 724.4 L 889.1 767.2 L 864.8 834.6 L 832.9 919.8 L 828.2 929.5 L 825.9 933.3 L 824.0 936.4 L 817.0 942.7 L 811.1 946.2 L 802.5 948.5 L 775.0 952.1 L 750.9 955.4 L 720.6 959.7 L 702.0 960.0 L 691.9 958.6 L 662.1 948.5 L 615.2 931.7 L 596.2 925.3 L 575.5 916.3 L 560.9 907.3 L 546.0 896.0 L 532.4 883.1 L 520.0 869.3 L 488.0 832.3 L 481.4 823.2 L 479.7 815.1 L 480.3 804.9 L 481.2 767.0 L 482.8 754.0 L 488.9 728.7 L 500.4 676.2 L 510.4 635.9 L 516.2 612.3 L 516.3 599.5 L 514.1 589.9 L 509.4 580.4 L 501.8 572.9 L 495.2 568.4 L 478.4 562.0 L 428.2 543.5 L 326.1 507.1 L 287.2 493.1 L 222.9 469.9 L 140.9 440.5 L 153.6 441.2 L 166.1 438.6 L 177.8 431.8 L 188.7 422.4 L 199.1 410.4 L 207.9 397.9 L 215.6 385.1 L 219.7 376.3 L 223.2 366.3 L 224.8 358.1 L 225.7 339.7 L 225.4 302.4 L 227.7 289.6 L 232.0 278.3 L 239.9 264.8 L 250.2 252.2 L 263.8 241.3 L 288.8 225.9 L 348.7 193.4 L 387.8 174.1 L 401.0 168.7 L 418.0 163.7 L 459.6 152.3 L 510.9 138.6 L 524.0 137.2 L 533.9 139.6 L 542.8 144.9 L 549.4 152.4 L 555.9 166.0 L 561.0 178.4 L 566.0 191.3 L 574.0 212.5 L 574.9 227.4 L 576.4 260.6 L 578.1 308.2 L 579.6 329.8 L 579.9 333.3 L 580.5 336.5 L 581.4 340.0 L 582.4 343.0 L 583.6 345.9 L 585.5 348.6 L 587.6 350.9 L 589.8 353.3 L 592.3 355.5 L 595.1 357.5 L 598.4 359.5 L 602.3 360.8 L 608.0 362.0 L 614.0 362.1 L 616.6 361.9 L 619.2 361.5 L 624.2 359.9 L 629.0 357.2 L 633.9 353.6 L 637.2 350.1 L 638.9 347.7 L 640.2 345.8 L 641.5 343.5 L 642.5 341.3 L 643.7 337.8 L 644.5 334.2 L 645.8 321.0 L 648.3 272.0 L 651.0 215.2 L 649.9 192.8 L 646.5 149.2 L 644.2 126.1 L 640.5 110.6 L 634.0 91.3 L 629.2 80.8 L 623.6 71.6 L 619.3 66.2 L 614.4 61.1 L 610.0 57.0 L 605.5 53.4 L 600.7 50.4 L 595.1 47.9 L 588.6 45.6 L 582.2 43.6 L 570.7 41.2 L 565.7 40.4 L 560.2 40.0 L 546.4 40.1 L 532.0 41.0 L 522.5 42.1 L 512.9 43.6 L 501.7 45.7 L 493.7 47.5 L 486.2 49.4 L 477.9 52.0 L 469.6 54.7 L 461.4 57.8 L 453.2 61.3 L 442.3 65.7 L 431.3 70.9 L 358.9 104.0 L 341.8 112.1 L 306.5 129.1 L 271.9 146.3 L 240.1 163.0 L 212.4 178.8 L 189.6 193.9 L 175.4 203.6 L 161.4 214.0 L 148.3 226.5 L 141.1 233.9 L 134.8 241.4 L 127.6 250.5 L 120.7 260.4 L 111.1 278.7 L 104.0 293.7 L 101.2 299.7 L 99.0 305.7 L 95.3 318.2 L 92.7 327.5 L 91.1 337.3 L 90.0 346.6 L 89.2 356.4 L 89.3 369.6 L 90.3 376.1 L 92.6 387.3 L 99.0 402.0 L 110.2 420.6 L 126.5 434.5 L 140.9 440.5" fill="none" stroke="currentColor" stroke-width="10" stroke-linejoin="round" stroke-linecap="round"/></svg>