<svg xmlns="http://www.w3.org/2000/svg" viewBox="0 0 1000 1000" role="img" aria-label="Brands Hatch track outline"><path d="M 794.8,590.5 L 809.6,599.0 L 820.6,606.9 L 835.2,620.5 L 847.5,636.2 L 854.9,649.9 L 859.2,664.4 L 861.4,679.6 L 861.7,693.8 L 860.3,705.7 L 855.4,724.4 L 840.0,767.2 L 815.6,834.6 L 783.7,919.8 L 779.0,929.5 L 776.7,933.3 L 774.9,936.4 L 767.8,942.7 L 762.0,946.2 L 753.4,948.5 L 725.8,952.1 L 701.8,955.4 L 671.4,959.7 L 652.8,960.0 L 642.7,958.6 L 613.0,948.5 L 566.0,931.7 L 547.1,925.3 L 526.4,916.3 L 511.7,907.3 L 496.9,896.0 L 483.2,883.1 L 470.9,869.3 L 438.8,832.3 L 432.2,823.2 L 430.6,815.1 L 431.1,804.9 L 432.0,767.0 L 433.6,754.0 L 439.8,728.7 L 451.3,676.2 L 461.2,635.9 L 467.0,612.3 L 467.1,599.5 L 464.9,589.9 L 460.3,580.4 L 452.7,572.9 L 446.0,568.4 L 429.3,562.0 L 379.0,543.5 L 277.0,507.1 L 238.1,493.1 L 173.8,469.9 L 91.7,440.5 L 77.4,434.5 L 61.0,420.6 L 49.9,402.0 L 43.5,387.3 L 41.1,376.1 L 40.2,369.6 L 40.0,356.4 L 40.9,346.6 L 42.0,337.3 L 43.6,327.5 L 46.1,318.2 L 49.9,305.7 L 52.0,299.7 L 54.9,293.7 L 62.0,278.7 L 71.6,260.4 L 78.4,250.5 L 85.6,241.4 L 91.9,233.9 L 99.1,226.5 L 112.3,214.0 L 126.3,203.6 L 140.4,193.9 L 163.3,178.8 L 191.0,163.0 L 222.8,146.3 L 257.3,129.1 L 292.6,112.1 L 309.8,104.0 L 382.1,70.9 L 393.2,65.7 L 404.1,61.3 L 412.2,57.8 L 420.4,54.7 L 428.7,52.0 L 437.1,49.4 L 444.6,47.5 L 452.5,45.7 L 463.8,43.6 L 473.3,42.1 L 482.9,41.0 L 497.3,40.1 L 511.0,40.0 L 516.6,40.4 L 521.6,41.2 L 533.1,43.6 L 539.5,45.6 L 545.9,47.9 L 551.5,50.4 L 556.3,53.4 L 560.9,57.0 L 565.3,61.1 L 570.1,66.2 L 574.5,71.6 L 580.0,80.8 L 584.8,91.3 L 591.3,110.6 L 595.1,126.1 L 597.4,149.2 L 600.7,192.8 L 601.8,215.2 L 599.2,272.0 L 596.6,321.0 L 595.3,334.2 L 594.6,337.8 L 593.3,341.3 L 592.3,343.5 L 591.1,345.8 L 589.7,347.7 L 588.1,350.1 L 584.7,353.6 L 579.8,357.2 L 575.0,359.9 L 570.0,361.5 L 567.4,361.9 L 564.8,362.1 L 558.8,362.0 L 553.2,360.8 L 549.3,359.5 L 546.0,357.5 L 543.2,355.5 L 540.7,353.3 L 538.4,350.9 L 536.3,348.6 L 534.4,345.9 L 533.2,343.0 L 532.3,340.0 L 531.4,336.5 L 530.7,333.3 L 530.5,329.8 L 529.0,308.2 L 527.2,260.6 L 525.8,227.4 L 524.8,212.5 L 516.9,191.3 L 511.8,178.4 L 506.8,166.0 L 500.2,152.4 L 493.7,144.9 L 484.7,139.6 L 474.8,137.2 L 461.7,138.6 L 410.4,152.3 L 368.8,163.7 L 351.8,168.7 L 338.6,174.1 L 299.5,193.4 L 239.7,225.9 L 214.7,241.3 L 201.0,252.2 L 190.7,264.8 L 182.9,278.3 L 178.6,289.6 L 176.2,302.4 L 180.7,329.2 L 185.2,335.8 L 192.9,343.4 L 200.0,349.1 L 221.3,358.4 L 295.9,376.1 L 373.9,394.3 L 399.6,401.2 L 412.1,405.4 L 422.4,409.7 L 454.0,424.9 L 570.7,481.9 L 620.4,505.4 L 697.0,542.6 L 732.4,559.7 L 794.8,590.5 Z" fill="none" stroke="currentColor" stroke-width="10" stroke-linejoin="round" stroke-linecap="round"/></svg>