<svg xmlns="http://www.w3.org/2000/svg" viewBox="0 0 1000 1000" role="img" aria-label="Circuit Bremgarten track outline"><path d="M491.0,151.9 L 493.7,147.8 L 547.5,85.4 L 565.7,62.2 L 576.3,48.5 L 612.5,76.7 L 617.8,64.7 L 623.5,56.4 L 627.6,53.0 L 633.8,46.6 L 646.3,43.5 L 653.1,44.5 L 660.8,42.3 L 672.6,40.0 L 681.8,41.7 L 688.9,46.0 L 696.6,53.9 L 698.5,51.0 L 706.3,57.6 L 708.6,60.0 L 706.9,62.1 L 703.7,67.0 L 695.1,81.3 L 694.6,81.7 L 673.8,116.5 L 670.1,123.4 L 666.7,130.5 L 663.6,137.6 L 660.6,145.3 L 658.1,152.8 L 656.0,160.4 L 654.1,167.8 L 652.6,175.4 L 651.5,183.0 L 650.7,189.6 L 648.9,213.8 L 648.0,219.0 L 646.7,224.6 L 673.8,231.2 L 687.4,240.3 L 702.0,280.7 L 705.1,305.1 L 710.3,321.0 L 719.2,354.2 L 678.3,392.5 L 664.0,423.8 L 673.1,459.9 L 701.6,485.1 L 751.2,504.6 L 828.9,461.1 L 866.0,461.1 L 896.6,493.0 L 908.4,553.5 L 887.5,616.5 L 844.5,650.7 L 802.8,655.5 L 775.4,611.1 L 727.2,562.2 L 695.0,554.8 L 663.2,563.7 L 636.5,598.4 L 620.7,628.9 L 611.2,670.4 L 603.3,875.1 L 579.8,926.0 L 556.5,948.6 L 513.7,960.0 L 478.2,948.4 L 458.6,919.0 L 446.9,866.6 L 435.0,814.6 L 394.8,752.4 L 345.2,718.9 L 298.9,703.5 L 252.3,701.0 L 249.4,690.1 L 243.9,679.4 L 218.7,688.3 L 144.7,699.0 L 134.5,696.8 L 103.0,683.6 L 96.9,678.9 L 92.8,672.4 L 91.6,664.4 L 93.6,655.9 L 97.6,654.5 L 107.2,656.8 L 105.8,601.4 L 109.2,581.2 L 124.3,545.6 L 128.5,546.3 L 144.6,541.0 L 145.2,489.9 L 150.2,448.3 L 151.4,419.4 L 170.4,400.8 L 184.6,378.8 L 196.0,353.3 L 214.7,346.2 L 227.6,340.8 L 252.3,329.6 L 259.2,329.1 L 267.1,326.7 L 295.1,319.9 L 316.9,312.8 L 332.2,308.3 L 348.3,304.6 L 361.0,299.0 L 367.5,294.2 L 398.5,283.4 L 406.6,280.0 L 419.2,271.3 L 420.1,272.5 L 450.7,251.5 L 459.7,239.5 L 466.8,226.5 L 470.0,217.9 L 471.8,216.4 L 485.1,161.4 L 491.0,151.9 Z" fill="none" stroke="currentColor" stroke-width="10" stroke-linejoin="round" stroke-linecap="round"/></svg>