<svg xmlns="http://www.w3.org/2000/svg" viewBox="0 0 1000 1000" role="img" aria-label="Circuit Bremgarten track outline"><path d="M107.5,349.4 L 88.6,370.5 L 93.5,403.0 L 87.1,441.6 L 74.5,488.0 L 58.2,523.3 L 40.0,563.4 L 42.8,584.4 L 62.5,601.4 L 97.0,608.5 L 172.2,612.0 L 253.2,614.1 L 335.0,614.1 L 467.2,626.7 L 575.6,635.2 L 679.4,647.3 L 716.4,651.4 L 779.1,660.5 L 794.2,658.8 L 806.4,652.7 L 816.1,636.3 L 819.9,618.9 L 829.1,597.9 L 848.1,586.0 L 876.2,570.3 L 894.6,552.8 L 912.8,529.6 L 926.8,497.9 L 943.1,454.4 L 956.4,418.4 L 960.0,393.0 L 937.5,370.5 L 893.8,361.4 L 850.9,360.7 L 810.0,365.5 L 770.6,397.3 L 758.6,425.3 L 745.3,458.5 L 732.6,499.2 L 714.9,535.2 L 695.2,564.1 L 667.8,575.3 L 624.9,579.5 L 591.1,580.3 L 555.9,583.8 L 471.5,583.8 L 422.9,583.1 L 377.2,569.0 L 339.1,555.6 L 301.1,533.7 L 247.6,504.9 L 225.8,479.5 L 211.8,455.7 L 202.6,437.5 L 187.0,404.9 L 176.5,375.5 L 168.8,359.2 L 153.3,346.6 L 134.3,339.5 L 107.5,349.4 Z" fill="none" stroke="currentColor" stroke-width="10" stroke-linejoin="round" stroke-linecap="round"/></svg>