<svg xmlns="http://www.w3.org/2000/svg" viewBox="0 0 1000 1000" role="img" aria-label="Automotodrom Brno track outline"><path d="M540.0,322.2 L 570.5,314.8 L 652.7,295.8 L 658.6,294.5 L 675.8,290.5 L 682.0,289.5 L 686.9,289.5 L 690.9,289.9 L 695.3,291.0 L 699.5,292.9 L 704.7,297.0 L 707.5,300.2 L 710.5,305.1 L 712.3,309.3 L 713.5,312.6 L 714.0,316.5 L 713.8,320.6 L 713.6,326.6 L 707.2,367.9 L 706.9,369.8 L 704.6,375.0 L 703.7,377.1 L 701.7,379.5 L 698.5,382.5 L 695.7,384.6 L 692.5,386.6 L 690.0,387.5 L 686.3,388.4 L 680.1,388.9 L 649.7,388.0 L 641.6,387.7 L 636.8,388.2 L 633.3,389.1 L 629.4,390.8 L 625.1,393.3 L 622.1,396.0 L 619.0,399.5 L 615.8,404.7 L 614.1,409.7 L 613.1,415.2 L 613.2,421.7 L 614.5,427.3 L 616.8,432.5 L 619.5,437.2 L 622.5,440.0 L 625.0,442.1 L 630.4,445.5 L 711.8,488.9 L 713.6,489.8 L 717.9,491.4 L 720.0,491.7 L 723.0,492.0 L 727.0,491.6 L 729.8,491.1 L 733.2,489.7 L 736.9,487.4 L 739.8,485.1 L 741.5,483.3 L 744.2,479.9 L 746.6,475.2 L 749.2,466.1 L 752.9,452.0 L 755.1,446.6 L 756.8,443.3 L 760.0,439.3 L 764.1,435.7 L 767.7,433.4 L 773.0,431.1 L 777.8,430.2 L 782.3,430.0 L 785.9,430.2 L 791.3,431.6 L 795.8,433.3 L 798.7,435.2 L 802.4,437.9 L 805.1,440.9 L 829.0,475.2 L 946.5,643.2 L 948.2,645.7 L 952.4,652.3 L 955.9,658.2 L 957.7,662.5 L 958.9,665.3 L 959.8,669.7 L 960.0,674.3 L 960.0,677.7 L 959.5,682.4 L 958.5,687.2 L 957.1,690.0 L 955.1,693.9 L 952.5,697.2 L 949.7,700.2 L 945.5,703.7 L 940.2,706.6 L 933.3,709.4 L 926.8,710.5 L 920.6,710.4 L 916.4,709.3 L 911.5,707.5 L 903.6,703.0 L 826.3,659.0 L 802.1,644.9 L 797.6,643.3 L 793.4,642.4 L 789.7,642.4 L 785.6,642.7 L 782.1,643.9 L 777.6,645.8 L 774.9,647.5 L 771.8,650.1 L 768.8,653.6 L 766.7,658.3 L 765.5,661.5 L 761.4,676.2 L 758.0,687.2 L 755.8,690.9 L 752.4,694.1 L 748.9,696.4 L 743.9,698.3 L 739.0,699.3 L 735.3,699.6 L 731.2,699.4 L 727.6,698.5 L 679.7,681.4 L 498.5,616.7 L 477.4,609.1 L 474.6,608.4 L 471.0,607.8 L 466.0,607.8 L 461.8,608.3 L 457.4,609.2 L 454.6,610.6 L 451.7,612.5 L 449.2,615.0 L 447.1,617.4 L 445.2,620.9 L 443.8,624.5 L 441.4,631.8 L 434.4,658.0 L 431.9,667.9 L 430.3,672.1 L 428.2,676.0 L 426.1,678.4 L 422.6,682.0 L 418.5,684.7 L 415.2,686.6 L 411.2,688.3 L 404.4,690.5 L 399.0,691.7 L 395.1,692.4 L 387.9,692.9 L 380.5,692.7 L 375.0,691.8 L 368.9,690.2 L 357.6,685.9 L 286.3,655.0 L 92.0,570.7 L 72.8,562.1 L 64.1,558.5 L 59.1,555.3 L 54.1,550.2 L 46.5,539.4 L 43.6,533.4 L 41.9,528.5 L 40.8,523.6 L 40.2,518.4 L 40.0,511.8 L 40.6,505.1 L 41.8,499.3 L 43.3,493.6 L 45.3,489.8 L 48.4,484.3 L 52.0,479.4 L 55.3,476.0 L 59.7,472.2 L 65.0,468.6 L 70.0,466.2 L 77.3,463.8 L 83.9,462.7 L 88.3,462.3 L 95.9,462.7 L 101.7,463.9 L 108.6,465.8 L 117.1,469.4 L 123.9,472.4 L 134.3,476.6 L 142.1,479.0 L 152.7,481.2 L 163.0,482.7 L 177.7,483.3 L 192.8,482.7 L 413.0,471.8 L 432.9,471.0 L 437.4,470.2 L 441.2,468.9 L 445.9,466.5 L 449.0,463.9 L 450.8,461.9 L 453.5,459.0 L 456.1,454.6 L 458.3,449.0 L 458.8,444.1 L 459.0,439.2 L 458.8,435.6 L 457.7,431.3 L 455.9,426.6 L 443.9,402.0 L 439.8,392.4 L 438.3,388.9 L 435.2,381.6 L 433.7,377.4 L 433.1,371.5 L 433.3,368.5 L 433.9,363.9 L 435.5,358.4 L 437.5,354.2 L 440.6,349.9 L 443.7,346.9 L 447.9,344.1 L 454.3,341.6 L 460.3,340.3 L 490.4,333.5 L 496.0,332.2 L 540.0,322.2 Z" fill="none" stroke="currentColor" stroke-width="10" stroke-linejoin="round" stroke-linecap="round"/></svg>