<svg xmlns="http://www.w3.org/2000/svg" viewBox="0 0 1000 1000" role="img" aria-label="Buddh International Circuit track outline"><path d="M 499.0 567.0 L 533.3 589.1 L 536.0 590.9 L 541.1 593.8 L 544.3 595.1 L 547.4 595.7 L 550.3 595.8 L 553.5 595.4 L 556.7 594.5 L 559.3 593.0 L 577.9 578.7 L 580.1 576.3 L 581.1 574.1 L 582.2 571.2 L 582.5 568.6 L 582.1 565.8 L 579.7 555.2 L 578.3 550.2 L 575.2 541.6 L 573.1 537.0 L 570.9 533.2 L 567.6 528.1 L 549.5 501.2 L 546.3 496.4 L 545.5 495.0 L 545.0 493.7 L 539.9 478.7 L 530.7 451.2 L 521.9 424.6 L 512.9 397.1 L 505.7 376.0 L 482.9 318.8 L 477.5 305.8 L 471.4 289.5 L 463.0 267.2 L 461.0 262.9 L 458.2 257.9 L 454.3 251.5 L 447.7 240.3 L 445.2 235.4 L 440.5 223.9 L 431.5 206.2 L 431.0 203.0 L 430.6 200.1 L 431.3 197.1 L 433.2 194.1 L 434.8 192.7 L 436.5 191.5 L 438.7 190.6 L 441.7 189.8 L 460.1 186.7 L 469.6 184.7 L 477.4 182.6 L 482.5 180.6 L 488.4 177.2 L 494.2 173.3 L 499.9 168.0 L 505.4 162.5 L 511.4 154.2 L 516.1 145.8 L 520.5 137.4 L 524.4 128.3 L 527.4 120.5 L 529.7 112.5 L 531.4 103.2 L 538.0 54.2 L 539.7 46.3 L 540.6 43.9 L 542.8 41.6 L 545.1 40.4 L 547.9 40.0 L 550.1 40.4 L 552.1 41.1 L 553.8 42.2 L 555.0 43.5 L 555.9 45.1 L 556.9 47.5 L 599.7 197.8 L 636.2 325.2 L 670.8 446.8 L 682.7 491.8 L 699.6 552.4 L 711.8 595.3 L 722.1 638.0 L 733.7 685.4 L 735.1 692.2 L 736.8 722.9 L 736.2 725.5 L 734.9 728.1 L 732.6 729.5 L 729.5 730.4 L 727.7 730.4 L 725.1 730.0 L 722.5 729.3 L 719.7 728.1 L 608.9 664.6 L 521.4 614.4 L 480.1 590.6 L 475.3 587.9 L 469.5 585.9 L 464.7 585.4 L 459.8 585.5 L 455.5 586.2 L 451.4 587.5 L 447.4 589.6 L 443.2 593.2 L 434.9 600.9 L 418.5 616.3 L 415.6 619.6 L 413.2 624.1 L 412.2 627.3 L 411.6 631.0 L 412.1 635.4 L 413.6 639.7 L 416.3 643.8 L 420.2 647.8 L 423.0 651.5 L 424.8 655.9 L 425.4 660.2 L 418.8 737.4 L 417.1 747.1 L 414.2 752.8 L 410.0 757.2 L 393.3 765.5 L 386.0 769.9 L 381.4 775.8 L 379.4 780.8 L 378.1 788.2 L 374.8 882.2 L 374.5 889.0 L 373.8 912.8 L 372.7 921.3 L 371.8 925.2 L 370.2 930.8 L 367.2 936.8 L 362.9 943.4 L 357.7 948.3 L 351.7 953.0 L 346.4 955.8 L 340.0 958.1 L 332.7 959.5 L 325.6 960.0 L 321.3 959.5 L 316.6 958.5 L 312.5 957.3 L 308.2 955.5 L 301.6 951.6 L 295.0 946.8 L 287.3 939.5 L 279.6 930.4 L 274.8 922.7 L 270.1 914.0 L 267.4 907.4 L 264.9 899.4 L 263.7 894.0 L 263.2 889.1 L 263.4 883.7 L 264.6 878.0 L 266.8 872.8 L 269.6 868.1 L 274.1 862.9 L 280.0 858.3 L 297.9 843.9 L 302.4 840.3 L 306.4 836.9 L 310.8 832.7 L 313.6 829.3 L 319.8 820.9 L 323.3 815.7 L 327.6 808.3 L 364.5 742.9 L 368.8 734.8 L 371.1 728.8 L 372.0 722.9 L 372.2 717.4 L 371.6 712.2 L 369.6 706.1 L 366.4 699.4 L 338.3 665.7 L 336.8 663.1 L 336.5 660.8 L 343.4 552.7 L 345.2 529.0 L 346.9 522.5 L 351.3 514.7 L 357.4 507.6 L 366.0 502.7 L 375.6 500.8 L 385.4 502.3 L 393.6 506.2 L 494.5 564.5 L 499.0 567.0 L 520.9 578.1 L 538.8 585.8 L 551.6 589.6 L 556.2 589.0 L 560.2 587.2 L 563.2 584.4 L 564.4 581.5 L 565.0 578.3 L 564.9 574.4 L 558.0 553.6 L 534.5 489.1 L 486.7 356.4 L 482.4 344.6 L 479.4 336.7 L 441.0 233.1 L 431.5 206.2" fill="none" stroke="currentColor" stroke-width="10" stroke-linejoin="round" stroke-linecap="round"/></svg>