<svg xmlns="http://www.w3.org/2000/svg" viewBox="0 0 1000 1000" role="img" aria-label="Buddh International Circuit track outline"><path d="M 218.5,189.8 L 236.9,186.7 L 246.4,184.7 L 254.2,182.6 L 259.3,180.6 L 265.1,177.2 L 271.0,173.3 L 276.7,168.0 L 282.2,162.5 L 288.1,154.2 L 292.9,145.8 L 297.2,137.4 L 301.1,128.3 L 304.2,120.5 L 306.5,112.5 L 308.1,103.2 L 314.7,54.2 L 316.5,46.3 L 317.4,43.9 L 319.6,41.6 L 321.9,40.4 L 324.7,40.0 L 326.9,40.4 L 328.8,41.1 L 330.5,42.2 L 331.7,43.5 L 332.7,45.1 L 333.7,47.5 L 376.4,197.8 L 413.0,325.2 L 447.6,446.8 L 459.5,491.8 L 476.3,552.4 L 488.5,595.3 L 498.8,638.0 L 510.5,685.4 L 511.9,692.2 L 513.5,722.9 L 513.0,725.5 L 511.7,728.1 L 509.4,729.5 L 506.3,730.4 L 504.5,730.4 L 501.9,730.0 L 499.3,729.3 L 496.4,728.1 L 385.7,664.6 L 298.2,614.4 L 256.8,590.6 L 252.0,587.9 L 246.2,585.9 L 241.5,585.4 L 236.6,585.5 L 232.3,586.2 L 228.1,587.5 L 224.1,589.6 L 219.9,593.2 L 211.7,600.9 L 195.2,616.3 L 192.3,619.6 L 189.9,624.1 L 189.0,627.3 L 188.4,631.0 L 188.8,635.4 L 190.4,639.7 L 193.1,643.8 L 197.0,647.8 L 199.8,651.5 L 201.6,655.9 L 202.1,660.2 L 195.5,737.4 L 193.8,747.1 L 191.0,752.8 L 186.7,757.2 L 170.0,765.5 L 162.8,769.9 L 158.1,775.8 L 156.2,780.8 L 154.9,788.2 L 151.5,882.2 L 151.3,889.0 L 150.5,912.8 L 149.4,921.3 L 148.6,925.2 L 147.0,930.8 L 143.9,936.8 L 139.7,943.4 L 134.5,948.3 L 128.4,953.0 L 123.2,955.8 L 116.7,958.1 L 109.5,959.5 L 102.4,960.0 L 98.1,959.5 L 93.3,958.5 L 89.3,957.3 L 84.9,955.5 L 78.3,951.6 L 71.7,946.8 L 64.1,939.5 L 56.4,930.4 L 51.6,922.7 L 46.8,914.0 L 44.2,907.4 L 41.7,899.4 L 40.4,894.0 L 40.0,889.1 L 40.2,883.7 L 41.4,878.0 L 43.5,872.8 L 46.4,868.1 L 50.9,862.9 L 56.8,858.3 L 74.7,843.9 L 79.1,840.3 L 83.2,836.9 L 87.6,832.7 L 90.4,829.3 L 96.6,820.9 L 100.0,815.7 L 104.3,808.3 L 141.3,742.9 L 145.6,734.8 L 147.8,728.8 L 148.8,722.9 L 149.0,717.4 L 148.3,712.2 L 146.3,706.1 L 143.2,699.4 L 115.0,665.7 L 113.5,663.1 L 113.3,660.8 L 120.2,552.7 L 121.9,529.0 L 123.6,522.5 L 128.0,514.7 L 134.2,507.6 L 142.8,502.7 L 152.3,500.8 L 162.1,502.3 L 170.3,506.2 L 271.3,564.5 L 275.8,567.0 L 297.7,578.1 L 315.6,585.8 L 328.4,589.6 L 332.9,589.0 L 336.9,587.2 L 340.0,584.4 L 341.1,581.5 L 341.7,578.3 L 341.7,574.4 L 334.8,553.6 L 311.2,489.1 L 263.4,356.4 L 259.2,344.6 L 256.2,336.7 L 217.8,233.1 L 208.2,206.2 L 207.7,203.0 L 207.4,200.1 L 208.0,197.1 L 209.9,194.1 L 211.5,192.7 L 213.3,191.5 L 215.5,190.6 L 218.5,189.8 Z" fill="none" stroke="currentColor" stroke-width="10" stroke-linejoin="round" stroke-linecap="round"/></svg>