<svg xmlns="http://www.w3.org/2000/svg" viewBox="0 0 1000 1000" role="img" aria-label="Autódromo Oscar y Juan Gálvez track outline"><path d="M 302.1 960.0 L 313.0 949.5 L 320.3 935.3 L 336.5 902.7 L 339.6 898.4 L 343.4 894.5 L 349.2 890.1 L 356.1 886.4 L 364.7 884.7 L 394.2 884.6 L 402.6 883.9 L 411.9 881.4 L 417.2 878.6 L 420.2 876.6 L 427.1 869.3 L 434.8 858.5 L 843.4 268.4 L 850.4 258.1 L 856.8 247.9 L 860.1 240.3 L 863.2 231.6 L 867.0 216.1 L 868.8 204.0 L 869.4 190.6 L 868.4 176.9 L 866.0 164.5 L 862.8 152.8 L 858.6 141.2 L 852.6 129.1 L 845.2 117.3 L 837.8 106.7 L 829.4 97.2 L 823.4 91.8 L 817.4 87.3 L 811.0 83.2 L 804.5 79.0 L 791.9 71.8 L 779.0 65.1 L 765.7 58.9 L 752.5 53.5 L 738.2 48.5 L 724.9 44.8 L 711.9 42.4 L 700.3 40.7 L 686.2 40.0 L 673.9 40.1 L 663.1 41.2 L 652.9 42.9 L 643.9 44.8 L 634.6 47.6 L 627.2 50.5 L 620.2 53.8 L 610.1 58.9 L 600.2 64.9 L 590.8 71.7 L 583.3 78.3 L 575.4 86.4 L 568.8 94.0 L 562.7 103.5 L 555.4 118.5 L 357.4 541.8 L 353.5 548.3 L 349.0 554.3 L 343.3 560.6 L 336.5 566.3 L 328.3 571.4 L 318.6 575.9 L 306.4 579.8 L 296.6 581.9 L 282.7 583.6 L 264.3 584.5 L 255.0 584.6 L 243.5 585.1 L 232.6 586.4 L 223.5 588.5 L 214.4 591.6 L 206.0 595.7 L 199.8 599.3 L 192.9 604.5 L 186.3 610.4 L 180.6 616.4 L 187.3 614.4 L 192.9 614.6 L 198.1 616.3 L 202.0 618.4 L 205.5 620.7 L 210.4 625.4 L 213.1 629.1 L 215.2 632.8 L 216.9 636.5 L 218.0 640.2 L 218.8 643.9 L 219.3 648.5 L 219.4 654.3 L 219.4 701.8 L 219.2 705.6 L 218.5 709.4 L 217.5 713.1 L 215.9 716.7 L 214.6 719.7 L 212.9 722.5 L 210.7 725.6 L 208.2 728.7 L 130.6 811.2" fill="none" stroke="currentColor" stroke-width="10" stroke-linejoin="round" stroke-linecap="round"/></svg>