<svg xmlns="http://www.w3.org/2000/svg" viewBox="0 0 1000 1000" role="img" aria-label="Autódromo Oscar y Juan Gálvez track outline"><path d="M 226.4,941.5 L 229.6,930.0 L 231.9,916.2 L 258.2,673.9 L 258.0,664.8 L 255.3,656.1 L 250.7,648.0 L 245.1,642.0 L 238.2,636.8 L 231.5,633.4 L 224.4,631.6 L 216.5,630.7 L 208.6,631.5 L 200.2,634.3 L 193.4,638.1 L 187.7,642.8 L 183.5,647.6 L 180.6,652.2 L 178.8,655.6 L 177.0,660.3 L 176.1,665.1 L 173.1,695.2 L 171.6,710.8 L 172.3,719.7 L 175.5,731.1 L 178.3,738.0 L 181.6,744.5 L 183.5,749.6 L 184.9,754.7 L 185.8,759.7 L 186.0,766.4 L 185.1,772.4 L 183.5,778.1 L 180.7,783.9 L 177.3,789.2 L 171.6,795.4 L 164.0,800.9 L 77.1,845.7 L 70.3,849.0 L 62.9,849.8 L 55.9,848.2 L 50.2,845.5 L 45.4,841.5 L 42.0,835.7 L 40.0,828.9 L 40.3,822.9 L 41.8,818.2 L 45.1,811.2 L 122.7,728.7 L 125.2,725.6 L 127.4,722.5 L 129.1,719.7 L 130.4,716.7 L 132.0,713.1 L 133.0,709.4 L 133.7,705.6 L 133.9,701.8 L 133.9,654.3 L 133.8,648.5 L 133.3,643.9 L 132.5,640.2 L 131.4,636.5 L 129.7,632.8 L 127.6,629.1 L 124.9,625.4 L 120.0,620.7 L 116.5,618.4 L 112.6,616.3 L 107.4,614.6 L 101.8,614.4 L 95.1,616.4 L 100.8,610.4 L 107.4,604.5 L 114.3,599.3 L 120.5,595.7 L 128.9,591.6 L 138.0,588.5 L 147.1,586.4 L 158.0,585.1 L 169.5,584.6 L 178.8,584.5 L 197.2,583.6 L 211.1,581.9 L 220.9,579.8 L 233.1,575.9 L 242.8,571.4 L 251.0,566.3 L 257.8,560.6 L 263.5,554.3 L 268.0,548.3 L 271.8,541.8 L 469.9,118.5 L 477.2,103.5 L 483.3,94.0 L 489.9,86.4 L 497.8,78.3 L 505.3,71.7 L 514.7,64.9 L 524.6,58.9 L 534.7,53.8 L 541.7,50.5 L 549.1,47.6 L 558.4,44.8 L 567.4,42.9 L 577.6,41.2 L 588.4,40.1 L 600.7,40.0 L 614.8,40.7 L 626.4,42.4 L 639.4,44.8 L 652.7,48.5 L 667.0,53.5 L 680.2,58.9 L 693.5,65.1 L 706.4,71.8 L 719.0,79.0 L 725.5,83.2 L 731.9,87.3 L 737.9,91.8 L 743.9,97.2 L 752.3,106.7 L 759.7,117.3 L 767.1,129.1 L 773.1,141.2 L 777.3,152.8 L 780.5,164.5 L 782.9,176.9 L 783.9,190.6 L 783.3,204.0 L 781.5,216.1 L 777.7,231.6 L 774.6,240.3 L 771.3,247.9 L 764.9,258.1 L 757.9,268.4 L 349.3,858.5 L 341.6,869.3 L 334.7,876.6 L 331.7,878.6 L 326.4,881.4 L 317.1,883.9 L 308.7,884.6 L 279.2,884.7 L 270.6,886.4 L 263.7,890.1 L 257.9,894.5 L 254.1,898.4 L 251.0,902.7 L 234.8,935.3 L 227.5,949.5 L 216.6,960.0 Z" fill="none" stroke="currentColor" stroke-width="10" stroke-linejoin="round" stroke-linecap="round"/></svg>