<svg xmlns="http://www.w3.org/2000/svg" viewBox="0 0 1000 1000" role="img" aria-label="Bugatti Circuit (Le Mans) track outline"><path d="M 676.4 92.4 L 674.1 89.3 L 672.0 86.7 L 670.1 84.2 L 668.0 81.6 L 665.9 79.1 L 664.4 77.5 L 662.4 75.7 L 661.7 75.0 L 661.0 74.3 L 660.6 73.8 L 659.3 72.6 L 656.8 70.2 L 654.8 68.4 L 652.9 66.7 L 651.1 65.2 L 649.2 63.7 L 645.6 61.1 L 643.9 59.9 L 643.6 59.6 L 641.5 58.2 L 638.3 56.1 L 635.3 54.1 L 632.6 52.3 L 629.6 50.5 L 626.7 48.6 L 623.6 46.8 L 620.0 44.8 L 616.3 42.7 L 614.1 41.5 L 612.4 40.8 L 611.1 40.4 L 609.9 40.2 L 608.5 40.0 L 607.3 40.0 L 605.9 40.2 L 604.6 40.5 L 603.3 41.0 L 574.4 51.8 L 571.3 53.0 L 569.3 53.9 L 566.8 54.9 L 564.7 55.9 L 562.1 57.3 L 560.7 58.0 L 560.0 58.4 L 559.1 58.9 L 558.1 59.5 L 556.7 60.3 L 555.4 61.2 L 553.3 62.7 L 551.1 64.3 L 546.4 67.8 L 538.8 73.7 L 538.1 74.3 L 537.6 74.8 L 537.1 75.2 L 536.6 75.6 L 536.2 75.9 L 535.8 76.3 L 535.3 76.8 L 534.7 77.3 L 534.3 77.7 L 534.0 78.1 L 533.6 78.6 L 533.3 79.1 L 532.9 79.7 L 532.6 80.2 L 532.3 80.8 L 532.0 81.3 L 531.7 82.0 L 531.5 82.6 L 531.2 83.2 L 531.0 84.0 L 530.7 84.7 L 530.4 85.5 L 530.2 86.3 L 530.0 87.0 L 529.8 87.8 L 529.7 88.5 L 529.5 89.3 L 529.4 90.1 L 529.3 90.9 L 529.3 91.5 L 529.2 92.2 L 529.1 93.1 L 529.1 93.8 L 529.1 94.6 L 529.1 97.5 L 529.0 98.6 L 529.0 99.5 L 529.0 100.2 L 529.0 100.5 L 529.0 100.8 L 528.9 101.3 L 528.8 101.9 L 528.6 102.5 L 528.4 103.2 L 528.1 103.9 L 527.8 104.9 L 527.4 105.8 L 527.0 106.7 L 526.6 107.6 L 526.2 108.5 L 525.8 109.2 L 525.3 110.0 L 524.8 110.8 L 524.3 111.5 L 523.7 112.1 L 523.2 112.8 L 522.5 113.4 L 521.7 114.2 L 520.9 114.9 L 520.2 115.4 L 519.5 116.0 L 518.6 116.6 L 517.8 117.1 L 517.1 117.5 L 516.4 117.8 L 515.8 118.1 L 515.2 118.3 L 514.5 118.5 L 513.7 118.7 L 512.8 118.9 L 511.7 119.1 L 510.6 119.2 L 508.6 119.4 L 505.4 119.6 L 502.4 119.7 L 496.3 119.9 L 487.9 120.2 L 483.6 120.5 L 480.5 120.8 L 479.3 120.9 L 478.1 121.1 L 476.8 121.4 L 475.5 121.8 L 474.5 122.1 L 473.4 122.4 L 472.1 122.9 L 471.0 123.3 L 469.5 124.0 L 467.8 124.7 L 464.6 126.1 L 461.4 127.8 L 462.9 127.1 L 463.8 126.7 L 464.7 126.4 L 465.4 126.2 L 466.1 126.0 L 466.7 125.9 L 467.4 125.8 L 468.1 125.7 L 468.9 125.6 L 469.7 125.6 L 470.5 125.5 L 471.3 125.6 L 472.1 125.6 L 472.9 125.7 L 473.5 125.7 L 474.0 125.8 L 474.6 125.8 L 475.1 125.9 L 475.6 126.0 L 476.1 126.1 L 476.6 126.2 L 477.1 126.4 L 477.7 126.6 L 478.3 126.9 L 479.0 127.2 L 479.7 127.5 L 480.7 128.1 L 481.2 128.4 L 481.7 128.9 L 482.3 129.3 L 482.8 129.8 L 483.2 130.2 L 483.6 130.6 L 484.0 131.0 L 484.3 131.4 L 484.7 131.9 L 485.1 132.4 L 485.4 132.9 L 485.8 133.4 L 486.1 134.0 L 486.5 134.6 L 486.7 135.1 L 487.0 135.7 L 487.2 136.3 L 487.5 137.0 L 487.7 137.8 L 487.9 138.5 L 488.1 139.4 L 488.2 140.3 L 488.4 141.2 L 488.5 141.9 L 488.5 142.8 L 488.6 143.4 L 488.6 144.0 L 488.5 144.4 L 488.5 145.2 L 488.4 146.1 L 488.3 146.8 L 488.1 147.5 L 488.0 148.2 L 487.8 149.0 L 487.5 149.7 L 487.3 150.4 L 487.0 151.0 L 486.7 151.7 L 486.3 152.4 L 485.9 153.0 L 485.5 153.8 L 483.8 156.1 L 481.3 159.4 L 478.6 162.6 L 476.5 165.1 L 473.8 168.2 L 471.3 170.9 L 468.6 173.6 L 465.2 176.9 L 460.6 181.2 L 455.7 185.5 L 451.9 188.7 L 448.6 191.4 L 446.0 193.5 L 436.6 200.7 L 433.8 202.9 L 431.3 204.9 L 425.5 210.2 L 424.3 211.5 L 423.4 212.4 L 422.9 213.1 L 422.7 213.5 L 422.4 214.0 L 422.2 214.5 L 421.9 215.1 L 421.7 215.6 L 421.5 216.1 L 421.4 216.7 L 421.2 217.3 L 421.0 218.0 L 420.9 218.7 L 420.8 219.2 L 420.8 219.7 L 420.8 220.2 L 420.8 220.7 L 420.8 221.2 L 420.8 221.6 L 420.9 222.0 L 420.9 222.5 L 421.0 222.9 L 421.1 223.4 L 421.2 223.8 L 421.4 224.2 L 421.5 224.7 L 421.6 225.0 L 421.8 225.3 L 421.9 225.6 L 422.2 226.2 L 422.7 227.0 L 423.2 227.7 L 423.6 228.3 L 424.0 228.8 L 424.4 229.3 L 424.9 229.8 L 425.3 230.1 L 425.8 230.5 L 426.5 231.0 L 427.2 231.4 L 428.0 231.8 L 428.8 232.1 L 429.4 232.3 L 430.2 232.5 L 431.0 232.7 L 431.9 232.8 L 432.6 232.9 L 433.6 232.9 L 434.8 233.0 L 436.0 232.9 L 437.2 232.8 L 438.6 232.7 L 439.9 232.5 L 441.5 232.3 L 443.3 231.9 L 445.7 231.3 L 447.8 230.7 L 450.1 229.8 L 451.5 229.1 L 453.2 228.3 L 454.5 227.7 L 455.6 227.1 L 456.7 226.3 L 458.2 225.3 L 460.3 223.8 L 462.0 222.4 L 463.7 221.0 L 465.7 219.3 L 470.0 215.3 L 484.8 200.4 L 497.8 187.2 L 503.3 181.4 L 508.9 175.2 L 516.1 167.0 L 529.7 151.1 L 530.5 149.8 L 531.3 148.3 L 531.9 147.3 L 532.6 146.6 L 533.4 146.0 L 534.7 145.5 L 535.7 145.2 L 536.8 145.1 L 537.9 145.0 L 539.1 145.1 L 540.6 145.5 L 542.0 146.1 L 543.6 147.2 L 547.5 150.9 L 548.9 152.4 L 549.6 153.4 L 550.1 154.5 L 550.5 155.7 L 550.7 156.8 L 550.8 158.2 L 550.6 159.7 L 550.2 161.1 L 549.6 162.3 L 548.4 163.8 L 544.9 167.1 L 526.2 188.4 L 516.8 199.1 L 508.2 209.2 L 489.5 231.0 L 488.8 231.8 L 487.0 233.9 L 484.6 236.9 L 481.0 241.5 L 461.9 265.6 L 440.8 292.4 L 429.4 307.0 L 427.3 309.9 L 427.0 310.3 L 426.7 310.7 L 426.5 311.0 L 426.3 311.3 L 426.1 311.7 L 425.9 312.0 L 425.8 312.3 L 425.7 312.6 L 425.5 313.0 L 425.3 313.5 L 425.1 313.9 L 425.0 314.3 L 424.8 314.8 L 424.7 315.2 L 424.5 315.7 L 424.4 316.1 L 424.3 316.5 L 424.2 316.9 L 424.1 317.3 L 424.0 317.7 L 424.0 318.1 L 423.9 318.4 L 423.9 318.9 L 423.9 319.3 L 423.9 319.8 L 423.9 320.3 L 423.9 320.7 L 424.0 321.1 L 424.0 321.6 L 424.1 322.0 L 424.1 322.4 L 424.2 322.8 L 424.3 323.2 L 424.4 323.6 L 424.6 324.0 L 424.7 324.4 L 424.9 324.9 L 425.1 325.2 L 425.3 325.6 L 425.5 326.0 L 425.7 326.4 L 426.0 326.7 L 426.2 327.0 L 428.6 329.6 L 428.8 329.9 L 429.1 330.2 L 429.4 330.5 L 429.6 330.9 L 429.9 331.3 L 430.1 331.7 L 430.4 332.1 L 430.7 332.6 L 431.0 333.1 L 431.2 333.6 L 431.4 334.1 L 431.6 334.7 L 431.8 335.2 L 431.9 335.6 L 432.0 336.1 L 432.1 336.6 L 432.2 337.2 L 432.3 337.7 L 432.3 338.3 L 432.4 339.0 L 432.4 339.6 L 432.4 340.3 L 432.4 341.0 L 432.4 341.7 L 432.3 342.2 L 432.3 342.8 L 432.2 343.4 L 432.2 344.0 L 432.1 344.6 L 432.0 345.1 L 431.9 345.6 L 431.7 346.2 L 424.0 372.2 L 417.9 392.2 L 411.3 414.6 L 410.0 418.2 L 409.7 419.0 L 409.4 419.8 L 409.1 420.5 L 408.8 421.2 L 408.4 421.8 L 407.9 422.5 L 407.5 423.1 L 407.0 423.7 L 406.5 424.3 L 406.0 424.8 L 405.4 425.3 L 404.8 425.7 L 404.1 426.1 L 403.4 426.4 L 402.6 426.7 L 402.0 427.0 L 401.3 427.2 L 400.5 427.4 L 399.6 427.5 L 398.8 427.7 L 398.0 427.8 L 397.3 427.8 L 396.5 427.8 L 395.8 427.8 L 395.0 427.7 L 394.2 427.7 L 393.5 427.6 L 392.9 427.6 L 392.3 427.5 L 391.9 427.4 L 391.4 427.3 L 391.0 427.2 L 390.5 427.0 L 389.9 426.8 L 389.6 426.6 L 389.2 426.5 L 388.9 426.2 L 388.5 425.9 L 388.0 425.6 L 387.3 425.1 L 379.6 418.6 L 375.7 415.3 L 375.1 414.9 L 374.6 414.6 L 374.2 414.4 L 373.7 414.2 L 373.3 413.9 L 372.7 413.7 L 372.3 413.5 L 371.7 413.4 L 371.2 413.2 L 370.6 413.1 L 369.9 413.0 L 369.2 412.9 L 368.6 412.8 L 367.9 412.8 L 367.3 412.7 L 366.7 412.7 L 366.1 412.8 L 365.5 412.8 L 364.9 412.9 L 364.2 413.0 L 363.7 413.1 L 363.1 413.2 L 362.5 413.4 L 361.9 413.6 L 361.3 413.9 L 360.7 414.1 L 360.2 414.4 L 359.6 414.7 L 359.0 415.1 L 358.4 415.5 L 357.7 416.0 L 357.1 416.4 L 356.6 416.9 L 355.9 417.5 L 355.4 417.9 L 355.1 418.2 L 354.7 418.7 L 354.4 419.2 L 353.9 419.7 L 353.5 420.3 L 353.1 421.0 L 352.8 421.6 L 352.5 422.3 L 352.2 423.0 L 351.7 423.9 L 351.3 425.1 L 350.7 426.5 L 350.1 428.5 L 348.5 434.0 L 346.4 441.2 L 345.8 443.2 L 344.3 448.6 L 344.0 449.9 L 339.7 466.1 L 339.5 466.5 L 339.4 466.9 L 339.3 467.2 L 339.1 467.5 L 339.0 467.7 L 338.8 468.0 L 338.5 468.3 L 338.3 468.5 L 338.1 468.6 L 337.9 468.8 L 337.6 469.0 L 337.3 469.1 L 337.0 469.2 L 336.7 469.3 L 336.4 469.3 L 336.1 469.4 L 335.9 469.4 L 335.7 469.4 L 335.5 469.3 L 335.3 469.3 L 334.8 469.2 L 332.7 468.7 L 324.4 466.8 L 323.6 466.6 L 323.8 466.7 L 324.0 466.8 L 324.2 466.9 L 324.5 467.0 L 324.7 467.2 L 324.9 467.3 L 325.1 467.5 L 325.4 467.7 L 325.6 467.9 L 325.7 468.0 L 325.9 468.3 L 326.1 468.5 L 326.3 468.7 L 326.5 468.9 L 326.6 469.2 L 326.8 469.4 L 326.9 469.6 L 327.1 469.9 L 327.2 470.2 L 327.3 470.4 L 327.4 470.7 L 327.4 471.0 L 331.1 490.8 L 331.2 491.3 L 331.4 492.1 L 331.5 492.6 L 331.6 493.0 L 331.7 493.4 L 331.9 493.8 L 332.0 494.1 L 332.2 494.5 L 332.4 494.9 L 332.6 495.3 L 332.8 495.7 L 333.1 496.1 L 333.4 496.5 L 333.6 496.9 L 333.9 497.2 L 334.1 497.5 L 334.4 497.8 L 334.6 498.0 L 334.8 498.2 L 335.1 498.4 L 335.3 498.6 L 335.5 498.8 L 335.8 499.0 L 336.1 499.2 L 336.4 499.4 L 336.6 499.5 L 337.0 499.7 L 337.2 499.8 L 337.6 500.0 L 340.3 501.1 L 340.5 501.2 L 340.9 501.4 L 341.3 501.5 L 341.6 501.7 L 341.9 501.8 L 342.1 502.0 L 342.2 502.1 L 342.4 502.2 L 342.6 502.4 L 342.8 502.5 L 343.1 502.8 L 343.3 503.0 L 343.5 503.3 L 343.8 503.5 L 344.0 503.8 L 344.1 504.0 L 344.4 504.3 L 344.6 504.6 L 344.8 505.0 L 345.0 505.4 L 345.2 505.7 L 345.4 506.0 L 345.6 506.4 L 345.8 507.0 L 346.0 507.7 L 346.3 508.4 L 346.5 509.2 L 349.5 520.5 L 357.6 550.0 L 361.7 564.9 L 373.4 607.8 L 376.4 619.5 L 377.3 622.9 L 377.6 624.4 L 377.9 626.0 L 378.0 627.3 L 378.2 628.3 L 378.2 629.9 L 378.2 631.4 L 378.1 634.4 L 377.9 636.4 L 377.7 638.5 L 377.5 640.1 L 377.3 641.7 L 375.7 651.6 L 375.3 654.6 L 375.1 656.2 L 375.0 657.9 L 374.9 659.7 L 374.9 661.9 L 375.0 663.2 L 375.1 664.4 L 375.2 665.9 L 375.5 668.1 L 378.3 686.1 L 380.5 701.2 L 381.7 709.4 L 382.0 711.7 L 382.2 714.0 L 382.4 715.9 L 382.5 717.7 L 382.5 719.3 L 382.5 720.4 L 382.4 721.4 L 382.3 722.5 L 382.1 723.5 L 381.8 724.6 L 381.5 725.9 L 381.0 727.5 L 380.5 728.9 L 379.9 730.6 L 379.2 732.0 L 378.5 733.3 L 377.8 734.6 L 376.9 735.8 L 376.1 736.9 L 375.3 737.8 L 374.0 739.1 L 372.6 740.5 L 365.4 746.7 L 363.7 748.1 L 362.7 749.0 L 361.8 749.8 L 361.0 750.6 L 360.2 751.5 L 359.6 752.2 L 358.9 753.0 L 358.2 753.9 L 357.5 754.7 L 356.8 755.7 L 356.1 756.7 L 355.4 757.8 L 354.6 759.1 L 354.0 760.2 L 353.4 761.4 L 352.8 762.5 L 352.3 763.7 L 351.7 765.2 L 351.3 766.4 L 350.9 767.6 L 350.6 768.7 L 350.3 770.1 L 350.1 771.3 L 349.9 772.6 L 349.7 773.8 L 349.6 775.0 L 349.5 776.2 L 349.4 777.4 L 349.4 778.6 L 349.4 779.8 L 349.5 781.3 L 349.6 782.7 L 349.6 783.9 L 349.8 785.4 L 350.0 786.9 L 350.3 788.5 L 350.5 789.9 L 350.8 791.1 L 351.2 792.4 L 351.6 793.7 L 352.0 794.7 L 352.4 795.7 L 352.9 796.7 L 353.4 797.8 L 354.0 798.9 L 354.7 800.1 L 355.4 801.2 L 356.0 802.2 L 356.7 803.3 L 357.5 804.4 L 358.2 805.4 L 358.9 806.4 L 359.6 807.2 L 360.5 808.2 L 361.5 809.2 L 362.7 810.3 L 364.4 811.7 L 366.0 813.1 L 373.5 819.4 L 375.3 821.1 L 377.6 823.4 L 379.0 825.1 L 379.7 825.9 L 380.4 826.8 L 381.0 827.6 L 381.6 828.4 L 382.4 829.6 L 383.2 831.1 L 383.9 832.5 L 384.9 835.8 L 385.6 838.5 L 386.2 841.6 L 386.7 845.2 L 387.6 853.8 L 388.6 866.4 L 389.0 871.3 L 389.1 875.5 L 389.0 876.9 L 388.8 878.7 L 388.6 880.4 L 388.2 882.1 L 387.8 883.8 L 387.2 885.7 L 386.6 887.5 L 385.9 889.1 L 385.3 890.5 L 384.5 892.0 L 384.0 892.8 L 383.4 893.9 L 382.7 894.9 L 381.7 896.4 L 380.7 897.7 L 379.4 899.3 L 361.8 918.3 L 360.5 919.7 L 359.2 921.2 L 358.1 922.4 L 356.7 924.3 L 355.6 926.0 L 354.3 928.3 L 353.4 930.1 L 352.4 932.1 L 351.6 934.3 L 350.9 936.4 L 350.3 938.6 L 349.8 941.0 L 349.6 943.4 L 349.4 946.3 L 349.4 949.3 L 349.5 952.0 L 349.8 954.7 L 350.2 957.1 L 351.1 960.0" fill="none" stroke="currentColor" stroke-width="10" stroke-linejoin="round" stroke-linecap="round"/></svg>