<svg xmlns="http://www.w3.org/2000/svg" viewBox="0 0 1000 1000" role="img" aria-label="Bugatti Circuit (Le Mans) track outline"><path d="M 64.1,960.0 L 63.0,958.0 L 61.9,955.7 L 58.6,946.4 L 49.7,913.0 L 46.7,901.8 L 42.7,894.9 L 40.7,889.2 L 40.0,882.9 L 41.5,872.9 L 41.6,867.8 L 42.0,859.2 L 42.8,845.4 L 43.5,831.1 L 44.6,793.4 L 45.8,752.1 L 46.9,711.6 L 49.2,652.4 L 53.0,537.8 L 53.6,528.5 L 54.4,519.3 L 54.8,514.0 L 55.6,507.4 L 56.4,500.4 L 57.6,491.5 L 58.9,483.7 L 60.7,472.9 L 63.1,460.8 L 67.7,438.5 L 69.3,431.8 L 71.6,422.0 L 74.5,411.5 L 78.2,399.1 L 82.4,385.9 L 86.8,373.6 L 91.1,363.0 L 95.4,351.9 L 99.0,343.4 L 100.7,339.7 L 102.3,336.6 L 103.8,333.9 L 105.4,331.1 L 106.8,328.8 L 108.8,325.7 L 111.0,322.6 L 113.6,319.0 L 116.5,315.4 L 119.6,311.9 L 121.9,309.5 L 123.9,307.5 L 125.9,305.6 L 127.6,304.0 L 131.0,301.2 L 134.0,298.9 L 141.5,293.9 L 219.2,246.4 L 220.2,245.7 L 221.0,245.2 L 221.5,244.8 L 222.0,244.4 L 222.4,244.0 L 222.9,243.5 L 223.4,242.9 L 223.9,242.4 L 224.2,241.9 L 224.6,241.4 L 224.8,240.8 L 225.1,240.3 L 225.3,239.8 L 225.5,239.3 L 225.7,238.8 L 225.9,238.3 L 226.0,237.8 L 226.1,237.3 L 226.2,236.8 L 226.3,236.3 L 226.4,235.8 L 226.4,235.2 L 226.5,234.6 L 226.5,234.0 L 226.5,233.4 L 226.5,232.7 L 226.4,232.2 L 226.3,231.6 L 226.2,231.0 L 226.0,230.1 L 225.6,228.7 L 220.7,207.5 L 220.6,206.8 L 220.4,206.1 L 220.4,205.6 L 220.3,204.9 L 220.2,204.2 L 220.2,203.5 L 220.2,202.9 L 220.2,202.4 L 220.2,201.8 L 220.2,201.2 L 220.3,200.5 L 220.4,199.9 L 220.5,199.4 L 220.6,198.9 L 220.7,198.4 L 220.9,198.0 L 221.1,197.5 L 221.3,197.0 L 221.6,196.4 L 221.8,195.8 L 222.1,195.3 L 222.4,194.8 L 222.7,194.3 L 223.0,193.8 L 223.4,193.2 L 223.8,192.7 L 224.2,192.2 L 224.5,191.8 L 224.9,191.4 L 225.2,191.0 L 225.7,190.5 L 226.0,190.2 L 226.4,189.9 L 226.7,189.6 L 227.2,189.2 L 228.0,188.7 L 292.0,147.8 L 302.0,141.5 L 311.9,135.2 L 318.6,130.8 L 323.3,127.5 L 327.1,124.4 L 330.9,121.1 L 334.0,118.2 L 337.0,115.1 L 340.0,111.8 L 342.2,109.0 L 344.6,105.9 L 347.0,102.5 L 356.6,88.5 L 366.7,73.8 L 370.1,69.2 L 373.3,65.5 L 376.2,62.4 L 379.7,58.9 L 382.6,56.3 L 386.1,53.1 L 388.2,51.4 L 389.8,50.2 L 391.5,49.1 L 393.2,48.0 L 394.7,47.1 L 395.9,46.4 L 397.0,45.8 L 397.7,45.5 L 401.3,43.8 L 403.7,42.8 L 405.8,42.0 L 407.6,41.5 L 409.3,41.1 L 410.8,40.8 L 412.5,40.5 L 414.3,40.3 L 416.3,40.1 L 418.3,40.0 L 420.3,40.0 L 422.2,40.1 L 424.2,40.2 L 426.2,40.3 L 427.7,40.4 L 429.0,40.5 L 430.3,40.7 L 431.5,40.8 L 432.8,41.1 L 434.0,41.4 L 435.3,41.7 L 436.6,42.2 L 438.0,42.7 L 439.6,43.3 L 441.4,44.1 L 443.0,44.9 L 445.6,46.3 L 446.7,47.1 L 448.1,48.2 L 449.4,49.3 L 450.7,50.4 L 451.8,51.5 L 452.8,52.5 L 453.7,53.5 L 454.5,54.5 L 455.4,55.7 L 456.3,56.9 L 457.2,58.1 L 458.1,59.5 L 458.9,60.9 L 459.7,62.4 L 460.4,63.7 L 461.0,65.0 L 461.7,66.7 L 462.3,68.4 L 462.9,70.4 L 463.3,72.2 L 463.8,74.3 L 464.1,76.5 L 464.5,78.6 L 464.7,80.6 L 464.8,82.6 L 464.9,84.2 L 464.9,85.6 L 464.9,86.7 L 464.8,88.8 L 464.5,90.8 L 464.2,92.6 L 463.9,94.3 L 463.5,96.1 L 463.0,98.0 L 462.4,99.9 L 461.9,101.5 L 461.2,103.1 L 460.3,104.8 L 459.4,106.6 L 458.4,108.1 L 457.3,109.9 L 453.0,115.7 L 446.9,123.7 L 440.4,131.7 L 435.1,138.1 L 428.4,145.5 L 422.2,152.3 L 415.4,159.1 L 407.2,167.3 L 395.7,177.7 L 383.6,188.6 L 374.2,196.5 L 365.9,203.2 L 359.6,208.2 L 336.3,226.1 L 329.4,231.6 L 323.1,236.6 L 308.9,249.7 L 305.8,252.8 L 303.6,255.2 L 302.5,256.8 L 301.8,257.9 L 301.2,259.0 L 300.6,260.3 L 299.9,261.8 L 299.5,263.0 L 299.0,264.2 L 298.5,265.7 L 298.1,267.3 L 297.7,268.9 L 297.4,270.7 L 297.2,272.0 L 297.1,273.3 L 297.1,274.5 L 297.0,275.7 L 297.1,276.8 L 297.2,277.8 L 297.3,278.8 L 297.5,280.0 L 297.7,281.1 L 298.0,282.3 L 298.2,283.4 L 298.6,284.4 L 298.9,285.5 L 299.2,286.3 L 299.5,287.0 L 299.9,287.7 L 300.7,289.3 L 301.8,291.3 L 303.0,293.1 L 304.1,294.5 L 305.1,295.8 L 306.1,297.0 L 307.3,298.1 L 308.4,299.0 L 309.6,299.9 L 311.3,301.0 L 313.1,302.1 L 315.0,303.0 L 317.0,303.8 L 318.5,304.3 L 320.4,304.8 L 322.5,305.3 L 324.6,305.6 L 326.5,305.8 L 328.9,306.0 L 331.8,306.0 L 334.8,305.9 L 337.8,305.6 L 341.3,305.3 L 344.5,304.9 L 348.5,304.3 L 352.8,303.4 L 358.8,301.9 L 364.0,300.3 L 369.6,298.2 L 373.3,296.5 L 377.4,294.6 L 380.6,293.0 L 383.3,291.4 L 386.1,289.6 L 389.7,287.1 L 394.9,283.3 L 399.2,279.9 L 403.4,276.4 L 408.3,272.2 L 418.9,262.2 L 455.6,225.5 L 487.8,192.8 L 501.4,178.4 L 515.3,163.0 L 533.2,142.6 L 566.9,103.2 L 568.8,100.1 L 570.7,96.4 L 572.4,93.9 L 573.9,92.2 L 576.1,90.6 L 579.1,89.4 L 581.6,88.7 L 584.4,88.3 L 587.1,88.2 L 590.1,88.5 L 593.7,89.3 L 597.4,91.0 L 601.2,93.7 L 610.9,102.9 L 614.4,106.6 L 616.0,108.9 L 617.3,111.8 L 618.3,114.7 L 618.8,117.5 L 619.0,120.9 L 618.6,124.5 L 617.7,128.0 L 616.0,131.1 L 613.0,134.8 L 604.4,142.8 L 558.1,195.6 L 534.9,222.1 L 513.5,247.1 L 467.3,301.1 L 465.5,303.2 L 461.0,308.4 L 455.1,315.7 L 446.2,327.2 L 399.0,386.8 L 346.7,453.2 L 318.5,489.4 L 313.2,496.5 L 312.5,497.5 L 311.9,498.5 L 311.3,499.2 L 310.9,500.0 L 310.3,501.0 L 309.9,501.7 L 309.5,502.5 L 309.2,503.3 L 308.8,504.3 L 308.3,505.4 L 307.9,506.4 L 307.5,507.5 L 307.1,508.7 L 306.7,509.8 L 306.4,510.8 L 306.0,511.9 L 305.8,513.0 L 305.5,513.9 L 305.3,514.9 L 305.1,515.9 L 305.0,516.8 L 304.9,517.7 L 304.8,518.8 L 304.8,519.9 L 304.8,521.1 L 304.9,522.3 L 304.9,523.3 L 305.0,524.4 L 305.1,525.4 L 305.2,526.5 L 305.4,527.6 L 305.6,528.5 L 305.9,529.5 L 306.2,530.5 L 306.5,531.4 L 306.9,532.5 L 307.4,533.6 L 307.8,534.5 L 308.3,535.5 L 308.9,536.4 L 309.4,537.3 L 310.0,538.2 L 310.6,538.9 L 316.4,545.4 L 317.1,546.1 L 317.8,546.9 L 318.4,547.7 L 319.0,548.5 L 319.7,549.5 L 320.3,550.4 L 321.0,551.6 L 321.7,552.9 L 322.3,554.0 L 322.9,555.2 L 323.4,556.5 L 324.0,557.9 L 324.4,559.2 L 324.7,560.3 L 325.0,561.4 L 325.2,562.8 L 325.4,564.1 L 325.6,565.5 L 325.7,567.0 L 325.8,568.5 L 325.9,570.1 L 325.9,571.8 L 325.9,573.5 L 325.8,575.2 L 325.7,576.6 L 325.6,578.0 L 325.5,579.6 L 325.3,581.0 L 325.0,582.5 L 324.8,583.7 L 324.5,585.0 L 324.2,586.5 L 305.1,650.7 L 289.9,700.2 L 273.6,755.9 L 270.5,764.8 L 269.7,766.8 L 268.9,768.8 L 268.2,770.4 L 267.4,772.1 L 266.4,773.7 L 265.3,775.3 L 264.2,776.8 L 263.0,778.3 L 261.7,779.8 L 260.4,781.1 L 259.0,782.2 L 257.5,783.3 L 255.9,784.2 L 254.0,785.1 L 252.2,785.9 L 250.6,786.5 L 248.8,787.0 L 246.8,787.5 L 244.7,787.9 L 242.7,788.2 L 240.7,788.4 L 238.9,788.5 L 237.1,788.5 L 235.3,788.5 L 233.3,788.4 L 231.2,788.2 L 229.5,788.1 L 228.0,787.9 L 226.7,787.7 L 225.6,787.5 L 224.4,787.3 L 223.4,787.0 L 222.0,786.5 L 220.6,786.0 L 219.9,785.6 L 219.0,785.2 L 218.1,784.6 L 217.1,783.9 L 216.0,783.1 L 214.3,781.7 L 195.3,765.8 L 185.5,757.5 L 184.1,756.5 L 182.9,755.8 L 181.7,755.2 L 180.6,754.7 L 179.4,754.2 L 178.2,753.7 L 177.0,753.2 L 175.7,752.7 L 174.4,752.4 L 172.8,752.0 L 171.2,751.7 L 169.5,751.5 L 167.9,751.3 L 166.2,751.2 L 164.8,751.2 L 163.3,751.2 L 161.7,751.2 L 160.2,751.4 L 158.7,751.5 L 157.1,751.8 L 155.8,752.1 L 154.4,752.4 L 152.9,752.8 L 151.3,753.4 L 149.7,754.0 L 148.4,754.6 L 147.1,755.3 L 145.6,756.2 L 144.1,757.1 L 142.6,758.1 L 140.9,759.2 L 139.5,760.2 L 138.1,761.4 L 136.5,762.9 L 135.2,764.1 L 134.5,764.8 L 133.5,766.0 L 132.7,767.1 L 131.6,768.5 L 130.6,770.0 L 129.6,771.5 L 128.8,773.1 L 128.0,774.8 L 127.2,776.6 L 126.2,778.9 L 125.0,781.8 L 123.7,785.3 L 122.1,790.3 L 118.1,803.7 L 112.8,821.7 L 111.5,826.6 L 107.8,840.1 L 107.0,843.3 L 96.3,883.3 L 95.9,884.4 L 95.6,885.4 L 95.3,886.1 L 94.9,886.8 L 94.5,887.4 L 94.0,888.1 L 93.5,888.7 L 93.0,889.2 L 92.4,889.6 L 91.8,890.1 L 91.1,890.5 L 90.4,890.8 L 89.7,891.0 L 89.0,891.2 L 88.2,891.3 L 87.5,891.4 L 87.0,891.4 L 86.5,891.4 L 86.0,891.3 L 85.4,891.2 L 84.2,890.9 L 79.0,889.8 L 58.4,885.2 L 56.4,884.7 L 57.0,884.9 L 57.5,885.1 L 58.0,885.4 L 58.6,885.7 L 59.2,886.0 L 59.8,886.4 L 60.3,886.8 L 60.8,887.2 L 61.4,887.7 L 61.8,888.2 L 62.3,888.7 L 62.8,889.3 L 63.2,889.8 L 63.6,890.3 L 64.0,890.9 L 64.4,891.5 L 64.8,892.1 L 65.1,892.7 L 65.3,893.4 L 65.6,894.0 L 65.8,894.7 L 66.0,895.6 L 75.1,944.4 Z" fill="none" stroke="currentColor" stroke-width="10" stroke-linejoin="round" stroke-linecap="round"/></svg>