<svg xmlns="http://www.w3.org/2000/svg" viewBox="0 0 1000 1000" role="img" aria-label="Buriram International Circuit track outline"><path d="M674.0,958.2 L 312.4,784.8 L 308.6,781.2 L 306.3,776.6 L 305.7,771.4 L 306.1,765.9 L 350.9,575.6 L 398.2,375.2 L 404.8,347.1 L 409.9,321.6 L 413.1,298.1 L 413.8,291.9 L 440.5,67.2 L 441.7,62.6 L 443.5,58.1 L 446.0,54.0 L 449.0,50.3 L 452.5,47.1 L 456.5,44.4 L 460.8,42.3 L 465.3,40.9 L 470.1,40.1 L 474.8,40.0 L 480.5,40.8 L 486.0,42.6 L 491.1,45.3 L 495.7,48.8 L 499.5,53.1 L 502.6,58.0 L 504.7,63.3 L 506.0,69.0 L 506.2,74.7 L 505.4,80.4 L 501.2,109.3 L 492.0,173.0 L 471.0,317.8 L 430.3,599.1 L 424.2,639.1 L 422.0,660.5 L 423.0,676.2 L 424.9,686.0 L 429.8,698.2 L 437.6,709.4 L 549.0,825.1 L 559.7,836.2 L 565.4,839.9 L 571.9,841.7 L 578.7,841.4 L 585.1,839.2 L 591.9,835.6 L 596.9,831.5 L 600.8,825.3 L 617.0,787.8 L 619.5,775.2 L 619.6,768.8 L 619.6,762.6 L 617.2,747.3 L 611.9,734.3 L 602.8,721.8 L 589.7,711.8 L 523.3,679.0 L 513.8,669.5 L 511.1,664.4 L 508.6,659.7 L 498.9,636.0 L 498.1,627.7 L 498.3,619.7 L 519.2,454.0 L 524.6,410.8 L 526.1,406.0 L 528.5,401.4 L 531.6,397.3 L 535.4,393.8 L 539.7,391.0 L 544.4,389.0 L 549.3,387.8 L 639.7,372.3 L 651.6,371.3 L 658.9,372.8 L 663.3,373.8 L 672.0,378.2 L 679.5,384.5 L 684.5,391.0 L 688.1,398.4 L 690.5,410.0 L 689.7,421.7 L 686.4,431.2 L 680.9,439.6 L 652.6,465.8 L 644.3,475.6 L 641.4,480.9 L 638.8,485.6 L 635.0,495.7 L 632.6,508.2 L 632.2,521.9 L 634.0,539.1 L 638.4,553.0 L 642.9,562.8 L 658.9,588.7 L 666.3,600.6 L 671.3,610.7 L 675.3,625.6 L 676.7,639.7 L 680.3,742.6 L 682.9,773.9 L 683.7,784.1 L 687.0,824.0 L 690.3,880.1 L 693.8,939.4 L 694.3,947.6 L 693.2,952.1 L 690.7,955.9 L 687.0,958.7 L 682.5,960.0 L 677.9,959.8 L 674.0,958.2 Z" fill="none" stroke="currentColor" stroke-width="10" stroke-linejoin="round" stroke-linecap="round"/></svg>