<svg xmlns="http://www.w3.org/2000/svg" viewBox="0 0 1000 1000" role="img" aria-label="Circuit de Barcelona-Catalunya track outline"><path d="M 691.7,43.7 L 714.1,60.8 L 715.4,61.8 L 717.3,63.2 L 729.0,72.1 L 730.3,73.1 L 755.5,92.7 L 757.8,94.5 L 760.2,96.1 L 762.1,97.0 L 764.1,97.5 L 765.7,97.7 L 767.5,97.4 L 769.1,96.8 L 770.9,95.5 L 772.4,94.2 L 785.3,80.2 L 787.2,78.6 L 789.4,77.1 L 791.9,76.3 L 794.1,76.4 L 796.4,77.6 L 799.7,79.3 L 803.1,81.6 L 820.7,92.8 L 846.5,109.2 L 856.2,116.1 L 861.6,121.3 L 865.6,126.6 L 869.5,132.1 L 872.7,138.5 L 875.2,144.8 L 877.4,152.2 L 878.8,161.0 L 879.2,168.4 L 879.2,175.9 L 878.2,183.5 L 876.6,190.5 L 874.3,197.0 L 871.3,203.4 L 867.4,210.0 L 777.3,352.3 L 717.8,446.7 L 666.0,529.5 L 641.6,567.4 L 552.9,709.6 L 509.8,777.7 L 466.2,846.9 L 455.1,865.0 L 449.4,874.5 L 430.1,905.2 L 424.6,912.0 L 418.9,917.0 L 412.5,920.6 L 405.7,921.6 L 397.7,921.3 L 389.1,919.4 L 381.3,915.1 L 369.0,906.8 L 362.0,902.7 L 355.6,900.0 L 347.5,898.3 L 339.5,897.9 L 330.3,898.8 L 322.2,901.3 L 315.1,905.6 L 272.6,936.7 L 264.5,942.6 L 257.4,947.9 L 250.1,951.8 L 240.4,955.5 L 231.7,958.2 L 220.0,960.0 L 201.8,959.4 L 191.2,957.6 L 181.7,954.8 L 167.6,947.9 L 156.9,939.8 L 148.5,931.4 L 142.0,923.6 L 135.1,913.7 L 128.0,898.5 L 123.3,882.4 L 121.3,869.0 L 120.8,859.1 L 121.2,843.1 L 123.1,827.7 L 125.8,815.6 L 129.3,803.2 L 133.5,790.1 L 138.9,776.7 L 145.7,763.9 L 173.0,721.0 L 243.7,607.8 L 249.3,599.9 L 255.7,594.3 L 262.7,590.2 L 271.7,587.5 L 279.4,586.2 L 287.7,587.2 L 296.1,589.4 L 302.8,592.9 L 309.3,597.3 L 315.2,602.4 L 321.5,610.0 L 326.5,618.1 L 330.4,626.9 L 332.5,636.5 L 333.7,647.7 L 333.9,658.3 L 332.7,668.4 L 329.8,680.8 L 325.6,691.7 L 316.3,708.7 L 298.9,735.2 L 247.3,817.1 L 243.8,823.6 L 242.0,830.1 L 241.8,836.8 L 243.4,844.3 L 246.6,850.0 L 250.5,854.8 L 256.5,859.1 L 263.5,861.2 L 270.1,862.0 L 277.6,860.7 L 283.7,858.1 L 385.0,812.5 L 398.4,804.7 L 413.7,793.8 L 423.8,785.1 L 433.3,775.8 L 443.8,762.8 L 454.1,747.5 L 486.1,696.8 L 489.3,691.2 L 490.7,687.4 L 492.3,682.5 L 492.6,678.6 L 492.6,674.9 L 491.9,671.4 L 490.8,667.4 L 488.8,662.2 L 486.2,658.3 L 483.1,655.0 L 479.7,652.1 L 476.7,649.9 L 466.6,644.1 L 457.2,638.2 L 446.6,629.2 L 440.2,621.9 L 434.5,613.1 L 430.0,603.2 L 403.8,540.7 L 378.9,482.6 L 375.5,473.8 L 373.8,467.0 L 372.8,460.4 L 372.6,453.9 L 372.7,447.4 L 374.4,437.3 L 377.7,426.2 L 383.0,416.4 L 389.5,407.9 L 393.3,403.5 L 397.1,399.7 L 408.1,391.7 L 422.4,383.9 L 490.0,349.8 L 546.5,320.8 L 574.0,306.7 L 611.2,287.9 L 652.4,267.1 L 751.4,215.4 L 759.0,210.9 L 763.4,206.8 L 766.1,203.0 L 767.0,201.7 L 768.8,196.4 L 769.1,189.3 L 767.2,181.1 L 763.8,175.2 L 758.2,169.3 L 752.0,164.8 L 745.6,161.1 L 739.6,158.5 L 734.6,156.3 L 724.1,153.8 L 713.4,152.6 L 703.3,152.6 L 695.6,153.3 L 684.6,155.6 L 675.1,159.8 L 664.6,165.7 L 660.1,168.5 L 659.0,169.5 L 639.6,185.8 L 633.4,190.3 L 627.2,193.9 L 618.6,196.4 L 614.6,197.2 L 605.9,197.7 L 599.3,196.9 L 594.5,195.5 L 588.5,193.0 L 581.3,188.5 L 575.1,182.9 L 569.0,173.7 L 565.2,164.5 L 563.7,154.2 L 563.7,147.5 L 565.0,140.5 L 567.3,133.1 L 571.5,125.5 L 578.2,118.6 L 625.5,80.1 L 668.3,44.1 L 674.9,41.1 L 680.3,40.0 L 686.0,40.7 L 691.7,43.7 Z" fill="none" stroke="currentColor" stroke-width="10" stroke-linejoin="round" stroke-linecap="round"/></svg>