<svg xmlns="http://www.w3.org/2000/svg" viewBox="0 0 1000 1000" role="img" aria-label="Circuit de Charade track outline"><path d="M808.2,459.2 L 803.0,463.6 L 798.3,466.8 L 792.3,470.1 L 787.6,472.2 L 783.7,473.8 L 779.8,474.9 L 757.4,479.2 L 734.8,483.1 L 681.8,493.2 L 670.1,496.3 L 641.9,506.1 L 613.4,516.1 L 609.8,517.1 L 605.8,517.9 L 599.7,519.3 L 593.7,520.1 L 583.1,520.5 L 500.4,522.2 L 458.7,522.6 L 427.9,523.2 L 418.4,523.7 L 415.4,523.9 L 413.0,524.5 L 407.3,526.5 L 403.2,528.9 L 399.7,532.2 L 397.4,534.9 L 395.4,538.7 L 394.2,543.1 L 394.1,546.0 L 394.1,550.4 L 394.4,553.2 L 395.1,555.6 L 396.1,557.9 L 397.4,559.8 L 400.2,563.3 L 403.1,565.9 L 408.3,569.8 L 413.4,572.5 L 429.9,580.6 L 446.5,588.3 L 458.2,594.0 L 463.4,596.1 L 469.3,598.3 L 475.2,600.0 L 481.5,601.4 L 494.9,603.1 L 517.0,605.5 L 520.7,606.6 L 523.4,607.9 L 526.5,610.8 L 528.1,613.5 L 528.8,615.1 L 529.2,617.6 L 529.1,619.6 L 528.9,621.1 L 528.3,623.2 L 527.2,625.4 L 525.5,627.6 L 523.5,629.3 L 520.9,630.6 L 518.5,631.3 L 515.4,631.4 L 512.3,630.8 L 509.7,629.9 L 491.4,621.2 L 483.0,618.3 L 478.8,617.3 L 474.6,616.5 L 468.6,615.7 L 462.5,615.0 L 456.7,615.2 L 450.8,615.6 L 436.1,617.5 L 408.9,621.7 L 382.3,626.5 L 377.3,627.7 L 372.1,629.6 L 366.8,631.9 L 361.3,635.0 L 358.7,636.6 L 356.1,638.7 L 352.3,642.7 L 348.7,646.4 L 345.9,649.9 L 342.9,654.4 L 341.0,658.2 L 339.3,662.0 L 338.1,665.2 L 336.7,669.4 L 336.2,673.3 L 335.7,679.6 L 335.6,684.1 L 336.1,690.0 L 336.4,694.8 L 336.3,699.6 L 335.9,702.8 L 335.4,705.7 L 334.3,709.6 L 333.0,712.8 L 331.8,716.5 L 330.1,719.9 L 326.1,726.3 L 323.0,730.0 L 319.8,733.2 L 313.2,739.0 L 309.1,741.7 L 305.0,743.8 L 300.8,745.6 L 297.2,746.9 L 292.6,748.1 L 287.6,748.7 L 283.5,748.9 L 275.7,748.6 L 269.0,747.2 L 265.4,745.9 L 258.6,743.3 L 252.6,740.1 L 248.4,737.1 L 244.4,733.7 L 240.5,729.5 L 238.1,725.9 L 235.5,722.1 L 232.9,717.2 L 228.1,707.4 L 222.9,696.7 L 218.7,689.7 L 216.1,686.4 L 212.8,683.0 L 203.1,675.9 L 196.0,673.3 L 188.6,671.9 L 180.9,671.1 L 123.0,668.6 L 86.2,666.0 L 72.6,662.7 L 60.2,658.5 L 46.9,652.1 L 42.0,647.4 L 40.7,643.5 L 40.0,639.2 L 40.7,635.1 L 41.8,632.6 L 43.2,629.6 L 46.8,626.0 L 55.0,620.0 L 87.8,601.9 L 128.6,579.4 L 211.7,533.3 L 222.6,526.9 L 228.0,522.9 L 232.3,518.0 L 237.3,511.2 L 242.1,503.6 L 245.5,494.1 L 247.9,484.8 L 248.2,474.9 L 247.8,465.2 L 246.1,455.6 L 244.9,451.5 L 242.7,446.2 L 239.2,439.9 L 235.0,433.6 L 102.9,271.6 L 101.0,268.7 L 99.9,266.2 L 99.1,262.8 L 99.5,259.7 L 100.7,257.2 L 102.0,255.8 L 104.2,253.7 L 106.6,252.4 L 108.5,251.6 L 110.6,251.2 L 112.5,251.1 L 114.1,251.3 L 116.7,251.5 L 203.9,266.0 L 208.3,266.8 L 212.4,268.5 L 215.4,270.6 L 217.8,272.9 L 220.5,276.8 L 221.7,279.5 L 222.4,282.1 L 223.4,289.8 L 224.1,293.6 L 225.1,296.4 L 226.0,298.4 L 227.4,300.8 L 229.0,302.5 L 231.3,304.3 L 233.5,305.8 L 235.9,306.8 L 300.0,333.1 L 357.3,356.0 L 363.5,357.9 L 366.8,358.1 L 369.6,357.7 L 374.8,355.8 L 377.6,354.4 L 380.1,352.3 L 382.3,349.8 L 384.1,346.5 L 386.4,340.9 L 390.4,329.7 L 392.4,325.0 L 393.6,322.9 L 394.6,321.5 L 398.3,317.0 L 403.3,313.1 L 408.4,310.5 L 413.9,308.6 L 508.2,301.6 L 514.6,302.0 L 519.8,303.3 L 525.7,305.5 L 530.5,309.0 L 535.3,314.7 L 538.7,321.0 L 540.8,328.0 L 542.8,336.0 L 544.3,341.3 L 546.8,345.1 L 549.1,347.8 L 553.0,350.5 L 556.4,352.1 L 561.2,353.8 L 566.1,354.1 L 573.7,352.6 L 578.2,350.8 L 581.5,347.3 L 592.7,336.2 L 598.1,331.6 L 604.0,328.3 L 611.3,324.8 L 616.8,322.4 L 623.8,320.6 L 696.6,317.6 L 732.9,316.1 L 763.8,313.5 L 778.3,311.9 L 792.8,309.0 L 808.9,305.6 L 825.2,301.5 L 881.0,282.3 L 907.7,272.9 L 916.4,269.9 L 923.9,267.8 L 930.3,266.2 L 934.4,265.6 L 938.3,265.6 L 941.0,266.3 L 944.8,267.4 L 949.6,269.9 L 953.6,272.9 L 956.6,276.6 L 958.5,279.5 L 959.3,282.5 L 960.0,288.8 L 959.8,292.0 L 959.3,294.6 L 957.5,299.1 L 953.9,303.9 L 949.6,308.0 L 942.8,312.3 L 935.6,315.5 L 922.6,318.3 L 889.7,326.7 L 881.4,329.1 L 876.0,331.5 L 871.9,334.3 L 868.8,337.6 L 866.2,342.3 L 864.2,348.0 L 863.4,353.5 L 863.9,360.0 L 869.5,380.5 L 870.3,386.2 L 870.1,391.7 L 868.9,396.8 L 867.1,401.6 L 865.0,405.0 L 862.6,408.6 L 832.4,437.1 L 808.2,459.2 Z" fill="none" stroke="currentColor" stroke-width="10" stroke-linejoin="round" stroke-linecap="round"/></svg>