<svg xmlns="http://www.w3.org/2000/svg" viewBox="0 0 1000 1000" role="img" aria-label="Circuit Paul Armagnac track outline"><path d="M458.1,521.0 L 456.7,516.6 L 454.9,511.0 L 451.5,499.7 L 446.3,489.8 L 435.8,477.3 L 273.0,288.4 L 202.9,333.9 L 188.1,333.7 L 179.2,329.2 L 169.3,318.4 L 148.5,262.9 L 141.7,248.4 L 130.6,229.2 L 99.3,181.1 L 90.6,158.1 L 74.7,125.7 L 226.8,40.0 L 314.0,43.4 L 314.2,51.3 L 358.7,53.2 L 376.8,57.4 L 381.1,60.6 L 381.2,108.1 L 387.7,143.9 L 387.4,205.1 L 636.1,470.8 L 856.9,689.8 L 890.6,702.3 L 874.7,721.0 L 880.8,728.1 L 925.3,747.7 L 921.1,768.6 L 923.3,769.2 L 919.2,787.5 L 925.1,788.9 L 924.1,792.5 L 854.6,773.1 L 841.1,792.3 L 824.1,829.3 L 820.8,842.2 L 766.5,960.0 L 744.2,942.9 L 647.8,822.9 L 644.2,819.4 L 640.7,815.3 L 637.4,818.1 L 616.3,793.9 L 586.2,757.9 L 579.7,750.0 L 582.0,744.5 L 538.4,717.3 L 521.9,700.2 L 512.4,683.3 L 498.9,645.4 L 467.6,521.4 L 458.1,521.0 Z" fill="none" stroke="currentColor" stroke-width="10" stroke-linejoin="round" stroke-linecap="round"/></svg>