<svg xmlns="http://www.w3.org/2000/svg" viewBox="0 0 1000 1000" role="img" aria-label="Circuit des Nations track outline"><path d="M305.8,952.2 L 307.6,951.1 L 309.0,949.2 L 310.3,947.4 L 322.1,929.8 L 334.6,911.1 L 337.1,907.1 L 338.7,904.9 L 340.2,903.3 L 341.5,902.2 L 342.8,901.5 L 344.4,900.9 L 345.7,900.5 L 346.8,900.4 L 348.4,900.3 L 350.3,900.5 L 352.9,901.1 L 356.8,902.2 L 378.5,909.4 L 385.1,911.7 L 388.3,913.1 L 391.1,914.4 L 394.3,916.2 L 398.1,918.9 L 398.5,919.2 L 402.9,923.0 L 406.6,926.9 L 411.9,933.0 L 420.3,943.7 L 422.9,946.5 L 425.3,948.8 L 427.0,949.9 L 428.6,950.9 L 431.1,952.0 L 434.3,953.0 L 439.7,954.4 L 445.8,956.2 L 455.1,959.2 L 457.9,959.9 L 459.5,960.0 L 461.3,960.0 L 462.7,959.8 L 464.3,959.5 L 490.5,951.7 L 494.7,950.5 L 505.3,947.2 L 511.2,945.2 L 514.8,943.8 L 516.8,942.8 L 519.5,941.4 L 522.1,939.7 L 524.3,938.0 L 526.5,936.3 L 528.5,934.6 L 534.2,930.0 L 549.8,917.8 L 548.9,914.5 L 545.9,904.8 L 543.7,897.5 L 541.3,890.3 L 538.5,881.7 L 537.9,879.5 L 537.8,879.2 L 537.5,878.0 L 537.2,876.5 L 537.0,874.7 L 536.9,872.9 L 537.0,871.3 L 537.1,870.0 L 537.5,868.6 L 538.2,866.6 L 538.9,865.1 L 539.7,863.6 L 542.0,860.4 L 544.8,856.8 L 560.1,837.8 L 553.8,831.8 L 547.2,825.5 L 543.5,822.3 L 539.4,819.2 L 535.0,816.2 L 531.3,813.7 L 524.8,810.6 L 520.8,808.6 L 512.7,804.2 L 510.4,802.7 L 508.1,800.6 L 507.0,799.4 L 504.5,796.6 L 501.3,793.0 L 499.9,791.4 L 498.3,789.8 L 496.9,788.4 L 494.1,785.8 L 491.2,782.8 L 488.4,780.4 L 487.5,779.5 L 486.8,778.8 L 485.7,777.5 L 485.0,776.4 L 484.5,775.4 L 484.3,774.5 L 484.0,773.5 L 483.9,772.7 L 483.7,771.2 L 483.4,770.2 L 483.1,769.2 L 482.7,768.5 L 482.3,767.7 L 481.8,767.2 L 481.1,766.5 L 480.0,765.8 L 472.2,761.5 L 471.0,760.7 L 470.5,760.0 L 470.6,759.2 L 470.8,758.4 L 473.1,755.1 L 473.3,754.7 L 473.9,754.0 L 474.4,753.0 L 476.0,749.9 L 476.7,746.4 L 476.9,745.4 L 477.3,744.0 L 477.8,742.3 L 477.9,742.0 L 478.1,740.9 L 476.6,741.4 L 476.1,741.2 L 474.4,740.6 L 472.2,739.1 L 471.7,738.8 L 469.4,736.8 L 468.5,735.9 L 467.9,735.2 L 467.5,734.5 L 466.4,732.9 L 465.6,731.6 L 465.2,731.0 L 463.9,728.2 L 461.7,720.0 L 460.2,714.1 L 459.8,712.8 L 458.6,710.0 L 457.3,707.6 L 455.9,705.4 L 453.8,702.6 L 448.5,696.6 L 444.4,691.8 L 442.2,688.5 L 439.0,683.1 L 432.7,672.5 L 431.9,670.8 L 431.6,669.6 L 431.5,668.1 L 431.7,666.7 L 432.2,665.3 L 438.4,654.6 L 440.2,651.3 L 441.1,649.5 L 441.6,648.1 L 441.8,646.8 L 441.8,645.4 L 441.8,643.9 L 441.6,642.6 L 441.2,641.0 L 440.7,639.6 L 440.1,638.2 L 439.2,637.1 L 438.2,635.6 L 436.4,633.5 L 433.8,630.9 L 428.8,625.9 L 427.4,624.4 L 426.9,623.7 L 426.6,622.9 L 426.2,622.1 L 426.2,621.5 L 426.1,620.9 L 426.1,619.8 L 426.5,617.6 L 430.4,599.9 L 434.1,580.3 L 437.9,569.5 L 442.0,558.2 L 443.7,553.9 L 444.5,552.1 L 444.9,551.3 L 445.8,549.6 L 447.7,546.7 L 449.4,544.0 L 453.0,538.6 L 454.5,535.9 L 457.1,531.4 L 457.6,529.7 L 458.0,528.0 L 458.3,526.1 L 458.3,524.4 L 458.4,522.9 L 458.2,520.9 L 457.7,518.2 L 454.9,507.2 L 454.5,505.3 L 454.4,502.9 L 454.6,501.6 L 455.1,499.9 L 456.3,497.3 L 458.2,494.8 L 459.6,493.0 L 462.5,489.1 L 463.2,487.8 L 463.8,486.1 L 464.1,484.2 L 464.1,483.1 L 464.0,481.8 L 463.8,479.5 L 462.8,474.7 L 462.4,472.6 L 460.0,461.9 L 459.6,459.3 L 459.7,458.2 L 459.8,457.4 L 460.1,456.0 L 460.3,455.4 L 460.4,455.1 L 461.0,454.0 L 462.1,452.5 L 461.8,452.2 L 461.6,451.9 L 461.5,451.6 L 461.4,451.2 L 460.9,450.2 L 460.7,449.7 L 460.5,449.3 L 460.1,448.8 L 458.8,447.2 L 458.6,446.9 L 458.4,446.6 L 458.2,446.2 L 458.0,445.5 L 457.6,445.0 L 456.0,443.2 L 454.6,441.8 L 453.0,440.4 L 452.5,440.1 L 451.0,439.2 L 449.7,438.3 L 448.0,437.4 L 445.8,436.3 L 444.1,435.7 L 441.6,434.9 L 442.8,433.2 L 445.0,431.0 L 449.2,428.1 L 449.9,427.4 L 451.6,424.2 L 451.9,423.7 L 453.1,420.3 L 454.6,417.1 L 455.9,415.7 L 458.5,413.2 L 462.9,408.7 L 463.9,407.8 L 466.2,405.5 L 468.4,403.2 L 470.2,401.2 L 472.0,399.7 L 472.9,399.0 L 474.5,398.0 L 480.7,395.6 L 485.1,394.1 L 487.9,393.1 L 490.5,391.9 L 492.6,390.7 L 496.6,387.7 L 498.1,386.5 L 498.5,386.2 L 501.4,383.8 L 504.2,381.8 L 509.7,376.7 L 513.3,373.6 L 515.6,372.0 L 516.9,371.3 L 519.0,370.4 L 522.8,369.0 L 524.1,368.3 L 525.1,367.7 L 526.3,366.7 L 528.4,364.4 L 533.3,357.4 L 538.6,350.2 L 540.3,348.3 L 541.3,347.6 L 542.4,347.0 L 543.4,346.8 L 545.3,346.7 L 551.8,347.0 L 554.0,346.7 L 555.6,346.5 L 556.9,346.2 L 558.1,345.7 L 559.9,344.8 L 563.4,342.5 L 567.1,340.2 L 570.9,337.6 L 572.3,336.3 L 573.1,335.1 L 573.7,333.8 L 573.8,332.3 L 573.8,331.1 L 573.5,329.4 L 571.8,324.6 L 571.6,323.5 L 571.6,322.3 L 571.8,321.4 L 572.1,320.6 L 572.9,319.5 L 573.7,318.9 L 574.8,318.5 L 576.2,318.4 L 577.4,318.8 L 578.9,319.6 L 592.1,330.1 L 595.4,332.5 L 597.0,333.3 L 597.8,333.6 L 598.7,333.6 L 599.6,333.5 L 600.7,333.1 L 601.6,332.4 L 602.2,331.8 L 602.6,331.0 L 602.8,330.3 L 602.9,328.7 L 602.5,327.1 L 600.4,323.1 L 596.7,315.4 L 596.1,313.6 L 595.8,312.4 L 595.9,311.7 L 596.2,311.1 L 596.7,310.8 L 597.5,310.5 L 599.2,310.5 L 598.8,304.6 L 597.9,287.5 L 597.5,283.6 L 597.2,280.5 L 596.0,275.2 L 594.9,270.9 L 594.7,269.6 L 594.6,268.6 L 594.8,267.5 L 595.1,266.3 L 595.6,265.5 L 596.0,264.9 L 596.7,264.3 L 597.2,263.9 L 598.0,263.6 L 598.9,263.5 L 599.5,263.4 L 600.5,263.6 L 601.5,263.8 L 603.0,264.2 L 606.4,265.0 L 607.6,265.1 L 608.5,265.1 L 609.3,264.9 L 610.0,264.5 L 611.1,263.9 L 611.5,263.5 L 612.0,262.9 L 612.4,262.1 L 613.0,261.0 L 614.1,258.3 L 616.5,253.8 L 618.8,249.6 L 623.7,241.9 L 626.9,237.1 L 629.1,234.6 L 631.9,231.6 L 634.4,229.3 L 638.0,226.5 L 641.1,224.3 L 644.0,222.7 L 647.6,220.9 L 652.6,218.5 L 658.6,215.7 L 662.4,213.5 L 664.7,212.1 L 666.7,210.5 L 668.5,209.0 L 670.5,207.2 L 673.4,204.2 L 675.8,201.2 L 677.3,199.0 L 678.2,196.9 L 679.0,194.3 L 679.4,191.9 L 679.7,189.4 L 679.9,185.4 L 679.8,179.0 L 680.0,173.5 L 680.4,169.9 L 681.0,166.7 L 681.2,165.9 L 681.4,165.1 L 681.6,164.6 L 684.7,156.5 L 687.2,150.0 L 687.8,148.5 L 688.3,146.9 L 688.7,145.9 L 689.6,143.3 L 689.7,142.9 L 690.1,141.9 L 691.4,138.0 L 691.6,137.5 L 692.0,136.2 L 692.3,135.4 L 693.0,133.5 L 693.5,132.0 L 693.9,131.2 L 694.2,130.3 L 693.6,130.0 L 693.1,129.6 L 692.6,129.2 L 691.9,128.5 L 691.3,127.9 L 690.7,127.2 L 690.4,126.9 L 690.0,126.6 L 689.6,126.3 L 689.0,125.8 L 688.4,125.4 L 687.7,124.9 L 687.5,124.8 L 685.5,123.3 L 684.0,122.3 L 683.4,121.8 L 681.4,120.4 L 680.1,119.5 L 676.9,117.2 L 673.8,115.2 L 672.7,114.4 L 671.0,113.2 L 670.3,112.7 L 668.1,111.0 L 666.6,109.9 L 665.6,109.2 L 663.1,107.1 L 661.5,105.8 L 660.5,105.0 L 659.5,104.2 L 655.2,100.8 L 654.6,100.3 L 652.0,98.3 L 650.5,97.2 L 647.2,94.5 L 646.9,94.2 L 646.5,94.0 L 646.3,93.8 L 644.2,92.0 L 642.4,90.3 L 641.9,89.8 L 641.1,89.1 L 639.1,87.0 L 636.0,83.6 L 635.8,83.4 L 634.4,81.8 L 633.0,80.0 L 632.2,78.9 L 630.8,76.9 L 630.0,75.7 L 629.5,75.1 L 629.2,74.6 L 629.1,74.5 L 628.8,73.9 L 627.9,72.7 L 626.7,70.7 L 625.8,69.3 L 624.9,68.0 L 623.1,65.2 L 622.2,63.9 L 621.4,62.8 L 620.6,61.8 L 620.4,61.5 L 619.3,60.2 L 618.6,59.6 L 617.8,58.7 L 616.9,57.8 L 616.4,57.4 L 615.6,56.6 L 614.6,55.8 L 613.3,54.8 L 611.8,53.6 L 610.4,52.6 L 610.3,52.5 L 608.9,51.6 L 607.6,50.8 L 606.8,50.3 L 605.8,49.7 L 604.9,49.3 L 604.0,48.9 L 603.4,48.7 L 602.7,48.4 L 602.1,48.2 L 595.6,47.3 L 594.9,47.2 L 594.1,47.2 L 592.3,47.1 L 592.1,47.2 L 591.6,47.4 L 591.2,47.5 L 590.7,47.5 L 589.7,48.3 L 589.2,48.6 L 588.6,49.3 L 588.1,49.9 L 587.9,50.1 L 587.3,50.9 L 584.5,54.0 L 586.2,49.5 L 586.5,48.8 L 586.6,48.3 L 586.9,47.2 L 587.2,45.3 L 587.0,44.8 L 586.9,44.3 L 586.9,43.8 L 586.8,43.6 L 587.0,42.8 L 587.1,42.4 L 587.3,42.0 L 587.5,41.6 L 587.8,41.2 L 588.1,40.9 L 588.5,40.7 L 588.9,40.4 L 589.3,40.2 L 589.7,40.1 L 590.3,40.0 L 590.8,40.0 L 591.3,40.1 L 591.8,40.2 L 592.3,40.4 L 592.8,40.7 L 593.2,41.0 L 593.5,41.4 L 593.8,41.8 L 594.1,42.3 L 594.3,42.8 L 594.3,43.3 L 595.1,44.3 L 595.6,44.8 L 596.0,45.3 L 596.4,45.5 L 596.8,45.9 L 597.4,46.1 L 602.1,48.2" fill="none" stroke="currentColor" stroke-width="10" stroke-linejoin="round" stroke-linecap="round"/></svg>