<svg xmlns="http://www.w3.org/2000/svg" viewBox="0 0 1000 1000" role="img" aria-label="Circuit of the Americas track outline"><path d="M 191.4,471.1 L 184.8,463.2 L 182.4,460.8 L 180.3,459.1 L 178.5,458.0 L 176.7,457.2 L 175.0,456.7 L 173.0,456.4 L 170.7,456.2 L 168.4,456.4 L 165.7,456.9 L 162.1,457.7 L 158.2,458.8 L 153.4,460.6 L 148.7,462.5 L 139.7,466.6 L 55.8,503.7 L 47.0,507.5 L 45.1,508.4 L 43.8,509.3 L 42.7,510.3 L 41.8,511.4 L 41.1,512.5 L 40.6,513.6 L 40.3,514.9 L 40.1,516.0 L 40.0,517.3 L 40.1,518.6 L 40.5,520.0 L 41.0,521.2 L 41.9,522.8 L 43.5,524.7 L 49.8,529.9 L 98.1,567.5 L 215.5,659.7 L 320.7,742.1 L 331.1,749.5 L 340.7,755.7 L 349.7,760.9 L 352.2,762.1 L 354.0,762.7 L 355.9,763.0 L 357.6,762.8 L 359.1,762.4 L 359.8,762.1 L 361.3,761.3 L 362.5,760.2 L 363.5,758.8 L 363.8,757.2 L 363.8,755.1 L 363.5,753.2 L 362.8,750.4 L 360.5,742.6 L 356.8,732.7 L 341.0,685.8 L 338.3,677.6 L 337.3,673.6 L 336.5,669.6 L 336.2,666.0 L 336.2,662.4 L 336.3,658.4 L 336.8,654.2 L 337.7,650.1 L 339.1,645.8 L 340.5,641.7 L 342.3,637.7 L 344.3,634.0 L 346.5,630.4 L 349.0,627.0 L 351.9,623.7 L 354.9,620.8 L 358.6,617.9 L 362.6,615.1 L 367.5,612.1 L 376.9,606.3 L 425.8,576.5 L 432.6,572.1 L 436.1,569.6 L 439.7,566.9 L 442.7,563.9 L 445.4,560.6 L 447.7,557.2 L 449.7,553.9 L 451.7,549.1 L 453.6,544.1 L 455.1,539.7 L 456.6,535.7 L 458.4,531.4 L 460.4,527.5 L 462.7,524.0 L 465.5,520.6 L 468.9,517.3 L 472.9,514.9 L 477.6,512.7 L 484.0,510.2 L 490.4,508.0 L 494.1,506.3 L 497.4,504.4 L 500.4,502.0 L 503.1,499.4 L 505.7,496.6 L 507.6,494.0 L 509.2,490.6 L 510.3,487.2 L 511.1,483.7 L 511.8,478.7 L 512.8,471.2 L 513.8,463.9 L 514.9,458.1 L 516.2,453.9 L 518.4,449.6 L 520.9,445.4 L 524.4,440.9 L 528.1,436.9 L 531.5,433.9 L 535.7,430.7 L 539.7,428.1 L 543.5,425.9 L 548.0,423.7 L 553.3,421.4 L 558.0,419.9 L 562.1,418.9 L 566.0,418.4 L 569.1,418.3 L 572.2,418.3 L 575.1,418.7 L 577.9,419.3 L 580.8,420.1 L 584.1,421.3 L 595.7,426.6 L 611.5,433.9 L 626.5,440.6 L 629.8,442.2 L 632.0,443.0 L 633.6,443.4 L 635.5,443.7 L 637.3,443.6 L 639.3,443.2 L 641.6,442.3 L 644.6,440.8 L 652.0,436.1 L 657.6,431.6 L 662.6,427.4 L 666.9,423.3 L 672.6,417.0 L 675.2,413.6 L 677.6,410.1 L 679.7,407.0 L 682.1,403.7 L 684.2,401.3 L 687.2,398.8 L 690.0,397.1 L 693.1,395.8 L 696.7,394.7 L 700.8,394.0 L 704.3,393.8 L 708.3,394.1 L 711.7,394.9 L 714.8,395.9 L 717.0,396.9 L 719.1,398.0 L 721.1,399.5 L 722.8,400.9 L 724.7,402.8 L 726.2,404.6 L 727.9,407.0 L 729.7,409.7 L 730.9,411.9 L 731.9,413.8 L 732.9,415.3 L 734.2,416.4 L 736.0,417.8 L 737.7,418.7 L 739.7,419.4 L 741.6,419.7 L 744.0,419.8 L 746.2,419.6 L 749.2,419.0 L 755.4,417.6 L 822.3,403.0 L 828.5,401.6 L 831.7,400.9 L 834.1,400.1 L 836.1,399.3 L 837.9,398.2 L 839.5,396.9 L 841.0,395.3 L 845.5,390.0 L 931.7,285.5 L 951.9,260.9 L 957.1,254.1 L 958.8,251.3 L 959.6,248.9 L 960.0,246.5 L 959.9,244.3 L 959.2,242.0 L 958.1,240.2 L 956.6,238.7 L 955.1,237.7 L 953.4,237.2 L 951.6,237.0 L 949.6,237.0 L 947.5,237.4 L 943.8,238.3 L 929.7,242.7 L 894.4,254.0 L 854.8,266.3 L 792.7,283.6 L 754.4,293.3 L 700.1,305.7 L 637.7,318.1 L 576.7,328.2 L 561.0,330.3 L 543.8,332.7 L 542.7,332.9 L 540.8,333.1 L 507.1,337.2 L 491.0,338.9 L 484.7,339.5 L 466.2,341.7 L 451.9,343.3 L 418.8,347.0 L 387.7,350.5 L 378.7,351.6 L 376.2,352.0 L 374.4,352.6 L 373.4,353.3 L 372.2,354.6 L 371.5,355.8 L 371.2,357.2 L 371.1,358.5 L 371.3,360.0 L 371.9,361.5 L 372.9,363.1 L 378.6,370.2 L 390.0,384.7 L 398.3,395.5 L 411.2,414.0 L 423.5,433.7 L 427.0,439.1 L 428.0,440.2 L 428.6,443.8 L 428.8,445.8 L 428.7,447.7 L 428.3,449.3 L 427.7,451.2 L 426.9,452.6 L 425.8,453.9 L 424.5,455.2 L 423.2,456.0 L 421.6,456.5 L 419.9,456.9 L 418.0,457.0 L 415.6,456.9 L 405.0,456.3 L 397.2,455.8 L 392.7,455.5 L 389.5,455.1 L 387.6,454.7 L 385.8,454.2 L 384.2,453.3 L 382.5,452.1 L 380.3,450.4 L 379.1,448.9 L 377.8,446.9 L 376.9,444.4 L 374.3,437.2 L 372.6,432.6 L 371.0,428.5 L 369.3,425.0 L 367.5,421.9 L 365.5,419.7 L 361.1,415.0 L 352.5,405.6 L 350.5,403.5 L 348.3,401.7 L 346.5,400.4 L 343.8,399.0 L 341.5,398.2 L 338.5,397.5 L 335.4,396.9 L 331.3,396.4 L 324.8,395.8 L 322.8,395.7 L 320.8,395.7 L 319.3,396.0 L 318.2,396.5 L 317.1,397.2 L 316.2,397.9 L 315.6,398.9 L 315.1,400.0 L 314.8,401.1 L 314.7,402.3 L 314.7,403.6 L 314.9,404.9 L 315.3,406.3 L 316.2,408.3 L 323.2,420.7 L 352.7,471.9 L 357.6,480.9 L 359.3,484.5 L 360.2,487.0 L 361.5,490.5 L 362.2,493.9 L 362.5,497.6 L 362.6,501.4 L 362.2,505.1 L 361.6,508.8 L 360.4,513.7 L 358.4,519.4 L 355.2,527.7 L 353.3,531.5 L 351.5,535.0 L 349.4,538.0 L 347.4,540.6 L 345.8,542.2 L 344.1,543.4 L 341.7,544.9 L 322.6,554.0 L 315.6,557.1 L 311.1,559.0 L 308.8,560.0 L 306.5,560.8 L 303.7,561.4 L 300.4,561.7 L 296.9,561.7 L 293.2,561.6 L 287.2,561.0 L 281.3,560.0 L 276.5,558.8 L 270.1,556.9 L 264.2,554.7 L 259.3,552.6 L 255.5,550.8 L 252.3,548.9 L 248.7,546.4 L 245.4,543.4 L 243.1,541.0 L 241.1,538.4 L 238.1,534.2 L 230.5,522.8 L 224.9,515.2 L 219.7,508.1 L 214.9,501.2 L 208.7,493.0 L 201.9,484.1 L 191.4,471.1 Z" fill="none" stroke="currentColor" stroke-width="10" stroke-linejoin="round" stroke-linecap="round"/></svg>