<svg xmlns="http://www.w3.org/2000/svg" viewBox="0 0 1000 1000" role="img" aria-label="Daytona International Speedway track outline"><path d="M291.1,45.6 L 294.7,48.9 L 297.4,49.6 L 322.1,47.4 L 343.3,48.9 L 368.0,50.7 L 379.3,51.6 L 387.7,53.3 L 398.3,56.5 L 409.9,63.0 L 417.7,68.9 L 428.5,80.8 L 435.4,90.7 L 443.3,102.3 L 455.5,124.3 L 470.2,160.4 L 479.3,188.2 L 487.6,213.7 L 496.0,239.3 L 498.8,247.8 L 505.6,268.8 L 507.6,282.1 L 508.5,291.6 L 514.6,311.2 L 521.3,333.1 L 528.7,357.1 L 537.9,387.1 L 542.8,403.0 L 547.5,418.1 L 562.5,466.9 L 572.1,498.1 L 586.6,545.4 L 635.2,705.1 L 672.8,828.3 L 692.2,892.8 L 699.7,921.5 L 703.7,916.3 L 708.6,914.1 L 714.6,910.2 L 722.0,935.0 L 715.5,937.3 L 644.2,958.8 L 638.5,960.0 L 632.7,958.8 L 627.3,954.8 L 622.8,948.8 L 619.3,938.6 L 615.1,916.8 L 612.4,887.2 L 610.9,857.2 L 608.9,841.7 L 606.2,826.0 L 602.0,810.9 L 570.0,707.4 L 529.6,572.2 L 522.7,552.1 L 513.7,523.8 L 504.6,497.8 L 483.3,448.0 L 461.4,398.4 L 448.6,371.4 L 445.3,356.6 L 451.5,354.7 L 484.7,344.0 L 486.7,349.9 L 501.9,344.5 L 489.1,306.3 L 445.7,307.1 L 433.1,307.0 L 430.6,301.4 L 418.0,271.1 L 402.7,247.2 L 388.4,227.5 L 361.1,191.1 L 339.7,162.7 L 320.8,136.3 L 302.0,110.5 L 283.6,85.8 L 278.0,75.2 L 280.2,55.3 L 285.0,40.0 L 289.7,42.0 L 291.1,45.6 Z" fill="none" stroke="currentColor" stroke-width="10" stroke-linejoin="round" stroke-linecap="round"/></svg>