<svg xmlns="http://www.w3.org/2000/svg" viewBox="0 0 1000 1000" role="img" aria-label="Detroit Street Circuit track outline"><path d="M 388.6,490.1 L 231.2,580.5 L 98.7,657.5 L 46.3,688.1 L 41.5,692.3 L 40.3,694.9 L 40.0,697.5 L 40.3,699.7 L 41.3,702.2 L 42.4,704.5 L 43.3,706.7 L 44.4,709.1 L 46.0,711.2 L 47.9,712.7 L 49.9,713.6 L 52.1,714.2 L 54.8,714.9 L 57.9,713.6 L 90.5,698.4 L 112.4,687.7 L 144.7,669.5 L 182.3,647.7 L 187.0,645.0 L 189.6,643.4 L 191.3,643.1 L 192.9,643.2 L 194.3,643.7 L 196.9,648.2 L 281.0,793.3 L 284.4,799.3 L 286.8,803.5 L 287.7,804.1 L 288.5,804.1 L 289.7,804.1 L 290.8,804.0 L 292.0,803.8 L 292.9,803.5 L 294.3,803.1 L 295.3,802.6 L 296.5,802.0 L 298.5,801.1 L 299.9,800.4 L 376.1,756.2 L 378.7,754.9 L 379.9,754.7 L 381.1,754.8 L 382.1,755.1 L 383.4,755.7 L 389.7,763.5 L 395.2,767.9 L 400.1,771.9 L 402.3,773.1 L 404.7,774.2 L 407.2,775.0 L 409.8,775.6 L 412.5,775.9 L 415.3,776.1 L 418.7,775.9 L 422.1,775.2 L 426.4,773.6 L 430.8,771.7 L 446.8,763.8 L 567.2,694.5 L 658.2,639.5 L 701.1,614.0 L 703.0,611.0 L 703.7,608.6 L 704.1,605.6 L 667.9,534.9 L 660.5,519.4 L 660.2,517.7 L 660.3,515.9 L 661.4,514.3 L 663.3,512.9 L 664.6,512.1 L 665.8,511.2 L 667.3,510.2 L 670.0,508.3 L 814.2,424.2 L 958.6,338.6 L 960.0,334.6 L 960.0,331.1 L 959.8,327.9 L 959.4,323.4 L 908.3,218.9 L 897.5,198.9 L 893.4,195.9 L 887.3,196.7 L 883.0,197.7 L 878.3,199.6 L 871.6,202.2 L 857.9,210.2 L 832.9,225.2 L 700.5,301.4 L 388.6,490.1 Z" fill="none" stroke="currentColor" stroke-width="10" stroke-linejoin="round" stroke-linecap="round"/></svg>