<svg xmlns="http://www.w3.org/2000/svg" viewBox="0 0 1000 1000" role="img" aria-label="Circuit Dijon-Prenois track outline"><path d="M 790.1,60.9 L 807.4,48.3 L 822.7,42.2 L 841.5,40.0 L 859.8,43.0 L 874.7,48.8 L 885.2,55.8 L 898.3,68.8 L 908.7,83.2 L 914.8,98.5 L 919.1,114.2 L 921.5,130.1 L 922.1,144.5 L 920.3,157.9 L 917.2,169.9 L 910.9,184.7 L 903.9,196.5 L 894.5,209.5 L 884.8,221.0 L 863.3,241.6 L 850.8,256.0 L 842.3,269.4 L 836.7,282.9 L 833.3,295.5 L 827.9,330.9 L 824.1,348.9 L 819.7,364.4 L 814.4,376.0 L 807.4,389.4 L 801.0,398.1 L 793.5,406.7 L 783.4,416.4 L 770.0,426.6 L 756.7,433.9 L 744.3,438.9 L 729.2,443.8 L 708.4,447.2 L 688.1,449.0 L 634.3,450.7 L 625.6,451.9 L 615.0,456.7 L 607.0,461.8 L 597.4,471.7 L 591.3,485.2 L 589.1,496.8 L 588.9,506.3 L 590.0,517.3 L 592.9,526.3 L 597.0,535.9 L 605.2,548.6 L 613.7,558.6 L 646.5,590.6 L 664.5,608.7 L 683.8,630.4 L 701.4,651.9 L 726.5,688.1 L 740.4,709.6 L 744.5,719.6 L 746.6,729.1 L 746.6,737.9 L 744.6,745.1 L 741.9,752.3 L 738.0,759.8 L 730.9,766.8 L 721.3,772.2 L 711.6,775.1 L 701.8,775.9 L 691.7,774.2 L 682.7,770.4 L 614.3,726.8 L 495.9,648.7 L 479.6,638.0 L 470.0,633.5 L 461.2,633.7 L 430.8,647.2 L 425.7,649.7 L 422.2,652.5 L 413.8,663.1 L 405.1,682.9 L 398.7,700.8 L 394.4,720.5 L 391.9,737.5 L 391.0,752.9 L 390.8,771.1 L 392.9,790.9 L 395.2,802.8 L 406.6,838.9 L 408.3,845.4 L 409.1,851.6 L 409.1,866.8 L 406.1,882.5 L 401.5,894.0 L 396.9,903.3 L 392.7,909.2 L 386.3,915.9 L 377.3,923.9 L 366.3,931.3 L 352.4,937.8 L 337.1,942.2 L 279.2,952.1 L 223.0,959.1 L 201.5,960.0 L 185.3,959.3 L 167.5,955.7 L 151.8,950.3 L 132.1,940.0 L 116.0,928.3 L 105.2,915.6 L 96.4,903.5 L 88.7,888.3 L 83.1,873.7 L 79.6,856.9 L 77.9,838.5 L 79.1,819.9 L 83.8,801.4 L 89.6,787.3 L 102.2,761.7 L 111.7,748.2 L 122.4,734.7 L 128.4,727.4 L 150.2,704.2 L 222.2,630.0 L 317.9,533.6 L 556.9,294.8 L 694.2,155.4 L 736.4,114.5 L 790.1,60.9 Z" fill="none" stroke="currentColor" stroke-width="10" stroke-linejoin="round" stroke-linecap="round"/></svg>