<svg xmlns="http://www.w3.org/2000/svg" viewBox="0 0 1000 1000" role="img" aria-label="Donington Park track outline"><path d="M 504.2,629.2 L 500.7,629.8 L 498.5,630.5 L 496.6,631.4 L 494.8,632.5 L 492.9,634.1 L 491.5,636.3 L 490.1,639.1 L 489.1,642.5 L 488.1,645.2 L 486.9,647.8 L 485.4,650.0 L 483.7,651.7 L 481.5,653.9 L 478.9,655.6 L 476.1,657.0 L 472.8,658.1 L 469.1,658.8 L 464.9,659.1 L 445.3,659.2 L 375.1,659.5 L 345.5,659.8 L 335.0,659.9 L 324.3,660.2 L 314.3,660.7 L 293.5,662.8 L 272.5,665.2 L 201.0,674.4 L 194.8,675.2 L 191.2,675.7 L 188.2,675.7 L 185.3,675.3 L 182.9,674.4 L 181.0,673.1 L 179.2,671.5 L 177.4,668.7 L 176.3,666.1 L 175.8,662.8 L 175.7,659.5 L 176.1,656.0 L 176.5,653.4 L 177.3,651.0 L 179.2,648.6 L 181.5,647.3 L 184.9,645.9 L 191.0,644.6 L 197.9,643.6 L 281.0,630.9 L 311.6,627.0 L 341.5,622.9 L 344.3,622.7 L 354.3,621.7 L 369.6,621.0 L 381.3,620.9 L 391.8,621.1 L 402.1,621.5 L 411.5,621.8 L 417.1,621.5 L 420.8,620.8 L 423.1,620.0 L 425.5,619.0 L 427.7,617.5 L 429.3,616.0 L 430.7,614.1 L 431.9,612.2 L 432.6,610.2 L 433.2,607.6 L 433.3,605.4 L 433.3,603.0 L 433.0,601.0 L 432.4,598.3 L 431.4,595.8 L 430.5,593.6 L 429.2,591.2 L 427.7,589.0 L 425.9,586.7 L 424.2,585.1 L 421.9,583.1 L 420.6,582.3 L 419.4,581.5 L 415.1,580.1 L 404.0,578.0 L 88.5,519.4 L 73.6,515.1 L 69.9,514.0 L 67.0,513.1 L 63.5,511.9 L 56.8,508.4 L 53.3,506.0 L 49.8,503.2 L 46.1,498.7 L 43.8,494.0 L 41.6,489.3 L 40.4,484.2 L 40.0,479.9 L 40.4,476.8 L 41.2,473.2 L 42.6,469.3 L 44.1,466.0 L 45.9,463.1 L 74.3,426.3 L 91.3,404.3 L 94.6,400.7 L 98.0,396.7 L 101.0,393.5 L 104.7,389.5 L 106.8,387.3 L 110.1,384.3 L 113.8,381.6 L 116.5,379.9 L 128.4,372.9 L 136.0,368.7 L 142.9,365.4 L 149.0,362.9 L 154.8,360.7 L 160.7,359.0 L 169.2,357.1 L 178.5,355.0 L 186.4,353.7 L 192.3,353.1 L 206.4,352.7 L 217.1,352.6 L 225.0,352.7 L 232.0,353.3 L 238.3,354.2 L 245.6,355.6 L 259.9,359.2 L 280.2,365.3 L 297.0,370.1 L 307.7,372.0 L 318.2,371.1 L 326.2,369.7 L 330.7,368.9 L 336.3,367.6 L 345.4,364.8 L 359.3,359.2 L 376.4,351.0 L 384.6,346.6 L 394.4,341.9 L 402.0,338.6 L 425.5,331.6 L 442.4,327.1 L 452.1,324.5 L 456.4,324.3 L 460.1,324.5 L 463.1,324.9 L 467.8,326.4 L 471.1,327.7 L 474.1,329.6 L 478.3,333.3 L 491.8,346.5 L 540.0,394.0 L 565.5,420.7 L 569.5,424.1 L 572.0,426.1 L 575.2,427.5 L 580.4,429.5 L 585.5,431.4 L 592.3,433.7 L 598.6,435.6 L 603.6,436.9 L 610.3,438.9 L 616.2,440.4 L 622.3,441.7 L 629.0,442.9 L 635.2,443.9 L 643.8,445.0 L 651.6,445.7 L 659.2,446.1 L 667.4,446.7 L 706.0,449.4 L 714.1,449.5 L 719.0,449.5 L 724.5,449.1 L 730.1,448.7 L 736.2,447.8 L 741.4,446.6 L 746.4,445.0 L 751.9,442.9 L 756.6,440.5 L 760.7,438.1 L 771.8,431.5 L 790.4,420.4 L 795.6,417.7 L 799.7,415.8 L 807.4,413.0 L 814.8,410.6 L 821.5,408.7 L 827.9,407.5 L 833.9,406.9 L 838.0,407.2 L 842.0,407.8 L 846.2,408.6 L 850.3,410.0 L 853.8,411.6 L 856.4,413.6 L 859.0,415.9 L 861.5,418.8 L 863.7,421.9 L 869.3,430.8 L 905.6,496.6 L 919.7,520.7 L 946.4,566.1 L 954.2,579.5 L 957.4,585.5 L 958.7,589.8 L 959.5,593.0 L 960.0,596.4 L 960.0,600.1 L 959.1,605.0 L 957.1,610.5 L 950.0,623.4 L 945.5,630.8 L 941.3,636.0 L 937.1,640.2 L 930.9,644.5 L 923.1,649.7 L 913.2,655.5 L 904.5,658.7 L 894.6,660.7 L 886.0,661.9 L 874.8,662.3 L 866.8,661.9 L 683.6,645.3 L 552.2,633.1 L 504.2,629.2 Z" fill="none" stroke="currentColor" stroke-width="10" stroke-linejoin="round" stroke-linecap="round"/></svg>