<svg xmlns="http://www.w3.org/2000/svg" viewBox="0 0 1000 1000" role="img" aria-label="Dundrod Circuit track outline"><path d="M625.7,210.6 L 619.9,212.9 L 614.4,213.9 L 611.7,213.6 L 606.7,211.1 L 603.7,211.1 L 597.3,211.6 L 593.7,210.6 L 590.6,210.5 L 587.7,212.5 L 587.0,216.5 L 587.2,218.9 L 587.1,220.3 L 586.2,221.3 L 583.1,221.7 L 578.6,220.4 L 577.0,221.4 L 576.1,222.9 L 573.7,223.3 L 559.8,223.3 L 559.3,227.4 L 554.2,226.8 L 551.4,225.5 L 549.7,223.8 L 548.1,223.9 L 542.1,223.0 L 536.8,222.3 L 531.1,223.5 L 527.8,225.7 L 523.8,230.3 L 522.0,233.7 L 521.5,235.3 L 522.0,236.9 L 521.4,238.3 L 522.1,239.5 L 524.8,239.9 L 527.6,240.7 L 529.0,242.3 L 531.5,246.3 L 532.7,249.6 L 524.2,254.0 L 519.7,256.8 L 515.8,261.3 L 515.3,265.8 L 514.4,268.1 L 512.6,269.8 L 508.3,270.6 L 504.5,268.2 L 501.1,267.2 L 485.5,273.4 L 481.2,274.7 L 459.5,276.8 L 454.9,277.7 L 451.6,280.0 L 445.1,287.5 L 437.9,293.5 L 430.3,296.9 L 423.5,301.4 L 414.9,309.2 L 412.0,314.5 L 411.0,317.6 L 409.5,327.1 L 408.3,332.8 L 407.2,333.6 L 405.9,333.8 L 405.0,333.3 L 403.7,332.1 L 401.4,328.5 L 398.3,323.5 L 396.2,317.0 L 395.0,315.0 L 393.8,314.7 L 392.5,315.2 L 390.1,316.2 L 382.0,320.7 L 378.4,321.7 L 373.7,321.6 L 366.3,319.1 L 357.5,321.6 L 352.5,321.9 L 345.6,322.7 L 340.2,324.5 L 331.9,325.4 L 321.4,320.6 L 309.0,322.7 L 298.3,318.7 L 287.2,313.5 L 285.4,314.0 L 281.8,320.3 L 278.5,329.0 L 278.5,332.2 L 277.1,333.7 L 273.5,332.2 L 269.7,328.0 L 264.9,327.8 L 261.6,330.2 L 257.0,331.1 L 246.9,323.1 L 235.7,317.1 L 219.1,307.3 L 211.6,307.1 L 205.5,306.7 L 199.2,302.4 L 200.0,293.8 L 201.6,291.8 L 215.9,291.3 L 219.7,288.6 L 221.3,284.5 L 216.7,269.6 L 216.4,261.3 L 209.8,258.7 L 203.1,266.7 L 201.9,271.6 L 204.8,275.1 L 205.9,281.7 L 199.8,284.4 L 192.6,282.2 L 190.2,282.8 L 188.2,286.7 L 185.0,290.0 L 180.9,289.8 L 173.9,287.1 L 169.9,285.6 L 167.6,288.4 L 168.8,291.7 L 172.2,298.4 L 169.3,304.1 L 161.4,305.0 L 155.3,300.7 L 149.4,296.3 L 141.7,295.9 L 135.8,296.3 L 126.3,289.3 L 120.3,291.1 L 115.9,290.6 L 112.4,291.1 L 108.0,286.0 L 99.8,283.4 L 89.8,270.4 L 85.3,268.1 L 81.1,269.4 L 80.3,274.5 L 76.9,276.2 L 71.7,269.8 L 67.0,262.9 L 59.2,259.1 L 53.2,263.0 L 48.3,268.5 L 47.0,272.6 L 44.5,284.4 L 42.3,297.4 L 40.0,299.0 L 41.5,307.8 L 43.4,320.9 L 44.8,331.4 L 45.1,334.2 L 43.6,351.9 L 42.6,363.9 L 56.3,364.2 L 99.3,367.4 L 107.8,368.4 L 115.8,370.0 L 126.0,385.4 L 139.2,403.4 L 143.0,408.9 L 158.3,418.9 L 185.1,436.1 L 194.7,443.7 L 202.4,449.8 L 215.6,460.2 L 224.9,468.3 L 232.0,479.1 L 238.1,487.1 L 242.9,493.1 L 252.4,512.9 L 254.8,522.1 L 257.7,527.3 L 261.7,532.7 L 268.0,540.3 L 270.5,544.8 L 272.8,549.9 L 275.2,559.9 L 278.5,574.5 L 280.1,586.9 L 276.9,596.1 L 272.6,607.8 L 271.3,611.4 L 273.1,614.4 L 261.8,622.7 L 251.5,610.1 L 234.8,623.6 L 222.7,610.2 L 207.3,628.4 L 212.5,642.8 L 252.2,637.8 L 257.7,665.0 L 278.1,661.9 L 279.4,690.1 L 260.6,695.7 L 276.2,735.1 L 258.2,740.3 L 259.6,776.7 L 287.8,784.0 L 288.3,783.1 L 291.3,783.6 L 308.8,758.3 L 323.6,755.7 L 341.3,755.0 L 351.2,753.7 L 384.6,749.5 L 400.5,748.3 L 408.1,748.1 L 413.0,749.5 L 423.7,751.1 L 432.3,750.1 L 442.2,747.1 L 448.5,744.9 L 460.6,742.6 L 469.2,742.0 L 474.9,741.7 L 484.0,740.5 L 490.2,738.5 L 493.0,734.1 L 508.3,695.4 L 515.5,683.2 L 518.4,676.3 L 523.5,662.0 L 526.9,652.4 L 528.8,646.2 L 530.7,637.8 L 531.4,634.8 L 543.9,620.9 L 559.4,629.9 L 575.8,640.3 L 588.2,642.7 L 602.9,644.4 L 611.6,646.7 L 630.6,651.2 L 639.1,652.1 L 649.5,653.8 L 654.0,656.1 L 661.7,655.4 L 670.6,656.3 L 681.0,653.7 L 697.5,655.9 L 708.3,728.8 L 741.5,791.1 L 793.8,781.9 L 837.5,768.5 L 857.8,765.9 L 869.2,759.2 L 883.9,752.8 L 894.8,752.5 L 913.8,748.0 L 924.6,744.9 L 942.3,748.0 L 959.1,751.2 L 959.3,746.4 L 960.0,740.8 L 959.3,734.5 L 959.2,728.8 L 956.1,725.6 L 952.3,717.9 L 952.9,714.7 L 953.9,708.2 L 954.1,702.6 L 952.0,696.8 L 950.8,690.2 L 950.5,684.2 L 945.3,676.4 L 942.0,671.5 L 934.5,665.9 L 928.4,658.9 L 922.4,652.2 L 916.6,648.2 L 909.2,644.7 L 902.2,636.6 L 898.2,633.6 L 892.7,629.3 L 887.6,622.5 L 884.0,618.2 L 879.5,612.7 L 873.1,608.7 L 869.3,604.6 L 864.8,601.3 L 860.0,597.2 L 854.6,595.2 L 838.9,591.4 L 828.6,587.6 L 822.1,586.0 L 818.3,583.8 L 812.3,580.5 L 807.3,579.7 L 801.7,580.0 L 796.6,581.6 L 785.1,584.2 L 776.6,587.1 L 770.4,587.2 L 764.7,585.9 L 761.5,583.9 L 756.9,583.6 L 752.4,583.1 L 749.2,580.4 L 744.3,579.4 L 738.9,579.5 L 735.3,575.2 L 731.2,572.6 L 727.0,570.1 L 720.9,569.1 L 717.6,568.0 L 717.4,562.6 L 714.2,557.6 L 708.2,557.1 L 704.3,554.6 L 701.9,547.8 L 698.6,547.1 L 693.1,541.1 L 688.8,540.7 L 685.5,541.3 L 684.7,538.6 L 681.3,539.5 L 679.0,537.4 L 675.8,536.6 L 673.9,534.9 L 675.6,531.7 L 673.7,529.4 L 670.1,530.9 L 668.4,529.8 L 669.0,524.3 L 667.0,521.1 L 663.6,519.8 L 663.0,515.1 L 660.3,513.5 L 658.1,512.9 L 657.5,509.9 L 660.0,508.5 L 664.3,507.4 L 666.4,505.8 L 666.6,502.8 L 664.0,501.7 L 660.8,500.9 L 660.4,497.9 L 660.6,496.1 L 658.4,494.2 L 653.6,490.7 L 651.4,489.8 L 649.2,485.3 L 647.5,483.8 L 644.8,482.5 L 642.6,478.9 L 642.8,477.0 L 644.0,474.3 L 640.3,473.1 L 638.5,468.9 L 639.8,465.1 L 638.7,461.1 L 635.8,457.2 L 632.4,455.2 L 628.7,453.9 L 624.7,453.4 L 618.5,450.8 L 617.1,447.1 L 618.0,443.4 L 616.5,442.0 L 612.7,441.1 L 608.1,440.9 L 604.0,441.0 L 600.6,440.1 L 597.3,438.0 L 590.6,431.6 L 585.3,427.1 L 580.6,423.3 L 576.1,420.6 L 569.9,417.7 L 560.1,414.8 L 549.6,411.8 L 541.0,409.4 L 535.8,407.2 L 526.3,404.4 L 523.6,403.1 L 521.0,402.7 L 522.5,397.9 L 525.1,392.8 L 530.7,387.9 L 538.7,378.6 L 541.7,374.7 L 567.9,361.2 L 572.4,358.2 L 583.4,341.2 L 597.0,322.2 L 602.0,317.8 L 610.2,311.9 L 617.1,307.2 L 604.1,285.8 L 619.6,273.0 L 637.9,255.5 L 651.5,242.0 L 663.1,231.1 L 663.7,229.2 L 657.9,226.2 L 654.7,225.4 L 651.6,224.5 L 649.1,222.3 L 648.5,220.8 L 648.8,218.1 L 648.4,215.1 L 650.0,208.9 L 626.3,209.7 L 625.7,210.6 Z" fill="none" stroke="currentColor" stroke-width="10" stroke-linejoin="round" stroke-linecap="round"/></svg>