<svg xmlns="http://www.w3.org/2000/svg" viewBox="0 0 1000 1000" role="img" aria-label="Eastern Creek International Raceway track outline"><path d="M352.8,191.5 L 339.5,187.6 L 326.5,184.9 L 307.6,183.8 L 177.9,162.9 L 159.2,162.6 L 154.9,163.3 L 134.0,167.7 L 116.2,176.3 L 99.8,188.4 L 90.8,198.3 L 88.1,202.1 L 81.2,213.2 L 73.9,230.2 L 70.6,241.8 L 68.3,255.8 L 66.3,290.7 L 61.0,334.8 L 58.5,354.9 L 54.3,395.1 L 46.3,470.7 L 44.8,508.7 L 42.4,525.5 L 40.0,593.4 L 41.9,596.5 L 45.8,616.8 L 49.8,633.7 L 53.2,641.1 L 57.7,648.9 L 70.6,665.5 L 90.7,676.1 L 115.0,684.9 L 137.1,689.9 L 200.4,696.9 L 283.5,710.2 L 362.5,710.4 L 373.4,715.4 L 376.7,717.0 L 378.2,717.7 L 394.6,732.5 L 426.3,762.8 L 422.5,766.9 L 434.2,791.3 L 514.7,804.9 L 551.1,815.8 L 555.6,817.8 L 559.9,821.3 L 565.9,829.5 L 570.5,837.4 L 571.3,810.1 L 632.5,746.2 L 923.1,443.4 L 939.2,426.5 L 960.0,293.2 L 847.7,272.6 L 768.6,245.4 L 764.2,244.6 L 759.9,244.0 L 698.8,243.6 L 610.2,227.5 L 487.2,208.2 L 486.7,211.9 L 486.4,215.4 L 405.7,203.0 L 389.6,218.9 L 384.7,217.9 L 377.8,216.8 L 376.3,202.7 L 366.7,195.5 L 352.8,191.5 Z" fill="none" stroke="currentColor" stroke-width="10" stroke-linejoin="round" stroke-linecap="round"/></svg>