<svg xmlns="http://www.w3.org/2000/svg" viewBox="0 0 1000 1000" role="img" aria-label="Prince George Circuit track outline"><path d="M 40.0 715.4 L 64.0 659.1 L 117.5 530.5 L 157.1 438.1 L 163.6 422.1 L 171.4 404.1 L 297.2 111.2 L 311.9 99.3 L 326.7 87.4 L 347.1 72.6 L 362.6 63.8 L 375.9 58.1 L 394.1 52.6 L 416.0 49.1 L 446.7 48.0 L 682.5 40.0 L 713.4 43.0 L 746.5 51.9 L 775.7 64.3 L 952.4 165.1 L 958.1 170.7 L 960.0 175.4 L 959.7 183.2 L 957.7 189.9 L 954.7 193.9 L 948.9 197.1 L 850.6 229.4 L 595.2 313.2 L 571.6 320.1 L 549.8 324.1 L 522.7 326.4 L 462.0 329.5 L 447.3 328.9 L 439.7 324.7 L 431.5 314.8 L 424.9 306.9 L 418.9 299.7 L 411.4 293.4 L 401.1 287.2 L 389.9 283.8 L 374.8 282.1 L 356.2 285.7 L 350.4 288.9 L 335.2 297.2 L 317.6 310.1 L 306.5 322.4 L 301.6 333.3 L 300.8 344.2 L 302.9 356.3 L 310.7 368.4 L 341.5 407.7 L 347.7 417.4 L 349.6 420.4 L 356.1 433.2 L 358.4 445.9 L 359.1 465.5 L 355.7 484.4 L 349.7 502.2 L 342.0 515.8 L 333.2 526.0 L 318.4 539.1 L 182.3 644.2 L 70.2 730.8 L 61.8 734.9 L 54.5 736.0 L 48.0 732.0 L 45.1 728.5 L 42.3 724.0 L 40.0 715.4 L 40.0 715.4 Z" fill="none" stroke="currentColor" stroke-width="10" stroke-linejoin="round" stroke-linecap="round"/></svg>