<svg xmlns="http://www.w3.org/2000/svg" viewBox="0 0 1000 1000" role="img" aria-label="Prince George Circuit track outline"><path d="M952.4,214.6 L 958.1,220.1 L 960.0,224.9 L 959.7,232.6 L 957.7,239.4 L 954.7,243.4 L 948.9,246.5 L 850.6,278.8 L 595.2,362.7 L 571.6,369.5 L 549.8,373.6 L 522.7,375.8 L 462.0,379.0 L 447.3,378.4 L 439.7,374.1 L 431.5,364.3 L 424.9,356.4 L 418.9,349.1 L 411.4,342.9 L 401.1,336.7 L 389.9,333.3 L 374.8,331.5 L 356.2,335.1 L 350.4,338.4 L 335.2,346.7 L 317.6,359.6 L 306.5,371.9 L 301.6,382.8 L 300.8,393.6 L 302.9,405.7 L 310.7,417.9 L 341.5,457.1 L 347.7,466.8 L 349.6,469.9 L 356.1,482.7 L 358.4,495.4 L 359.1,514.9 L 355.7,533.9 L 349.7,551.6 L 342.0,565.3 L 333.2,575.4 L 318.4,588.5 L 182.3,693.7 L 70.2,780.3 L 61.8,784.3 L 54.5,785.4 L 48.0,781.4 L 45.1,778.0 L 42.3,773.5 L 40.0,764.9" fill="none" stroke="currentColor" stroke-width="10" stroke-linejoin="round" stroke-linecap="round"/></svg>