<svg xmlns="http://www.w3.org/2000/svg" viewBox="0 0 1000 1000" role="img" aria-label="Autodromo do Estoril track outline"><path d="M 284.6,641.6 L 287.1,635.0 L 289.4,630.8 L 291.4,628.2 L 294.1,626.0 L 297.4,624.1 L 298.9,623.4 L 300.9,622.7 L 302.6,622.2 L 304.4,621.8 L 306.5,621.5 L 308.4,621.4 L 310.5,621.5 L 312.4,621.7 L 314.5,622.0 L 316.4,622.4 L 318.1,622.9 L 320.2,623.5 L 322.5,624.4 L 324.0,625.2 L 325.5,626.0 L 327.1,627.2 L 328.8,628.6 L 330.8,630.4 L 332.1,631.9 L 333.6,633.8 L 334.7,635.4 L 336.0,637.3 L 337.0,639.3 L 338.1,641.6 L 339.2,645.4 L 340.0,648.6 L 340.5,651.9 L 340.9,654.8 L 341.0,657.6 L 341.0,663.0 L 340.7,667.8 L 340.1,671.9 L 338.3,681.4 L 336.1,691.4 L 329.7,718.6 L 318.8,763.6 L 317.8,768.4 L 317.2,773.1 L 317.1,776.9 L 317.3,781.1 L 317.9,785.8 L 319.0,790.0 L 319.9,792.3 L 320.7,794.4 L 321.7,796.4 L 322.8,798.5 L 323.9,800.2 L 325.0,801.6 L 327.1,803.9 L 328.6,805.3 L 330.5,806.7 L 332.3,807.8 L 334.2,808.7 L 336.0,809.6 L 337.9,810.4 L 340.2,811.0 L 342.9,811.5 L 345.0,811.8 L 347.2,812.0 L 349.7,812.0 L 351.9,812.0 L 354.3,811.9 L 357.4,811.5 L 360.3,810.9 L 362.7,810.0 L 364.6,809.2 L 366.7,808.0 L 368.5,806.8 L 371.5,804.5 L 373.2,802.9 L 374.8,801.3 L 376.2,799.6 L 377.5,797.9 L 379.5,794.4 L 381.4,790.3 L 382.6,787.3 L 383.8,783.5 L 384.8,779.3 L 390.6,751.0 L 398.7,711.3 L 408.0,667.1 L 417.3,621.1 L 423.1,592.6 L 424.0,588.6 L 425.1,584.8 L 426.5,581.3 L 428.1,578.3 L 429.9,575.4 L 432.5,571.9 L 437.2,565.8 L 478.7,513.6 L 517.8,464.4 L 612.8,344.6 L 671.6,271.2 L 674.1,267.9 L 675.4,265.9 L 676.7,264.0 L 677.6,262.3 L 678.5,260.5 L 679.4,258.3 L 680.2,256.0 L 680.8,253.5 L 681.2,251.3 L 681.4,249.7 L 681.5,248.1 L 681.5,246.6 L 681.5,245.0 L 681.2,242.7 L 681.0,241.4 L 680.8,240.4 L 680.5,239.0 L 680.1,237.8 L 679.3,235.9 L 678.5,234.1 L 677.6,232.1 L 676.3,229.9 L 674.9,227.9 L 673.5,226.0 L 672.3,224.6 L 671.0,223.1 L 669.4,221.6 L 667.7,220.0 L 665.9,218.5 L 664.1,217.1 L 662.4,215.8 L 660.6,214.6 L 659.1,213.7 L 657.5,212.8 L 655.5,212.0 L 653.2,211.1 L 648.6,209.7 L 643.6,208.5 L 637.8,207.4 L 635.0,207.0 L 632.3,206.8 L 627.6,206.6 L 623.9,206.6 L 619.9,207.0 L 617.5,207.4 L 614.9,207.9 L 612.6,208.5 L 610.6,209.1 L 607.6,210.1 L 604.8,211.1 L 602.3,212.2 L 599.7,213.4 L 597.4,214.5 L 595.0,215.7 L 593.1,216.8 L 591.1,218.1 L 589.5,219.4 L 587.8,220.7 L 584.1,224.5 L 580.3,228.6 L 470.3,366.5 L 420.0,429.4 L 413.4,437.4 L 408.7,442.2 L 406.8,443.9 L 404.6,445.7 L 402.1,447.5 L 400.0,448.7 L 397.8,449.8 L 395.9,450.5 L 394.1,451.1 L 391.5,451.8 L 388.5,452.4 L 385.0,452.8 L 382.2,453.0 L 379.6,453.0 L 377.3,452.9 L 375.2,452.6 L 373.3,452.2 L 371.3,451.7 L 369.6,451.2 L 367.7,450.4 L 365.7,449.5 L 364.1,448.5 L 362.1,447.2 L 360.0,445.5 L 357.4,443.3 L 355.6,441.7 L 354.1,440.2 L 352.3,438.3 L 350.7,436.2 L 349.4,434.3 L 348.1,432.3 L 347.2,430.7 L 346.1,428.5 L 344.6,425.3 L 342.8,420.8 L 340.8,415.2 L 339.3,409.4 L 338.3,404.1 L 337.5,398.6 L 328.5,319.7 L 328.1,312.9 L 328.1,309.4 L 328.5,306.0 L 329.4,302.5 L 330.9,299.3 L 332.6,296.6 L 334.9,293.8 L 338.4,290.1 L 340.6,287.9 L 357.9,270.2 L 363.9,264.6 L 370.1,259.2 L 375.2,255.1 L 382.8,249.4 L 394.7,240.7 L 399.8,237.0 L 403.0,234.0 L 404.9,231.7 L 406.6,228.8 L 407.0,227.5 L 407.3,225.9 L 407.5,224.4 L 407.5,222.9 L 407.2,221.5 L 406.7,220.1 L 406.2,218.8 L 405.5,217.6 L 404.8,216.6 L 403.9,215.6 L 402.6,214.5 L 401.0,213.5 L 399.4,212.9 L 397.5,212.4 L 392.7,211.6 L 385.9,211.1 L 381.3,210.6 L 380.0,210.4 L 378.8,210.1 L 377.8,209.7 L 376.9,209.2 L 375.7,208.5 L 374.6,207.7 L 373.7,206.6 L 372.9,205.5 L 372.3,204.2 L 371.8,202.9 L 371.4,201.5 L 371.2,200.2 L 371.1,198.8 L 371.2,197.6 L 371.3,196.0 L 371.6,194.4 L 372.6,190.1 L 373.4,187.3 L 374.4,184.8 L 375.5,182.4 L 376.7,180.3 L 379.1,176.5 L 380.6,174.4 L 382.4,172.5 L 384.4,170.6 L 386.4,168.6 L 389.3,166.2 L 392.3,163.8 L 395.5,161.6 L 399.0,159.5 L 406.1,155.6 L 413.6,152.0 L 419.6,149.5 L 425.5,147.2 L 432.0,145.0 L 439.0,143.0 L 445.8,141.4 L 452.0,140.4 L 457.3,139.9 L 463.7,139.6 L 470.0,139.7 L 476.1,140.0 L 482.0,140.7 L 488.8,141.8 L 494.9,143.1 L 501.0,144.7 L 510.4,147.4 L 524.2,151.9 L 529.0,153.4 L 533.4,154.5 L 535.9,155.0 L 538.2,155.4 L 540.4,155.6 L 542.6,155.8 L 544.7,155.8 L 546.5,155.7 L 548.1,155.6 L 549.9,155.3 L 551.2,155.1 L 552.7,154.7 L 554.2,154.2 L 555.4,153.8 L 557.1,153.0 L 558.8,152.0 L 560.5,150.9 L 562.2,149.6 L 563.8,148.3 L 565.2,147.1 L 566.5,145.8 L 567.9,144.1 L 569.1,142.4 L 570.2,140.7 L 571.2,138.9 L 572.1,137.1 L 574.7,130.8 L 585.7,100.4 L 588.7,92.2 L 591.7,85.7 L 592.1,84.9 L 594.0,81.6 L 595.9,78.4 L 597.7,75.7 L 599.7,73.0 L 601.5,70.9 L 603.4,68.6 L 605.3,66.6 L 607.5,64.4 L 610.0,62.1 L 612.5,59.9 L 615.1,57.7 L 618.3,55.3 L 621.3,53.3 L 624.3,51.5 L 626.9,50.0 L 629.7,48.7 L 632.9,47.1 L 635.4,46.0 L 638.9,44.7 L 642.4,43.6 L 645.5,42.7 L 648.6,42.0 L 652.4,41.2 L 655.7,40.7 L 659.1,40.3 L 661.7,40.1 L 664.4,40.1 L 666.7,40.0 L 670.6,40.1 L 675.4,40.5 L 679.5,41.1 L 682.9,41.7 L 686.2,42.4 L 689.5,43.3 L 694.3,44.8 L 697.9,46.1 L 701.7,47.7 L 704.2,48.9 L 708.5,51.0 L 711.5,52.7 L 714.6,54.6 L 717.8,56.7 L 721.0,59.0 L 723.3,60.7 L 726.5,63.4 L 729.5,65.9 L 732.4,68.7 L 736.3,72.8 L 738.8,75.7 L 740.8,77.9 L 742.8,80.5 L 744.8,83.1 L 746.5,85.7 L 748.7,89.1 L 749.8,91.0 L 751.4,93.9 L 753.1,97.0 L 754.4,99.7 L 755.9,103.3 L 757.3,107.1 L 758.5,110.5 L 759.2,112.8 L 759.9,115.2 L 760.7,118.2 L 761.7,122.1 L 762.4,125.9 L 762.9,129.3 L 763.3,132.1 L 763.5,134.6 L 763.6,137.1 L 763.7,139.3 L 763.8,143.1 L 763.7,147.5 L 763.4,151.1 L 762.9,155.5 L 762.3,159.4 L 761.7,162.8 L 761.0,166.2 L 760.1,169.7 L 759.4,172.7 L 758.6,175.2 L 757.8,177.6 L 756.8,180.4 L 755.5,183.5 L 754.3,186.3 L 726.3,248.4 L 652.4,411.0 L 645.9,425.4 L 553.0,631.6 L 497.6,754.1 L 448.6,862.4 L 415.7,936.0 L 409.8,947.9 L 409.2,949.1 L 408.6,950.2 L 407.4,952.1 L 406.7,953.0 L 405.8,954.0 L 405.1,954.7 L 403.8,955.8 L 402.4,956.7 L 400.9,957.6 L 399.6,958.2 L 398.3,958.7 L 396.4,959.3 L 394.0,959.8 L 392.2,960.0 L 389.7,960.0 L 387.6,959.8 L 385.5,959.3 L 383.8,958.8 L 382.0,958.0 L 380.5,957.2 L 378.8,956.0 L 377.3,954.8 L 376.0,953.4 L 374.8,951.8 L 373.7,950.1 L 372.6,948.4 L 371.5,946.3 L 370.1,943.6 L 368.5,940.5 L 366.8,937.4 L 364.7,934.0 L 362.4,930.4 L 360.9,928.1 L 357.4,923.0 L 352.6,916.2 L 348.2,910.7 L 343.1,904.7 L 337.5,898.4 L 330.2,890.8 L 321.5,882.6 L 310.3,872.7 L 294.2,859.2 L 253.4,825.9 L 246.2,819.9 L 244.4,818.2 L 243.0,816.6 L 241.8,815.0 L 240.5,813.1 L 239.6,811.5 L 238.7,809.7 L 237.9,807.9 L 237.3,806.1 L 236.9,804.3 L 236.5,802.6 L 236.3,801.0 L 236.2,799.1 L 236.2,797.1 L 236.3,795.1 L 236.6,793.1 L 236.9,790.6 L 237.3,788.5 L 238.1,785.1 L 240.0,777.9 L 248.9,748.0 L 258.0,717.7 L 265.3,695.6 L 275.3,667.6 L 284.6,641.6 Z" fill="none" stroke="currentColor" stroke-width="10" stroke-linejoin="round" stroke-linecap="round"/></svg>