<svg xmlns="http://www.w3.org/2000/svg" viewBox="0 0 1000 1000" role="img" aria-label="Fuji Speedway track outline"><path d="M 898.3,58.7 L 914.1,44.6 L 917.4,42.4 L 920.9,41.0 L 924.1,40.2 L 927.4,40.0 L 930.3,40.5 L 933.2,41.6 L 935.8,42.6 L 938.1,44.0 L 940.4,46.1 L 942.4,48.6 L 944.0,51.6 L 945.2,54.5 L 945.8,57.1 L 946.2,60.2 L 946.1,63.2 L 937.0,129.9 L 936.4,134.1 L 935.3,138.7 L 933.7,144.1 L 932.1,148.5 L 930.1,152.4 L 927.6,156.5 L 766.3,360.0 L 764.6,362.5 L 762.9,365.7 L 762.1,368.1 L 761.4,370.7 L 761.4,373.2 L 761.6,375.6 L 761.9,378.4 L 762.4,381.1 L 763.0,383.8 L 763.7,386.6 L 764.7,389.2 L 765.7,392.1 L 766.8,394.6 L 767.9,397.2 L 769.1,399.6 L 770.2,402.4 L 794.9,450.6 L 798.1,457.8 L 801.1,466.3 L 803.8,476.4 L 805.5,485.5 L 806.8,496.7 L 807.1,507.9 L 806.1,521.9 L 804.6,535.2 L 801.8,549.1 L 798.2,560.2 L 794.6,569.4 L 791.7,575.2 L 789.4,579.0 L 786.8,582.7 L 783.0,586.8 L 779.4,590.3 L 774.4,594.2 L 768.6,597.6 L 759.4,602.1 L 748.2,606.6 L 735.2,610.8 L 725.4,612.8 L 720.3,613.6 L 715.6,614.2 L 711.4,614.3 L 706.6,614.1 L 701.7,613.7 L 697.0,612.8 L 691.3,610.9 L 686.1,608.6 L 680.5,605.9 L 674.2,602.4 L 669.6,599.2 L 666.4,596.5 L 662.3,592.7 L 658.3,588.1 L 593.8,500.1 L 591.9,497.8 L 589.6,496.2 L 586.4,494.5 L 583.0,493.6 L 578.4,493.1 L 575.1,493.5 L 571.9,494.5 L 568.2,496.6 L 564.8,499.5 L 561.3,503.8 L 557.1,509.4 L 550.8,520.3 L 546.5,529.8 L 543.0,540.3 L 540.8,550.9 L 539.6,559.4 L 538.8,570.1 L 538.9,581.1 L 539.9,593.6 L 547.4,655.4 L 548.2,661.9 L 548.6,668.5 L 548.9,675.1 L 548.6,681.6 L 548.2,687.5 L 547.5,693.3 L 546.9,698.4 L 545.7,703.7 L 544.3,708.8 L 541.5,715.9 L 538.8,722.4 L 494.8,812.1 L 491.0,819.3 L 486.0,827.2 L 481.2,833.6 L 476.5,839.1 L 471.5,844.8 L 464.3,851.9 L 458.6,856.7 L 452.5,861.1 L 319.1,957.9 L 316.1,959.3 L 313.1,960.0 L 310.1,959.9 L 307.9,959.0 L 305.7,957.4 L 304.0,954.6 L 302.9,951.5 L 302.3,948.1 L 302.0,928.7 L 301.1,925.2 L 299.9,922.5 L 298.2,919.7 L 296.0,917.0 L 293.0,914.9 L 290.1,913.6 L 286.9,912.5 L 283.4,912.2 L 279.8,912.6 L 276.1,913.3 L 272.5,914.1 L 266.8,915.9 L 261.8,917.3 L 255.2,918.2 L 249.9,918.2 L 245.1,918.1 L 240.1,917.4 L 234.7,916.1 L 199.5,897.3 L 192.6,892.6 L 187.3,888.3 L 182.5,884.5 L 175.5,878.2 L 169.8,872.6 L 166.1,868.4 L 163.5,865.1 L 161.8,862.0 L 160.4,857.7 L 159.7,853.3 L 159.5,850.2 L 159.7,846.4 L 160.6,842.5 L 161.9,838.7 L 163.5,835.1 L 166.2,830.8 L 169.8,826.8 L 173.5,823.6 L 178.9,820.1 L 184.3,816.7 L 189.2,814.1 L 196.2,810.7 L 204.3,806.6 L 210.2,803.2 L 220.1,796.3 L 228.3,789.0 L 232.6,784.0 L 236.0,778.8 L 238.5,773.9 L 240.6,768.8 L 242.2,763.0 L 242.9,757.1 L 243.0,750.0 L 242.6,744.0 L 241.5,737.4 L 239.4,729.8 L 237.2,723.6 L 234.5,718.4 L 230.3,711.5 L 226.4,705.4 L 222.5,700.4 L 220.0,698.1 L 216.5,696.1 L 212.9,695.5 L 209.7,695.4 L 207.0,695.6 L 204.1,696.5 L 201.4,698.2 L 198.7,700.1 L 196.3,702.5 L 161.5,741.2 L 156.9,745.7 L 150.9,750.7 L 144.1,756.1 L 137.9,761.1 L 129.7,766.5 L 122.3,770.8 L 116.7,773.7 L 111.2,775.8 L 105.3,777.6 L 100.7,778.2 L 94.7,778.2 L 90.0,777.8 L 85.2,777.2 L 79.6,776.0 L 73.1,774.0 L 67.3,771.5 L 63.7,769.1 L 60.2,765.9 L 57.4,762.1 L 55.5,757.9 L 54.4,754.1 L 53.8,749.8 L 54.0,745.7 L 54.8,742.1 L 55.8,738.7 L 57.9,735.4 L 60.3,731.9 L 64.0,728.8 L 184.7,632.0 L 898.3,58.7 Z" fill="none" stroke="currentColor" stroke-width="10" stroke-linejoin="round" stroke-linecap="round"/></svg>