<svg xmlns="http://www.w3.org/2000/svg" viewBox="0 0 1000 1000" role="img" aria-label="Automotodrom Grobnik track outline"><path d="M112.3,634.0 L 164.8,678.9 L 263.2,651.4 L 367.5,624.1 L 457.0,592.6 L 484.9,579.4 L 548.1,570.1 L 600.8,556.8 L 656.6,541.3 L 726.3,515.1 L 843.0,443.0 L 930.6,391.6 L 960.0,355.6 L 943.9,330.0 L 920.6,321.1 L 843.7,330.2 L 822.7,345.7 L 808.1,387.4 L 788.4,406.8 L 782.7,415.9 L 704.6,453.4 L 617.1,464.4 L 606.3,456.5 L 577.9,454.1 L 485.1,466.1 L 450.3,459.9 L 414.6,445.3 L 349.8,427.0 L 304.4,413.9 L 299.6,425.4 L 275.1,415.7 L 252.8,437.0 L 239.6,460.7 L 256.7,476.3 L 237.4,522.3 L 243.2,537.4 L 233.0,572.1 L 219.0,587.0 L 193.2,583.8 L 141.7,550.7 L 129.2,520.3 L 127.8,490.2 L 141.1,426.2 L 125.2,390.9 L 40.0,398.9 L 45.5,494.7 L 55.0,524.2 L 72.4,600.1 L 81.3,615.1 L 112.3,634.0 Z" fill="none" stroke="currentColor" stroke-width="10" stroke-linejoin="round" stroke-linecap="round"/></svg>