<svg xmlns="http://www.w3.org/2000/svg" viewBox="0 0 1000 1000" role="img" aria-label="Hedemora Circuit track outline"><path d="M883.0,40.0 L 872.8,45.7 L 872.4,55.1 L 874.0,78.8 L 869.9,84.6 L 869.2,91.6 L 866.7,96.7 L 867.7,114.1 L 877.2,130.0 L 877.0,136.8 L 881.1,153.8 L 882.6,159.9 L 880.5,172.1 L 880.4,181.8 L 883.9,249.5 L 882.7,252.3 L 878.6,255.7 L 874.4,256.9 L 866.6,256.9 L 863.2,258.4 L 860.0,261.6 L 853.5,273.0 L 851.0,280.8 L 844.3,288.5 L 835.6,292.4 L 829.3,299.8 L 815.2,305.2 L 800.8,305.3 L 800.7,311.5 L 803.7,333.6 L 805.7,339.7 L 809.1,342.3 L 824.0,347.8 L 835.0,349.9 L 845.0,351.3 L 856.2,355.1 L 867.9,363.6 L 872.8,367.6 L 874.8,371.9 L 877.2,378.8 L 879.3,386.0 L 881.9,394.2 L 882.0,398.3 L 878.1,415.1 L 878.0,420.1 L 879.0,424.0 L 881.3,431.6 L 883.6,437.6 L 888.5,444.8 L 891.7,448.5 L 895.2,451.9 L 896.3,454.0 L 896.0,455.9 L 893.4,463.2 L 895.7,475.1 L 896.0,485.3 L 894.8,496.6 L 894.8,507.1 L 894.8,517.3 L 893.4,529.8 L 893.1,542.9 L 891.9,550.4 L 889.9,559.7 L 888.7,568.2 L 890.8,579.5 L 892.8,597.6 L 896.9,620.8 L 898.0,631.9 L 895.4,636.7 L 883.5,638.6 L 876.5,638.3 L 868.4,636.3 L 864.7,636.0 L 862.8,635.8 L 853.7,636.4 L 840.4,637.4 L 830.4,637.0 L 822.6,635.7 L 815.9,633.1 L 807.0,628.1 L 792.0,621.1 L 785.0,618.7 L 779.9,616.9 L 770.5,615.2 L 753.8,616.4 L 750.1,616.9 L 742.3,617.5 L 733.3,615.5 L 724.7,612.3 L 714.5,609.5 L 710.7,608.5 L 695.0,605.6 L 689.2,604.5 L 679.0,604.3 L 670.3,606.6 L 655.5,612.1 L 645.3,613.9 L 620.5,616.5 L 606.0,620.0 L 586.2,624.3 L 576.9,627.8 L 560.3,636.0 L 555.1,637.7 L 547.2,637.7 L 540.3,638.9 L 530.1,642.1 L 521.9,646.7 L 511.2,652.0 L 501.6,653.7 L 491.4,655.2 L 485.9,657.8 L 453.1,686.5 L 445.7,691.7 L 430.6,699.8 L 426.8,702.5 L 421.0,708.8 L 414.6,719.6 L 409.0,728.6 L 386.9,712.9 L 378.6,709.7 L 370.0,704.6 L 362.6,702.7 L 351.2,709.8 L 347.8,710.3 L 342.1,709.8 L 340.7,702.4 L 339.2,700.8 L 331.1,693.0 L 324.4,690.6 L 314.6,686.7 L 297.7,684.5 L 288.4,682.3 L 277.1,683.3 L 272.0,684.4 L 248.1,690.9 L 238.5,692.2 L 233.9,693.5 L 231.0,695.2 L 223.4,698.7 L 221.9,700.0 L 221.1,704.8 L 216.8,709.9 L 209.3,718.0 L 205.5,722.7 L 203.9,728.1 L 203.5,732.8 L 201.1,740.1 L 201.1,746.4 L 194.4,747.0 L 182.3,747.2 L 173.4,747.3 L 173.0,748.9 L 170.9,752.4 L 168.3,756.2 L 166.6,760.3 L 165.8,763.5 L 165.5,764.4 L 167.7,767.6 L 169.5,773.2 L 171.6,784.8 L 174.1,799.9 L 174.2,805.8 L 176.5,827.1 L 177.1,833.1 L 174.7,838.0 L 172.6,844.5 L 171.5,850.6 L 171.6,856.5 L 173.1,865.6 L 174.4,883.6 L 175.0,886.3 L 179.5,896.7 L 179.2,898.5 L 178.6,899.4 L 176.7,900.7 L 159.4,906.4 L 156.8,907.7 L 158.9,914.1 L 160.8,920.9 L 161.2,924.2 L 160.5,925.7 L 159.4,927.3 L 132.0,942.5 L 102.0,960.0" fill="none" stroke="currentColor" stroke-width="10" stroke-linejoin="round" stroke-linecap="round"/></svg>