<svg xmlns="http://www.w3.org/2000/svg" viewBox="0 0 1000 1000" role="img" aria-label="Autodromo Hermanos Rodriguez track outline"><path d="M 389.7,207.1 L 410.0,209.9 L 474.5,218.5 L 528.0,224.5 L 607.4,232.9 L 833.5,264.2 L 904.6,276.4 L 916.0,278.8 L 925.4,280.8 L 929.0,281.7 L 932.1,283.4 L 934.8,286.4 L 935.8,288.2 L 936.6,291.6 L 936.3,295.6 L 932.6,320.1 L 930.4,333.7 L 930.1,336.9 L 930.5,339.3 L 931.5,341.4 L 933.5,343.3 L 943.0,348.1 L 948.8,351.2 L 954.3,354.1 L 956.8,355.7 L 958.7,357.1 L 959.7,359.2 L 960.0,361.0 L 960.0,363.2 L 959.7,368.3 L 958.4,375.4 L 956.9,384.2 L 954.7,394.8 L 953.1,401.2 L 949.4,414.1 L 941.7,434.2 L 936.0,447.0 L 931.8,455.1 L 926.6,464.4 L 886.4,531.6 L 847.6,595.9 L 817.4,646.8 L 784.0,699.8 L 776.6,710.5 L 763.7,729.1 L 755.5,741.1 L 754.2,743.8 L 753.5,746.8 L 753.6,749.4 L 754.5,752.4 L 756.2,754.8 L 759.9,757.8 L 775.8,766.6 L 784.5,771.9 L 786.7,774.6 L 787.9,777.7 L 788.1,780.2 L 787.7,782.6 L 786.7,784.9 L 784.8,787.2 L 777.7,792.3 L 764.1,802.5 L 729.9,827.5 L 727.2,829.0 L 725.2,830.0 L 722.2,830.4 L 720.1,830.1 L 718.2,829.3 L 710.7,824.7 L 708.0,822.4 L 706.9,820.3 L 706.4,817.9 L 706.5,815.2 L 706.7,811.7 L 707.4,805.3 L 708.8,793.3 L 711.3,772.9 L 722.8,687.4 L 727.1,653.4 L 730.1,631.3 L 730.6,626.9 L 730.5,623.3 L 729.6,619.5 L 728.3,616.6 L 725.6,613.0 L 721.3,609.6 L 714.3,605.2 L 691.6,591.6 L 688.0,589.3 L 683.5,585.8 L 679.6,582.0 L 676.4,578.0 L 673.8,573.9 L 671.1,569.3 L 668.2,562.4 L 665.6,554.3 L 663.9,550.1 L 661.7,545.7 L 659.1,541.5 L 656.4,538.3 L 653.6,535.1 L 650.1,531.7 L 646.1,528.3 L 641.1,525.1 L 636.3,522.9 L 629.8,520.5 L 622.7,519.0 L 606.8,516.7 L 592.6,514.8 L 551.9,509.6 L 547.1,508.8 L 542.1,507.8 L 537.9,506.5 L 534.0,504.4 L 530.8,501.9 L 527.7,498.3 L 525.2,494.2 L 523.4,489.3 L 521.7,482.6 L 521.0,479.9 L 519.6,474.3 L 517.1,464.8 L 515.4,459.8 L 513.6,455.9 L 511.0,451.4 L 507.8,447.7 L 504.3,444.1 L 499.6,440.6 L 492.3,436.8 L 482.6,431.7 L 465.6,422.7 L 444.2,411.0 L 433.5,404.7 L 424.2,400.0 L 416.1,396.6 L 407.5,393.6 L 395.6,390.4 L 382.9,388.2 L 349.5,383.5 L 323.7,379.7 L 321.4,378.8 L 320.5,378.0 L 319.7,376.6 L 318.8,374.0 L 318.2,369.4 L 318.0,366.3 L 317.7,363.7 L 317.3,361.6 L 316.5,359.0 L 315.3,357.9 L 313.7,356.8 L 311.8,356.4 L 309.5,356.4 L 307.4,357.1 L 305.6,358.1 L 304.0,359.2 L 302.2,360.8 L 301.1,362.0 L 299.7,363.5 L 294.6,367.1 L 291.0,368.4 L 287.7,369.6 L 283.4,370.5 L 280.0,371.3 L 275.2,371.5 L 272.9,371.7 L 270.9,372.1 L 254.8,369.7 L 195.4,361.1 L 170.6,357.6 L 167.7,355.4 L 166.9,354.2 L 165.4,352.5 L 164.0,348.9 L 160.5,286.1 L 159.3,276.7 L 158.3,270.4 L 153.6,248.4 L 152.2,245.9 L 149.9,243.8 L 147.3,242.8 L 143.7,242.6 L 125.8,238.5 L 122.2,238.8 L 119.6,240.3 L 117.5,242.9 L 104.5,261.5 L 101.3,266.2 L 100.4,270.3 L 101.4,273.6 L 103.4,276.1 L 107.4,277.2 L 131.1,278.3 L 133.9,278.5 L 136.1,279.6 L 138.7,281.7 L 150.8,300.5 L 152.5,303.4 L 153.2,306.4 L 147.8,341.8 L 145.8,345.8 L 143.1,348.7 L 136.3,350.6 L 126.3,350.7 L 114.6,348.2 L 104.6,345.2 L 95.1,341.7 L 87.8,337.8 L 78.8,331.8 L 70.5,325.4 L 68.7,323.7 L 61.8,317.1 L 55.6,309.2 L 54.3,307.5 L 48.8,297.2 L 45.9,290.7 L 44.0,286.5 L 42.9,282.2 L 41.4,276.4 L 40.4,268.9 L 40.0,259.6 L 40.2,251.7 L 40.3,249.3 L 40.9,240.5 L 41.6,234.5 L 43.0,228.4 L 44.6,224.0 L 46.5,219.3 L 49.0,214.1 L 52.9,207.1 L 56.6,201.6 L 61.2,195.4 L 61.7,194.9 L 69.8,186.2 L 74.1,182.1 L 77.4,179.7 L 79.8,178.2 L 85.2,175.4 L 92.2,172.6 L 94.0,171.9 L 99.9,170.4 L 105.3,169.8 L 110.8,169.6 L 117.8,170.0 L 129.5,171.2 L 170.8,177.4 L 244.0,187.5 L 255.0,189.1 L 330.9,199.9 L 378.6,205.9 L 389.7,207.1 Z" fill="none" stroke="currentColor" stroke-width="10" stroke-linejoin="round" stroke-linecap="round"/></svg>