<svg xmlns="http://www.w3.org/2000/svg" viewBox="0 0 1000 1000" role="img" aria-label="Hockenheimring track outline"><path d="M 579.1,538.8 L 578.8,542.2 L 578.1,546.2 L 577.6,548.5 L 576.1,552.9 L 573.9,558.1 L 570.7,563.1 L 567.3,568.2 L 564.1,572.5 L 560.5,576.0 L 555.0,580.6 L 551.1,583.6 L 546.9,586.7 L 525.6,600.8 L 501.8,616.5 L 465.7,640.3 L 432.4,662.2 L 408.0,678.2 L 392.4,687.9 L 383.9,693.5 L 377.8,696.4 L 373.2,698.5 L 369.6,699.7 L 366.5,700.5 L 363.4,700.9 L 358.8,701.2 L 352.1,701.0 L 348.7,700.7 L 345.8,700.3 L 340.0,699.1 L 335.6,697.7 L 331.3,695.6 L 327.5,693.5 L 323.3,690.7 L 321.0,688.8 L 319.3,687.1 L 313.0,680.2 L 306.9,673.1 L 270.1,628.8 L 227.3,579.2 L 222.7,574.7 L 219.5,572.1 L 216.3,570.0 L 213.2,568.6 L 210.7,567.7 L 206.9,567.2 L 203.1,567.2 L 200.8,567.5 L 197.4,568.2 L 193.6,569.4 L 191.1,570.7 L 188.9,572.2 L 187.0,574.0 L 185.1,576.2 L 183.3,578.5 L 182.1,581.0 L 180.9,584.3 L 180.0,587.8 L 179.7,591.0 L 179.7,595.3 L 180.1,598.1 L 180.9,602.1 L 183.5,611.0 L 190.1,631.8 L 193.0,641.0 L 196.1,648.7 L 198.4,652.6 L 201.0,656.6 L 204.2,659.8 L 208.6,662.9 L 213.2,665.6 L 227.3,672.0 L 233.6,674.9 L 238.4,677.5 L 241.3,679.6 L 244.7,682.7 L 247.7,686.1 L 250.3,689.0 L 253.8,693.8 L 260.5,703.5 L 270.5,717.9 L 276.5,728.5 L 277.9,733.7 L 277.9,738.3 L 277.1,742.8 L 275.6,746.7 L 273.7,750.3 L 271.3,753.4 L 265.5,757.9 L 258.3,763.2 L 235.5,780.0 L 229.4,783.8 L 225.1,786.0 L 221.1,787.2 L 217.2,788.0 L 213.4,788.5 L 209.4,788.4 L 205.4,787.6 L 201.2,786.2 L 197.3,784.7 L 193.4,782.2 L 190.2,779.5 L 186.9,776.5 L 183.8,773.2 L 181.3,770.0 L 177.6,765.3 L 173.4,758.9 L 169.7,751.6 L 138.2,687.6 L 119.5,647.1 L 119.2,646.5 L 114.2,636.3 L 85.4,575.6 L 51.6,511.1 L 42.3,494.0 L 41.1,491.4 L 40.4,489.4 L 40.0,487.4 L 40.0,485.3 L 40.3,483.6 L 41.2,480.8 L 51.7,458.7 L 60.3,439.8 L 68.0,423.1 L 73.1,413.7 L 76.2,407.8 L 80.3,401.7 L 85.1,394.8 L 89.4,389.0 L 93.5,384.4 L 102.2,374.6 L 111.0,364.9 L 129.3,346.0 L 135.0,339.6 L 147.7,326.7 L 149.9,324.5 L 173.0,300.7 L 217.0,255.4 L 232.5,238.3 L 245.0,225.4 L 251.8,218.6 L 255.6,215.3 L 258.3,213.2 L 260.9,212.1 L 264.0,211.5 L 266.5,211.8 L 269.1,212.7 L 271.2,213.9 L 273.1,215.5 L 275.1,217.7 L 276.9,220.4 L 280.1,224.8 L 282.7,229.2 L 284.5,233.1 L 286.0,237.0 L 286.9,240.3 L 287.6,244.6 L 287.7,249.6 L 288.2,260.7 L 288.6,271.4 L 289.1,275.6 L 290.1,279.5 L 291.7,283.3 L 293.7,286.8 L 296.9,290.8 L 298.8,292.8 L 302.3,296.2 L 305.1,298.5 L 307.5,300.5 L 316.2,306.2 L 330.7,314.6 L 352.6,327.4 L 373.9,338.3 L 411.6,357.4 L 428.2,364.5 L 439.6,368.8 L 450.0,372.7 L 466.6,378.3 L 478.4,381.9 L 489.8,385.1 L 513.5,390.5 L 528.7,393.6 L 542.4,395.5 L 554.6,396.9 L 564.7,397.9 L 581.8,399.2 L 595.3,399.9 L 612.5,400.2 L 622.8,400.0 L 632.3,399.7 L 644.4,398.7 L 652.7,397.7 L 662.8,396.3 L 675.1,394.2 L 685.0,392.1 L 691.6,390.6 L 706.6,386.5 L 717.5,383.3 L 733.9,377.8 L 750.6,371.8 L 775.4,362.6 L 794.3,355.9 L 881.1,323.6 L 916.7,310.0 L 922.0,308.2 L 935.6,303.3 L 945.5,299.3 L 948.8,298.1 L 951.8,297.8 L 954.2,298.1 L 955.8,298.6 L 958.0,300.1 L 958.9,301.6 L 959.7,303.8 L 960.0,306.1 L 959.7,308.2 L 958.9,310.2 L 957.8,311.6 L 956.5,312.7 L 950.2,317.1 L 927.2,332.6 L 893.8,353.5 L 892.7,354.2 L 861.0,375.8 L 829.9,397.3 L 821.5,402.6 L 794.3,420.2 L 752.9,447.6 L 748.0,451.3 L 745.4,453.1 L 741.3,455.5 L 738.1,456.8 L 735.2,457.6 L 732.5,458.0 L 728.7,458.3 L 725.4,458.4 L 713.5,457.3 L 693.7,454.8 L 675.5,452.4 L 640.8,447.6 L 608.3,443.2 L 604.1,442.3 L 569.4,437.9 L 565.4,437.3 L 563.1,437.2 L 561.1,437.6 L 559.0,438.5 L 557.2,439.8 L 555.9,441.2 L 554.9,443.2 L 554.1,446.0 L 553.7,448.9 L 553.2,454.3 L 553.0,460.2 L 552.9,465.5 L 553.1,470.6 L 553.9,477.1 L 554.4,481.5 L 555.6,488.0 L 556.8,493.3 L 558.6,499.1 L 561.8,505.9 L 565.6,511.5 L 571.0,517.9 L 574.5,522.9 L 577.0,527.9 L 578.7,533.4 L 579.1,538.8 Z" fill="none" stroke="currentColor" stroke-width="10" stroke-linejoin="round" stroke-linecap="round"/></svg>