<svg xmlns="http://www.w3.org/2000/svg" viewBox="0 0 1000 1000" role="img" aria-label="Hungaroring track outline"><path d="M 101.3,580.0 L 99.7,578.4 L 97.8,576.5 L 96.4,574.9 L 95.4,573.5 L 94.5,572.2 L 93.5,570.3 L 92.7,568.5 L 92.2,566.7 L 91.9,565.0 L 91.7,563.2 L 91.7,561.5 L 91.8,559.8 L 92.0,558.4 L 92.2,557.3 L 92.6,556.1 L 93.0,554.9 L 93.4,553.9 L 93.9,552.8 L 94.5,551.8 L 95.2,550.8 L 95.8,549.8 L 96.5,549.0 L 97.1,548.3 L 97.9,547.6 L 98.6,546.9 L 99.4,546.3 L 100.5,545.6 L 101.7,545.0 L 103.0,544.4 L 104.5,543.9 L 105.9,543.5 L 107.5,543.1 L 109.5,542.9 L 112.7,542.5 L 116.5,542.1 L 120.4,542.0 L 129.9,542.1 L 138.9,542.4 L 149.5,542.8 L 159.0,543.4 L 165.2,544.1 L 172.9,545.1 L 183.0,547.1 L 193.5,549.4 L 202.3,551.8 L 208.8,553.9 L 214.7,556.3 L 220.5,558.5 L 227.4,561.7 L 236.6,566.2 L 243.8,570.6 L 252.5,576.4 L 261.3,583.0 L 282.9,600.2 L 330.4,637.8 L 379.2,676.4 L 382.3,679.0 L 385.2,681.1 L 388.5,682.9 L 391.5,684.2 L 394.5,685.3 L 397.6,686.3 L 400.6,686.9 L 404.0,687.2 L 407.3,687.0 L 410.4,686.5 L 413.8,685.7 L 417.8,684.5 L 421.3,683.2 L 424.2,681.6 L 426.4,680.4 L 429.1,678.4 L 432.3,675.6 L 435.3,672.1 L 438.2,667.6 L 439.9,663.5 L 441.2,659.0 L 442.0,654.4 L 442.5,649.7 L 442.5,645.6 L 442.3,641.0 L 441.0,636.6 L 438.6,630.9 L 404.0,569.3 L 402.3,565.8 L 401.0,562.8 L 400.0,560.2 L 398.9,557.3 L 398.0,554.5 L 397.5,552.1 L 397.2,550.1 L 396.9,548.0 L 396.9,546.4 L 397.0,544.1 L 397.2,541.3 L 397.7,537.9 L 398.3,535.1 L 399.4,532.0 L 400.9,528.4 L 438.6,451.7 L 502.6,321.3 L 507.8,311.2 L 513.0,301.4 L 518.3,292.5 L 523.9,283.4 L 530.7,273.6 L 538.4,263.6 L 547.5,252.0 L 550.1,249.4 L 560.5,238.6 L 563.0,235.7 L 564.2,233.2 L 565.0,231.1 L 565.8,229.1 L 566.3,227.1 L 566.6,225.1 L 566.8,222.8 L 566.9,220.7 L 566.9,218.7 L 566.7,216.9 L 566.5,215.1 L 566.2,213.0 L 565.7,211.1 L 565.1,209.1 L 535.9,102.3 L 534.3,93.5 L 533.9,90.3 L 533.6,88.0 L 533.4,85.3 L 533.5,82.8 L 533.9,79.9 L 534.3,77.6 L 534.8,76.1 L 535.2,74.0 L 535.9,71.9 L 536.7,69.8 L 537.5,67.8 L 538.3,65.7 L 539.3,63.7 L 540.3,61.8 L 541.4,60.0 L 542.8,58.1 L 544.4,56.0 L 545.9,54.2 L 547.5,52.6 L 548.9,51.3 L 550.8,49.7 L 553.0,48.1 L 555.0,46.9 L 557.2,45.6 L 559.2,44.5 L 561.9,43.3 L 565.0,42.1 L 568.0,41.1 L 571.2,40.5 L 574.2,40.0 L 576.7,40.0 L 579.8,40.0 L 582.7,40.1 L 586.0,40.6 L 589.4,41.2 L 592.3,42.0 L 596.1,43.5 L 599.1,45.0 L 622.4,58.9 L 632.7,66.1 L 641.2,73.2 L 649.8,80.9 L 660.6,91.3 L 731.9,167.8 L 732.8,169.0 L 733.6,170.1 L 734.3,171.4 L 734.9,172.7 L 735.4,174.3 L 735.7,175.9 L 735.8,177.8 L 735.6,179.7 L 735.5,181.4 L 735.2,183.1 L 735.0,184.1 L 734.7,185.1 L 734.3,185.9 L 733.8,186.8 L 733.3,187.7 L 732.3,188.8 L 731.4,189.6 L 726.6,195.0 L 725.7,196.0 L 724.7,197.1 L 723.9,198.2 L 723.1,199.4 L 722.6,200.8 L 722.0,202.5 L 721.7,204.3 L 721.5,206.0 L 721.4,208.1 L 721.7,210.8 L 722.1,213.3 L 722.8,216.3 L 749.0,313.7 L 749.7,315.5 L 750.4,317.4 L 751.0,319.1 L 751.8,320.6 L 752.6,322.0 L 753.7,323.7 L 754.7,325.2 L 755.9,326.7 L 757.3,328.3 L 758.7,329.9 L 760.1,331.1 L 762.0,332.5 L 763.8,333.7 L 765.8,334.7 L 768.0,335.6 L 770.0,336.3 L 771.9,336.7 L 773.7,337.0 L 825.8,343.0 L 828.6,343.5 L 831.3,344.1 L 833.9,344.7 L 836.2,345.4 L 838.1,346.2 L 840.1,347.1 L 842.3,348.3 L 844.5,349.7 L 846.4,351.2 L 848.8,353.3 L 850.9,355.2 L 852.9,357.2 L 854.9,359.6 L 856.1,361.3 L 857.2,363.3 L 858.2,365.6 L 859.3,368.5 L 860.2,372.4 L 860.7,375.7 L 860.8,378.8 L 860.7,381.7 L 860.6,384.1 L 860.3,386.5 L 847.0,484.1 L 846.6,487.8 L 846.3,491.7 L 846.2,494.1 L 846.3,496.4 L 846.3,498.8 L 846.6,501.3 L 846.8,503.5 L 847.0,505.8 L 847.3,507.7 L 847.8,510.4 L 848.4,513.1 L 849.2,516.0 L 850.1,518.9 L 851.2,522.0 L 852.6,525.4 L 854.3,529.1 L 855.8,531.9 L 857.0,534.2 L 858.7,536.8 L 860.4,539.5 L 901.0,601.1 L 903.1,604.6 L 904.0,606.5 L 904.7,608.2 L 905.6,610.4 L 906.3,612.6 L 907.0,615.1 L 907.6,617.7 L 907.9,620.2 L 908.2,622.8 L 908.3,625.4 L 908.3,628.2 L 908.1,631.0 L 907.8,633.8 L 907.4,636.6 L 906.8,639.3 L 906.2,641.7 L 905.3,644.8 L 904.1,647.9 L 902.3,651.7 L 900.4,655.1 L 898.3,658.4 L 895.4,662.4 L 891.9,666.9 L 881.3,679.1 L 792.0,778.8 L 718.8,860.5 L 717.6,861.7 L 716.3,862.8 L 715.0,864.1 L 713.8,865.1 L 712.4,866.0 L 711.0,866.8 L 709.4,867.5 L 707.5,868.1 L 705.5,868.5 L 703.7,868.6 L 701.9,868.6 L 700.3,868.3 L 698.9,868.0 L 697.3,867.5 L 695.8,867.0 L 694.4,866.3 L 693.1,865.6 L 692.0,864.9 L 691.4,864.5 L 690.7,864.0 L 689.8,863.2 L 688.6,862.2 L 687.3,860.8 L 636.9,805.1 L 633.4,801.8 L 628.1,796.9 L 591.8,767.9 L 590.7,767.1 L 589.6,766.3 L 588.5,765.6 L 587.2,764.9 L 585.7,764.2 L 584.1,763.6 L 582.4,763.0 L 580.7,762.5 L 579.0,762.2 L 577.6,762.0 L 576.2,761.8 L 574.2,761.8 L 572.3,761.8 L 569.8,761.9 L 567.3,762.2 L 565.7,762.5 L 564.0,762.8 L 562.5,763.2 L 561.1,763.7 L 559.7,764.2 L 558.2,764.9 L 556.6,765.8 L 555.2,766.8 L 553.9,767.7 L 552.7,768.7 L 551.5,769.7 L 550.1,770.9 L 549.2,771.9 L 548.1,773.2 L 547.1,774.6 L 546.2,776.2 L 545.3,778.0 L 543.9,781.4 L 542.9,785.4 L 542.6,787.3 L 542.5,789.6 L 542.4,791.8 L 542.5,793.9 L 542.6,796.0 L 542.9,798.1 L 543.2,800.0 L 543.8,801.9 L 544.6,804.3 L 545.6,806.4 L 546.8,808.4 L 548.2,810.6 L 549.5,812.2 L 550.7,813.5 L 551.8,814.5 L 552.4,815.0 L 632.1,877.0 L 637.0,881.7 L 638.6,883.2 L 639.9,884.7 L 640.8,886.1 L 641.8,887.6 L 642.7,889.2 L 643.5,890.9 L 644.5,893.0 L 645.5,895.5 L 646.3,897.9 L 646.9,900.2 L 647.5,902.6 L 647.9,905.0 L 648.2,907.4 L 648.4,909.7 L 648.5,912.5 L 648.4,915.2 L 648.2,917.6 L 648.0,919.8 L 647.6,922.2 L 647.1,924.6 L 646.4,927.1 L 645.5,929.8 L 644.4,932.6 L 643.4,934.9 L 642.1,937.1 L 640.8,939.1 L 639.5,940.8 L 638.3,942.4 L 636.6,944.2 L 634.9,945.9 L 633.1,947.4 L 631.2,949.1 L 629.4,950.6 L 627.6,951.9 L 626.0,953.1 L 624.1,954.2 L 622.2,955.2 L 620.3,956.0 L 618.2,956.9 L 616.1,957.6 L 614.0,958.2 L 611.8,958.7 L 609.2,959.3 L 606.9,959.7 L 604.4,959.9 L 601.8,960.0 L 598.7,959.8 L 595.2,959.5 L 592.7,959.2 L 590.2,958.7 L 587.8,958.2 L 581.5,956.0 L 576.3,953.7 L 570.7,950.3 L 566.9,947.6 L 285.1,725.3 L 219.4,673.2 L 101.3,580.0 Z" fill="none" stroke="currentColor" stroke-width="10" stroke-linejoin="round" stroke-linecap="round"/></svg>