<svg xmlns="http://www.w3.org/2000/svg" viewBox="0 0 1000 1000" role="img" aria-label="Autodromo Enzo e Dino Ferrari track outline"><path d="M 366.8 472.4 L 369.9 466.0 L 372.2 460.6 L 374.5 454.3 L 375.9 448.6 L 377.4 442.3 L 378.4 435.4 L 378.6 428.9 L 378.7 423.3 L 378.4 418.0 L 377.3 410.7 L 376.0 404.4 L 374.3 397.6 L 358.6 325.6 L 358.2 323.3 L 358.1 320.5 L 358.5 317.6 L 359.2 315.4 L 359.9 313.6 L 361.3 311.3 L 363.1 308.4 L 374.0 291.2 L 384.9 274.1 L 385.9 272.8 L 387.3 271.6 L 388.8 270.9 L 390.5 270.4 L 391.8 270.2 L 393.9 270.3 L 395.6 270.7 L 398.3 271.6 L 405.7 274.8 L 413.1 277.9 L 415.7 279.0 L 418.6 279.8 L 421.9 280.4 L 425.4 280.6 L 432.2 280.5 L 632.8 279.0 L 636.7 279.3 L 638.5 279.6 L 639.8 280.2 L 640.9 281.3 L 641.8 283.1 L 643.6 288.8 L 644.3 290.8 L 645.4 292.2 L 646.2 293.2 L 647.4 293.9 L 649.0 294.2 L 650.8 294.4 L 652.5 294.0 L 654.6 293.2 L 732.3 261.4 L 737.2 259.1 L 742.5 256.5 L 748.4 253.0 L 753.9 249.6 L 758.7 246.4 L 780.2 230.7 L 786.5 225.7 L 793.1 220.2 L 796.4 217.3 L 801.5 212.6 L 807.4 206.9 L 863.3 151.2 L 866.7 147.9 L 873.3 142.5 L 880.6 137.4 L 884.5 135.0 L 888.0 133.2 L 897.2 128.8 L 900.6 127.4 L 923.6 117.3 L 947.0 107.4 L 951.6 105.4 L 953.5 104.2 L 955.5 103.1 L 957.0 101.7 L 958.3 99.7 L 959.2 97.9 L 959.6 96.7 L 960.0 95.3 L 960.0 93.4 L 959.9 91.6 L 959.7 90.0 L 959.2 88.2 L 958.2 85.6 L 950.5 68.0 L 942.8 50.3 L 941.2 47.9 L 939.8 45.9 L 937.6 43.9 L 935.0 42.2 L 932.9 41.2 L 930.6 40.5 L 927.9 40.0 L 925.7 40.0 L 923.2 40.3 L 921.0 40.8 L 917.8 41.8 L 885.0 54.0 L 803.3 87.0 L 794.2 90.3 L 786.2 92.6 L 779.6 94.4 L 776.2 95.0 L 772.4 95.6 L 768.1 96.3 L 764.3 96.9 L 760.4 97.4 L 755.9 97.8 L 737.8 97.3 L 679.8 96.0 L 621.7 95.7 L 608.1 95.4 L 602.1 94.4 L 597.3 93.3 L 515.6 75.8 L 505.4 73.6 L 498.5 72.5 L 491.9 71.5 L 485.7 70.9 L 479.5 70.3 L 471.4 69.7 L 464.1 69.3 L 458.5 69.2 L 451.3 69.2 L 443.2 69.4 L 422.5 71.2 L 393.2 73.6 L 378.7 74.9 L 344.4 78.1 L 340.8 78.7 L 336.8 79.6 L 291.0 90.7 L 288.6 91.4 L 285.8 92.6 L 284.1 93.8 L 282.7 95.3 L 281.4 96.9 L 280.5 98.7 L 280.0 100.4 L 279.3 103.4 L 278.3 108.8 L 277.2 114.2 L 276.0 118.7 L 274.9 121.7 L 273.6 124.0 L 272.0 126.0 L 270.3 127.5 L 268.2 129.1 L 265.7 131.0 L 246.4 140.1 L 227.4 148.8 L 224.7 150.2 L 222.1 151.6 L 220.2 152.7 L 217.9 154.4 L 215.7 156.3 L 213.9 158.0 L 212.4 159.8 L 211.5 161.3 L 210.5 163.1 L 209.5 165.2 L 208.1 168.7 L 134.3 351.4 L 133.8 352.5 L 133.3 354.5 L 132.9 356.1 L 132.7 358.0 L 132.6 360.3 L 132.9 362.7 L 133.4 364.9 L 133.9 367.3 L 137.2 379.6 L 140.5 391.9 L 140.8 393.2 L 141.2 395.4 L 141.1 397.5 L 140.9 399.3 L 140.6 401.2 L 139.9 403.1 L 138.8 405.0 L 137.5 406.6 L 135.6 408.6 L 133.8 410.2 L 132.2 411.6 L 130.4 413.2 L 105.8 433.6 L 85.2 451.2 L 52.8 478.8 L 48.4 483.2 L 44.9 487.0 L 42.7 489.6 L 41.1 492.7 L 40.3 495.5 L 40.0 498.8 L 40.4 501.6 L 41.1 504.2 L 42.3 506.9 L 43.9 509.7 L 46.1 512.3 L 48.2 514.0 L 50.5 515.2 L 53.1 516.3 L 56.0 516.8 L 58.6 517.0 L 63.2 516.9 L 143.0 505.7 L 170.4 501.7 L 209.3 496.7 L 214.8 496.1 L 222.9 495.5 L 231.8 495.2 L 239.0 495.5 L 246.2 495.8 L 253.8 496.5 L 261.8 497.6 L 321.5 508.3 L 329.0 509.5 L 333.0 509.6 L 336.4 509.3 L 339.5 508.4 L 342.5 507.0 L 345.7 505.1 L 349.3 502.4 L 352.3 499.2 L 354.6 496.1 L 356.3 493.4 L 358.4 489.9 L 366.8 472.4 L 366.8 472.4 Z" fill="none" stroke="currentColor" stroke-width="10" stroke-linejoin="round" stroke-linecap="round"/></svg>