<svg xmlns="http://www.w3.org/2000/svg" viewBox="0 0 1000 1000" role="img" aria-label="Autodromo Enzo e Dino Ferrari track outline"><path d="M374.0,512.7 L 384.9,495.6 L 385.9,494.3 L 387.3,493.1 L 388.8,492.3 L 390.5,491.9 L 391.8,491.7 L 393.9,491.8 L 395.6,492.2 L 398.3,493.1 L 405.7,496.3 L 413.1,499.4 L 415.7,500.5 L 418.6,501.3 L 421.9,501.9 L 425.4,502.1 L 432.2,502.0 L 632.8,500.5 L 636.7,500.8 L 638.5,501.1 L 639.8,501.7 L 640.9,502.7 L 641.8,504.5 L 643.6,510.3 L 644.3,512.3 L 645.4,513.7 L 646.2,514.6 L 647.4,515.4 L 649.0,515.7 L 650.8,515.9 L 652.5,515.5 L 654.6,514.7 L 732.3,482.8 L 737.2,480.6 L 742.5,477.9 L 748.4,474.5 L 753.9,471.1 L 758.7,467.9 L 780.2,452.2 L 786.5,447.2 L 793.1,441.7 L 796.4,438.8 L 801.5,434.1 L 807.4,428.4 L 863.3,372.7 L 866.7,369.3 L 873.3,364.0 L 880.6,358.9 L 884.5,356.5 L 888.0,354.7 L 897.2,350.3 L 900.6,348.9 L 923.6,338.8 L 947.0,328.9 L 951.6,326.9 L 953.5,325.7 L 955.5,324.6 L 957.0,323.2 L 958.3,321.2 L 959.2,319.4 L 959.6,318.2 L 960.0,316.8 L 960.0,314.9 L 959.9,313.0 L 959.7,311.5 L 959.2,309.7 L 958.2,307.1 L 950.5,289.5 L 942.8,271.8 L 941.2,269.3 L 939.8,267.4 L 937.6,265.4 L 935.0,263.7 L 932.9,262.7 L 930.6,262.0 L 927.9,261.5 L 925.7,261.5 L 923.2,261.7 L 921.0,262.3 L 917.8,263.3 L 885.0,275.5 L 803.3,308.5 L 794.2,311.8 L 786.2,314.1 L 779.6,315.9 L 776.2,316.4 L 772.4,317.1 L 768.1,317.8 L 764.3,318.3 L 760.4,318.9 L 755.9,319.2 L 737.8,318.8 L 679.8,317.5 L 621.7,317.2 L 608.1,316.9 L 602.1,315.8 L 597.3,314.8 L 515.6,297.3 L 505.4,295.1 L 498.5,294.0 L 491.9,293.0 L 485.7,292.4 L 479.5,291.8 L 471.4,291.2 L 464.1,290.8 L 458.5,290.6 L 451.3,290.6 L 443.2,290.9 L 422.5,292.7 L 393.2,295.1 L 378.7,296.4 L 344.4,299.6 L 340.8,300.2 L 336.8,301.1 L 291.0,312.2 L 288.6,312.9 L 285.8,314.0 L 284.1,315.3 L 282.7,316.8 L 281.4,318.4 L 280.5,320.2 L 280.0,321.9 L 279.3,324.8 L 278.3,330.3 L 277.2,335.7 L 276.0,340.2 L 274.9,343.2 L 273.6,345.5 L 272.0,347.5 L 270.3,349.0 L 268.2,350.6 L 265.7,352.5 L 246.4,361.6 L 227.4,370.3 L 224.7,371.7 L 222.1,373.1 L 220.2,374.1 L 217.9,375.9 L 215.7,377.8 L 213.9,379.5 L 212.4,381.3 L 211.5,382.7 L 210.5,384.6 L 209.5,386.7 L 208.1,390.2 L 134.3,572.8 L 133.8,574.0 L 133.3,576.0 L 132.9,577.6 L 132.7,579.5 L 132.6,581.8 L 132.9,584.2 L 133.4,586.4 L 133.9,588.7 L 137.2,601.0 L 140.5,613.3 L 140.8,614.7 L 141.2,616.9 L 141.1,619.0 L 140.9,620.8 L 140.6,622.7 L 139.9,624.6 L 138.8,626.5 L 137.5,628.1 L 135.6,630.1 L 133.8,631.7 L 132.2,633.0 L 130.4,634.7 L 105.8,655.1 L 85.2,672.7 L 52.8,700.3 L 48.4,704.7 L 44.9,708.5 L 42.7,711.1 L 41.1,714.2 L 40.3,717.0 L 40.0,720.3 L 40.4,723.1 L 41.1,725.7 L 42.3,728.4 L 43.9,731.2 L 46.1,733.8 L 48.2,735.5 L 50.5,736.7 L 53.1,737.8 L 56.0,738.3 L 58.6,738.5 L 63.2,738.4 L 143.0,727.2 L 170.4,723.1 L 209.3,718.2 L 214.8,717.5 L 222.9,717.0 L 231.8,716.7 L 239.0,716.9 L 246.2,717.2 L 253.8,718.0 L 261.8,719.1 L 321.5,729.8 L 329.0,731.0 L 333.0,731.1 L 336.4,730.8 L 339.5,729.9 L 342.5,728.5 L 345.7,726.6 L 349.3,723.9 L 352.3,720.7 L 354.6,717.6 L 356.3,714.9 L 358.4,711.4 L 366.8,693.9 L 369.9,687.5 L 372.2,682.1 L 374.5,675.8 L 375.9,670.1 L 377.4,663.7 L 378.4,656.8 L 378.6,650.4 L 378.7,644.8 L 378.4,639.4 L 377.3,632.2 L 376.0,625.9 L 374.3,619.1 L 358.6,547.1 L 358.2,544.8 L 358.1,542.0 L 358.5,539.1 L 359.2,536.9 L 359.9,535.1 L 361.3,532.7 L 363.1,529.9 L 374.0,512.7 Z" fill="none" stroke="currentColor" stroke-width="10" stroke-linejoin="round" stroke-linecap="round"/></svg>