<svg xmlns="http://www.w3.org/2000/svg" viewBox="0 0 1000 1000" role="img" aria-label="Indianapolis Motor Speedway track outline"><path d="M 497.9,307.5 L 498.2,329.0 L 500.2,502.3 L 501.6,633.2 L 501.3,659.3 L 502.1,666.5 L 503.2,669.5 L 504.9,671.6 L 506.1,672.9 L 508.6,674.4 L 514.3,674.9 L 558.5,673.1 L 577.4,672.5 L 584.5,673.5 L 591.5,676.2 L 597.0,679.4 L 602.2,684.5 L 604.8,688.2 L 606.7,692.4 L 608.2,696.9 L 609.6,702.1 L 613.2,709.8 L 615.8,713.2 L 619.1,716.2 L 626.1,720.1 L 630.3,721.4 L 634.5,722.2 L 644.2,722.4 L 665.3,720.9 L 686.2,719.5 L 690.8,719.4 L 694.3,720.0 L 697.0,720.9 L 699.3,722.3 L 700.9,723.6 L 702.6,725.1 L 704.2,727.1 L 705.8,729.9 L 707.1,732.5 L 708.4,735.4 L 709.7,739.0 L 710.9,742.8 L 712.7,749.5 L 714.3,756.8 L 714.9,760.9 L 715.2,765.8 L 715.4,772.1 L 715.0,778.2 L 714.5,784.0 L 709.2,819.1 L 705.1,847.1 L 702.7,862.6 L 702.0,866.3 L 701.1,870.4 L 699.6,875.5 L 698.3,879.6 L 697.0,883.0 L 694.8,889.1 L 691.6,895.5 L 688.9,900.4 L 683.9,907.3 L 678.8,913.3 L 674.0,918.7 L 668.9,924.5 L 656.8,934.4 L 649.6,938.7 L 641.8,942.7 L 633.6,946.2 L 623.6,949.3 L 617.6,950.9 L 610.8,952.5 L 595.2,954.9 L 494.5,960.0 L 483.7,958.4 L 480.7,955.2 L 480.4,953.8 L 479.5,952.0 L 479.2,949.4 L 478.7,946.0 L 481.6,886.0 L 480.8,878.9 L 479.1,874.0 L 476.6,869.4 L 472.9,864.2 L 469.6,861.2 L 467.4,860.1 L 465.7,859.6 L 463.4,859.2 L 460.7,859.4 L 457.9,860.3 L 453.8,861.9 L 405.3,881.6 L 398.5,883.6 L 391.1,885.4 L 387.3,885.8 L 381.8,886.3 L 374.8,886.1 L 368.9,885.3 L 363.0,884.3 L 358.2,882.9 L 353.1,881.1 L 347.6,878.4 L 342.5,875.7 L 337.1,872.0 L 329.7,865.5 L 324.8,860.0 L 319.0,852.8 L 312.5,841.0 L 303.4,821.9 L 298.4,808.3 L 296.7,803.0 L 295.4,797.5 L 293.8,787.3 L 292.2,775.0 L 290.9,760.9 L 290.4,744.0 L 290.3,737.3 L 290.2,724.4 L 290.1,712.7 L 290.0,698.6 L 289.6,665.4 L 289.4,648.8 L 289.3,631.6 L 289.0,614.7 L 288.9,608.5 L 288.8,597.3 L 288.5,570.3 L 287.3,445.6 L 285.8,313.6 L 284.6,199.6 L 286.2,193.5 L 288.6,190.7 L 292.5,189.1 L 302.6,188.4 L 313.2,188.5 L 321.6,188.4 L 326.0,188.2 L 328.2,187.9 L 332.0,187.3 L 334.7,186.5 L 338.1,184.9 L 341.4,182.9 L 344.3,180.5 L 346.5,178.3 L 348.8,175.7 L 350.5,172.7 L 351.5,170.7 L 352.2,168.5 L 352.6,166.7 L 353.0,164.5 L 353.2,161.1 L 353.1,154.7 L 351.0,131.0 L 350.9,127.5 L 351.0,124.0 L 351.2,119.8 L 351.7,116.2 L 352.5,112.1 L 353.3,108.8 L 354.7,103.9 L 356.5,98.9 L 357.9,95.3 L 359.5,92.0 L 361.0,89.1 L 362.8,85.8 L 365.1,82.5 L 367.6,79.1 L 370.6,75.6 L 373.6,72.6 L 377.0,69.2 L 381.9,65.2 L 385.7,62.5 L 389.7,60.1 L 397.9,56.1 L 417.2,46.9 L 428.4,41.9 L 429.3,41.5 L 430.1,41.2 L 432.1,40.7 L 434.0,40.3 L 435.9,40.1 L 437.9,40.0 L 439.7,40.2 L 441.5,40.5 L 443.3,40.9 L 444.9,41.4 L 446.2,41.9 L 447.9,42.7 L 449.3,43.6 L 453.5,46.4 L 457.6,49.4 L 461.7,53.6 L 464.5,57.2 L 466.8,60.8 L 468.3,63.4 L 469.3,65.9 L 470.3,68.7 L 471.4,72.5 L 471.9,76.7 L 472.2,81.9 L 472.4,94.1 L 472.5,109.7 L 473.0,142.1 L 473.0,149.9 L 472.6,154.2 L 471.6,158.7 L 470.6,161.9 L 469.4,164.9 L 467.6,168.2 L 465.6,171.2 L 463.3,174.0 L 460.4,176.8 L 456.2,180.2 L 450.8,184.1 L 398.4,221.7 L 386.2,230.0 L 382.1,233.5 L 377.9,237.8 L 374.9,242.4 L 372.8,247.3 L 371.3,252.7 L 370.9,257.1 L 371.3,261.7 L 372.0,265.5 L 373.1,269.4 L 374.4,272.7 L 376.2,275.9 L 379.0,279.8 L 380.2,281.3 L 382.1,283.3 L 385.8,286.4 L 388.9,288.9 L 392.3,290.9 L 396.4,292.8 L 400.6,294.3 L 406.1,295.4 L 411.4,295.7 L 414.9,295.7 L 417.9,295.4 L 422.6,294.4 L 427.8,292.7 L 431.8,290.7 L 437.3,286.9 L 453.7,275.4 L 458.9,272.5 L 462.3,271.1 L 466.0,270.3 L 469.7,270.3 L 473.5,271.0 L 476.6,272.2 L 479.4,273.7 L 481.7,275.2 L 484.3,277.2 L 486.5,279.5 L 488.5,281.9 L 490.2,284.4 L 491.9,287.1 L 493.2,289.9 L 494.4,292.6 L 495.5,295.8 L 496.4,298.9 L 497.3,303.2 L 497.9,307.5 Z" fill="none" stroke="currentColor" stroke-width="10" stroke-linejoin="round" stroke-linecap="round"/></svg>