<svg xmlns="http://www.w3.org/2000/svg" viewBox="0 0 1000 1000" role="img" aria-label="Autodromo Jose Carlos Pace track outline"><path d="M 61.1,321.6 L 45.5,386.2 L 43.2,400.5 L 41.7,411.0 L 40.7,423.0 L 40.1,434.4 L 40.0,446.3 L 40.7,461.4 L 42.2,474.4 L 44.3,488.4 L 46.4,501.1 L 50.0,518.6 L 56.7,546.2 L 82.7,646.7 L 95.9,697.7 L 99.2,710.3 L 150.1,907.9 L 154.0,918.6 L 156.8,924.9 L 160.2,931.3 L 164.9,939.1 L 169.9,945.6 L 174.0,949.7 L 179.1,953.9 L 184.4,957.3 L 191.1,959.9 L 198.1,960.0 L 204.4,958.8 L 210.4,955.9 L 214.7,952.4 L 219.9,947.5 L 239.1,926.8 L 244.0,922.1 L 247.4,919.2 L 251.5,917.0 L 255.2,915.7 L 259.8,915.0 L 264.6,915.4 L 269.6,916.7 L 274.2,918.7 L 279.9,921.8 L 297.1,932.8 L 304.1,937.3 L 316.6,942.4 L 332.5,946.7 L 342.9,947.8 L 355.3,948.4 L 365.6,948.2 L 376.3,947.2 L 390.2,944.4 L 402.0,940.6 L 415.5,934.3 L 428.0,926.6 L 438.2,919.3 L 447.6,910.4 L 457.3,899.4 L 465.1,888.9 L 472.0,876.6 L 477.3,864.0 L 485.8,837.3 L 506.4,767.4 L 518.1,726.9 L 526.7,696.1 L 531.6,678.0 L 535.1,664.3 L 542.0,635.1 L 547.7,610.1 L 578.0,496.3 L 598.7,419.7 L 620.5,342.7 L 623.1,331.7 L 623.9,324.4 L 623.9,318.8 L 623.1,313.0 L 621.5,307.6 L 619.6,302.7 L 616.5,297.5 L 613.3,294.1 L 610.0,291.2 L 604.8,287.7 L 600.7,285.8 L 594.6,283.8 L 579.8,280.5 L 539.7,273.5 L 524.1,271.0 L 513.9,269.5 L 505.8,269.0 L 497.1,269.2 L 488.8,269.8 L 479.7,271.7 L 469.6,274.7 L 460.0,278.7 L 454.7,281.2 L 448.4,285.2 L 441.7,289.7 L 432.0,298.1 L 423.0,307.3 L 412.0,320.5 L 396.3,341.4 L 375.4,370.2 L 341.3,417.7 L 326.9,437.9 L 305.6,467.0 L 258.5,531.7 L 251.5,541.3 L 247.0,546.6 L 242.3,551.2 L 237.1,555.8 L 231.0,559.9 L 223.4,563.3 L 215.9,565.7 L 210.0,567.0 L 200.8,567.6 L 193.1,567.6 L 184.1,567.1 L 174.8,565.9 L 167.0,563.9 L 157.8,561.2 L 150.5,558.2 L 142.3,554.5 L 135.1,550.1 L 127.9,544.5 L 121.8,539.1 L 119.6,536.4 L 117.3,532.8 L 114.1,527.1 L 111.2,519.1 L 108.8,510.2 L 104.4,489.5 L 95.5,434.6 L 94.8,427.8 L 94.4,422.2 L 94.2,416.3 L 94.3,410.4 L 94.7,404.0 L 95.3,400.3 L 96.5,397.0 L 98.0,394.2 L 100.7,391.1 L 104.2,388.3 L 108.0,386.0 L 111.5,384.4 L 114.9,383.7 L 119.6,383.4 L 123.2,383.6 L 126.6,384.4 L 130.5,386.0 L 135.1,388.4 L 140.9,391.8 L 144.6,394.4 L 156.6,403.7 L 163.9,407.7 L 167.1,409.2 L 170.1,410.1 L 174.6,411.0 L 179.3,411.5 L 182.8,411.5 L 186.8,411.0 L 193.5,409.2 L 199.6,406.5 L 204.6,403.1 L 208.9,399.0 L 212.1,395.1 L 214.4,391.5 L 216.2,387.4 L 217.5,384.5 L 218.4,381.2 L 219.0,376.6 L 219.2,373.4 L 219.1,370.2 L 218.2,364.1 L 216.4,358.6 L 213.9,353.8 L 210.2,348.9 L 204.8,342.7 L 186.9,325.2 L 171.0,309.3 L 158.3,295.7 L 154.9,291.7 L 152.0,287.8 L 149.5,284.3 L 146.6,279.6 L 143.9,274.9 L 141.0,269.5 L 139.3,265.2 L 136.8,257.2 L 130.8,234.4 L 127.0,216.8 L 126.1,212.1 L 125.8,207.8 L 125.7,203.9 L 125.9,199.8 L 126.5,196.5 L 127.4,194.0 L 128.7,191.9 L 130.5,189.4 L 132.4,187.6 L 135.8,185.0 L 138.8,183.3 L 141.8,181.9 L 144.5,181.1 L 146.8,180.7 L 149.3,180.8 L 151.8,181.1 L 154.5,181.9 L 156.7,183.0 L 158.7,184.2 L 162.7,187.5 L 168.1,192.4 L 175.5,199.9 L 190.4,216.7 L 211.4,239.4 L 220.3,249.0 L 224.7,252.8 L 229.1,256.3 L 235.6,260.6 L 241.6,263.9 L 248.8,267.3 L 256.7,270.1 L 265.2,271.9 L 272.9,273.0 L 281.5,273.5 L 286.4,273.6 L 292.7,273.2 L 299.1,272.5 L 303.2,271.7 L 307.2,270.7 L 311.7,269.2 L 316.9,267.3 L 322.6,264.7 L 326.3,262.7 L 329.9,260.6 L 336.6,255.8 L 341.7,251.4 L 345.9,247.4 L 349.4,243.5 L 352.5,239.8 L 359.4,229.6 L 370.2,213.0 L 388.6,183.7 L 422.4,129.0 L 434.5,108.2 L 435.9,105.6 L 436.9,103.4 L 437.5,101.2 L 438.0,99.0 L 438.1,96.7 L 438.1,94.4 L 437.9,91.1 L 437.5,89.1 L 436.9,87.0 L 435.9,85.0 L 434.9,83.3 L 432.4,80.4 L 429.6,77.5 L 426.6,75.3 L 422.9,72.9 L 415.4,69.2 L 405.1,64.8 L 395.3,60.9 L 379.0,54.8 L 364.1,49.5 L 350.9,44.7 L 343.8,42.4 L 338.3,40.9 L 334.1,40.2 L 329.8,40.0 L 324.3,40.3 L 318.5,40.9 L 300.7,43.6 L 279.7,47.4 L 259.4,51.2 L 253.9,52.6 L 249.0,53.9 L 239.8,56.9 L 231.6,60.1 L 222.6,63.8 L 211.7,68.7 L 202.1,73.2 L 191.4,78.4 L 180.8,83.5 L 170.4,88.9 L 164.9,92.0 L 158.8,95.7 L 153.0,99.6 L 145.4,105.3 L 137.4,111.9 L 128.8,120.1 L 119.9,129.7 L 113.7,138.5 L 108.1,148.5 L 102.6,159.5 L 98.7,169.4 L 95.4,180.4 L 84.5,222.9 L 69.4,286.7 L 61.1,321.6 Z" fill="none" stroke="currentColor" stroke-width="10" stroke-linejoin="round" stroke-linecap="round"/></svg>