<svg xmlns="http://www.w3.org/2000/svg" viewBox="0 0 1000 1000" role="img" aria-label="Istanbul Park track outline"><path d="M 845.1,44.4 L 751.6,71.7 L 675.8,94.1 L 578.3,123.4 L 545.7,133.0 L 542.9,134.0 L 540.1,135.3 L 537.6,136.8 L 536.1,137.9 L 534.9,139.1 L 533.2,141.5 L 531.7,144.6 L 531.0,146.6 L 530.7,148.6 L 530.6,150.6 L 531.0,152.7 L 532.1,154.7 L 533.4,156.5 L 537.4,161.3 L 540.3,165.6 L 542.8,170.0 L 545.1,174.1 L 546.8,177.9 L 548.7,182.3 L 550.5,187.4 L 551.4,190.7 L 552.0,194.4 L 552.1,198.9 L 551.6,202.6 L 550.9,206.0 L 550.1,208.9 L 531.2,266.9 L 495.7,376.8 L 466.5,469.9 L 461.7,483.3 L 456.1,495.1 L 451.7,502.3 L 446.5,509.2 L 441.0,514.6 L 432.5,520.5 L 419.5,528.4 L 370.7,556.3 L 267.6,611.2 L 230.3,631.9 L 131.3,685.2 L 67.8,719.4 L 51.4,728.3 L 47.2,730.7 L 45.4,732.0 L 44.0,733.4 L 42.9,735.0 L 41.9,736.7 L 40.7,739.6 L 40.1,742.4 L 40.0,745.6 L 40.6,749.2 L 42.1,753.9 L 44.2,757.5 L 47.4,761.0 L 50.6,763.5 L 53.8,765.1 L 57.7,766.1 L 61.8,766.4 L 85.1,765.7 L 87.3,765.7 L 88.4,765.8 L 89.7,766.1 L 91.1,766.6 L 92.1,767.2 L 93.2,768.0 L 94.3,768.9 L 95.7,770.4 L 96.9,772.2 L 97.4,773.3 L 97.8,774.4 L 98.0,776.3 L 98.1,778.1 L 97.9,780.5 L 89.8,827.6 L 89.5,831.3 L 89.5,833.1 L 89.8,834.9 L 90.5,836.3 L 91.3,837.8 L 92.4,838.9 L 93.8,840.0 L 95.3,840.9 L 97.0,841.6 L 98.9,842.0 L 101.4,842.2 L 104.3,841.9 L 236.0,815.1 L 329.0,795.5 L 379.3,785.5 L 476.4,767.1 L 508.9,759.6 L 514.1,757.8 L 517.0,756.2 L 519.9,754.3 L 522.4,751.5 L 523.7,748.6 L 524.5,744.9 L 524.5,741.2 L 523.9,736.7 L 522.6,731.7 L 515.0,706.7 L 511.7,694.3 L 510.4,688.8 L 509.3,682.7 L 508.7,677.8 L 508.5,669.7 L 508.8,663.0 L 509.3,656.1 L 510.4,648.9 L 512.4,640.9 L 514.7,634.9 L 518.9,627.3 L 522.4,621.7 L 526.4,616.8 L 533.1,610.1 L 541.5,603.5 L 555.2,594.3 L 573.3,583.8 L 590.2,574.9 L 604.0,568.5 L 618.3,562.7 L 632.8,557.8 L 640.6,555.4 L 649.1,553.2 L 667.2,549.0 L 676.8,547.0 L 686.4,545.6 L 693.8,544.7 L 702.1,544.0 L 710.2,543.3 L 719.4,542.8 L 730.0,542.5 L 741.2,542.5 L 755.1,542.9 L 765.7,544.0 L 776.5,545.2 L 784.1,545.7 L 791.5,545.3 L 798.3,543.7 L 804.5,541.2 L 810.7,537.7 L 816.4,533.1 L 820.9,528.2 L 824.5,523.1 L 827.2,518.1 L 829.4,512.4 L 830.6,506.3 L 831.2,499.8 L 830.9,493.2 L 829.8,486.7 L 827.4,472.4 L 825.5,461.2 L 824.4,454.1 L 823.8,447.2 L 823.9,444.0 L 824.2,442.2 L 824.7,440.4 L 825.6,438.7 L 827.2,436.8 L 829.2,435.5 L 831.5,434.9 L 844.1,435.4 L 880.5,436.9 L 900.1,436.9 L 909.0,436.7 L 914.3,435.4 L 917.8,433.6 L 920.8,431.0 L 922.7,428.5 L 924.4,424.8 L 925.0,421.1 L 924.9,417.5 L 918.9,381.8 L 918.1,378.4 L 917.0,375.1 L 915.2,372.1 L 913.3,369.4 L 910.8,366.7 L 907.6,363.9 L 904.4,361.5 L 900.9,359.6 L 852.0,335.2 L 727.8,272.9 L 681.1,249.6 L 666.6,241.8 L 657.9,235.6 L 653.4,230.3 L 650.8,225.5 L 649.6,220.7 L 649.8,214.9 L 651.1,209.7 L 653.3,205.3 L 657.0,200.7 L 661.8,196.2 L 668.3,191.6 L 674.8,188.1 L 681.2,185.5 L 688.0,183.2 L 695.1,181.8 L 701.9,181.2 L 710.0,181.3 L 721.7,182.7 L 790.2,196.7 L 815.5,202.7 L 866.5,216.6 L 873.8,218.1 L 879.3,218.7 L 884.3,218.1 L 889.6,216.3 L 894.3,214.1 L 909.9,205.1 L 933.3,193.4 L 938.5,190.0 L 942.6,185.9 L 945.6,181.3 L 947.5,176.6 L 958.9,140.7 L 959.9,135.4 L 960.0,130.4 L 959.0,125.6 L 957.5,121.4 L 955.1,116.7 L 946.5,101.7 L 940.1,92.3 L 933.1,83.1 L 922.1,70.5 L 913.3,61.4 L 903.0,52.2 L 897.2,47.7 L 891.3,44.1 L 885.0,41.9 L 878.3,40.5 L 871.1,40.0 L 862.3,40.5 L 853.9,41.9 L 845.1,44.4 Z" fill="none" stroke="currentColor" stroke-width="10" stroke-linejoin="round" stroke-linecap="round"/></svg>