<svg xmlns="http://www.w3.org/2000/svg" viewBox="0 0 1000 1000" role="img" aria-label="Circuito del Jarama track outline"><path d="M 574.0,139.9 L 578.9,155.7 L 763.4,729.3 L 776.7,771.1 L 792.1,817.0 L 799.6,838.6 L 807.8,860.0 L 817.4,882.9 L 828.9,908.4 L 835.6,924.6 L 837.3,931.9 L 836.9,938.2 L 834.1,944.9 L 829.4,950.5 L 822.8,955.7 L 815.5,958.9 L 807.6,960.0 L 798.7,959.8 L 790.2,957.3 L 783.9,953.7 L 778.4,949.8 L 772.4,944.2 L 758.5,929.0 L 736.7,900.6 L 719.0,878.8 L 640.6,790.7 L 637.4,786.9 L 634.5,782.8 L 632.1,778.7 L 629.9,774.4 L 628.4,770.8 L 626.5,766.2 L 625.2,761.5 L 624.2,756.4 L 623.8,751.7 L 623.6,746.5 L 623.8,741.9 L 624.4,736.4 L 626.1,726.0 L 649.4,607.3 L 650.3,602.6 L 650.6,598.2 L 650.4,593.2 L 649.7,588.2 L 648.1,582.7 L 645.5,577.0 L 642.3,572.2 L 639.4,568.6 L 636.0,565.0 L 632.4,562.0 L 628.5,559.2 L 623.8,556.4 L 618.8,554.2 L 615.3,553.2 L 611.3,552.8 L 607.6,552.9 L 604.3,553.5 L 601.1,554.7 L 598.4,556.5 L 595.7,558.8 L 593.7,561.5 L 591.8,564.9 L 589.8,569.4 L 564.5,632.3 L 561.2,639.6 L 558.9,643.7 L 556.6,646.5 L 554.6,648.3 L 552.3,649.6 L 549.8,650.4 L 546.8,650.8 L 543.2,650.4 L 539.8,649.6 L 537.0,648.2 L 534.2,646.7 L 531.6,644.9 L 529.1,642.5 L 527.7,640.5 L 526.4,637.3 L 525.7,633.9 L 525.1,629.2 L 524.9,622.6 L 524.7,606.0 L 525.1,477.4 L 524.4,466.7 L 522.8,458.3 L 518.5,448.3 L 512.9,439.7 L 505.5,430.8 L 499.9,425.6 L 494.1,421.5 L 489.4,418.6 L 481.0,414.4 L 460.1,404.4 L 431.2,390.5 L 408.7,380.1 L 385.6,369.9 L 350.2,354.5 L 322.6,341.8 L 286.5,324.6 L 241.2,302.5 L 231.7,297.8 L 223.4,293.7 L 218.7,290.8 L 214.0,287.5 L 210.2,284.5 L 203.1,278.3 L 196.5,271.7 L 191.2,265.4 L 186.5,259.5 L 182.3,253.0 L 178.5,246.8 L 175.4,240.9 L 172.8,235.1 L 170.3,229.0 L 167.7,222.3 L 163.5,212.7 L 159.6,204.4 L 155.0,195.9 L 150.6,188.7 L 146.8,183.4 L 142.8,178.2 L 135.9,170.0 L 129.3,163.1 L 122.8,156.8 L 115.8,150.9 L 110.0,146.6 L 104.8,142.8 L 99.2,139.2 L 94.2,136.1 L 88.7,133.1 L 83.7,130.7 L 78.0,128.3 L 70.1,125.1 L 64.4,122.5 L 60.0,120.2 L 56.6,117.9 L 54.1,116.0 L 51.5,113.3 L 48.8,110.3 L 46.6,107.5 L 43.8,103.3 L 42.1,99.4 L 41.4,96.6 L 40.5,92.5 L 40.1,88.3 L 40.0,84.6 L 40.2,80.7 L 40.6,76.9 L 41.2,73.5 L 42.3,69.5 L 43.7,66.1 L 45.7,62.1 L 48.1,58.7 L 50.8,55.5 L 53.9,52.5 L 56.8,49.9 L 59.5,48.1 L 63.7,45.9 L 69.2,43.5 L 75.0,41.8 L 80.1,40.8 L 84.0,40.2 L 88.9,40.0 L 92.8,40.0 L 97.7,40.5 L 102.3,41.4 L 107.4,42.7 L 116.9,45.5 L 127.9,49.3 L 142.5,55.1 L 149.6,58.3 L 157.0,62.1 L 166.2,67.5 L 178.9,75.1 L 191.2,83.4 L 203.0,92.2 L 214.3,101.4 L 224.5,110.9 L 233.0,119.3 L 243.4,130.7 L 253.8,144.2 L 271.4,167.9 L 325.6,239.7 L 341.5,260.1 L 345.6,264.9 L 351.0,270.5 L 356.9,275.9 L 363.5,281.0 L 369.9,285.1 L 377.3,288.8 L 385.2,292.0 L 390.9,293.7 L 396.2,294.9 L 402.8,296.0 L 407.9,296.5 L 416.0,297.0 L 469.8,299.4 L 479.1,299.8 L 485.6,300.3 L 492.3,301.2 L 498.8,302.2 L 505.4,303.5 L 511.4,305.0 L 517.4,306.9 L 522.9,309.1 L 524.9,309.8 L 526.2,310.0 L 527.3,310.2 L 530.0,310.4 L 532.3,310.4 L 535.1,310.0 L 538.5,309.1 L 542.0,307.4 L 545.4,305.2 L 548.4,302.7 L 550.6,300.5 L 552.6,298.0 L 554.4,294.9 L 555.4,292.8 L 556.2,290.2 L 556.8,287.1 L 557.0,284.9 L 556.8,282.2 L 556.2,279.0 L 555.3,276.4 L 553.2,271.7 L 548.9,264.1 L 544.5,257.7 L 537.8,249.2 L 530.8,240.9 L 524.6,234.4 L 520.1,229.8 L 515.8,226.1 L 510.3,221.8 L 505.0,218.3 L 498.6,214.5 L 493.2,211.7 L 487.3,209.0 L 479.0,205.6 L 467.2,200.7 L 459.1,197.1 L 451.0,193.2 L 436.2,185.8 L 348.8,141.9 L 340.9,137.7 L 334.2,132.9 L 330.5,128.8 L 327.9,123.7 L 326.1,117.9 L 324.6,110.9 L 322.5,97.9 L 322.0,90.6 L 322.2,84.3 L 323.3,79.4 L 325.8,73.9 L 329.1,69.1 L 332.3,66.0 L 335.6,63.4 L 338.4,61.6 L 341.1,60.5 L 344.7,59.7 L 348.9,59.4 L 354.1,59.5 L 360.6,60.3 L 505.7,83.9 L 515.1,85.6 L 520.8,87.0 L 526.1,88.8 L 531.9,91.3 L 539.0,95.1 L 544.9,99.0 L 550.5,103.7 L 556.7,109.7 L 560.4,113.7 L 564.1,118.4 L 567.7,124.3 L 571.0,131.7 L 574.0,139.9 Z" fill="none" stroke="currentColor" stroke-width="10" stroke-linejoin="round" stroke-linecap="round"/></svg>