<svg xmlns="http://www.w3.org/2000/svg" viewBox="0 0 1000 1000" role="img" aria-label="Jeddah Corniche Circuit track outline"><path d="M103.9,822.0 L 63.4,797.0 L 43.1,759.6 L 40.0,705.1 L 44.8,659.8 L 65.0,633.3 L 96.2,611.5 L 465.8,503.9 L 518.7,460.3 L 546.8,419.6 L 606.1,271.6 L 648.2,234.2 L 702.7,203.0 L 860.2,168.6 L 907.0,181.1 L 936.6,199.9 L 956.9,238.8 L 960.0,287.2 L 936.6,352.6 L 892.9,588.1 L 868.0,638.0 L 819.7,653.7 L 771.3,639.5 L 740.1,616.1 L 732.4,588.1 L 735.5,550.7 L 765.0,499.2 L 815.0,387.0 L 821.2,354.2 L 819.7,335.5 L 801.0,313.7 L 776.0,301.2 L 747.9,299.7 L 712.0,312.1 L 679.3,349.5 L 593.5,538.2 L 482.9,725.3 L 436.1,769.0 L 372.2,789.2 L 164.8,831.4 L 103.9,822.0 Z" fill="none" stroke="currentColor" stroke-width="10" stroke-linejoin="round" stroke-linecap="round"/></svg>