<svg xmlns="http://www.w3.org/2000/svg" viewBox="0 0 1000 1000" role="img" aria-label="Jeddah Corniche Circuit track outline"><path d="M 133.2 604.6 L 129.4 582.4 L 123.4 547.6 L 120.1 527.0 L 119.3 515.8 L 119.3 512.3 L 118.7 510.0 L 117.5 508.8 L 105.9 503.9 L 101.3 501.6 L 97.4 498.6 L 94.2 495.4 L 91.0 491.9 L 88.0 487.0 L 85.6 480.7 L 84.5 475.9 L 83.8 469.5 L 84.0 463.9 L 85.0 458.4 L 86.1 454.6 L 88.0 450.1 L 90.8 445.2 L 95.9 438.7 L 97.9 434.8 L 99.9 429.6 L 101.0 423.5 L 101.3 418.5 L 101.0 414.3 L 100.2 410.7 L 95.6 394.4 L 94.5 391.2 L 92.7 387.6 L 89.8 384.4 L 86.5 381.4 L 79.1 376.5 L 75.1 373.1 L 72.5 369.7 L 70.7 365.8 L 69.6 360.7 L 69.6 355.8 L 69.9 337.8 L 70.0 328.7 L 70.1 325.2 L 70.5 321.9 L 72.2 317.2 L 74.9 312.6 L 77.2 310.0 L 79.8 307.6 L 82.6 305.5 L 85.4 304.3 L 94.8 301.0 L 97.6 299.8 L 99.9 298.6 L 102.1 297.2 L 104.3 295.3 L 105.9 293.6 L 107.1 291.8 L 108.6 289.4 L 109.7 287.0 L 110.7 283.2 L 111.1 278.8 L 112.0 271.8 L 113.0 265.4 L 114.4 258.6 L 116.2 252.5 L 118.5 246.7 L 121.3 240.3 L 123.3 234.9 L 124.6 230.2 L 126.3 221.8 L 127.1 211.6 L 127.8 195.9 L 127.9 182.5 L 127.4 170.0 L 126.5 154.7 L 125.4 131.6 L 124.6 113.0 L 123.1 89.7 L 122.7 76.7 L 121.8 62.8 L 121.6 58.6 L 120.7 55.1 L 119.5 52.1 L 117.4 48.6 L 113.5 44.8 L 110.7 42.8 L 107.4 41.3 L 102.3 40.0 L 97.4 40.0 L 93.0 40.9 L 89.1 42.7 L 86.3 44.5 L 84.2 46.3 L 81.7 49.2 L 80.3 51.7 L 79.1 54.5 L 77.4 59.9 L 76.8 63.2 L 76.4 66.3 L 76.2 69.5 L 76.2 72.3 L 76.3 76.3 L 76.9 80.1 L 77.7 83.4 L 78.9 86.7 L 80.0 89.7 L 82.0 93.6 L 88.7 104.7 L 96.3 116.3 L 98.7 120.7 L 100.3 124.8 L 102.3 130.1 L 103.9 136.4 L 105.1 143.5 L 105.7 150.9 L 105.8 158.7 L 105.8 163.9 L 105.4 169.0 L 104.9 173.3 L 104.0 178.6 L 102.8 183.5 L 101.3 188.9 L 99.2 194.9 L 95.7 202.2 L 89.5 213.7 L 87.8 217.6 L 86.2 222.0 L 85.2 225.1 L 83.9 230.5 L 83.2 233.9 L 82.8 237.0 L 82.4 240.8 L 82.4 248.5 L 82.4 253.5 L 81.4 257.1 L 79.9 260.1 L 77.9 262.7 L 76.0 264.6 L 73.2 266.5 L 70.2 268.2 L 64.5 269.5 L 58.4 271.5 L 53.9 274.1 L 49.8 277.7 L 47.2 280.8 L 45.7 283.1 L 44.5 285.7 L 43.3 289.5 L 42.2 293.7 L 40.6 305.1 L 40.0 313.5 L 40.0 319.1 L 40.1 322.5 L 40.4 327.7 L 41.2 334.8 L 42.2 341.3 L 44.1 349.5 L 46.3 357.3 L 48.1 362.0 L 50.1 366.7 L 58.1 385.8 L 61.2 393.2 L 65.6 405.1 L 68.0 413.2 L 69.2 418.1 L 71.0 429.4 L 71.5 436.7 L 71.5 446.4 L 71.0 458.1 L 70.9 464.8 L 71.4 473.9 L 72.1 481.2 L 73.5 488.4 L 75.3 496.1 L 77.8 503.6 L 80.1 508.9 L 82.1 513.4 L 84.2 517.6 L 85.2 519.4 L 88.8 525.2 L 95.8 536.4 L 99.7 543.2 L 103.1 549.8 L 106.4 556.6 L 108.4 561.7 L 109.7 566.3 L 111.9 574.1 L 114.4 586.0 L 115.5 592.3 L 116.2 598.8 L 116.7 605.9 L 117.0 612.2 L 117.0 611.9 L 117.5 610.4 L 118.0 609.0 L 118.4 607.7 L 119.0 606.2 L 119.8 604.5 L 121.3 602.9 L 122.3 602.2 L 123.5 601.5 L 126.2 601.2 L 128.5 601.5 L 129.8 601.7 L 130.9 602.3 L 131.8 603.1 L 132.5 603.9 L 133.2 604.6 L 134.3 611.5 L 134.7 616.6 L 134.6 624.1 L 134.1 628.7 L 133.4 632.3 L 132.8 635.2 L 131.3 640.7 L 127.9 649.3 L 125.7 655.9 L 124.2 663.1 L 123.5 668.3 L 123.7 671.0 L 124.4 673.0 L 126.5 675.9 L 128.1 677.0 L 130.8 678.3 L 133.3 678.4 L 135.9 677.7 L 141.4 675.0 L 142.9 674.3 L 144.9 674.1 L 146.9 674.3 L 148.9 675.5 L 150.2 677.4 L 151.4 680.2 L 154.3 688.9 L 168.7 731.0 L 189.6 792.8 L 212.0 856.9 L 216.1 869.3 L 219.3 878.9 L 224.0 893.2 L 227.1 903.5 L 230.1 916.1 L 232.3 925.9 L 235.2 938.8 L 239.6 959.5 L 239.8 960.0 L 230.7 933.0 L 225.2 916.6 L 218.6 899.9 L 210.9 883.0 L 210.4 880.7 L 210.5 879.1 L 210.7 877.2 L 211.2 874.6 L 211.3 872.7 L 211.1 870.3 L 210.6 867.5 L 209.6 864.6 L 171.6 754.1 L 168.2 744.6 L 164.8 734.9 L 160.3 722.5 L 157.7 714.8 L 150.5 693.8 L 149.7 691.8 L 148.6 689.8 L 147.2 688.0 L 145.4 686.3 L 143.0 685.0 L 139.3 683.5 L 132.7 681.1 L 128.2 679.3 L 125.5 677.8 L 123.8 675.4 L 122.9 672.8 L 123.5 668.3" fill="none" stroke="currentColor" stroke-width="10" stroke-linejoin="round" stroke-linecap="round"/></svg>