<svg xmlns="http://www.w3.org/2000/svg" viewBox="0 0 1000 1000" role="img" aria-label="Circuito de Jerez - Ángel Nieto track outline"><path d="M 259.8,413.7 L 350.1,421.6 L 358.1,423.1 L 365.3,425.2 L 372.2,428.7 L 380.2,435.0 L 512.2,597.3 L 552.7,647.2 L 559.6,655.2 L 564.0,658.3 L 568.2,660.6 L 573.1,661.8 L 578.2,662.6 L 584.7,662.3 L 592.3,660.2 L 597.1,658.1 L 602.0,654.2 L 606.6,648.1 L 608.7,641.6 L 610.0,634.6 L 610.1,627.3 L 608.1,620.5 L 605.7,614.4 L 476.9,307.6 L 465.6,277.4 L 387.9,92.4 L 386.2,86.1 L 385.1,79.3 L 385.3,72.9 L 386.7,66.8 L 389.0,60.6 L 391.7,55.9 L 395.0,51.9 L 399.5,47.8 L 404.6,44.6 L 410.7,42.3 L 420.4,41.1 L 584.5,40.0 L 592.2,40.8 L 597.5,42.8 L 602.5,45.9 L 607.2,50.1 L 610.3,54.4 L 612.1,59.1 L 613.1,64.1 L 613.5,68.2 L 613.4,72.6 L 612.3,77.3 L 610.3,81.7 L 606.2,87.4 L 601.3,92.2 L 560.9,122.0 L 551.5,132.3 L 545.2,141.5 L 541.5,148.3 L 538.8,155.3 L 536.9,161.7 L 535.7,167.8 L 534.9,173.5 L 535.0,182.7 L 540.7,289.1 L 541.4,296.7 L 542.1,301.6 L 543.1,306.9 L 544.7,314.1 L 546.7,320.3 L 550.0,328.9 L 553.0,335.6 L 557.0,342.8 L 561.6,349.8 L 567.6,357.3 L 573.8,363.7 L 580.7,370.5 L 588.7,376.2 L 597.6,381.7 L 606.6,386.2 L 616.5,389.8 L 626.6,392.9 L 642.9,395.7 L 656.6,397.7 L 880.3,428.8 L 891.9,431.3 L 905.2,435.8 L 912.0,439.2 L 918.3,443.4 L 926.1,449.4 L 932.9,456.5 L 940.0,465.7 L 945.1,475.0 L 949.3,485.6 L 951.5,493.5 L 952.9,503.5 L 953.2,512.5 L 953.0,521.1 L 952.2,530.2 L 951.0,539.0 L 949.0,546.8 L 946.6,553.6 L 942.5,562.2 L 937.5,571.2 L 930.8,580.2 L 922.8,588.8 L 909.9,599.8 L 777.7,704.6 L 708.3,761.4 L 647.6,811.3 L 566.5,876.3 L 485.4,942.1 L 468.7,954.8 L 460.7,958.5 L 454.4,960.0 L 446.7,959.4 L 439.4,957.0 L 432.6,952.8 L 428.5,947.9 L 424.7,940.9 L 423.6,933.9 L 424.7,924.7 L 427.5,916.9 L 504.8,764.2 L 508.1,755.8 L 510.7,745.9 L 512.4,736.5 L 512.9,726.5 L 512.5,716.2 L 511.3,707.7 L 509.3,699.3 L 505.8,690.2 L 501.1,680.2 L 496.3,672.4 L 492.1,666.5 L 387.3,532.9 L 378.9,524.3 L 371.3,518.4 L 360.5,512.7 L 349.3,508.7 L 338.1,506.4 L 326.8,505.5 L 315.5,506.3 L 302.7,509.3 L 292.8,512.9 L 286.2,516.0 L 278.3,520.3 L 266.6,529.0 L 258.0,536.6 L 249.4,546.5 L 242.6,555.9 L 235.9,567.9 L 231.5,578.5 L 178.6,728.7 L 173.6,740.2 L 171.0,744.7 L 167.9,748.8 L 163.2,752.7 L 158.4,755.9 L 153.2,758.4 L 147.6,759.9 L 140.8,760.4 L 132.9,760.0 L 126.1,758.4 L 118.4,754.8 L 58.2,710.8 L 49.2,703.3 L 44.2,696.7 L 42.0,691.9 L 40.3,685.5 L 40.0,676.1 L 41.5,668.8 L 44.8,661.6 L 140.7,466.1 L 144.1,461.6 L 147.7,459.0 L 153.4,458.3 L 160.4,459.7 L 168.0,463.7 L 175.4,467.6 L 180.5,469.1 L 186.7,469.6 L 191.0,469.0 L 196.1,467.1 L 200.3,464.1 L 205.5,459.0 L 242.2,421.0 L 246.0,417.8 L 250.2,415.7 L 254.7,414.4 L 259.8,413.7 Z" fill="none" stroke="currentColor" stroke-width="10" stroke-linejoin="round" stroke-linecap="round"/></svg>