<svg xmlns="http://www.w3.org/2000/svg" viewBox="0 0 1000 1000" role="img" aria-label="Johor Circuit track outline"><path d="M59.8,561.7 L 49.3,553.9 L 42.6,542.3 L 40.2,529.9 L 40.0,516.0 L 44.2,502.8 L 49.7,491.8 L 58.0,484.4 L 70.4,476.8 L 82.7,474.3 L 116.8,477.2 L 152.9,485.3 L 642.8,594.6 L 660.3,594.0 L 675.7,590.5 L 703.1,575.5 L 776.1,518.2 L 786.8,500.1 L 789.5,482.1 L 785.8,470.1 L 774.3,457.1 L 759.9,450.3 L 739.5,449.8 L 615.0,468.0 L 599.9,468.1 L 583.4,466.1 L 570.0,456.3 L 563.1,445.9 L 550.6,413.9 L 494.0,272.7 L 493.7,257.0 L 501.6,242.8 L 510.4,234.3 L 520.6,229.5 L 541.3,228.1 L 920.1,369.1 L 935.8,382.3 L 948.5,396.9 L 955.9,413.4 L 959.0,428.4 L 960.0,442.2 L 958.1,456.7 L 953.1,470.2 L 948.1,480.7 L 870.5,579.5 L 861.8,595.9 L 855.2,616.7 L 851.4,642.5 L 845.5,665.3 L 838.7,674.3 L 831.9,680.3 L 822.4,686.8 L 811.6,690.4 L 796.7,692.4 L 654.6,698.6 L 638.7,696.5 L 632.1,692.9 L 628.1,686.7 L 621.1,656.4 L 613.6,647.1 L 604.4,644.0 L 524.8,664.2 L 500.8,670.9 L 477.5,680.3 L 462.3,690.6 L 458.8,693.0 L 386.7,766.6 L 376.0,771.5 L 366.2,771.9 L 355.8,768.4 L 59.8,561.7 Z" fill="none" stroke="currentColor" stroke-width="10" stroke-linejoin="round" stroke-linecap="round"/></svg>