<svg xmlns="http://www.w3.org/2000/svg" viewBox="0 0 1000 1000" role="img" aria-label="Karlskoga Motorstadion track outline"><path d="M327.8,440.4 L 315.9,444.8 L 311.4,446.5 L 301.9,452.0 L 295.3,457.8 L 292.3,460.3 L 281.1,474.2 L 273.0,490.3 L 228.1,578.1 L 216.7,590.3 L 205.1,600.0 L 191.5,605.3 L 174.6,609.3 L 150.1,612.5 L 132.1,614.3 L 112.3,614.8 L 96.5,613.1 L 86.1,608.7 L 72.9,602.0 L 62.4,594.7 L 52.5,583.7 L 45.0,568.8 L 41.2,554.9 L 40.0,534.4 L 44.0,517.0 L 51.0,497.0 L 56.7,487.2 L 63.6,477.4 L 74.4,464.2 L 90.0,450.4 L 125.5,440.9 L 240.3,409.9 L 416.0,362.6 L 465.6,356.4 L 537.0,347.6 L 639.4,335.9 L 648.5,334.8 L 685.6,330.6 L 918.6,304.0 L 939.3,302.5 L 946.0,303.7 L 950.9,306.1 L 956.6,314.6 L 958.8,319.6 L 960.0,327.5 L 956.6,345.6 L 929.4,427.9 L 907.8,494.1 L 904.1,499.5 L 901.2,503.6 L 896.5,508.2 L 890.9,511.1 L 881.7,514.3 L 865.4,516.7 L 845.0,519.4 L 826.9,520.5 L 812.9,519.0 L 800.6,514.0 L 790.5,505.6 L 778.3,488.5 L 767.7,462.6 L 762.8,450.1 L 754.6,440.9 L 746.8,434.5 L 739.0,429.6 L 725.6,425.5 L 716.5,424.6 L 706.7,425.6 L 694.7,428.8 L 684.4,435.5 L 668.2,448.5 L 653.9,464.2 L 560.8,597.2 L 550.5,609.3 L 535.7,621.9 L 518.0,634.1 L 502.1,642.5 L 475.1,651.9 L 449.5,659.7 L 303.6,696.1 L 294.5,697.5 L 285.2,695.9 L 278.8,691.4 L 272.9,685.1 L 268.6,676.9 L 268.7,666.7 L 271.2,661.2 L 284.5,641.0 L 293.3,627.7 L 300.4,620.1 L 312.9,614.6 L 324.6,611.9 L 367.9,613.6 L 386.0,613.8 L 403.8,609.1 L 423.0,596.2 L 439.2,582.9 L 535.1,484.0 L 567.4,449.4 L 570.3,446.3 L 575.6,438.4 L 579.9,429.1 L 581.2,420.7 L 579.7,412.1 L 578.0,406.1 L 573.9,399.7 L 568.6,393.9 L 561.8,388.9 L 552.5,386.5 L 542.6,385.7 L 529.9,387.4 L 404.6,420.3 L 327.8,440.4 Z" fill="none" stroke="currentColor" stroke-width="10" stroke-linejoin="round" stroke-linecap="round"/></svg>