<svg xmlns="http://www.w3.org/2000/svg" viewBox="0 0 1000 1000" role="img" aria-label="Kyalami Grand Prix Circuit track outline"><path d="M 766.1,56.9 L 716.2,125.7 L 648.4,220.2 L 609.9,273.8 L 603.2,282.7 L 594.1,291.6 L 585.6,297.4 L 577.2,301.7 L 566.5,305.8 L 555.4,308.3 L 544.4,308.8 L 533.3,308.3 L 522.4,305.4 L 513.0,302.0 L 503.4,296.8 L 494.7,291.0 L 488.5,285.2 L 483.2,278.6 L 471.6,263.2 L 452.8,237.5 L 429.3,203.1 L 419.4,189.6 L 414.8,184.5 L 410.1,180.5 L 404.6,178.3 L 399.6,177.1 L 395.0,177.2 L 390.0,177.8 L 384.2,179.6 L 379.4,182.5 L 375.2,185.6 L 370.7,190.1 L 358.9,205.8 L 296.1,292.8 L 288.9,304.8 L 284.6,315.7 L 283.7,326.5 L 284.7,332.6 L 286.3,338.6 L 289.8,347.0 L 293.5,353.9 L 297.7,362.5 L 300.1,371.1 L 301.2,378.2 L 301.2,386.7 L 300.4,393.6 L 298.5,400.6 L 295.7,409.8 L 291.1,418.0 L 284.5,425.4 L 276.2,432.8 L 267.6,438.1 L 257.9,443.2 L 223.9,457.0 L 186.9,472.1 L 172.6,475.6 L 159.5,476.5 L 130.1,479.7 L 112.9,482.5 L 87.5,490.5 L 51.6,501.5 L 47.3,504.3 L 45.1,506.6 L 42.3,509.7 L 40.3,514.8 L 40.0,519.9 L 40.6,524.3 L 42.4,529.2 L 46.2,533.6 L 56.8,540.2 L 79.1,550.4 L 89.1,552.1 L 94.7,552.1 L 100.0,550.9 L 105.8,549.0 L 113.9,545.3 L 270.0,475.0 L 287.2,465.8 L 294.2,461.1 L 301.8,454.9 L 309.2,447.2 L 315.2,440.7 L 320.9,432.9 L 324.8,426.6 L 328.4,418.7 L 331.4,410.3 L 333.7,401.8 L 335.4,393.6 L 337.2,378.7 L 340.5,353.2 L 344.5,324.8 L 348.6,308.5 L 353.1,294.6 L 357.5,285.7 L 366.0,268.2 L 369.2,262.9 L 372.9,260.1 L 377.4,257.8 L 382.5,256.9 L 389.9,257.4 L 395.5,259.8 L 399.8,263.7 L 402.9,268.0 L 407.7,276.3 L 414.1,288.5 L 423.5,305.3 L 437.6,324.7 L 449.6,337.4 L 469.2,354.9 L 489.8,369.6 L 495.4,373.8 L 497.8,377.0 L 499.4,380.9 L 500.6,388.5 L 501.7,399.6 L 505.9,445.3 L 507.0,456.6 L 511.4,509.2 L 513.0,528.7 L 513.7,533.5 L 514.5,536.4 L 516.3,539.1 L 518.5,541.2 L 521.4,543.0 L 524.4,543.9 L 527.3,544.4 L 530.2,544.3 L 533.0,543.8 L 536.0,542.5 L 538.3,541.1 L 541.0,539.0 L 566.4,511.1 L 648.1,421.2 L 695.5,367.0 L 716.1,342.5 L 731.5,326.5 L 744.3,313.8 L 755.6,303.3 L 780.8,286.1 L 819.3,261.2 L 903.8,206.6 L 924.4,192.8 L 941.3,182.3 L 950.5,176.8 L 955.9,171.2 L 959.1,166.0 L 960.0,158.7 L 957.2,150.9 L 953.0,145.8 L 946.6,142.6 L 937.1,139.8 L 886.6,130.6 L 879.9,128.2 L 874.0,124.4 L 868.6,120.0 L 863.7,112.8 L 856.6,99.1 L 851.8,89.0 L 844.2,73.6 L 840.9,70.3 L 838.8,68.2 L 829.8,62.3 L 807.5,48.7 L 796.8,42.1 L 790.6,40.0 L 785.3,40.1 L 780.3,42.2 L 774.9,45.5 L 766.1,56.9 Z" fill="none" stroke="currentColor" stroke-width="10" stroke-linejoin="round" stroke-linecap="round"/></svg>