<svg xmlns="http://www.w3.org/2000/svg" viewBox="0 0 1000 1000" role="img" aria-label="Laguna Seca track outline"><path d="M196.9,617.3 L 194.4,607.8 L 190.7,590.0 L 188.5,575.5 L 187.1,557.6 L 186.9,539.9 L 187.3,532.0 L 187.5,525.2 L 190.0,505.9 L 194.9,478.1 L 197.6,463.0 L 198.9,457.6 L 200.7,452.4 L 203.2,447.5 L 206.3,443.1 L 210.0,439.2 L 214.4,435.7 L 219.2,432.7 L 224.3,430.4 L 229.7,428.8 L 235.2,427.9 L 240.7,428.0 L 246.2,428.7 L 367.9,457.7 L 396.1,464.5 L 421.1,470.4 L 432.3,474.2 L 442.5,479.8 L 450.0,485.8 L 455.2,491.7 L 459.0,497.0 L 462.9,505.3 L 465.2,512.2 L 466.3,520.5 L 475.3,630.8 L 475.8,643.8 L 475.9,655.4 L 474.5,676.0 L 472.4,692.3 L 469.0,710.1 L 462.8,733.7 L 437.6,822.5 L 430.7,846.7 L 423.9,870.9 L 418.2,890.7 L 416.6,896.1 L 415.7,901.7 L 415.3,907.2 L 415.5,912.6 L 416.4,918.0 L 417.8,923.1 L 419.7,928.1 L 422.2,933.1 L 425.2,937.8 L 428.9,942.1 L 433.1,945.9 L 437.6,948.8 L 442.1,951.4 L 446.8,953.7 L 451.8,955.4 L 457.0,957.1 L 462.4,958.3 L 467.7,959.1 L 472.8,959.7 L 477.7,960.0 L 484.2,960.0 L 495.7,959.0 L 528.6,954.9 L 623.5,937.4 L 698.4,926.2 L 710.1,924.4 L 728.4,921.2 L 755.0,916.5 L 768.4,914.1 L 782.7,911.7 L 786.7,910.3 L 790.4,908.4 L 793.9,905.7 L 796.5,902.5 L 798.5,898.9 L 815.4,867.1 L 828.4,841.1 L 832.3,832.6 L 835.0,825.3 L 837.4,817.8 L 840.3,807.8 L 842.1,800.0 L 845.3,782.5 L 847.8,763.3 L 849.0,741.9 L 849.3,720.6 L 849.2,692.7 L 849.4,670.6 L 850.5,652.4 L 852.3,620.3 L 852.8,599.0 L 852.2,579.0 L 850.1,544.9 L 849.6,531.6 L 850.4,520.4 L 852.1,510.9 L 855.2,497.3 L 862.2,473.0 L 867.4,458.6 L 868.8,452.2 L 868.9,446.9 L 867.9,441.9 L 865.5,437.0 L 861.2,433.5 L 856.0,431.7 L 847.6,430.7 L 840.6,430.2 L 835.4,429.1 L 830.7,426.9 L 826.3,423.4 L 822.9,418.9 L 820.8,413.9 L 817.8,400.2 L 815.3,381.4 L 814.2,365.7 L 814.6,349.1 L 816.8,334.3 L 818.0,321.5 L 817.7,308.0 L 816.4,296.9 L 813.5,280.3 L 809.3,265.6 L 804.8,255.8 L 799.2,247.4 L 791.7,239.0 L 784.6,232.3 L 776.8,226.7 L 770.7,223.4 L 764.1,221.0 L 755.6,219.1 L 749.1,218.6 L 740.7,219.8 L 697.2,231.6 L 681.9,236.2 L 625.0,253.7 L 598.2,261.9 L 575.0,269.0 L 569.7,270.4 L 564.1,271.5 L 558.6,272.0 L 553.1,271.6 L 547.6,270.4 L 542.3,268.7 L 537.4,266.2 L 532.8,263.2 L 528.6,259.3 L 525.1,255.5 L 522.2,251.0 L 519.3,246.2 L 495.5,200.5 L 461.3,135.3 L 448.3,110.4 L 433.8,82.7 L 421.1,58.6 L 419.1,54.7 L 416.4,49.7 L 413.3,44.9 L 411.4,43.0 L 408.9,41.5 L 406.4,40.4 L 403.4,40.0 L 400.4,40.1 L 397.7,40.8 L 395.3,41.9 L 392.7,43.9 L 389.6,47.4 L 385.6,53.2 L 365.5,83.6 L 226.9,272.4 L 218.4,284.1 L 203.4,307.2 L 145.9,434.5 L 140.6,449.0 L 136.1,463.6 L 133.8,473.4 L 132.0,488.6 L 131.4,502.2 L 131.1,537.9 L 131.4,570.6 L 131.7,578.3 L 133.6,625.3 L 134.7,654.3 L 136.0,664.5 L 138.5,671.2 L 141.6,675.9 L 145.1,680.0 L 149.7,683.6 L 155.4,686.4 L 162.2,688.4 L 170.1,688.7 L 178.3,687.4 L 185.9,685.1 L 192.4,682.3 L 197.7,678.3 L 201.5,673.5 L 204.6,668.7 L 206.5,663.2 L 207.8,657.6 L 208.0,652.2 L 206.6,646.9 L 196.9,617.3 Z" fill="none" stroke="currentColor" stroke-width="10" stroke-linejoin="round" stroke-linecap="round"/></svg>