<svg xmlns="http://www.w3.org/2000/svg" viewBox="0 0 1000 1000" role="img" aria-label="Las Vegas Strip Circuit track outline">
  <path d="M 700.5,890.2 L 760.6,822.3 L 764.5,816.2 L 765.5,811.2 L 765.3,807.1 L 762.3,801.4 L 757.6,797.0 L 752.7,794.5 L 746.7,792.6 L 737.7,791.4 L 729.0,791.8 L 721.3,794.0 L 713.5,798.0 L 702.2,805.6 L 684.8,822.3 L 679.1,826.2 L 672.2,828.5 L 663.7,829.7 L 656.6,829.6 L 648.9,827.2 L 642.1,824.6 L 635.1,820.7 L 627.5,814.1 L 621.3,806.2 L 614.1,792.5 L 613.9,773.1 L 613.6,760.2 L 613.6,714.3 L 613.3,708.4 L 613.0,676.3 L 612.8,665.4 L 612.8,660.3 L 612.7,651.2 L 612.6,646.5 L 612.5,633.7 L 612.4,627.5 L 612.4,626.1 L 612.4,620.8 L 612.3,613.1 L 612.3,608.2 L 612.6,572.5 L 612.6,560.7 L 612.6,553.5 L 612.5,544.8 L 612.3,525.8 L 612.1,497.2 L 612.1,494.0 L 611.9,477.9 L 611.9,476.5 L 611.8,471.3 L 611.5,430.4 L 611.6,422.8 L 611.3,380.5 L 611.3,371.8 L 614.1,371.8 L 650.4,371.9 L 654.2,371.9 L 697.7,373.0 L 729.8,373.6 L 734.9,370.1 L 739.6,366.9 L 741.0,365.9 L 756.2,351.1 L 763.0,341.7 L 767.2,332.6 L 768.0,330.8 L 771.5,322.7 L 773.9,311.3 L 775.1,298.2 L 775.1,291.7 L 769.3,290.4 L 763.3,289.0 L 759.7,287.9 L 758.0,287.0 L 756.0,285.6 L 754.0,283.9 L 751.5,281.3 L 750.3,279.1 L 749.4,276.7 L 748.7,274.1 L 748.5,271.7 L 748.4,267.7 L 748.8,264.4 L 749.7,261.1 L 750.6,258.5 L 753.8,251.6 L 761.1,237.2 L 761.8,235.3 L 762.2,233.1 L 762.6,218.8 L 762.7,216.9 L 762.7,213.6 L 747.6,213.3 L 711.5,212.6 L 687.8,211.8 L 662.3,210.9 L 651.7,210.6 L 625.2,210.7 L 609.4,210.8 L 613.0,210.7 L 624.3,210.7 L 609.4,210.8 L 604.3,201.4 L 599.5,201.2 L 577.8,200.1 L 559.0,195.7 L 548.4,190.3 L 536.3,179.8 L 526.7,169.8 L 522.5,163.4 L 515.6,148.9 L 502.3,113.3 L 502.2,113.1 L 498.7,103.7 L 496.3,97.3 L 492.9,90.4 L 492.2,89.2 L 489.2,84.0 L 484.8,79.3 L 476.3,71.5 L 467.4,63.5 L 458.9,57.5 L 447.5,53.3 L 443.2,51.7 L 427.6,47.8 L 411.4,44.8 L 399.9,42.6 L 393.7,41.4 L 388.9,40.7 L 384.1,40.0 L 380.1,47.7 L 374.2,59.9 L 371.8,64.5 L 350.5,106.0 L 339.9,126.0 L 331.0,142.7 L 325.9,152.2 L 323.0,157.8 L 317.6,167.1 L 304.2,190.4 L 302.1,194.0 L 295.0,206.4 L 291.5,212.5 L 290.4,214.6 L 288.7,217.8 L 272.9,254.3 L 261.2,291.8 L 259.6,297.3 L 252.9,320.2 L 251.5,325.1 L 248.4,336.9 L 248.1,338.2 L 246.7,343.7 L 245.1,350.5 L 243.9,356.5 L 241.3,369.1 L 238.5,386.8 L 235.1,415.9 L 233.9,426.8 L 233.6,431.5 L 232.1,460.4 L 232.0,462.3 L 231.9,465.5 L 231.7,470.5 L 231.7,473.1 L 231.8,488.7 L 231.6,542.3 L 231.9,596.1 L 232.0,603.6 L 231.5,612.5 L 230.0,642.3 L 229.2,695.2 L 228.5,717.2 L 227.7,738.7 L 227.3,751.7 L 227.0,760.8 L 226.6,773.6 L 226.2,784.9 L 226.0,789.4 L 225.8,797.4 L 225.6,802.7 L 225.5,811.0 L 225.4,829.6 L 225.4,833.9 L 225.3,835.9 L 225.1,858.9 L 225.2,882.1 L 225.3,897.3 L 225.2,904.9 L 224.9,914.9 L 232.1,921.9 L 239.5,929.7 L 249.8,940.0 L 259.0,948.6 L 261.9,950.9 L 265.3,953.8 L 268.9,955.9 L 272.4,957.1 L 277.1,958.0 L 282.0,958.3 L 303.7,959.0 L 319.6,958.8 L 349.6,959.1 L 353.5,959.2 L 359.4,959.2 L 363.9,959.3 L 412.5,959.9 L 416.9,959.8 L 422.8,959.7 L 448.4,959.7 L 452.0,959.7 L 454.0,959.7 L 459.2,959.6 L 516.7,959.7 L 536.7,959.7 L 558.9,960.0 L 580.2,959.8 L 604.9,959.8 L 606.5,959.8 L 609.9,959.7 L 615.2,958.8 L 625.8,954.7 L 631.8,952.6 L 639.1,949.2 L 647.1,945.6 L 654.0,941.3 L 660.1,935.7 L 666.2,928.8 L 671.8,922.5 L 700.5,890.2 L 775.1,291.7 L 775.1,283.8 L 774.9,282.6 L 774.5,281.6 L 773.9,280.6 L 772.9,279.9 L 770.8,279.1 L 768.7,278.5 L 766.3,278.4 L 763.1,277.9 L 760.3,276.8 L 758.7,275.7 L 757.3,274.3 L 755.8,271.7 L 755.2,269.9 L 754.8,267.9 L 754.2,259.6 L 753.8,251.6" fill="none" stroke="currentColor" stroke-width="10" stroke-linejoin="round" stroke-linecap="round"/>
</svg>
