<svg xmlns="http://www.w3.org/2000/svg" viewBox="0 0 1000 1000" role="img" aria-label="Long Beach Grand Prix Course track outline">
  <path d="M 300.1,547.1 L 318.5,557.8 L 339.2,568.8 L 341.3,569.9 L 351.2,575.2 L 358.1,578.8 L 368.3,583.7 L 412.1,605.0 L 480.6,639.3 L 515.8,654.2 L 541.5,663.7 L 569.5,669.7 L 584.6,671.0 L 585.9,671.1 L 590.4,671.5 L 595.4,672.0 L 604.4,672.1 L 628.1,670.7 L 651.9,667.2 L 678.5,660.9 L 700.6,653.4 L 716.6,646.0 L 733.8,636.6 L 742.0,630.9 L 230.6,508.4 L 241.3,514.4 L 300.1,547.1 L 144.1,565.7 L 155.8,565.2 L 169.5,563.1 L 183.2,558.4 L 194.8,552.7 L 204.2,546.5 L 211.4,538.6 L 219.3,528.2 L 224.9,518.5 L 225.4,517.6 L 230.6,508.4 L 115.2,562.0 L 113.7,567.1 L 114.0,572.4 L 116.1,577.2 L 119.8,581.1 L 124.5,583.5 L 129.7,584.1 L 134.9,583.0 L 139.3,580.2 L 142.6,576.0 L 144.2,571.0 L 144.1,565.7 L 87.7,545.8 L 102.4,554.5 L 104.5,555.7 L 115.2,562.0 L 87.7,545.8 L 81.3,538.3 L 79.5,537.1 L 76.1,534.7 L 66.1,527.8 L 62.9,525.6 L 61.0,524.5 L 46.0,515.5 L 45.3,514.3 L 42.8,511.2 L 42.0,508.3 L 40.0,499.0 L 45.6,482.8 L 52.6,466.0 L 56.9,457.8 L 61.0,450.0 L 63.7,444.7 L 67.3,439.0 L 74.9,428.6 L 76.4,426.6 L 82.5,418.4 L 91.1,405.6 L 98.9,411.0 L 100.5,412.2 L 237.2,495.6 L 170.2,455.8 L 138.7,437.6 L 294.5,528.3 L 249.7,502.8 L 248.4,502.1 L 237.2,495.6 L 357.6,561.2 L 348.0,556.7 L 320.7,542.8 L 294.5,528.3 L 365.3,565.2 L 357.6,561.2 L 365.3,565.2 L 369.8,557.2 L 375.3,545.8 L 380.6,533.3 L 383.7,523.5 L 386.4,511.1 L 383.4,502.9 L 384.1,488.2 L 384.4,448.7 L 384.4,454.9 L 384.5,472.8 L 384.6,402.2 L 384.4,442.6 L 384.4,448.7 L 384.8,374.7 L 384.6,402.2 L 385.4,331.9 L 385.3,342.0 L 384.8,374.7 L 385.4,331.9 L 394.9,331.8 L 424.1,331.8 L 427.4,331.8 L 436.4,331.8 L 480.7,331.7 L 533.1,328.9 L 545.4,328.5 L 560.3,328.3 L 568.0,328.0 L 570.8,328.0 L 575.2,327.9 L 608.1,328.0 L 615.2,328.1 L 622.5,328.3 L 634.9,329.2 L 641.7,329.6 L 647.4,330.1 L 677.0,332.5 L 772.3,340.2 L 791.4,341.8 L 794.1,342.1 L 802.1,342.8 L 835.4,346.6 L 843.5,350.3 L 849.2,354.2 L 853.6,359.1 L 855.6,362.1 L 857.7,366.0 L 859.3,372.0 L 860.1,376.9 L 860.3,383.2 L 859.3,390.5 L 858.7,404.5 L 858.1,412.3 L 857.9,418.6 L 858.1,424.6 L 858.4,432.1 L 859.7,439.7 L 861.0,446.4 L 864.2,454.0 L 868.6,461.1 L 875.5,468.0 L 882.9,472.0 L 893.1,475.9 L 902.4,477.5 L 910.3,477.9 L 918.7,477.3 L 928.1,475.4 L 940.0,470.1 L 949.0,459.0 L 952.0,457.5 L 955.1,457.8 L 958.8,460.6 L 960.0,463.7 L 959.1,467.6 L 934.8,493.3 L 917.0,508.5 L 742.0,630.9 L 858.9,549.2 L 861.3,547.5 L 868.4,542.5" fill="none" stroke="currentColor" stroke-width="10" stroke-linejoin="round" stroke-linecap="round"/>
</svg>
