<svg xmlns="http://www.w3.org/2000/svg" viewBox="0 0 1000 1000" role="img" aria-label="Long Beach Street Circuit track outline"><path d="M 568.0 40.1 L 570.8 40.1 L 575.2 40.0 L 608.1 40.1 L 615.2 40.2 L 622.5 40.4 L 634.9 41.3 L 641.7 41.7 L 647.4 42.2 L 677.0 44.6 L 772.3 52.3 L 791.4 53.9 L 794.1 54.2 L 802.1 54.9 L 835.4 58.7 L 843.5 62.4 L 849.2 66.3 L 853.6 71.2 L 855.6 74.2 L 857.7 78.1 L 859.3 84.2 L 860.1 89.0 L 860.3 95.3 L 859.3 102.7 L 858.7 116.6 L 858.1 124.4 L 857.9 130.7 L 858.1 136.7 L 858.4 144.2 L 859.7 151.8 L 861.0 158.5 L 864.2 166.1 L 868.6 173.2 L 875.5 180.1 L 882.9 184.1 L 893.1 188.0 L 902.4 189.6 L 910.3 190.0 L 918.7 189.4 L 928.1 187.5 L 940.0 182.2 L 949.0 171.1 L 952.0 169.6 L 955.1 169.9 L 958.8 172.7 L 960.0 175.8 L 959.1 179.7 L 934.8 205.4 L 917.0 220.6 L 868.4 254.6 L 861.3 259.6 L 858.9 261.3 L 742.0 343.0 L 733.8 348.7 L 716.6 358.1 L 700.6 365.5 L 678.5 373.0 L 651.9 379.3 L 628.1 382.8 L 604.4 384.2 L 595.4 384.1 L 590.4 383.6 L 585.9 383.3 L 584.6 383.2 L 569.5 381.8 L 541.5 375.8 L 515.8 366.3 L 480.6 351.4 L 412.1 317.1 L 368.3 295.8 L 358.1 290.9 L 351.2 287.3 L 341.3 282.0 L 339.2 280.9 L 318.5 269.9 L 300.1 259.2 L 241.3 226.5 L 230.6 220.5 L 225.4 229.7 L 224.9 230.6 L 219.3 240.3 L 211.4 250.7 L 204.2 258.6 L 194.8 264.8 L 183.2 270.5 L 169.5 275.2 L 155.8 277.3 L 144.1 277.8 L 144.2 283.1 L 142.6 288.1 L 139.3 292.3 L 134.9 295.1 L 129.7 296.3 L 124.5 295.6 L 119.8 293.2 L 116.1 289.3 L 114.0 284.5 L 113.7 279.2 L 115.2 274.1 L 104.5 267.8 L 102.4 266.6 L 87.7 257.9 L 81.3 250.4 L 79.5 249.2 L 76.1 246.8 L 66.1 239.9 L 62.9 237.7 L 61.0 236.6 L 46.0 227.6 L 45.3 226.4 L 42.8 223.3 L 42.0 220.4 L 40.0 211.1 L 45.6 194.9 L 52.6 178.1 L 56.9 169.9 L 61.0 162.1 L 63.7 156.9 L 67.3 151.1 L 74.9 140.7 L 76.4 138.7 L 82.5 130.5 L 91.1 117.7 L 98.9 123.2 L 100.5 124.3 L 138.7 149.7 L 170.2 167.9 L 237.2 207.7 L 248.4 214.2 L 249.7 215.0 L 294.5 240.4 L 320.7 254.9 L 348.0 268.8 L 357.6 273.3 L 365.3 277.3 L 369.8 269.3 L 375.3 257.9 L 380.6 245.4 L 383.7 235.6 L 386.4 223.2 L 383.4 215.0 L 384.1 200.3 L 384.5 184.9 L 384.4 167.0 L 384.4 160.8 L 384.4 154.8 L 384.6 114.3 L 384.8 86.8 L 385.3 54.1 L 385.4 44.0 L 394.9 43.9 L 424.1 43.9 L 427.4 43.9 L 436.4 43.9 L 480.7 43.8 L 533.1 41.0 L 545.4 40.6 L 560.3 40.4 L 568.0 40.1 L 568.0 40.1 Z" fill="none" stroke="currentColor" stroke-width="10" stroke-linejoin="round" stroke-linecap="round"/></svg>