<svg xmlns="http://www.w3.org/2000/svg" viewBox="0 0 1000 1000" role="img" aria-label="Lusail International Circuit track outline"><path d="M 153.1,553.3 L 114.2,481.9 L 110.5,475.9 L 106.6,470.0 L 102.7,464.3 L 100.5,461.2 L 98.4,458.0 L 95.9,453.6 L 92.9,447.9 L 67.6,398.7 L 45.4,357.8 L 43.2,353.3 L 41.5,348.6 L 40.4,343.7 L 40.0,338.7 L 40.2,333.7 L 41.0,328.7 L 42.5,323.9 L 44.3,319.8 L 46.6,316.0 L 49.3,312.4 L 52.4,309.2 L 55.8,306.3 L 59.6,303.8 L 63.6,301.8 L 67.4,300.5 L 71.3,299.6 L 75.3,299.0 L 79.4,298.9 L 83.4,299.2 L 88.3,300.1 L 93.1,301.7 L 97.6,303.8 L 101.9,306.4 L 139.1,329.6 L 181.0,355.7 L 185.1,358.4 L 189.6,360.5 L 194.2,362.0 L 199.1,362.9 L 204.0,363.1 L 208.9,362.7 L 213.6,361.8 L 218.2,360.2 L 222.6,358.0 L 226.6,355.4 L 230.3,352.2 L 233.5,348.6 L 236.3,344.6 L 238.3,339.5 L 239.9,334.2 L 240.9,328.8 L 241.4,323.1 L 241.4,317.3 L 240.6,249.1 L 240.4,243.8 L 240.6,238.5 L 241.3,233.3 L 242.4,228.1 L 243.9,223.0 L 245.8,218.1 L 248.4,213.0 L 251.4,208.2 L 254.8,203.7 L 258.6,199.5 L 278.8,177.3 L 367.1,80.3 L 392.5,52.0 L 395.9,48.7 L 399.7,45.9 L 403.7,43.6 L 408.1,41.9 L 412.6,40.7 L 417.2,40.0 L 421.9,40.0 L 426.3,40.5 L 430.5,41.5 L 434.7,43.0 L 438.6,45.0 L 442.2,47.4 L 445.6,50.2 L 470.6,72.9 L 478.3,79.9 L 481.5,82.9 L 484.3,86.3 L 486.7,89.9 L 488.7,93.8 L 490.2,97.9 L 491.3,102.2 L 491.8,106.5 L 491.9,110.9 L 491.4,115.2 L 490.5,119.4 L 489.1,123.5 L 487.3,127.4 L 485.0,131.1 L 482.4,134.5 L 396.1,229.5 L 394.1,231.7 L 392.1,234.3 L 390.6,237.2 L 389.5,240.3 L 388.9,243.5 L 388.9,246.8 L 389.5,250.0 L 390.5,253.1 L 392.1,256.0 L 394.2,258.7 L 396.8,261.0 L 399.7,262.8 L 402.9,264.1 L 406.2,264.8 L 409.7,265.0 L 413.1,264.5 L 416.4,263.4 L 419.4,262.2 L 575.0,199.9 L 579.1,198.1 L 583.4,196.9 L 587.9,196.2 L 592.4,195.9 L 596.9,196.3 L 601.3,197.1 L 605.6,198.5 L 609.7,200.3 L 613.5,202.7 L 617.2,205.5 L 620.5,208.8 L 623.3,212.5 L 625.7,216.4 L 627.6,220.7 L 629.0,225.1 L 629.8,229.7 L 630.0,233.5 L 629.9,237.4 L 629.4,241.2 L 628.4,244.9 L 627.0,248.8 L 625.2,252.4 L 622.9,255.9 L 620.3,259.1 L 612.4,266.4 L 599.0,278.3 L 592.0,285.9 L 585.5,293.9 L 579.6,302.2 L 574.1,311.0 L 570.0,318.6 L 566.2,326.6 L 562.9,334.7 L 560.0,342.9 L 557.6,351.3 L 555.2,362.2 L 553.5,372.3 L 552.8,376.4 L 551.7,380.4 L 550.1,384.3 L 548.2,388.0 L 545.9,391.5 L 543.2,394.8 L 540.2,397.8 L 536.9,400.5 L 533.3,402.7 L 529.5,404.7 L 521.9,407.2 L 464.3,420.8 L 442.4,426.0 L 438.4,426.9 L 434.6,428.4 L 431.0,430.3 L 427.7,432.6 L 424.8,435.4 L 422.3,438.4 L 420.1,441.8 L 418.4,445.4 L 417.2,449.2 L 416.7,453.1 L 416.7,457.1 L 417.2,461.0 L 418.2,464.8 L 419.7,468.7 L 421.7,472.4 L 424.1,475.7 L 427.0,478.7 L 434.3,486.7 L 442.0,494.3 L 448.7,500.3 L 455.7,506.0 L 462.8,511.4 L 471.2,517.0 L 479.8,522.1 L 488.6,526.8 L 497.6,531.1 L 506.2,534.7 L 514.9,537.9 L 523.8,540.8 L 527.9,541.9 L 532.7,543.2 L 543.6,545.4 L 554.6,547.1 L 565.7,548.2 L 575.5,548.7 L 585.3,548.8 L 595.1,548.4 L 604.9,547.6 L 729.0,532.4 L 734.4,532.1 L 739.8,532.3 L 745.1,533.0 L 750.3,534.2 L 755.4,535.9 L 760.4,538.1 L 765.1,540.7 L 770.0,544.1 L 774.5,548.0 L 778.7,552.4 L 782.3,557.2 L 785.4,562.3 L 814.6,615.1 L 816.8,619.7 L 818.5,624.5 L 819.6,629.4 L 820.1,634.5 L 819.9,639.6 L 819.3,643.9 L 818.3,648.1 L 816.7,652.2 L 814.8,656.2 L 812.5,659.9 L 767.5,730.8 L 764.8,734.6 L 761.8,737.9 L 758.4,740.9 L 754.6,743.5 L 750.5,745.6 L 746.3,747.2 L 742.2,748.2 L 738.0,748.8 L 733.8,748.9 L 729.6,748.5 L 725.4,747.7 L 576.2,717.9 L 571.9,717.5 L 567.5,717.7 L 563.1,718.3 L 558.9,719.4 L 554.8,721.0 L 550.9,723.0 L 546.7,725.9 L 542.8,729.4 L 539.5,733.3 L 536.7,737.5 L 534.4,742.2 L 490.2,828.4 L 470.9,866.0 L 437.5,931.2 L 431.9,941.7 L 429.6,945.1 L 427.0,948.1 L 424.1,950.9 L 420.9,953.4 L 417.4,955.5 L 413.1,957.5 L 408.5,958.9 L 403.8,959.7 L 399.0,960.0 L 394.3,959.7 L 389.4,958.7 L 384.7,957.1 L 380.2,954.9 L 376.0,952.2 L 372.4,949.1 L 369.2,945.7 L 366.5,941.8 L 364.2,937.7 L 341.7,895.8 L 153.1,553.3 Z" fill="none" stroke="currentColor" stroke-width="10" stroke-linejoin="round" stroke-linecap="round"/></svg>