<svg xmlns="http://www.w3.org/2000/svg" viewBox="0 0 1000 1000" role="img" aria-label="MADRING track outline"><path d="M 77.5 675.2 L 75.7 666.2 L 74.4 654.5 L 73.9 644.5 L 73.9 641.6 L 74.0 631.8 L 74.5 622.7 L 76.1 612.1 L 78.2 602.5 L 80.5 593.9 L 83.7 583.9 L 87.1 575.1 L 92.2 563.9 L 95.0 558.9 L 98.1 553.7 L 98.6 550.7 L 98.1 548.6 L 95.1 543.9 L 93.1 539.8 L 92.5 535.2 L 93.5 531.0 L 95.6 527.2 L 99.9 523.7 L 102.6 522.2 L 104.4 521.0 L 104.9 518.7 L 103.9 515.0 L 92.9 482.4 L 85.3 471.0 L 75.6 459.4 L 67.0 448.8 L 65.9 446.1 L 64.5 441.3 L 63.5 437.8 L 58.5 420.7 L 52.3 392.8 L 51.5 389.3 L 50.1 385.7 L 47.8 382.8 L 47.3 380.5 L 48.8 376.1 L 52.4 373.3 L 55.6 370.5 L 59.8 366.3 L 61.5 362.5 L 62.5 358.2 L 62.7 351.8 L 58.6 343.8 L 48.7 329.0 L 41.8 316.2 L 40.2 300.3 L 40.0 227.9 L 40.7 221.3 L 43.9 217.4 L 86.5 175.6 L 87.7 169.3 L 84.4 162.9 L 57.6 124.0 L 51.7 109.0 L 49.2 100.9 L 49.7 90.2 L 51.0 79.7 L 60.9 59.8 L 77.7 46.9 L 101.5 40.0 L 119.3 40.3 L 136.7 44.3 L 152.9 55.2 L 167.7 69.3 L 176.9 92.7 L 177.6 107.4 L 177.3 118.1 L 173.1 134.9 L 171.1 142.2 L 164.3 152.2 L 147.9 173.7 L 119.2 211.4 L 92.0 248.5 L 71.6 278.4 L 70.2 285.9 L 71.1 294.4 L 75.8 302.4 L 90.2 312.4 L 119.9 332.7 L 135.0 343.2 L 141.5 349.6 L 144.8 358.7 L 146.0 378.6 L 146.8 410.1 L 148.5 429.3 L 151.3 439.1 L 156.9 451.0 L 166.0 462.8 L 176.3 471.2 L 188.7 477.0 L 201.2 481.2 L 211.7 482.0 L 224.1 481.6 L 248.7 480.7 L 265.8 481.0 L 277.0 479.4 L 283.4 475.1 L 288.7 471.6 L 295.0 468.6 L 300.1 468.3 L 304.0 470.3 L 310.2 477.2 L 314.3 485.4 L 317.0 490.0 L 325.8 499.8 L 335.6 515.8 L 342.5 529.4 L 345.9 537.8 L 347.7 541.1 L 349.2 544.1 L 355.5 550.0 L 363.2 554.8 L 372.0 557.5 L 385.9 558.7 L 397.3 557.1 L 408.0 554.4 L 413.9 551.6 L 421.2 549.8 L 427.2 548.4 L 433.0 548.1 L 439.6 549.2 L 445.5 551.2 L 455.3 554.4 L 460.4 558.6 L 467.5 564.2 L 474.9 573.9 L 478.0 582.9 L 482.6 596.2 L 487.5 623.2 L 492.1 650.2 L 498.0 685.4 L 501.6 706.4 L 502.7 713.5 L 504.4 721.0 L 505.8 725.7 L 508.3 728.1 L 512.9 731.3 L 516.6 730.9 L 521.0 728.3 L 524.2 724.6 L 527.2 721.3 L 532.6 720.0 L 559.7 716.2 L 575.5 715.7 L 580.1 716.9 L 582.9 718.9 L 584.3 721.0 L 585.7 723.8 L 611.0 859.4 L 610.1 862.2 L 608.4 865.2 L 605.8 868.1 L 603.0 869.8 L 526.4 884.4 L 435.5 900.6 L 425.3 902.4 L 420.5 903.2 L 406.4 905.7 L 401.4 906.5 L 348.0 915.5 L 345.1 915.9 L 324.1 919.1 L 316.3 927.0 L 314.9 945.7 L 308.6 955.2 L 295.9 957.7 L 279.4 960.0 L 261.8 956.7 L 243.8 948.5 L 220.2 935.5 L 124.1 783.9 L 107.1 757.3 L 102.4 747.7 L 93.7 730.3 L 91.2 723.5 L 87.0 712.6 L 84.2 701.8 L 80.8 691.2 L 77.5 675.2 L 77.5 675.2 Z" fill="none" stroke="currentColor" stroke-width="10" stroke-linejoin="round" stroke-linecap="round"/></svg>