<svg xmlns="http://www.w3.org/2000/svg" viewBox="0 0 1000 1000" role="img" aria-label="MADRING track outline"><path d="M156.9,399.1 L 144.8,380.7 L 136.5,366.0 L 132.3,357.3 L 129.1,349.2 L 124.9,338.0 L 123.4,330.6 L 123.0,328.0 L 123.1,324.6 L 124.2,320.7 L 125.1,318.9 L 126.6,317.1 L 127.7,314.6 L 128.7,312.3 L 129.2,309.8 L 129.9,305.9 L 130.8,303.5 L 132.5,301.5 L 135.4,299.0 L 132.1,294.8 L 129.5,291.5 L 128.6,287.1 L 127.2,280.9 L 121.6,280.7 L 118.0,279.7 L 114.8,278.0 L 106.8,273.5 L 103.3,269.8 L 100.7,265.8 L 99.0,261.7 L 95.2,246.3 L 92.7,231.6 L 91.4,218.3 L 91.1,184.6 L 92.8,166.4 L 94.8,154.7 L 96.8,144.6 L 99.6,133.5 L 102.7,123.4 L 110.3,103.1 L 118.1,87.0 L 124.8,75.5 L 126.3,73.8 L 127.6,72.8 L 129.6,71.9 L 131.6,71.5 L 133.6,71.5 L 135.8,71.8 L 137.7,72.5 L 139.8,73.8 L 141.0,75.2 L 141.8,76.2 L 149.1,72.3 L 148.6,70.3 L 148.5,67.6 L 149.3,65.2 L 150.6,63.4 L 153.0,61.4 L 155.4,58.6 L 157.2,56.0 L 158.8,52.9 L 160.9,49.7 L 163.0,46.9 L 165.6,45.0 L 168.7,43.1 L 172.0,42.0 L 176.3,40.7 L 181.4,40.0 L 284.1,40.6 L 452.9,45.5 L 688.1,59.2 L 748.5,62.2 L 768.4,68.8 L 780.5,80.4 L 786.0,92.5 L 785.5,104.1 L 797.1,122.8 L 818.0,126.1 L 828.9,131.5 L 838.2,145.8 L 843.9,166.8 L 863.5,282.6 L 862.4,286.1 L 864.1,291.6 L 864.8,294.7 L 866.6,303.2 L 891.3,451.5 L 908.9,592.2 L 902.7,610.1 L 894.0,626.6 L 871.9,663.7 L 718.6,910.5 L 688.0,958.6 L 661.3,956.7 L 643.6,958.4 L 636.2,960.0 L 434.8,797.1 L 409.8,777.7 L 404.9,758.6 L 392.5,753.1 L 376.8,746.2 L 359.1,717.2 L 344.2,694.6 L 326.9,667.7 L 310.1,640.2 L 299.7,623.3 L 290.6,608.5 L 279.8,592.6 L 256.3,555.6 L 230.2,514.4 L 212.5,487.1 L 192.4,454.8 L 181.4,438.8 L 180.0,435.6 L 179.1,432.7 L 179.1,429.2 L 179.6,426.1 L 180.4,423.9 L 181.5,421.4 L 183.0,419.2 L 184.7,417.8 L 184.5,416.3 L 184.0,413.1 L 183.4,409.0 L 183.0,407.0 L 175.4,408.2 L 169.9,408.3 L 165.8,407.3 L 161.8,404.9 L 156.9,399.1 Z" fill="none" stroke="currentColor" stroke-width="10" stroke-linejoin="round" stroke-linecap="round"/></svg>