<svg xmlns="http://www.w3.org/2000/svg" viewBox="0 0 1000 1000" role="img" aria-label="Circuit de Nevers Magny-Cours track outline"><path d="M 481.0,954.9 L 479.8,955.8 L 478.7,956.4 L 477.1,957.2 L 475.4,957.8 L 473.3,958.4 L 470.6,959.1 L 468.1,959.5 L 466.1,959.8 L 463.5,960.0 L 460.6,960.0 L 457.7,959.9 L 454.6,959.5 L 451.8,959.0 L 448.7,958.3 L 445.4,957.4 L 439.6,955.4 L 434.5,953.3 L 429.4,950.6 L 424.3,947.6 L 415.9,942.2 L 407.3,935.8 L 397.5,927.3 L 389.1,919.3 L 381.2,910.7 L 367.0,894.1 L 351.3,875.7 L 287.1,800.9 L 274.0,786.0 L 264.5,776.4 L 255.2,767.0 L 246.9,759.7 L 237.9,752.2 L 226.5,743.8 L 214.8,735.9 L 202.5,728.9 L 192.0,724.0 L 184.0,720.5 L 176.1,717.5 L 167.7,714.7 L 155.3,710.8 L 48.0,675.9 L 46.0,675.2 L 44.2,674.3 L 42.3,672.7 L 41.1,671.1 L 40.4,669.8 L 40.0,668.0 L 40.0,665.6 L 40.3,663.3 L 40.8,661.2 L 42.1,657.8 L 44.2,653.2 L 47.1,647.2 L 49.8,642.1 L 52.7,637.0 L 55.8,632.4 L 58.6,628.5 L 67.0,618.0 L 73.6,610.8 L 80.5,603.0 L 85.9,597.9 L 88.9,595.0 L 90.6,593.7 L 91.8,593.1 L 93.0,592.7 L 94.2,592.4 L 95.3,592.2 L 96.6,592.2 L 98.0,592.4 L 99.2,592.8 L 100.3,593.2 L 101.2,593.9 L 102.5,594.8 L 103.7,596.0 L 105.6,598.0 L 107.6,599.9 L 108.8,601.3 L 109.9,602.3 L 111.2,603.0 L 112.5,603.5 L 113.9,603.7 L 115.4,603.6 L 116.9,603.5 L 118.2,603.0 L 119.2,602.3 L 120.6,601.4 L 123.3,599.5 L 419.5,361.9 L 423.1,358.3 L 427.3,352.7 L 430.6,347.7 L 433.2,343.2 L 435.1,339.3 L 436.3,336.4 L 437.8,332.2 L 438.8,328.7 L 439.9,324.7 L 440.6,319.9 L 440.7,318.4 L 441.0,313.5 L 441.5,306.2 L 441.6,302.0 L 442.8,221.1 L 442.2,213.5 L 441.7,208.7 L 440.6,203.9 L 439.8,201.3 L 437.7,196.6 L 435.4,192.6 L 430.3,182.9 L 428.0,177.9 L 426.2,173.7 L 424.7,169.5 L 423.5,165.1 L 422.3,160.2 L 421.4,155.0 L 420.6,148.8 L 420.0,142.7 L 419.5,134.7 L 419.5,128.8 L 419.6,121.0 L 420.7,111.3 L 421.9,106.4 L 424.0,101.0 L 426.4,95.1 L 429.6,88.9 L 433.7,82.3 L 438.6,75.7 L 442.9,70.8 L 447.0,66.6 L 449.4,64.3 L 453.6,60.9 L 457.4,58.1 L 461.1,55.5 L 465.4,53.0 L 467.7,51.9 L 471.7,49.7 L 477.3,47.3 L 483.2,45.1 L 489.6,43.2 L 496.4,41.3 L 501.2,40.6 L 506.9,40.0 L 513.5,40.0 L 517.8,40.2 L 523.4,40.5 L 528.4,41.1 L 532.5,41.7 L 537.2,42.9 L 540.4,43.6 L 545.9,45.5 L 549.1,46.9 L 554.3,49.3 L 558.7,51.7 L 563.8,55.3 L 569.9,60.1 L 574.0,64.2 L 578.6,69.2 L 582.2,73.9 L 586.3,79.6 L 590.6,86.4 L 594.3,93.3 L 598.5,101.0 L 604.2,113.3 L 611.8,129.4 L 619.4,146.4 L 627.3,164.0 L 631.4,174.7 L 635.2,185.3 L 638.2,196.2 L 641.3,206.5 L 643.9,216.7 L 646.5,230.3 L 648.4,241.6 L 649.4,250.1 L 650.7,264.2 L 651.4,280.5 L 661.7,453.1 L 662.6,470.0 L 663.0,491.7 L 662.4,506.9 L 661.6,519.7 L 660.7,529.1 L 658.5,547.4 L 656.3,560.6 L 653.4,575.7 L 648.6,594.7 L 572.0,877.1 L 569.9,881.6 L 568.2,883.5 L 566.7,884.7 L 564.6,885.9 L 563.0,886.5 L 561.1,886.8 L 559.2,886.6 L 556.8,885.6 L 554.2,884.3 L 551.6,882.3 L 550.4,880.4 L 548.9,877.1 L 547.9,872.8 L 546.3,860.6 L 541.7,828.7 L 537.1,799.9 L 536.3,794.3 L 536.2,791.7 L 536.2,789.8 L 536.3,786.7 L 537.3,778.2 L 550.2,685.8 L 553.8,666.7 L 555.2,657.0 L 555.6,649.4 L 555.5,641.9 L 553.1,535.8 L 550.1,423.1 L 550.2,417.1 L 550.8,412.7 L 551.7,409.1 L 552.9,406.1 L 554.9,402.7 L 557.5,400.0 L 560.1,397.5 L 563.8,394.5 L 567.4,391.5 L 570.6,388.5 L 573.2,385.8 L 575.7,382.9 L 578.0,379.7 L 580.3,376.5 L 582.8,372.3 L 585.1,367.6 L 587.4,362.7 L 589.3,356.9 L 590.5,351.2 L 591.3,345.6 L 591.8,340.0 L 592.0,330.1 L 591.8,313.6 L 591.3,302.1 L 590.2,289.9 L 587.7,270.9 L 584.4,253.2 L 581.9,241.6 L 576.6,221.9 L 574.5,214.7 L 571.6,206.5 L 568.6,199.0 L 565.3,192.6 L 561.8,186.5 L 557.0,180.1 L 551.5,174.6 L 546.2,170.5 L 542.1,167.9 L 538.5,166.2 L 534.6,164.7 L 531.3,163.9 L 527.8,163.5 L 524.6,163.4 L 521.3,163.4 L 518.1,163.9 L 514.4,164.8 L 511.3,165.9 L 508.2,167.4 L 505.0,169.5 L 502.1,172.0 L 499.8,174.4 L 497.6,177.3 L 495.6,180.6 L 494.4,183.6 L 493.3,186.4 L 492.5,189.6 L 492.2,193.3 L 492.2,196.5 L 492.5,199.9 L 493.3,203.7 L 494.7,207.1 L 496.8,210.8 L 505.9,224.1 L 509.6,230.3 L 512.3,235.1 L 515.1,240.4 L 517.4,246.2 L 520.3,254.2 L 521.7,258.7 L 523.2,264.8 L 524.2,270.7 L 525.0,278.0 L 525.3,285.2 L 525.1,293.9 L 524.1,301.8 L 522.8,308.7 L 520.8,316.8 L 502.2,377.7 L 498.7,389.6 L 496.4,399.9 L 494.5,411.1 L 493.7,419.4 L 493.2,428.2 L 493.3,440.5 L 494.0,501.2 L 495.2,554.8 L 497.0,692.2 L 496.9,698.8 L 496.6,704.1 L 496.1,707.7 L 495.2,711.0 L 494.3,713.8 L 493.0,716.7 L 491.7,719.2 L 489.9,722.0 L 488.0,724.3 L 485.8,726.8 L 464.2,747.8 L 460.2,752.3 L 457.3,756.4 L 456.0,758.7 L 454.9,761.5 L 454.0,764.0 L 453.2,767.4 L 452.3,771.6 L 451.8,774.8 L 451.4,778.9 L 451.1,783.3 L 451.0,789.3 L 450.9,796.2 L 451.1,803.6 L 451.4,812.1 L 452.2,822.1 L 453.5,833.3 L 455.6,846.3 L 458.7,861.5 L 462.0,874.2 L 466.5,890.6 L 482.8,942.4 L 483.5,944.9 L 483.8,946.4 L 483.9,948.1 L 483.9,949.4 L 483.8,950.3 L 483.6,951.2 L 483.4,952.0 L 482.9,953.0 L 482.0,954.0 L 481.0,954.9 Z" fill="none" stroke="currentColor" stroke-width="10" stroke-linejoin="round" stroke-linecap="round"/></svg>