<svg xmlns="http://www.w3.org/2000/svg" viewBox="0 0 1000 1000" role="img" aria-label="Mandalika International Street Circuit track outline"><path d="M277.4,926.5 L 286.5,752.5 L 290.1,739.7 L 299.1,729.3 L 313.7,722.2 L 388.7,693.5 L 406.8,685.9 L 421.8,673.6 L 431.5,659.9 L 437.3,643.1 L 438.7,626.6 L 421.5,442.7 L 416.8,428.3 L 409.4,417.7 L 396.6,407.9 L 382.3,404.2 L 353.4,402.6 L 334.1,400.0 L 316.5,394.7 L 309.2,391.5 L 298.3,386.6 L 278.9,374.1 L 264.8,361.4 L 252.7,346.1 L 167.7,221.4 L 153.3,195.0 L 146.2,172.7 L 143.5,150.7 L 144.5,128.1 L 148.4,107.7 L 153.2,91.3 L 161.6,73.6 L 176.5,51.9 L 185.4,45.8 L 195.4,45.5 L 204.7,49.4 L 212.6,58.7 L 215.9,70.2 L 216.1,86.4 L 206.0,160.6 L 206.1,173.0 L 212.3,184.4 L 222.4,190.0 L 232.9,190.6 L 250.8,186.9 L 769.3,40.0 L 782.8,41.5 L 794.8,46.2 L 804.6,55.2 L 810.4,64.0 L 813.1,75.8 L 817.7,225.3 L 814.9,236.1 L 807.5,246.0 L 797.0,252.5 L 785.5,253.4 L 770.8,253.7 L 761.1,254.4 L 752.9,259.6 L 747.4,266.5 L 734.8,292.9 L 734.2,303.7 L 738.4,315.6 L 751.2,333.1 L 770.9,355.6 L 787.1,370.0 L 843.3,414.7 L 849.7,423.3 L 853.0,435.1 L 855.5,510.5 L 856.5,573.2 L 855.7,586.8 L 851.3,597.9 L 844.6,607.3 L 757.5,707.8 L 746.3,718.3 L 734.7,723.8 L 720.8,726.3 L 694.5,725.9 L 677.3,727.2 L 660.2,730.7 L 643.9,736.7 L 626.9,747.2 L 610.6,759.8 L 598.7,774.9 L 579.4,801.0 L 567.8,815.1 L 559.6,822.1 L 554.0,826.8 L 532.9,840.8 L 360.5,934.6 L 319.2,957.1 L 306.2,960.0 L 295.0,957.2 L 285.6,950.8 L 278.5,939.6 L 277.4,926.5 Z" fill="none" stroke="currentColor" stroke-width="10" stroke-linejoin="round" stroke-linecap="round"/></svg>