<svg xmlns="http://www.w3.org/2000/svg" viewBox="0 0 1000 1000" role="img" aria-label="Marina Bay Street Circuit track outline"><path d="M 820.1 120.0 L 819.2 114.4 L 818.3 109.5 L 817.7 98.9 L 819.5 75.6 L 820.3 65.3 L 820.6 61.2 L 823.8 54.4 L 827.0 49.6 L 829.8 45.8 L 835.2 41.4 L 840.1 40.0 L 845.4 40.0 L 850.9 41.3 L 855.8 43.9 L 860.0 48.9 L 863.0 55.2 L 866.4 60.7 L 867.7 62.7 L 868.2 66.0 L 873.5 70.3 L 882.2 75.9 L 888.4 78.6 L 895.5 80.0 L 902.6 81.6 L 907.7 83.4 L 911.9 85.9 L 916.6 91.3 L 918.5 97.0 L 924.6 139.4 L 925.9 153.2 L 926.2 162.0 L 927.6 172.4 L 959.5 410.4 L 960.0 415.8 L 959.2 423.7 L 957.5 431.3 L 954.7 436.7 L 938.3 462.9 L 934.0 469.4 L 931.0 472.2 L 926.9 474.3 L 922.1 475.1 L 882.5 476.4 L 853.1 478.3 L 848.3 478.1 L 788.9 472.0 L 780.9 471.1 L 762.8 469.1 L 755.6 467.4 L 749.4 463.7 L 745.4 458.7 L 742.9 452.7 L 741.5 447.0 L 741.4 441.2 L 741.4 432.7 L 741.4 430.2 L 739.3 424.8 L 736.4 421.7 L 729.1 417.5 L 720.6 417.0 L 712.8 416.6 L 709.9 416.5 L 692.6 415.5 L 672.8 414.5 L 648.3 413.2 L 626.6 411.9 L 615.3 411.3 L 591.6 410.2 L 568.9 409.0 L 561.1 408.5 L 550.8 408.0 L 528.4 406.8 L 513.1 406.0 L 490.1 404.8 L 477.1 404.1 L 470.5 403.7 L 468.7 403.6 L 459.7 403.2 L 457.9 403.1 L 454.3 403.0 L 443.6 401.6 L 435.2 400.3 L 427.4 398.0 L 420.8 395.9 L 417.4 394.3 L 412.2 391.7 L 405.9 387.6 L 403.8 386.2 L 396.9 379.9 L 389.9 373.3 L 385.2 369.4 L 377.2 362.5 L 367.5 354.2 L 364.5 351.6 L 355.0 343.5 L 350.1 339.2 L 325.5 318.0 L 310.2 304.8 L 308.8 303.7 L 297.5 294.3 L 293.9 291.0 L 287.8 308.2 L 285.0 316.0 L 277.1 338.8 L 270.8 356.9 L 240.9 438.3 L 206.3 621.1 L 205.5 625.0 L 205.0 627.9 L 201.8 629.6 L 199.0 630.2 L 197.0 630.4 L 195.2 627.5 L 187.0 616.1 L 182.0 608.6 L 177.4 603.5 L 175.1 599.7 L 172.0 594.9 L 169.7 592.4 L 134.5 564.1 L 123.0 552.6 L 122.3 551.9 L 117.9 548.1 L 111.4 540.2 L 106.1 521.5 L 106.5 510.5 L 107.0 508.9 L 108.4 504.2 L 106.2 503.3 L 104.4 501.6 L 103.6 499.7 L 99.7 495.2 L 96.3 492.5 L 84.8 482.9 L 81.8 481.0 L 69.7 472.6 L 53.5 460.6 L 40.0 450.4 L 40.4 446.9 L 41.6 443.6 L 48.8 430.3 L 54.4 420.3 L 60.6 409.1 L 102.6 333.4 L 108.6 322.9 L 109.8 320.7 L 116.8 308.2 L 124.5 294.0 L 150.0 248.9 L 156.5 237.0 L 160.0 230.6 L 168.5 214.9 L 178.8 205.8 L 186.1 201.6 L 194.7 199.6 L 207.1 207.7 L 216.6 213.8 L 217.1 214.4 L 228.3 225.6 L 229.0 226.2 L 244.7 242.1 L 255.3 253.5 L 268.7 266.8 L 275.8 274.0 L 283.7 282.0 L 286.4 275.9 L 288.0 272.3 L 299.0 251.2 L 314.3 222.1 L 322.7 207.1 L 338.3 182.0 L 352.1 159.1 L 363.1 165.4 L 380.1 175.0 L 401.4 187.0 L 426.7 201.8 L 435.1 206.8 L 441.3 210.5 L 448.7 215.0 L 452.7 217.3 L 484.8 235.5 L 487.9 237.2 L 498.8 243.5 L 499.6 244.0 L 510.6 250.4 L 512.5 251.5 L 524.8 258.5 L 526.0 259.2 L 529.9 261.6 L 545.4 270.4 L 557.7 275.1 L 562.6 276.8 L 565.2 277.7 L 580.1 280.3 L 591.1 281.4 L 598.4 282.1 L 605.8 282.4 L 622.2 283.4 L 628.9 283.8 L 644.8 284.8 L 651.8 285.2 L 654.2 285.3 L 677.4 286.8 L 704.0 290.1 L 709.7 290.6 L 716.9 290.4 L 721.7 290.1 L 736.5 289.7 L 758.4 289.8 L 765.6 289.8 L 796.5 292.0 L 817.8 295.9 L 831.0 292.5 L 841.0 288.1 L 847.7 283.2 L 850.6 280.4 L 853.6 276.1 L 856.6 270.2 L 857.7 264.3 L 857.9 256.5 L 857.2 246.6 L 856.6 239.0 L 851.6 208.2 L 849.7 199.6 L 844.3 182.8 L 830.6 145.5 L 823.7 130.2 L 820.1 120.0 L 820.1 120.0 Z" fill="none" stroke="currentColor" stroke-width="10" stroke-linejoin="round" stroke-linecap="round"/></svg>