<svg xmlns="http://www.w3.org/2000/svg" viewBox="0 0 1000 1000" role="img" aria-label="Marina Bay Street Circuit track outline">
  <path d="M 722.7,581.5 L 730.0,585.6 L 732.8,588.7 L 734.9,594.1 L 734.9,596.6 L 734.9,605.0 L 735.0,610.8 L 736.4,616.4 L 738.9,622.4 L 742.9,627.3 L 748.9,630.9 L 756.1,632.6 L 774.0,634.6 L 781.9,635.5 L 840.8,641.5 L 845.5,641.7 L 895.5,643.6 L 918.5,644.8 L 922.9,644.4 L 925.5,643.5 L 927.7,641.4 L 931.0,637.3 L 955.7,598.7 L 958.7,592.5 L 960.0,585.1 L 959.2,574.4 L 952.6,517.1 L 942.5,430.1 L 917.3,261.8 L 916.9,255.7 L 915.7,248.1 L 912.8,244.2 L 907.7,241.6 L 900.8,241.5 L 894.6,242.0 L 885.9,241.4 L 876.7,238.6 L 860.1,230.0 L 860.5,233.3 L 865.8,237.6 L 874.3,243.1 L 880.5,245.8 L 887.6,247.2 L 894.6,248.7 L 899.7,250.5 L 903.8,253.0 L 908.5,258.4 L 910.3,264.0 L 916.4,306.1 L 917.6,319.7 L 918.0,328.4 L 919.4,338.7 L 950.9,574.5 L 951.4,579.8 L 950.6,587.7 L 948.9,595.2 L 946.2,600.6 L 929.9,626.5 L 925.7,632.9 L 922.7,635.7 L 918.7,637.8 L 913.9,638.6 L 874.7,639.9 L 54.2,584.3 L 60.4,573.2 L 48.7,594.2 L 54.2,584.3 L 40.0,614.1 L 40.4,610.6 L 41.6,607.4 L 48.7,594.2 L 53.3,624.2 L 40.0,614.1 L 53.3,624.2 L 69.4,636.1 L 81.5,644.4 L 84.4,646.4 L 95.8,655.9 L 99.1,658.5 L 107.8,667.4 L 105.6,666.5 L 103.8,664.8 L 103.0,663.0 L 117.2,710.9 L 110.7,703.0 L 105.5,684.6 L 105.9,673.7 L 106.4,672.1 L 107.8,667.4 L 117.2,710.9 L 121.5,714.7 L 122.2,715.4 L 133.7,726.8 L 168.5,754.8 L 170.8,757.3 L 173.9,762.0 L 176.1,765.8 L 180.6,770.9 L 185.6,778.2 L 193.7,789.6 L 195.5,792.5 L 197.5,792.3 L 200.3,791.6 L 203.5,790.0 L 204.0,787.1 L 204.7,783.3 L 239.1,602.1 L 268.6,521.5 L 204.7,783.3 L 239.1,602.1 L 285.5,473.3 L 282.7,481.0 L 274.9,503.5 L 268.6,521.5 L 291.5,456.2 L 285.5,473.3 L 306.3,468.7 L 295.2,459.4 L 291.5,456.2 L 322.8,483.0 L 307.7,469.9 L 306.3,468.7 L 347.2,503.9 L 322.8,483.0 L 374.1,527.1 L 364.4,518.8 L 361.5,516.3 L 352.1,508.2 L 347.2,503.9 L 382.0,533.9 L 374.1,527.1 L 431.5,564.4 L 423.8,562.2 L 417.3,560.1 L 413.9,558.5 L 408.7,556.0 L 402.5,551.9 L 400.4,550.5 L 393.6,544.3 L 386.6,537.8 L 382.0,533.9 L 454.1,567.2 L 450.5,567.2 L 439.8,565.8 L 431.5,564.4 L 473.1,568.2 L 466.5,567.9 L 464.7,567.8 L 455.8,567.3 L 454.1,567.2 L 485.9,568.9 L 473.1,568.2 L 508.7,570.1 L 485.9,568.9 L 523.9,570.9 L 508.7,570.1 L 546.0,572.1 L 523.9,570.9 L 564.0,573.1 L 556.2,572.7 L 546.0,572.1 L 586.5,574.3 L 564.0,573.1 L 610.0,575.4 L 586.5,574.3 L 621.2,576.0 L 610.0,575.4 L 642.7,577.3 L 621.2,576.0 L 686.5,579.6 L 667.0,578.5 L 642.7,577.3 L 706.6,580.6 L 703.6,580.5 L 686.5,579.6 L 714.3,581.1 L 706.6,580.6 L 722.7,581.5 L 714.3,581.1 L 860.1,230.0 L 858.7,228.0 L 855.4,222.5 L 852.4,216.4 L 848.2,211.4 L 843.4,208.8 L 837.9,207.5 L 832.7,207.5 L 827.8,208.9 L 822.5,213.3 L 819.7,217.0 L 816.5,221.8 L 813.4,228.5 L 813.0,232.6 L 811.9,281.2 L 811.1,276.4 L 810.5,265.9 L 812.3,242.8 L 812.9,286.8 L 811.9,281.2 L 823.3,312.1 L 816.4,296.9 L 812.9,286.8 L 846.1,441.5 L 849.0,435.6 L 850.1,429.7 L 850.3,422.1 L 849.6,412.2 L 849.0,404.7 L 844.1,374.2 L 842.2,365.7 L 836.9,349.0 L 823.3,312.1 L 823.6,457.7 L 833.6,453.3 L 840.2,448.5 L 843.1,445.7 L 846.1,441.5 L 810.6,461.1 L 823.6,457.7 L 789.5,457.2 L 810.6,461.1 L 758.9,455.0 L 789.5,457.2 L 751.7,455.1 L 758.9,455.0 L 730.0,454.9 L 751.7,455.1 L 710.6,455.6 L 715.4,455.3 L 730.0,454.9 L 703.4,455.8 L 710.6,455.6 L 671.5,452.0 L 697.9,455.3 L 703.4,455.8 L 648.5,450.6 L 671.5,452.0 L 646.2,450.5 L 648.5,450.6 L 639.2,450.0 L 646.2,450.5 L 623.4,449.0 L 639.2,450.0 L 600.5,447.7 L 616.8,448.7 L 623.4,449.0 L 585.9,446.6 L 593.2,447.4 L 600.5,447.7 L 575.1,445.6 L 585.9,446.6 L 540.7,435.8 L 552.9,440.4 L 557.8,442.1 L 560.4,443.0 L 575.1,445.6 L 521.5,424.7 L 525.4,427.1 L 540.7,435.8 L 520.3,424.0 L 521.5,424.7 L 495.3,409.7 L 506.2,415.9 L 508.1,417.1 L 520.3,424.0 L 494.5,409.1 L 495.3,409.7 L 448.8,383.2 L 480.7,401.2 L 483.7,402.9 L 444.9,380.9 L 448.8,383.2 L 437.5,376.4 L 444.9,380.9 L 431.4,372.8 L 437.5,376.4 L 423.1,367.9 L 431.4,372.8 L 398.1,353.2 L 423.1,367.9 L 376.9,341.3 L 398.1,353.2 L 360.1,331.8 L 376.9,341.3 L 349.2,325.5 L 360.1,331.8 L 320.1,373.1 L 335.5,348.2 L 349.2,325.5 L 311.7,387.9 L 320.1,373.1 L 281.5,447.3 L 284.1,441.2 L 285.6,437.6 L 296.6,416.7 L 311.7,387.9 L 281.5,447.3 L 273.6,439.3 L 266.6,432.2 L 253.3,419.1 L 242.8,407.8 L 227.2,392.0 L 226.6,391.4 L 215.5,380.3 L 214.9,379.8 L 205.5,373.6 L 193.3,365.7 L 184.8,367.7 L 177.5,371.8 L 158.9,396.4 L 167.4,380.8 L 149.0,414.4 L 155.4,402.7 L 158.9,396.4 L 123.7,459.2 L 149.0,414.4 L 116.1,473.2 L 123.7,459.2 L 109.2,485.6 L 116.1,473.2 L 60.4,573.2 L 102.1,498.2 L 107.9,487.8 L 109.2,485.6 L 483.7,402.9 L 494.5,409.1" fill="none" stroke="currentColor" stroke-width="10" stroke-linejoin="round" stroke-linecap="round"/>
</svg>
