<svg xmlns="http://www.w3.org/2000/svg" viewBox="0 0 1000 1000" role="img" aria-label="Miami International Autodrome track outline"><path d="M 608.1,60.1 L 383.1,49.3 L 346.1,47.8 L 319.1,46.6 L 256.6,43.5 L 163.6,40.0 L 158.8,40.1 L 154.6,40.7 L 152.6,41.8 L 150.7,43.4 L 149.3,46.2 L 148.8,49.2 L 149.0,52.0 L 149.8,55.2 L 151.7,58.8 L 153.7,61.2 L 155.9,63.3 L 161.2,67.0 L 181.3,81.0 L 193.7,89.4 L 201.8,94.4 L 210.5,97.2 L 221.0,98.5 L 231.0,97.7 L 239.8,95.6 L 260.9,85.0 L 273.9,78.9 L 285.9,73.2 L 298.7,68.5 L 309.6,65.3 L 320.2,63.6 L 332.1,63.2 L 344.6,63.4 L 356.8,65.4 L 363.9,67.3 L 368.6,68.5 L 373.5,70.4 L 378.3,72.2 L 383.8,75.5 L 394.4,81.8 L 406.0,88.9 L 417.7,96.0 L 428.5,102.5 L 439.2,109.0 L 451.7,116.5 L 464.4,124.2 L 476.2,131.4 L 487.6,138.2 L 499.7,145.5 L 510.9,152.3 L 522.9,159.5 L 534.3,166.4 L 555.5,179.4 L 568.9,187.5 L 600.3,206.6 L 615.5,216.1 L 619.1,218.9 L 621.0,222.0 L 621.8,225.7 L 621.8,229.4 L 621.0,232.4 L 619.6,234.9 L 614.1,240.4 L 603.2,248.8 L 593.7,256.4 L 588.1,261.8 L 583.3,267.7 L 581.5,272.2 L 580.3,277.1 L 580.0,280.9 L 580.1,284.5 L 580.8,289.6 L 581.7,294.8 L 583.0,300.1 L 583.2,302.3 L 583.2,304.4 L 582.6,311.5 L 581.3,317.0 L 577.6,327.2 L 575.4,331.2 L 572.5,335.0 L 565.0,342.8 L 554.2,350.4 L 542.0,356.6 L 529.9,361.7 L 520.1,364.4 L 508.6,366.9 L 500.4,368.0 L 491.1,368.5 L 482.3,368.6 L 477.2,368.0 L 471.7,367.5 L 463.5,366.0 L 455.3,364.0 L 448.1,361.8 L 435.9,357.3 L 429.3,353.8 L 422.1,349.8 L 396.1,334.2 L 328.1,292.5 L 305.6,278.7 L 300.9,275.6 L 295.3,272.6 L 289.7,270.2 L 282.6,268.8 L 276.0,268.2 L 270.0,268.1 L 263.1,268.6 L 256.5,269.8 L 250.8,271.9 L 244.3,275.1 L 227.8,286.8 L 222.7,290.5 L 217.2,293.8 L 211.4,296.0 L 205.1,297.6 L 198.9,298.5 L 191.1,298.4 L 183.7,297.1 L 177.8,295.0 L 170.7,291.7 L 162.3,285.0 L 141.7,265.2 L 136.4,261.7 L 127.3,258.1 L 120.7,256.4 L 115.6,255.6 L 109.0,255.5 L 103.3,255.9 L 98.1,256.7 L 89.5,258.8 L 81.5,261.3 L 71.3,265.9 L 60.9,272.7 L 51.5,282.4 L 47.1,289.5 L 43.6,296.8 L 41.3,303.6 L 40.2,310.7 L 40.0,316.9 L 40.2,322.4 L 41.8,328.6 L 43.5,333.1 L 46.3,337.2 L 49.5,340.1 L 53.2,342.5 L 57.1,344.2 L 60.7,344.9 L 64.5,344.8 L 71.2,344.0 L 85.4,342.2 L 93.6,341.7 L 100.9,341.7 L 108.1,342.3 L 114.8,343.2 L 150.4,351.3 L 184.8,358.8 L 194.9,360.0 L 202.6,360.4 L 214.1,360.5 L 254.9,359.3 L 351.6,356.5 L 357.4,356.4 L 363.8,356.6 L 370.3,357.7 L 376.0,358.9 L 388.8,362.3 L 400.6,366.4 L 422.9,374.5 L 435.9,378.9 L 447.8,382.9 L 459.4,387.3 L 478.2,393.2 L 482.1,394.4 L 500.6,399.2 L 513.4,401.7 L 526.9,403.3 L 543.9,404.7 L 562.2,404.5 L 585.8,402.8 L 605.7,399.7 L 617.4,396.6 L 629.1,393.2 L 639.3,389.9 L 700.6,367.3 L 703.9,366.1 L 711.4,363.2 L 720.2,359.9 L 764.7,343.5 L 784.4,335.8 L 802.2,327.9 L 814.5,322.2 L 829.6,314.6 L 838.6,309.8 L 897.5,274.4 L 900.9,271.9 L 903.1,270.0 L 904.5,268.6 L 905.8,266.7 L 906.9,264.2 L 907.4,261.3 L 907.1,258.4 L 906.3,255.7 L 904.4,253.3 L 901.2,251.3 L 897.7,249.4 L 882.4,239.7 L 877.2,235.5 L 875.0,233.2 L 873.1,231.0 L 871.2,227.9 L 869.1,222.4 L 867.7,217.0 L 867.4,212.7 L 867.7,206.8 L 869.1,200.5 L 871.5,194.9 L 874.9,190.6 L 879.8,187.0 L 883.5,185.6 L 886.6,184.9 L 888.7,184.6 L 890.2,184.4 L 893.7,184.4 L 909.3,184.7 L 923.0,184.9 L 925.7,184.6 L 929.0,183.7 L 931.6,182.7 L 933.8,181.7 L 937.1,179.3 L 939.4,177.2 L 943.3,172.9 L 948.3,164.5 L 958.6,146.1 L 959.5,143.9 L 960.0,141.4 L 959.7,139.7 L 958.8,138.1 L 957.5,137.0 L 956.0,136.3 L 950.1,134.7 L 947.8,133.6 L 946.8,132.6 L 946.2,131.5 L 945.8,130.1 L 945.9,128.5 L 946.2,126.0 L 946.6,123.8 L 947.7,119.6 L 957.1,83.7 L 957.5,81.7 L 957.5,79.7 L 957.1,77.4 L 956.2,75.8 L 954.1,73.8 L 952.0,72.8 L 949.7,72.0 L 946.6,71.5 L 943.2,71.2 L 680.4,59.9 L 608.1,60.1 Z" fill="none" stroke="currentColor" stroke-width="10" stroke-linejoin="round" stroke-linecap="round"/></svg>