<svg xmlns="http://www.w3.org/2000/svg" viewBox="0 0 1000 1000" role="img" aria-label="Misano World Circuit Marco Simoncelli track outline"><path d="M191.4,347.0 L 219.4,335.3 L 588.8,179.9 L 596.4,177.0 L 603.8,174.8 L 610.5,173.5 L 618.0,172.8 L 626.1,172.9 L 634.9,173.7 L 643.7,174.8 L 669.6,179.4 L 823.9,206.9 L 836.0,209.5 L 843.6,211.6 L 851.1,214.1 L 858.6,217.5 L 866.3,221.9 L 872.0,225.9 L 876.8,229.8 L 883.3,235.4 L 936.6,283.8 L 947.8,294.0 L 951.5,297.7 L 953.9,300.5 L 955.6,303.3 L 957.1,306.3 L 958.3,309.9 L 959.3,314.4 L 959.9,318.9 L 960.0,323.1 L 959.8,326.5 L 959.4,329.5 L 958.7,332.9 L 934.3,427.4 L 933.4,430.2 L 932.4,433.0 L 931.1,435.9 L 929.8,438.3 L 928.5,440.2 L 927.1,441.8 L 925.5,443.2 L 923.7,444.7 L 922.1,445.8 L 919.8,446.8 L 917.7,447.7 L 915.9,448.3 L 914.2,448.7 L 912.4,449.0 L 910.8,449.2 L 909.0,449.2 L 907.1,449.0 L 905.4,448.7 L 903.7,448.4 L 902.4,448.0 L 901.0,447.4 L 899.9,446.8 L 898.7,445.9 L 897.4,445.0 L 896.1,443.8 L 894.7,442.3 L 893.6,440.7 L 892.7,438.8 L 891.7,436.5 L 891.0,434.3 L 890.3,431.9 L 889.7,429.3 L 878.7,361.2 L 870.1,307.7 L 868.8,302.7 L 866.8,297.4 L 864.4,292.4 L 862.3,289.1 L 859.6,285.8 L 857.5,283.5 L 854.8,281.2 L 852.2,279.7 L 848.4,278.0 L 843.2,276.1 L 750.3,248.2 L 668.8,223.7 L 664.1,222.5 L 660.7,221.8 L 657.3,221.4 L 653.7,221.2 L 651.5,221.3 L 649.2,221.6 L 646.9,221.9 L 644.9,222.5 L 643.2,223.3 L 641.8,224.0 L 639.9,225.1 L 638.1,226.4 L 636.4,227.9 L 634.7,229.4 L 633.0,231.2 L 631.5,233.2 L 630.0,235.5 L 628.7,237.7 L 627.1,241.0 L 567.8,370.9 L 540.1,431.5 L 445.8,638.0 L 439.0,652.9 L 436.4,658.0 L 434.0,661.7 L 431.6,664.8 L 429.8,667.1 L 428.0,668.9 L 425.5,670.7 L 422.4,672.5 L 418.8,674.1 L 415.3,675.3 L 411.0,676.5 L 405.3,677.4 L 399.4,677.7 L 393.8,677.5 L 344.4,675.5 L 340.3,675.8 L 337.6,676.2 L 334.9,677.0 L 332.4,678.3 L 329.9,679.7 L 327.6,681.5 L 326.3,682.6 L 325.1,683.9 L 323.7,685.8 L 322.2,688.3 L 320.9,691.0 L 319.6,694.5 L 318.6,698.9 L 318.0,703.0 L 313.4,760.9 L 312.6,765.6 L 311.2,770.4 L 309.2,775.4 L 306.3,780.6 L 303.6,784.9 L 299.0,790.4 L 294.0,794.8 L 288.1,799.1 L 279.6,804.4 L 269.5,810.6 L 259.6,815.9 L 254.5,818.3 L 249.3,820.2 L 242.2,822.3 L 237.8,823.3 L 233.9,824.1 L 230.3,825.0 L 222.6,826.2 L 216.8,826.8 L 211.1,827.2 L 204.3,827.1 L 74.1,815.8 L 59.9,814.6 L 53.5,813.9 L 51.2,813.4 L 49.0,812.6 L 47.2,811.7 L 46.0,810.8 L 44.7,809.5 L 43.3,808.0 L 42.6,806.9 L 41.7,805.5 L 41.1,804.1 L 40.7,802.7 L 40.3,800.8 L 40.1,798.3 L 40.0,796.0 L 40.1,793.8 L 40.5,791.7 L 40.9,790.0 L 41.5,788.6 L 42.1,787.4 L 43.0,786.0 L 70.7,753.0 L 71.9,751.8 L 73.2,750.7 L 74.9,749.6 L 77.2,748.4 L 79.6,747.4 L 82.1,746.8 L 84.9,746.4 L 87.5,746.3 L 90.3,746.6 L 92.6,747.2 L 95.0,748.0 L 154.5,769.9 L 158.1,771.0 L 160.8,771.5 L 164.3,771.7 L 167.8,771.7 L 170.7,771.5 L 173.6,770.8 L 175.8,769.9 L 178.2,768.4 L 180.5,766.7 L 183.1,764.5 L 185.6,762.3 L 188.0,760.0 L 321.7,621.3 L 328.6,614.0 L 354.7,584.8 L 361.6,576.8 L 371.1,565.0 L 401.7,523.7 L 509.1,356.5 L 515.4,344.8 L 516.8,342.0 L 517.3,340.6 L 518.1,338.7 L 518.6,336.7 L 519.0,334.7 L 519.3,332.8 L 519.6,330.9 L 519.7,328.6 L 519.7,326.4 L 519.7,324.2 L 519.6,322.1 L 519.3,320.0 L 518.8,317.7 L 518.2,315.9 L 517.6,314.4 L 516.8,312.8 L 515.8,311.3 L 514.6,309.8 L 513.7,308.6 L 512.5,307.3 L 510.9,305.7 L 508.9,304.2 L 507.1,302.9 L 504.5,301.6 L 502.4,300.8 L 500.1,299.9 L 497.2,298.8 L 493.9,298.1 L 491.1,297.6 L 488.2,297.4 L 484.2,297.3 L 480.7,297.4 L 476.6,297.8 L 468.6,299.2 L 458.9,301.6 L 448.4,304.7 L 437.3,308.9 L 425.7,314.1 L 414.1,319.6 L 401.5,326.3 L 230.7,421.9 L 226.1,424.4 L 221.0,426.7 L 216.5,428.3 L 211.6,429.6 L 207.8,430.4 L 202.9,431.0 L 196.9,431.2 L 162.8,430.1 L 157.9,429.5 L 153.5,428.8 L 150.8,428.0 L 148.7,427.0 L 147.0,425.9 L 145.6,424.8 L 144.1,423.4 L 142.5,421.8 L 141.2,420.4 L 140.0,418.9 L 138.9,417.4 L 138.0,415.9 L 137.1,413.8 L 136.4,411.7 L 135.7,409.9 L 135.1,407.9 L 134.8,406.1 L 134.5,404.2 L 134.4,402.3 L 134.4,400.5 L 134.4,399.0 L 134.5,397.7 L 134.8,396.1 L 135.2,394.5 L 135.6,392.7 L 136.1,390.8 L 136.9,388.5 L 137.6,386.5 L 138.5,384.4 L 139.4,382.5 L 140.4,380.7 L 141.6,378.7 L 143.6,375.9 L 146.1,373.2 L 149.5,370.2 L 153.1,367.5 L 157.1,364.7 L 161.0,362.2 L 164.6,360.1 L 173.6,355.4 L 182.6,351.1 L 191.4,347.0 Z" fill="none" stroke="currentColor" stroke-width="10" stroke-linejoin="round" stroke-linecap="round"/></svg>