<svg xmlns="http://www.w3.org/2000/svg" viewBox="0 0 1000 1000" role="img" aria-label="Circuit de Monaco track outline"><path d="M 253.1 435.8 L 267.0 432.1 L 279.2 430.1 L 295.6 428.3 L 304.4 427.3 L 318.1 426.0 L 323.6 424.8 L 329.0 422.9 L 333.0 421.5 L 342.2 417.1 L 370.7 403.3 L 377.4 400.0 L 384.2 396.7 L 391.9 393.2 L 397.9 391.1 L 405.4 388.7 L 420.9 384.7 L 436.8 381.1 L 455.4 378.5 L 472.4 376.1 L 478.9 374.9 L 486.3 373.6 L 493.9 371.1 L 498.2 369.4 L 503.7 366.9 L 507.3 364.9 L 511.4 362.4 L 515.0 359.8 L 519.8 356.1 L 522.6 353.9 L 525.8 350.9 L 531.0 345.7 L 534.9 341.0 L 538.7 335.9 L 541.1 332.4 L 543.5 327.8 L 544.2 325.8 L 545.2 322.9 L 546.4 316.9 L 546.5 310.5 L 546.1 303.9 L 545.4 298.7 L 545.1 297.0 L 544.0 290.1 L 541.4 281.7 L 540.6 279.5 L 537.8 272.5 L 533.7 264.0 L 532.3 261.5 L 531.5 258.5 L 525.7 254.9 L 523.1 252.4 L 511.8 242.3 L 506.2 237.2 L 503.5 234.6 L 500.8 231.6 L 499.7 230.3 L 498.3 228.3 L 496.5 225.1 L 495.3 222.2 L 494.6 220.2 L 494.0 218.5 L 493.6 216.7 L 493.4 215.2 L 493.3 213.8 L 493.3 210.7 L 493.6 208.2 L 494.2 205.6 L 495.1 202.7 L 496.0 199.9 L 499.2 193.1 L 502.6 187.2 L 510.5 176.3 L 517.7 166.4 L 519.1 164.4 L 529.1 150.8 L 537.3 139.4 L 543.7 130.4 L 547.7 125.0 L 550.3 121.6 L 560.7 108.1 L 586.6 73.3 L 604.1 49.8 L 607.4 45.5 L 609.4 42.9 L 610.8 41.8 L 612.5 40.9 L 615.2 40.2 L 617.7 40.0 L 620.7 40.4 L 623.3 41.0 L 626.2 41.9 L 628.6 43.2 L 631.4 45.3 L 633.9 47.7 L 636.1 50.4 L 637.7 52.8 L 638.8 55.2 L 639.9 58.0 L 640.7 62.0 L 640.9 66.5 L 641.0 72.2 L 641.5 77.8 L 642.0 80.6 L 642.6 82.8 L 643.5 85.6 L 644.8 88.2 L 646.5 91.3 L 648.7 94.8 L 651.5 98.7 L 655.8 104.9 L 658.4 108.7 L 660.4 111.3 L 662.1 113.8 L 664.5 118.0 L 666.7 122.2 L 667.8 125.3 L 668.6 127.8 L 669.6 129.9 L 670.9 131.8 L 672.8 133.7 L 674.6 134.8 L 676.4 135.3 L 677.5 135.3 L 678.8 135.3 L 680.4 134.9 L 682.3 134.2 L 684.3 133.2 L 685.8 131.7 L 686.8 130.5 L 687.8 128.7 L 688.4 126.9 L 688.6 125.4 L 688.6 123.9 L 688.4 122.2 L 687.7 120.3 L 686.8 118.8 L 684.8 116.5 L 681.4 112.9 L 677.9 109.6 L 674.4 106.0 L 671.2 101.8 L 661.9 89.3 L 658.9 85.2 L 657.2 82.9 L 656.0 80.6 L 655.2 78.5 L 654.5 76.3 L 654.3 74.3 L 654.4 72.2 L 655.0 69.6 L 656.0 67.0 L 657.4 65.0 L 658.5 63.6 L 660.0 62.3 L 662.2 61.1 L 672.0 56.8 L 680.7 55.0 L 684.1 54.1 L 690.4 51.6 L 700.8 47.2 L 707.9 44.8 L 710.3 44.1 L 714.7 42.9 L 717.8 42.6 L 721.0 42.3 L 724.7 42.4 L 727.1 42.6 L 729.5 43.3 L 731.6 44.5 L 733.7 46.5 L 734.9 49.0 L 735.5 52.0 L 735.5 54.9 L 735.2 63.6 L 732.7 118.9 L 732.3 125.8 L 731.8 134.0 L 730.2 149.0 L 727.8 163.9 L 724.8 178.7 L 721.0 193.3 L 716.6 207.7 L 711.4 221.9 L 705.6 235.8 L 699.1 249.4 L 691.9 262.7 L 684.1 275.6 L 675.7 288.2 L 666.7 300.3 L 657.1 311.9 L 647.0 323.1 L 636.3 333.8 L 627.6 341.9 L 618.5 349.6 L 609.2 356.9 L 599.6 363.9 L 589.7 370.5 L 579.6 376.7 L 569.3 382.6 L 558.7 388.0 L 553.9 390.5 L 535.0 400.1 L 503.3 416.4 L 468.1 428.3 L 443.2 434.6 L 417.1 439.1 L 390.3 444.0 L 364.6 448.3 L 362.7 450.9 L 362.1 453.1 L 361.7 454.9 L 362.0 460.0 L 362.2 464.3 L 362.0 466.5 L 361.4 468.3 L 359.4 469.9 L 357.7 470.9 L 354.1 471.4 L 343.6 472.9 L 341.5 472.7 L 339.1 471.8 L 336.2 470.0 L 330.6 467.0 L 327.5 465.7 L 325.2 465.5 L 304.2 468.6 L 292.9 470.2 L 288.3 470.8 L 275.9 472.5 L 255.3 475.3 L 249.8 476.0 L 240.3 477.4 L 222.8 479.8 L 201.1 482.7 L 198.7 483.1 L 195.2 483.7 L 178.2 486.8 L 122.4 493.9 L 119.0 495.0 L 117.3 495.9 L 115.1 497.6 L 113.0 499.7 L 108.3 507.6 L 104.9 513.8 L 97.6 529.0 L 95.3 534.8 L 93.5 539.2 L 89.0 554.0 L 86.8 562.9 L 85.3 569.8 L 84.1 577.6 L 82.7 589.9 L 82.6 606.3 L 83.4 622.2 L 86.3 631.2 L 87.2 635.6 L 90.1 640.6 L 93.5 644.3 L 108.0 655.0 L 110.6 657.5 L 112.7 660.0 L 113.8 661.3 L 114.9 662.9 L 116.2 666.5 L 117.7 681.2 L 123.9 714.4 L 126.8 730.3 L 131.3 755.0 L 134.8 769.4 L 136.0 774.4 L 136.0 779.3 L 133.8 783.1 L 130.8 786.4 L 127.4 788.7 L 124.9 790.0 L 120.5 792.2 L 118.9 793.3 L 117.5 794.5 L 116.1 796.8 L 115.6 800.3 L 116.8 808.4 L 120.2 820.2 L 127.9 841.5 L 135.0 856.8 L 140.9 868.5 L 146.2 877.1 L 151.3 884.2 L 159.5 894.0 L 165.0 899.3 L 171.8 905.0 L 176.5 908.5 L 181.8 911.5 L 188.1 914.6 L 201.5 920.8 L 205.7 923.5 L 210.2 926.5 L 211.3 928.5 L 212.2 930.6 L 213.0 932.8 L 213.8 935.7 L 214.0 938.3 L 213.7 940.5 L 212.8 942.9 L 211.7 944.8 L 210.4 946.1 L 208.8 947.3 L 206.3 948.7 L 203.5 949.7 L 180.1 956.3 L 176.8 957.3 L 174.3 957.7 L 167.0 959.0 L 162.7 959.5 L 158.5 959.9 L 153.6 960.0 L 148.7 959.8 L 145.8 959.6 L 142.8 959.0 L 140.7 958.2 L 138.9 957.3 L 136.2 955.1 L 134.3 953.1 L 132.9 951.0 L 131.8 947.7 L 131.6 943.7 L 131.1 939.6 L 130.3 935.7 L 129.2 931.9 L 127.7 928.2 L 126.0 924.6 L 124.0 921.2 L 121.8 917.9 L 113.1 907.3 L 111.1 904.6 L 107.6 899.1 L 104.9 894.7 L 102.3 890.5 L 94.9 878.9 L 90.6 870.8 L 85.9 861.3 L 83.5 853.5 L 81.4 846.6 L 78.5 835.3 L 78.1 834.2 L 77.8 832.9 L 76.9 829.7 L 72.6 816.0 L 69.4 804.7 L 67.4 798.2 L 66.5 795.0 L 65.0 789.6 L 64.4 787.6 L 60.8 774.5 L 56.9 759.8 L 55.4 752.7 L 54.8 749.9 L 54.3 747.6 L 53.4 742.7 L 53.1 740.6 L 52.7 738.4 L 52.5 737.3 L 51.4 730.5 L 50.5 724.6 L 49.5 718.7 L 49.2 716.4 L 48.3 711.2 L 47.5 705.7 L 46.7 699.6 L 45.8 691.6 L 44.9 684.4 L 44.4 679.8 L 42.8 659.4 L 42.5 655.0 L 41.7 645.9 L 41.2 640.3 L 41.0 636.6 L 40.6 629.2 L 40.2 621.7 L 40.0 617.9 L 40.1 611.6 L 40.3 601.2 L 40.6 596.1 L 41.8 579.1 L 41.9 577.9 L 43.0 570.4 L 44.1 562.0 L 45.8 553.4 L 47.4 546.8 L 49.1 540.2 L 52.7 528.9 L 55.9 518.8 L 57.1 514.1 L 57.9 509.3 L 58.9 501.7 L 61.0 488.2 L 61.7 485.1 L 62.6 482.7 L 64.4 479.3 L 67.0 476.9 L 69.8 475.6 L 73.0 474.8 L 109.1 470.1 L 142.0 465.4 L 158.4 462.4 L 160.1 462.0 L 169.3 460.0 L 186.5 455.4 L 213.9 447.2 L 222.4 444.6 L 223.9 444.2 L 232.5 441.6 L 253.1 435.8 L 253.1 435.8 Z" fill="none" stroke="currentColor" stroke-width="10" stroke-linejoin="round" stroke-linecap="round"/></svg>