<svg xmlns="http://www.w3.org/2000/svg" viewBox="0 0 1000 1000" role="img" aria-label="Circuit de Monaco track outline">
  <path d="M 245.1,951.0 L 246.5,953.1 L 248.4,955.1 L 251.1,957.3 L 252.9,958.2 L 255.1,959.0 L 258.1,959.6 L 261.0,959.8 L 265.8,960.0 L 270.7,959.9 L 274.9,959.5 L 279.2,959.0 L 286.5,957.7 L 289.0,957.3 L 292.3,956.3 L 315.7,949.7 L 318.5,948.7 L 321.0,947.3 L 322.7,946.1 L 323.9,944.8 L 325.0,942.9 L 326.0,940.5 L 326.3,938.3 L 326.0,935.7 L 325.2,932.8 L 324.4,930.6 L 323.5,928.5 L 322.4,926.5 L 318.0,923.5 L 313.7,920.8 L 300.3,914.6 L 294.0,911.5 L 288.8,908.5 L 284.0,905.0 L 277.3,899.3 L 271.8,894.0 L 263.6,884.2 L 258.4,877.1 L 253.2,868.5 L 247.2,856.8 L 240.1,841.5 L 232.4,820.2 L 229.0,808.4 L 227.8,800.3 L 228.3,796.8 L 229.8,794.5 L 231.1,793.3 L 232.8,792.2 L 237.1,790.0 L 239.6,788.7 L 243.0,786.4 L 246.1,783.1 L 248.3,779.3 L 248.2,774.4 L 247.0,769.4 L 230.0,681.2 L 236.1,714.4 L 239.0,730.3 L 243.6,755.0 L 195.6,622.2 L 198.5,631.2 L 199.4,635.6 L 202.3,640.6 L 205.7,644.3 L 220.2,655.0 L 222.8,657.5 L 225.0,660.0 L 226.1,661.3 L 227.2,662.9 L 228.4,666.5 L 230.0,681.2 L 290.4,486.8 L 234.6,493.9 L 231.3,495.0 L 229.5,495.9 L 227.4,497.6 L 225.2,499.7 L 220.5,507.6 L 217.2,513.8 L 209.8,529.0 L 207.5,534.8 L 205.8,539.2 L 201.2,554.0 L 199.0,562.9 L 197.5,569.8 L 196.3,577.6 L 194.9,589.9 L 194.9,606.3 L 195.6,622.2 L 290.4,486.8 L 307.4,483.7 L 310.9,483.1 L 313.3,482.7 L 335.0,479.8 L 352.5,477.4 L 362.1,476.0 L 367.5,475.3 L 388.2,472.5 L 400.5,470.8 L 405.1,470.2 L 416.4,468.6 L 437.4,465.5 L 439.7,465.7 L 442.8,467.0 L 448.4,470.0 L 451.3,471.8 L 453.7,472.7 L 455.8,472.9 L 466.4,471.4 L 469.9,470.9 L 471.6,469.9 L 473.6,468.3 L 474.3,466.5 L 474.4,464.3 L 474.2,460.0 L 474.0,454.9 L 474.3,453.1 L 475.0,450.9 L 476.8,448.3 L 502.5,444.0 L 529.4,439.1 L 555.4,434.6 L 580.3,428.3 L 615.6,416.4 L 584.7,376.1 L 591.2,374.9 L 598.6,373.6 L 606.2,371.1 L 610.4,369.4 L 615.9,366.9 L 619.5,364.9 L 623.6,362.4 L 627.2,359.8 L 632.0,356.1 L 634.9,353.9 L 638.0,350.9 L 643.2,345.7 L 647.2,341.0 L 650.9,335.9 L 653.3,332.4 L 655.7,327.8 L 656.4,325.8 L 657.4,322.9 L 658.6,316.9 L 658.8,310.5 L 658.4,303.9 L 657.6,298.7 L 657.4,297.0 L 656.3,290.1 L 653.7,281.7 L 652.8,279.5 L 650.1,272.5 L 646.0,264.0 L 644.5,261.5 L 624.0,242.3 L 635.4,252.4 L 638.0,254.9 L 643.7,258.5 L 605.5,210.7 L 605.6,213.8 L 605.7,215.2 L 605.8,216.7 L 606.3,218.5 L 606.8,220.2 L 607.6,222.2 L 608.8,225.1 L 610.6,228.3 L 612.0,230.3 L 613.0,231.6 L 615.7,234.6 L 618.4,237.2 L 624.0,242.3 L 605.5,210.7 L 605.9,208.2 L 606.4,205.6 L 607.3,202.7 L 608.3,199.9 L 611.5,193.1 L 614.8,187.2 L 622.7,176.3 L 629.9,166.4 L 631.3,164.4 L 641.3,150.8 L 649.5,139.4 L 656.0,130.4 L 659.9,125.0 L 662.5,121.6 L 672.9,108.1 L 698.8,73.3 L 716.3,49.8 L 719.6,45.5 L 721.6,42.9 L 723.1,41.8 L 724.7,40.9 L 727.4,40.2 L 729.9,40.0 L 733.0,40.4 L 735.5,41.0 L 738.5,41.9 L 740.8,43.2 L 743.6,45.3 L 746.1,47.7 L 748.4,50.4 L 750.0,52.8 L 751.0,55.2 L 752.2,58.0 L 752.9,62.0 L 753.2,66.5 L 753.3,72.2 L 753.7,77.8 L 754.2,80.6 L 754.8,82.8 L 755.8,85.6 L 757.0,88.2 L 758.7,91.3 L 761.0,94.8 L 763.8,98.7 L 768.0,104.9 L 770.7,108.7 L 772.6,111.3 L 774.3,113.8 L 776.8,118.0 L 779.0,122.2 L 780.1,125.3 L 780.8,127.8 L 781.9,129.9 L 783.1,131.8 L 785.0,133.7 L 786.8,134.8 L 788.6,135.3 L 789.7,135.3 L 791.1,135.3 L 792.7,134.9 L 794.6,134.2 L 796.5,133.2 L 798.1,131.7 L 799.1,130.5 L 800.1,128.7 L 800.7,126.9 L 800.9,125.4 L 800.8,123.9 L 800.6,122.2 L 784.2,56.8 L 774.4,61.1 L 772.3,62.3 L 770.8,63.6 L 769.6,65.0 L 768.2,67.0 L 767.3,69.6 L 766.7,72.2 L 766.6,74.3 L 766.8,76.3 L 767.4,78.5 L 768.2,80.6 L 769.4,82.9 L 771.1,85.2 L 774.2,89.3 L 783.4,101.8 L 786.7,106.0 L 790.1,109.6 L 793.7,112.9 L 797.0,116.5 L 799.0,118.8 L 800.0,120.3 L 784.2,56.8 L 793.0,55.0 L 796.3,54.1 L 802.6,51.6 L 813.0,47.2 L 820.2,44.8 L 822.5,44.1 L 826.9,42.9 L 830.0,42.6 L 833.2,42.3 L 836.9,42.4 L 839.3,42.6 L 841.7,43.3 L 843.8,44.5 L 845.9,46.5 L 847.1,49.0 L 847.7,52.0 L 847.8,54.9 L 847.4,63.6 L 671.0,388.0 L 681.5,382.6 L 691.9,376.7 L 702.0,370.5 L 711.8,363.9 L 721.4,356.9 L 730.8,349.6 L 739.8,341.9 L 748.6,333.8 L 759.2,323.1 L 769.4,311.9 L 778.9,300.3 L 787.9,288.2 L 796.3,275.6 L 804.1,262.7 L 811.3,249.4 L 817.8,235.8 L 823.6,221.9 L 828.8,207.7 L 833.3,193.3 L 837.0,178.7 L 840.1,163.9 L 842.4,149.0 L 844.0,134.0 L 844.5,125.8 L 844.9,118.9 L 666.1,390.5 L 671.0,388.0 L 615.6,416.4 L 647.2,400.1 L 666.1,390.5 L 244.1,947.7 L 243.9,943.7 L 243.3,939.6 L 242.5,935.7 L 241.4,931.9 L 240.0,928.2 L 238.3,924.6 L 236.3,921.2 L 234.0,917.9 L 225.4,907.3 L 223.4,904.6 L 219.8,899.1 L 217.1,894.7 L 214.5,890.5 L 207.1,878.9 L 202.8,870.8 L 198.1,861.3 L 195.7,853.5 L 193.7,846.6 L 190.7,835.3 L 190.4,834.2 L 190.0,832.9 L 189.1,829.7 L 184.9,816.0 L 181.6,804.7 L 179.7,798.2 L 178.8,795.0 L 177.2,789.6 L 176.7,787.6 L 173.0,774.5 L 169.2,759.8 L 167.6,752.7 L 167.0,749.9 L 166.5,747.6 L 165.7,742.7 L 165.3,740.6 L 164.9,738.4 L 164.7,737.3 L 163.7,730.5 L 162.7,724.6 L 161.8,718.7 L 161.4,716.4 L 160.6,711.2 L 159.7,705.7 L 159.0,699.6 L 158.0,691.6 L 157.2,684.4 L 156.6,679.8 L 155.1,659.4 L 154.7,655.0 L 154.0,645.9 L 153.4,640.3 L 153.2,636.6 L 152.8,629.2 L 152.4,621.7 L 152.2,617.9 L 152.3,611.6 L 152.5,601.2 L 152.9,596.1 L 154.0,579.1 L 154.1,577.9 L 155.2,570.4 L 156.3,562.0 L 158.1,553.4 L 159.6,546.8 L 161.4,540.2 L 164.9,528.9 L 168.1,518.8 L 169.3,514.1 L 170.1,509.3 L 171.1,501.7 L 173.2,488.2 L 174.0,485.1 L 174.8,482.7 L 176.7,479.3 L 179.3,476.9 L 182.0,475.6 L 185.3,474.8 L 221.4,470.1 L 254.3,465.4 L 270.6,462.4 L 272.3,462.0 L 281.5,460.0 L 298.7,455.4 L 326.1,447.2 L 334.6,444.6 L 336.1,444.2 L 344.7,441.6 L 365.4,435.8 L 379.2,432.1 L 391.5,430.1 L 407.8,428.3 L 416.6,427.3 L 430.3,426.0 L 435.8,424.8 L 441.3,422.9 L 445.2,421.5 L 454.5,417.1 L 483.0,403.3 L 489.6,400.0 L 496.4,396.7 L 504.2,393.2 L 510.1,391.1 L 517.6,388.7 L 533.1,384.7 L 549.0,381.1 L 567.6,378.5 L 584.7,376.1 L 168.1,518.8 L 181.6,496.2 L 184.0,492.5 L 186.8,488.8 L 190.1,484.5 L 191.9,482.3 L 193.2,481.0 L 195.6,478.7 L 198.6,476.7 L 201.7,475.2 L 221.4,470.1" fill="none" stroke="currentColor" stroke-width="10" stroke-linejoin="round" stroke-linecap="round"/>
</svg>
