<svg xmlns="http://www.w3.org/2000/svg" viewBox="0 0 1000 1000" role="img" aria-label="Montjuic Circuit track outline"><path d="M466.9,261.6 L 476.9,259.9 L 480.3,258.1 L 487.8,254.4 L 504.3,246.1 L 525.9,235.2 L 540.0,228.3 L 600.2,198.9 L 603.7,206.2 L 619.3,236.6 L 632.6,262.8 L 634.0,267.1 L 659.8,317.9 L 667.3,332.7 L 677.1,352.6 L 685.3,368.6 L 688.5,372.0 L 690.6,373.9 L 693.9,375.5 L 697.5,376.3 L 699.1,376.7 L 701.9,376.8 L 712.5,375.8 L 716.5,374.9 L 728.8,372.1 L 738.9,371.2 L 739.9,371.2 L 757.4,371.4 L 770.5,374.2 L 781.7,377.3 L 786.3,378.8 L 809.2,386.4 L 815.9,388.0 L 824.9,389.1 L 837.2,390.8 L 866.2,390.5 L 886.8,391.3 L 898.4,391.5 L 902.1,392.6 L 905.7,393.5 L 907.1,394.8 L 912.0,399.1 L 914.2,401.5 L 917.2,407.0 L 917.0,409.0 L 916.0,419.0 L 910.4,445.5 L 908.6,463.0 L 908.7,466.8 L 908.9,476.1 L 909.1,486.2 L 909.1,488.3 L 909.5,503.6 L 905.4,518.6 L 903.1,524.3 L 896.2,536.9 L 890.1,544.1 L 875.8,549.5 L 870.9,550.6 L 860.0,550.1 L 846.4,541.2 L 819.4,518.1 L 808.3,509.0 L 793.4,499.3 L 778.2,491.2 L 776.4,490.3 L 769.5,486.9 L 760.5,485.8 L 754.7,487.2 L 749.0,490.2 L 745.6,495.4 L 744.1,500.6 L 746.4,508.9 L 750.6,514.2 L 756.2,519.4 L 762.6,526.3 L 765.0,528.9 L 776.4,541.2 L 794.2,561.2 L 801.4,571.1 L 802.6,572.7 L 805.0,576.1 L 819.5,608.5 L 825.4,617.9 L 839.8,630.7 L 855.1,638.2 L 869.3,641.0 L 880.6,641.9 L 899.4,640.7 L 918.7,634.1 L 928.9,629.3 L 941.1,626.8 L 947.4,627.1 L 952.0,627.3 L 954.7,627.7 L 956.5,628.9 L 960.0,633.8 L 947.9,642.5 L 944.5,644.9 L 942.5,646.5 L 922.2,662.8 L 905.4,674.1 L 892.6,682.5 L 874.8,693.1 L 866.0,697.9 L 863.1,699.4 L 853.7,704.5 L 825.3,717.5 L 809.8,724.1 L 785.6,732.6 L 758.5,739.8 L 745.7,741.7 L 721.7,746.9 L 716.0,747.3 L 692.7,749.1 L 670.1,749.1 L 660.5,749.1 L 630.2,747.3 L 605.7,746.3 L 572.6,740.5 L 569.2,739.9 L 543.2,734.1 L 516.4,726.3 L 496.8,720.3 L 479.0,715.2 L 469.7,712.5 L 457.0,709.8 L 446.4,707.6 L 425.9,704.8 L 399.2,704.3 L 370.9,707.9 L 350.6,711.8 L 329.0,717.5 L 303.9,730.3 L 280.5,747.3 L 258.6,763.6 L 232.6,780.1 L 206.1,792.0 L 187.7,796.9 L 180.3,798.4 L 167.4,800.3 L 152.3,801.1 L 140.9,800.3 L 129.1,798.5 L 113.9,795.0 L 101.6,790.7 L 89.9,785.0 L 77.6,777.7 L 68.0,770.0 L 59.4,761.4 L 51.4,751.5 L 48.0,741.3 L 44.3,733.7 L 42.3,727.3 L 41.1,721.7 L 40.3,716.9 L 40.0,710.7 L 40.6,704.1 L 42.3,696.3 L 45.9,682.4 L 49.4,679.3 L 52.0,675.4 L 53.5,670.9 L 53.8,664.5 L 52.0,658.4 L 48.2,653.2 L 46.4,639.6 L 45.5,621.9 L 46.2,616.2 L 47.5,605.2 L 59.4,566.6 L 68.0,533.1 L 77.8,514.3 L 89.6,497.0 L 103.9,483.1 L 109.4,478.8 L 114.8,475.2 L 117.7,473.4 L 119.6,472.1 L 133.8,465.6 L 136.7,464.4 L 141.4,462.4 L 149.2,459.8 L 156.0,457.7 L 156.5,457.6 L 160.3,456.3 L 164.0,455.6 L 168.1,454.6 L 177.1,453.6 L 184.2,452.8 L 194.9,452.2 L 202.7,452.4 L 216.2,454.2 L 229.3,455.4 L 249.7,458.8 L 260.0,459.4 L 266.2,459.3 L 276.2,457.6 L 289.4,453.3 L 298.3,448.5 L 307.5,441.9 L 314.3,434.2 L 320.8,424.7 L 325.8,414.8 L 329.3,405.1 L 332.6,384.7 L 335.7,362.0 L 336.9,354.7 L 338.1,349.5 L 338.5,347.7 L 339.0,345.7 L 339.4,344.3 L 341.5,338.6 L 344.8,333.3 L 351.9,325.9 L 356.8,322.4 L 361.0,320.2 L 369.2,315.9 L 379.0,310.8 L 384.3,308.0 L 388.8,305.8 L 400.0,300.3 L 441.5,278.2 L 443.8,276.9 L 446.1,275.7 L 447.2,275.2 L 457.5,274.2 L 466.9,261.6 Z" fill="none" stroke="currentColor" stroke-width="10" stroke-linejoin="round" stroke-linecap="round"/></svg>