<svg xmlns="http://www.w3.org/2000/svg" viewBox="0 0 1000 1000" role="img" aria-label="Circuit Mont-Tremblant track outline"><path d="M 355.8 40.0 L 262.2 59.3 L 234.4 97.0 L 161.9 133.4 L 64.1 108.1 L 40.0 164.2 L 47.1 222.6 L 152.0 258.0 L 179.8 310.2 L 177.8 421.6 L 97.5 488.5 L 48.2 720.2 L 299.8 960.0 L 321.5 929.2 L 340.7 899.1 L 351.7 883.4 L 359.2 868.1 L 363.9 856.8 L 365.7 851.0 L 368.0 835.3 L 369.4 819.6 L 369.8 810.7 L 370.0 801.0 L 371.4 790.0 L 372.8 780.6 L 375.4 772.8 L 379.0 764.7 L 384.7 755.8 L 397.2 737.2 L 404.3 726.9 L 409.3 719.9 L 415.1 714.5 L 420.7 710.8 L 424.8 706.0 L 433.2 694.6 L 440.8 681.7 L 463.9 648.4 L 471.7 637.1 L 479.5 625.3 L 481.4 622.0 L 484.3 617.1 L 485.8 613.3 L 488.4 605.1 L 489.8 599.0 L 491.0 594.8 L 492.1 590.8 L 493.1 588.4 L 494.0 586.4 L 494.3 585.0 L 493.9 582.4 L 493.2 579.5 L 492.3 576.9 L 491.3 574.7 L 477.8 571.8 L 456.4 571.8 L 435.5 555.4 L 419.4 536.4 L 417.4 507.2 L 416.1 482.6 L 410.4 473.1 L 393.1 464.5 L 377.1 455.0 L 364.7 436.9 L 361.9 417.6 L 376.3 403.6 L 459.1 335.4 L 462.5 330.6 L 467.1 326.5 L 470.2 323.8 L 472.8 321.5 L 477.5 317.9 L 483.7 314.4 L 488.4 309.3 L 495.1 304.5 L 499.6 302.0 L 504.6 300.4 L 509.5 299.2 L 516.0 295.3 L 531.1 283.4 L 536.3 277.5 L 541.7 270.9 L 545.3 265.6 L 547.9 260.7 L 549.7 254.0 L 551.4 246.2 L 551.9 240.2 L 551.8 230.5 L 550.8 221.2 L 548.2 213.1 L 543.2 202.5 L 540.5 197.1 L 537.7 190.8 L 536.0 185.7 L 534.7 183.1 L 534.9 181.4 L 535.4 176.9 L 535.6 175.0 L 536.9 174.1 L 537.6 175.1 L 538.0 177.4 L 539.0 180.7 L 540.4 183.1 L 541.7 185.3 L 542.5 186.7 L 543.6 187.2 L 544.7 186.7 L 545.5 185.8 L 546.7 179.7 L 547.2 172.8 L 547.5 168.3 L 547.8 167.0 L 548.9 166.1 L 549.8 165.5 L 550.4 163.7 L 550.5 160.9 L 551.0 159.3 L 551.5 158.2 L 551.9 157.6 L 552.1 156.6 L 551.8 155.5 L 550.6 154.7 L 549.1 154.8 L 547.7 155.3 L 546.3 156.1 L 544.9 157.3 L 543.1 159.6 L 542.4 160.7 L 542.2 161.6 L 542.3 162.3 L 542.7 162.8 L 543.2 163.3 L 543.4 163.9 L 543.4 164.4 L 543.4 164.9 L 543.1 165.4 L 542.6 165.8 L 541.9 166.2 L 541.1 166.4 L 540.2 166.7 L 539.3 166.8 L 538.7 166.7 L 538.2 166.5 L 537.8 166.0 L 538.0 165.0 L 538.2 163.9 L 538.8 162.5 L 539.1 161.7 L 539.7 161.3 L 540.3 160.9 L 541.2 160.5 L 541.8 160.0 L 542.3 159.3 L 543.1 157.3 L 543.4 155.8 L 543.5 154.2 L 542.3 149.8 L 541.6 147.7 L 541.4 145.8 L 541.5 142.7 L 541.8 139.1 L 542.3 135.8 L 542.9 133.2 L 544.0 130.6 L 544.5 127.9 L 544.2 125.4 L 543.7 124.3 L 543.0 123.4 L 540.5 120.1 L 537.7 117.9 L 534.2 117.0 L 530.1 116.3 L 525.2 116.0 L 521.1 115.7 L 516.2 115.2 L 511.3 114.6 L 506.1 113.8 L 499.3 112.5 L 495.6 111.8 L 492.0 110.3 L 488.0 107.6 L 485.0 105.1 L 482.1 101.7 L 480.9 98.3 L 479.9 94.4 L 478.5 90.8 L 476.4 87.5 L 474.0 84.6 L 470.5 81.7 L 468.9 79.8 L 467.5 77.9 L 465.9 75.3 L 465.2 72.1 L 463.7 68.8 L 463.1 67.0 L 462.4 64.7 L 461.9 62.2 L 462.2 57.3 L 463.6 52.4 L 466.1 47.8 L 355.8 40.0 L 355.8 40.0 Z" fill="none" stroke="currentColor" stroke-width="10" stroke-linejoin="round" stroke-linecap="round"/></svg>