<svg xmlns="http://www.w3.org/2000/svg" viewBox="0 0 1000 1000" role="img" aria-label="Circuit Mont-Tremblant track outline"><path d="M589.5,409.8 L 586.4,406.9 L 583.3,404.6 L 580.0,402.4 L 577.1,400.7 L 573.3,398.7 L 569.8,397.2 L 566.0,396.0 L 562.5,395.1 L 558.8,394.7 L 555.7,394.3 L 552.2,394.2 L 548.2,394.2 L 544.3,394.6 L 540.7,395.0 L 536.5,396.1 L 532.7,397.1 L 528.3,398.6 L 524.2,400.2 L 519.7,402.2 L 515.2,404.4 L 510.7,406.7 L 505.4,410.0 L 494.0,417.5 L 459.1,441.0 L 454.5,444.4 L 450.2,447.3 L 445.9,450.1 L 443.2,451.8 L 441.8,452.6 L 439.1,454.1 L 436.4,455.6 L 434.3,456.7 L 432.1,457.7 L 429.2,458.9 L 426.3,460.1 L 421.8,461.9 L 417.4,463.6 L 413.1,465.1 L 408.7,466.6 L 404.3,468.0 L 400.1,469.1 L 394.7,470.3 L 389.6,471.4 L 385.4,472.2 L 379.8,473.0 L 375.2,473.4 L 370.2,473.6 L 353.4,473.6 L 337.8,473.2 L 322.3,472.3 L 306.6,471.1 L 285.9,469.4 L 279.4,468.7 L 272.8,467.8 L 266.2,466.7 L 259.5,465.3 L 254.1,464.2 L 249.6,463.0 L 243.4,461.5 L 237.1,459.7 L 231.0,457.8 L 225.0,455.8 L 214.5,451.9 L 205.8,448.4 L 195.4,444.1 L 186.5,440.3 L 177.3,436.4 L 168.2,432.4 L 157.1,427.6 L 146.6,422.6 L 145.0,421.7 L 134.6,416.3 L 128.5,412.9 L 112.6,403.1 L 97.2,393.5 L 57.0,368.7 L 52.6,365.9 L 49.5,363.7 L 46.5,361.2 L 44.5,359.0 L 42.7,356.7 L 41.3,354.0 L 40.7,351.9 L 40.2,349.5 L 40.1,347.0 L 40.0,344.7 L 40.4,341.8 L 41.5,338.6 L 43.0,335.7 L 44.9,332.8 L 47.0,330.5 L 49.3,328.2 L 52.1,326.0 L 54.8,323.9 L 57.8,321.7 L 60.9,319.7 L 64.0,317.8 L 67.0,316.3 L 69.7,315.0 L 71.9,314.2 L 74.4,313.4 L 79.5,311.9 L 83.9,310.7 L 87.5,309.8 L 92.4,308.9 L 96.9,308.3 L 101.6,307.9 L 106.1,307.8 L 109.9,308.0 L 113.1,308.3 L 115.4,308.7 L 119.4,309.6 L 123.1,310.5 L 127.1,311.6 L 136.9,314.7 L 222.7,343.1 L 229.2,344.9 L 236.3,346.8 L 241.6,347.8 L 247.4,348.4 L 252.7,348.4 L 258.9,348.0 L 264.2,347.1 L 268.6,346.0 L 271.7,344.9 L 276.5,342.8 L 282.5,339.8 L 289.6,335.5 L 307.6,324.5 L 420.9,258.8 L 547.0,185.3 L 564.5,175.3 L 575.3,169.5 L 583.5,165.1 L 592.3,161.2 L 601.8,157.7 L 614.6,154.0 L 624.5,151.5 L 633.7,149.5 L 645.5,148.0 L 655.9,147.1 L 666.1,146.7 L 680.0,146.7 L 697.5,147.0 L 709.6,147.4 L 716.7,147.7 L 725.4,148.4 L 733.6,149.4 L 740.3,150.7 L 746.8,152.3 L 755.6,154.4 L 764.3,157.0 L 772.9,160.1 L 778.4,162.2 L 781.0,165.3 L 781.9,166.9 L 782.6,169.0 L 783.1,170.7 L 783.5,172.5 L 784.0,175.2 L 784.8,178.4 L 785.3,182.3 L 786.0,185.8 L 786.8,189.8 L 788.9,193.9 L 790.4,196.3 L 792.3,198.5 L 794.5,200.6 L 797.3,202.7 L 800.0,204.2 L 803.0,205.5 L 807.1,206.5 L 812.9,207.0 L 818.3,207.0 L 823.6,207.0 L 827.2,207.0 L 831.2,207.4 L 836.3,208.5 L 842.2,210.4 L 846.7,212.4 L 850.6,214.7 L 854.7,217.4 L 859.4,223.3 L 867.3,234.0 L 874.1,244.4 L 879.5,253.9 L 884.4,262.1 L 892.9,276.9 L 900.1,289.3 L 905.1,298.1 L 908.8,305.2 L 912.0,311.9 L 916.6,322.3 L 919.7,329.8 L 923.9,340.1 L 930.2,355.5 L 936.2,370.2 L 944.4,390.3 L 950.6,405.5 L 953.8,413.9 L 956.3,421.8 L 957.8,429.4 L 958.9,436.0 L 959.5,443.6 L 959.9,450.1 L 960.0,457.1 L 959.9,463.4 L 959.4,470.0 L 958.5,476.0 L 956.8,483.3 L 955.1,489.6 L 952.5,498.5 L 945.7,518.8 L 938.6,540.9 L 928.3,574.1 L 926.4,579.1 L 924.3,583.5 L 922.0,587.5 L 919.9,590.9 L 917.0,594.8 L 914.2,597.8 L 911.0,600.8 L 907.1,603.9 L 903.4,606.2 L 901.9,606.9 L 897.6,609.2 L 893.8,610.8 L 888.9,612.3 L 884.8,613.4 L 879.6,614.5 L 876.1,615.3 L 872.6,616.0 L 868.7,616.7 L 865.2,617.2 L 861.3,617.8 L 857.9,618.0 L 854.8,618.2 L 851.6,618.2 L 849.3,618.1 L 847.4,617.8 L 845.1,617.4 L 842.9,616.9 L 839.6,615.8 L 836.4,614.6 L 833.5,613.2 L 830.7,611.6 L 826.5,608.8 L 822.3,606.0 L 791.0,583.1 L 787.1,580.6 L 785.2,579.4 L 782.3,577.9 L 778.3,576.1 L 776.3,575.5 L 774.3,575.0 L 772.8,574.7 L 771.3,574.4 L 768.5,574.2 L 765.7,574.1 L 763.0,574.4 L 759.2,574.9 L 755.5,575.7 L 751.9,576.8 L 748.6,578.3 L 745.5,580.0 L 742.7,582.2 L 740.0,584.5 L 737.8,587.1 L 735.7,589.8 L 728.7,599.6 L 721.3,610.7 L 657.7,703.7 L 612.6,769.4 L 560.5,843.8 L 557.2,847.5 L 554.3,850.2 L 551.6,852.1 L 548.4,853.1 L 545.0,853.3 L 541.7,852.7 L 539.2,851.8 L 531.7,847.9 L 522.7,843.1 L 512.3,837.2 L 499.3,830.4 L 438.7,798.2 L 434.7,795.8 L 432.3,793.9 L 429.8,791.3 L 427.0,787.4 L 424.6,782.7 L 423.3,778.3 L 422.6,773.4 L 423.0,769.4 L 423.5,765.3 L 424.5,760.9 L 425.9,756.9 L 427.9,752.2 L 430.0,748.8 L 434.0,743.7 L 437.7,739.0 L 441.4,734.7 L 445.1,730.7 L 449.1,726.9 L 453.0,723.5 L 456.7,720.6 L 460.9,717.5 L 465.3,714.5 L 469.9,711.8 L 553.7,671.1 L 587.7,654.3 L 592.3,651.6 L 596.6,648.5 L 600.6,645.2 L 603.9,641.4 L 607.6,636.4 L 610.9,631.0 L 613.3,626.2 L 615.6,620.7 L 617.4,615.5 L 618.6,610.9 L 619.4,606.4 L 620.0,601.8 L 620.3,597.0 L 620.5,571.0 L 620.5,558.1 L 620.1,546.0 L 619.6,538.3 L 618.7,531.0 L 617.4,523.1 L 615.8,515.3 L 614.3,507.6 L 612.4,496.7 L 607.2,470.9 L 601.4,439.2 L 598.2,425.8 L 597.3,422.4 L 596.2,419.8 L 593.9,415.6 L 591.9,412.8 L 589.5,409.8 Z" fill="none" stroke="currentColor" stroke-width="10" stroke-linejoin="round" stroke-linecap="round"/></svg>