<svg xmlns="http://www.w3.org/2000/svg" viewBox="0 0 1000 1000" role="img" aria-label="Montjuic Circuit track outline"><path d="M 174.0 532.6 L 213.8 514.4 L 751.2 267.9 L 786.1 253.3 L 815.0 243.9 L 836.3 238.8 L 855.2 235.6 L 873.2 235.5 L 890.4 238.1 L 913.2 247.3 L 929.4 258.7 L 941.0 271.2 L 949.9 284.7 L 957.3 302.0 L 960.0 317.8 L 959.6 332.3 L 957.0 348.6 L 952.3 362.6 L 943.7 376.9 L 931.6 389.1 L 919.2 397.9 L 905.3 404.9 L 885.5 409.1 L 865.9 409.7 L 847.5 407.0 L 829.8 401.6 L 759.6 369.2 L 745.0 362.5 L 725.6 355.3 L 705.2 350.5 L 685.0 348.3 L 663.6 349.0 L 646.3 352.0 L 629.4 357.4 L 613.7 362.8 L 371.7 494.2 L 352.3 507.3 L 340.7 516.5 L 328.3 529.5 L 318.1 542.6 L 310.3 557.0 L 294.4 588.8 L 250.8 676.2 L 237.4 700.6 L 221.5 723.0 L 202.7 740.8 L 185.8 751.8 L 161.5 762.2 L 140.9 764.5 L 117.7 762.4 L 97.3 756.1 L 78.2 745.8 L 60.6 729.0 L 50.1 710.9 L 43.4 693.8 L 40.0 676.3 L 40.1 660.8 L 43.3 643.3 L 48.3 627.9 L 57.6 610.6 L 69.6 595.8 L 84.4 581.7 L 104.3 568.0 L 124.0 556.3 L 146.9 545.0 L 174.0 532.6 Z" fill="none" stroke="currentColor" stroke-width="10" stroke-linejoin="round" stroke-linecap="round"/></svg>