<svg xmlns="http://www.w3.org/2000/svg" viewBox="0 0 1000 1000" role="img" aria-label="Autodromo Nazionale Monza track outline"><path d="M 511.3 354.8 L 409.6 443.8 L 408.9 444.5 L 407.5 445.8 L 406.6 446.9 L 405.7 448.0 L 405.2 448.9 L 404.8 449.7 L 404.4 450.8 L 404.2 452.5 L 404.1 454.4 L 404.2 456.3 L 404.4 458.3 L 405.6 469.6 L 405.8 471.7 L 405.9 474.2 L 405.8 478.5 L 405.5 481.4 L 405.1 484.2 L 404.6 486.4 L 404.0 488.5 L 403.0 491.3 L 402.1 493.8 L 400.6 496.6 L 399.2 499.3 L 397.8 501.3 L 396.5 503.1 L 395.0 504.8 L 394.2 505.7 L 393.2 506.7 L 392.0 507.8 L 390.8 509.0 L 388.1 511.2 L 385.8 513.0 L 383.7 514.5 L 382.1 515.7 L 380.9 516.7 L 380.0 517.6 L 379.1 518.7 L 378.3 519.8 L 377.5 521.3 L 377.0 522.4 L 376.5 523.9 L 376.1 525.5 L 375.3 531.1 L 365.0 614.2 L 349.2 766.3 L 332.5 928.2 L 332.1 931.6 L 331.8 933.5 L 331.4 935.4 L 331.0 936.8 L 330.3 938.5 L 329.7 939.8 L 328.9 941.4 L 327.9 943.2 L 326.5 945.2 L 325.2 946.9 L 324.0 948.4 L 322.4 950.1 L 321.0 951.3 L 319.2 952.8 L 317.6 953.9 L 316.1 954.8 L 314.8 955.5 L 313.6 956.1 L 312.3 956.7 L 311.1 957.3 L 308.4 958.2 L 305.6 959.1 L 304.1 959.3 L 302.7 959.6 L 300.7 959.8 L 299.1 960.0 L 298.0 960.0 L 296.9 960.0 L 295.4 959.9 L 294.1 959.7 L 292.9 959.6 L 291.7 959.3 L 290.5 959.1 L 288.3 958.5 L 286.7 958.0 L 285.1 957.5 L 282.0 956.4 L 279.0 955.2 L 277.1 954.3 L 275.1 953.2 L 273.1 952.1 L 271.4 951.0 L 269.8 950.0 L 267.8 948.6 L 266.6 947.7 L 265.0 946.4 L 263.5 945.1 L 261.4 943.2 L 259.2 940.9 L 257.2 938.8 L 255.0 936.1 L 253.0 933.4 L 250.5 929.8 L 249.7 928.5 L 248.3 926.3 L 247.4 924.8 L 246.5 923.1 L 245.6 921.4 L 244.7 919.5 L 243.8 917.6 L 242.8 915.0 L 242.0 912.9 L 241.2 910.9 L 240.5 908.7 L 239.8 906.4 L 239.2 904.3 L 238.5 902.0 L 237.3 897.2 L 236.7 894.0 L 236.2 890.9 L 235.6 886.9 L 235.0 882.3 L 234.5 876.2 L 234.2 868.4 L 234.3 860.6 L 233.4 819.4 L 233.4 799.9 L 233.8 781.7 L 234.8 768.8 L 236.0 755.5 L 249.3 624.9 L 252.8 596.1 L 257.1 547.1 L 259.1 524.6 L 259.5 519.4 L 273.1 366.1 L 273.2 364.9 L 273.3 364.0 L 273.7 363.0 L 274.3 362.1 L 275.2 361.5 L 276.4 360.9 L 277.6 360.7 L 279.1 360.8 L 280.3 361.1 L 283.5 362.3 L 284.8 362.7 L 286.1 362.9 L 287.2 362.8 L 288.3 362.6 L 289.2 362.1 L 290.1 361.4 L 290.8 360.7 L 291.4 359.6 L 291.9 358.4 L 292.1 357.2 L 292.1 356.1 L 292.0 354.9 L 291.8 353.8 L 290.8 349.3 L 290.1 346.4 L 282.9 318.8 L 281.0 309.9 L 279.9 302.6 L 279.2 294.4 L 279.0 283.9 L 283.4 228.0 L 283.9 223.8 L 286.1 212.0 L 287.8 205.5 L 290.7 197.2 L 295.4 186.2 L 300.6 176.3 L 306.7 167.3 L 311.9 160.8 L 317.3 154.8 L 323.0 149.3 L 328.8 144.3 L 335.7 139.0 L 342.1 134.5 L 348.5 130.5 L 357.9 125.4 L 370.8 119.6 L 381.6 116.0 L 391.4 113.2 L 400.2 111.2 L 411.0 109.2 L 426.7 107.3 L 493.9 101.9 L 528.2 99.4 L 543.6 98.7 L 562.1 97.8 L 580.7 96.9 L 582.0 96.8 L 583.3 96.6 L 584.3 96.5 L 585.3 96.2 L 586.2 95.9 L 586.7 95.6 L 587.3 95.1 L 587.8 94.6 L 588.2 94.0 L 588.6 93.3 L 589.0 92.5 L 589.3 91.7 L 589.6 90.8 L 591.7 83.5 L 592.1 82.4 L 592.5 81.4 L 592.9 80.6 L 593.3 79.9 L 593.8 79.2 L 594.5 78.6 L 595.1 78.2 L 595.8 77.8 L 596.8 77.5 L 597.8 77.3 L 599.9 76.9 L 605.1 76.0 L 608.4 75.5 L 611.5 74.9 L 613.9 74.4 L 616.1 73.9 L 619.6 73.1 L 622.4 72.4 L 625.3 71.7 L 627.8 70.9 L 675.5 55.1 L 716.8 41.6 L 719.0 41.0 L 721.1 40.5 L 723.4 40.2 L 725.2 40.0 L 727.1 40.0 L 728.5 40.1 L 729.8 40.2 L 731.1 40.4 L 732.4 40.6 L 733.7 40.9 L 734.8 41.2 L 736.1 41.7 L 737.6 42.2 L 738.5 42.6 L 740.5 43.5 L 742.6 44.7 L 744.1 45.6 L 745.3 46.5 L 746.6 47.6 L 747.9 48.8 L 749.5 50.4 L 750.8 52.0 L 751.9 53.4 L 752.7 54.8 L 753.6 56.3 L 754.4 57.7 L 754.8 58.6 L 755.3 59.9 L 755.8 61.0 L 756.3 62.6 L 756.6 64.0 L 757.2 66.6 L 757.5 69.5 L 757.8 72.2 L 762.5 122.6 L 766.6 167.0 L 766.6 169.4 L 766.6 170.9 L 766.5 172.6 L 766.1 174.1 L 765.7 175.5 L 765.2 176.9 L 764.8 177.6 L 764.4 178.3 L 764.0 178.8 L 763.1 179.9 L 762.1 180.8 L 761.0 181.6 L 760.4 182.1 L 759.7 182.5 L 758.3 183.4 L 756.7 184.4 L 637.2 251.0 L 633.1 253.4 L 628.9 256.0 L 622.4 260.3 L 619.7 262.1 L 617.0 264.0 L 613.4 266.6 L 610.0 269.2 L 606.2 272.1 L 603.4 274.3 L 601.3 276.1 L 599.3 277.8 L 587.2 288.5 L 519.2 347.9 L 511.3 354.8 Z" fill="none" stroke="currentColor" stroke-width="10" stroke-linejoin="round" stroke-linecap="round"/></svg>