<svg xmlns="http://www.w3.org/2000/svg" viewBox="0 0 1000 1000" role="img" aria-label="Mosport Park track outline"><path d="M 762.7 418.7 L 722.4 440.7 L 676.2 448.4 L 612.6 436.6 L 383.2 376.4 L 374.1 361.0 L 371.3 337.2 L 374.8 318.4 L 404.2 271.5 L 422.4 253.3 L 453.8 245.6 L 488.1 241.4 L 513.3 248.4 L 638.5 278.5 L 661.5 275.0 L 676.2 265.2 L 679.0 244.9 L 671.3 225.4 L 618.2 137.9 L 596.5 124.7 L 575.5 117.7 L 552.5 118.4 L 290.2 198.8 L 275.5 210.0 L 268.5 224.0 L 245.4 363.1 L 252.4 384.1 L 268.5 407.9 L 297.9 431.7 L 359.4 472.2 L 409.8 495.3 L 454.9 501.9 L 475.9 511.4 L 482.5 517.7 L 496.9 531.3 L 529.4 572.6 L 551.0 609.3 L 562.2 629.5 L 567.5 639.0 L 573.4 648.1 L 586.7 652.7 L 658.4 644.9 L 681.1 646.4 L 703.9 661.0 L 771.3 710.3 L 829.7 758.3 L 849.7 776.1 L 861.2 796.7 L 885.0 852.0 L 900.4 895.7 L 906.3 919.1 L 902.1 935.9 L 887.4 952.7 L 869.6 960.0 L 850.7 960.0 L 609.8 930.6 L 600.3 926.1 L 586.4 914.5 L 522.0 839.0 L 473.4 787.3 L 425.5 743.9 L 384.3 717.7 L 353.1 699.5 L 343.3 693.6 L 277.6 656.5 L 232.9 629.6 L 202.8 601.2 L 179.4 577.1 L 161.5 542.5 L 125.2 414.5 L 93.7 313.1 L 94.7 297.7 L 104.9 277.8 L 120.3 262.4 L 138.1 255.4 L 155.2 246.7 L 168.2 228.1 L 177.6 198.4 L 191.9 175.0 L 214.3 156.8 L 591.4 42.4 L 630.2 40.0 L 662.4 51.8 L 694.0 85.2 L 729.0 149.2 L 787.8 330.4 L 789.6 366.7 L 778.6 397.8 L 762.7 418.7 Z" fill="none" stroke="currentColor" stroke-width="10" stroke-linejoin="round" stroke-linecap="round"/></svg>