<svg xmlns="http://www.w3.org/2000/svg" viewBox="0 0 1000 1000" role="img" aria-label="Mosport Park track outline"><path d="M 607.6,652.8 L 486.4,750.5 L 476.6,760.8 L 467.1,771.9 L 454.0,793.6 L 447.2,807.5 L 442.1,819.1 L 437.8,834.9 L 436.7,848.7 L 438.4,872.5 L 442.5,900.0 L 446.2,919.7 L 447.0,930.4 L 443.3,940.7 L 436.7,951.4 L 428.5,957.1 L 416.6,960.0 L 399.0,960.0 L 391.2,955.9 L 386.2,947.7 L 385.0,936.6 L 384.6,921.0 L 384.6,908.2 L 383.4,895.9 L 379.7,882.8 L 373.5,865.5 L 366.9,849.9 L 357.9,833.5 L 348.3,822.4 L 240.4,692.6 L 186.6,615.1 L 123.8,513.9 L 109.8,488.5 L 99.1,464.6 L 91.9,445.3 L 45.3,285.6 L 40.8,259.7 L 40.1,243.1 L 40.0,241.2 L 42.1,226.4 L 46.6,212.9 L 56.5,195.5 L 68.7,179.6 L 79.8,170.2 L 101.6,157.0 L 117.6,152.5 L 132.8,149.6 L 147.2,149.6 L 168.1,148.0 L 178.8,143.5 L 189.9,136.5 L 198.1,127.5 L 202.2,119.7 L 207.6,101.6 L 218.6,68.1 L 224.1,54.9 L 227.6,48.9 L 231.8,44.5 L 238.8,41.2 L 248.2,40.0 L 258.2,40.5 L 277.0,46.2 L 387.4,78.1 L 443.7,96.7 L 453.2,100.5 L 467.1,107.3 L 475.8,115.2 L 480.2,120.2 L 487.4,131.0 L 494.1,143.4 L 497.4,156.1 L 499.6,168.6 L 499.9,178.6 L 498.6,188.8 L 495.9,201.3 L 489.2,215.5 L 475.9,240.4 L 446.7,286.7 L 414.3,343.7 L 399.0,372.2 L 394.4,383.3 L 391.1,399.4 L 390.8,414.1 L 392.8,425.2 L 397.7,440.0 L 404.3,456.0 L 414.2,472.5 L 424.8,485.6 L 436.4,494.7 L 449.9,502.0 L 467.1,507.0 L 489.5,510.7 L 585.4,516.4 L 596.9,517.2 L 607.8,520.7 L 619.9,526.3 L 629.4,533.2 L 637.1,544.0 L 641.7,551.7 L 646.6,564.4 L 647.9,572.7 L 645.6,590.1 L 642.1,604.2 L 633.9,620.7 L 623.2,637.6 L 614.8,646.9 L 607.6,652.8 Z" fill="none" stroke="currentColor" stroke-width="10" stroke-linejoin="round" stroke-linecap="round"/></svg>