<svg xmlns="http://www.w3.org/2000/svg" viewBox="0 0 1000 1000" role="img" aria-label="Mobility Resort Motegi track outline"><path d="M272.3,155.1 L 325.2,151.4 L 337.8,151.5 L 350.0,152.9 L 361.8,155.5 L 373.1,159.6 L 384.2,165.7 L 394.5,173.0 L 404.1,181.5 L 412.5,191.2 L 511.6,360.0 L 516.5,365.9 L 522.6,370.9 L 528.9,374.9 L 536.6,378.1 L 543.8,379.6 L 551.1,379.9 L 558.9,379.2 L 566.4,376.8 L 592.6,364.9 L 604.9,361.6 L 618.4,361.4 L 632.0,364.1 L 644.0,370.4 L 654.1,378.9 L 661.0,390.9 L 666.1,403.3 L 667.6,417.2 L 662.1,576.3 L 662.6,581.5 L 665.2,586.9 L 669.0,591.2 L 674.1,594.4 L 679.0,596.2 L 685.0,596.8 L 691.0,596.1 L 697.3,593.5 L 765.2,536.8 L 916.5,407.9 L 920.4,404.6 L 924.6,402.0 L 929.0,400.0 L 933.8,398.9 L 938.6,398.9 L 943.6,400.0 L 948.1,401.8 L 952.2,404.5 L 955.3,408.4 L 957.7,412.4 L 959.2,416.5 L 960.0,421.2 L 959.9,425.8 L 959.2,430.2 L 957.3,434.7 L 954.6,438.6 L 723.1,650.4 L 514.6,842.1 L 510.7,845.1 L 507.2,847.3 L 504.1,848.2 L 500.2,848.6 L 496.1,848.4 L 492.1,847.7 L 488.7,846.5 L 486.0,844.5 L 483.6,842.1 L 481.5,839.3 L 426.4,740.5 L 413.2,715.3 L 410.5,711.6 L 407.4,709.1 L 403.9,707.2 L 375.0,697.5 L 329.7,685.1 L 323.7,684.3 L 318.3,685.3 L 313.7,687.6 L 309.5,691.6 L 302.8,700.4 L 299.4,703.2 L 295.6,705.2 L 291.7,707.0 L 287.6,708.0 L 282.8,708.2 L 278.3,707.6 L 274.6,706.1 L 271.3,704.2 L 268.3,701.8 L 266.0,699.0 L 53.1,309.2 L 43.1,290.0 L 41.1,284.3 L 40.0,278.0 L 40.0,272.2 L 41.2,266.4 L 43.1,260.9 L 46.0,255.6 L 50.1,251.2 L 55.0,247.6 L 77.8,234.2 L 83.3,232.3 L 89.0,231.7 L 94.3,231.8 L 99.9,232.7 L 105.4,234.5 L 110.2,237.1 L 114.7,240.5 L 118.5,244.6 L 338.3,558.5 L 361.9,593.1 L 364.5,596.4 L 368.8,598.6 L 373.0,600.2 L 377.4,601.0 L 382.2,600.7 L 386.6,599.7 L 390.7,597.7 L 394.6,594.7 L 422.6,565.9 L 427.5,559.8 L 431.4,553.5 L 434.8,546.8 L 436.6,539.2 L 437.6,531.2 L 437.6,523.2 L 436.6,515.3 L 434.6,507.5 L 431.2,500.5 L 427.1,494.3 L 159.0,202.3 L 155.8,196.5 L 154.5,190.1 L 154.6,184.4 L 155.7,178.8 L 158.5,173.8 L 162.6,169.4 L 167.9,166.2 L 174.3,164.5 L 217.0,160.3 L 272.3,155.1 Z" fill="none" stroke="currentColor" stroke-width="10" stroke-linejoin="round" stroke-linecap="round"/></svg>