<svg xmlns="http://www.w3.org/2000/svg" viewBox="0 0 1000 1000" role="img" aria-label="Mugello Circuit track outline"><path d="M 253.9,750.5 L 258.7,748.7 L 261.5,744.9 L 270.2,730.7 L 282.6,710.4 L 300.2,681.0 L 320.8,648.1 L 332.6,629.0 L 335.8,623.4 L 337.6,618.7 L 338.5,613.4 L 339.1,606.4 L 340.4,595.0 L 340.6,593.3 L 341.1,589.8 L 342.8,585.0 L 461.7,323.9 L 473.3,303.4 L 497.8,256.0 L 527.5,198.5 L 558.4,136.3 L 568.0,113.7 L 572.8,102.7 L 578.2,88.1 L 588.9,59.3 L 591.6,40.0 L 574.1,83.5 L 562.3,112.3 L 554.1,130.9 L 528.6,182.7 L 501.5,229.7 L 474.7,273.8 L 455.9,307.9 L 444.7,328.9 L 396.1,434.4 L 265.4,726.5 L 253.9,750.5 L 248.0,763.1 L 238.9,784.2 L 229.7,805.1 L 221.0,823.3 L 218.8,827.4 L 217.4,830.1 L 216.0,832.6 L 214.4,835.0 L 212.8,837.7 L 211.1,840.4 L 209.6,842.5 L 207.1,845.7 L 205.3,847.9 L 204.0,849.7 L 202.3,851.7 L 201.4,852.8 L 201.0,853.2 L 199.8,854.8 L 197.2,857.5 L 195.0,859.5 L 192.7,861.6 L 190.7,863.5 L 188.6,865.0 L 186.2,867.0 L 183.6,868.8 L 181.5,870.4 L 179.0,872.1 L 176.1,873.8 L 173.1,875.4 L 169.4,876.9 L 166.9,877.9 L 164.0,878.9 L 160.3,880.0 L 156.7,880.9 L 152.7,881.6 L 149.3,882.0 L 146.9,882.1 L 144.4,882.2 L 141.5,882.0 L 138.9,881.9 L 136.2,881.5 L 133.2,880.9 L 130.5,880.2 L 128.0,879.6 L 125.4,878.5 L 122.6,877.2 L 120.4,876.4 L 117.7,874.9 L 115.1,873.3 L 112.4,871.5 L 109.9,869.6 L 108.0,867.9 L 105.4,865.4 L 103.5,863.4 L 102.0,861.5 L 100.5,859.4 L 98.8,856.6 L 97.7,854.5 L 96.6,852.5 L 95.8,850.8 L 94.8,848.7 L 93.8,846.4 L 92.9,844.0 L 92.3,842.3 L 91.6,839.7 L 90.9,836.5 L 90.7,834.6 L 90.5,832.7 L 90.4,830.5 L 90.4,830.0 L 90.3,827.2 L 90.4,824.3 L 90.6,820.9 L 91.2,817.7 L 91.8,814.5 L 92.5,811.2 L 93.2,808.7 L 94.0,806.2 L 95.0,803.6 L 96.0,800.9 L 97.1,798.1 L 98.6,795.4 L 100.1,792.6 L 102.1,789.3 L 105.8,783.1 L 111.6,774.4 L 116.5,767.5 L 140.4,735.4 L 164.3,703.2 L 178.0,684.5 L 186.6,673.0 L 251.5,585.5 L 273.1,556.5 L 284.0,542.0 L 287.4,536.5 L 288.4,534.7 L 289.1,532.8 L 290.3,529.8 L 291.3,526.1 L 291.8,523.8 L 292.2,521.5 L 292.5,519.4 L 292.7,517.0 L 292.9,514.5 L 292.9,512.2 L 292.9,509.2 L 292.9,506.0 L 292.7,503.4 L 292.8,473.0 L 292.8,471.0 L 292.9,469.5 L 292.9,468.2 L 292.9,467.1 L 293.0,465.5 L 293.4,463.7 L 293.5,462.2 L 294.0,460.1 L 294.4,458.5 L 294.9,456.3 L 295.4,454.4 L 296.3,452.1 L 297.7,449.4 L 299.0,447.3 L 300.6,445.0 L 302.6,442.4 L 314.0,427.8 L 347.8,384.5 L 349.5,382.2 L 350.9,380.1 L 352.0,378.2 L 353.7,375.2 L 354.7,373.5 L 356.3,370.6 L 357.5,368.4 L 358.8,365.8 L 360.1,363.5 L 361.3,361.2 L 362.5,358.2 L 363.5,355.7 L 364.1,353.9 L 364.9,351.8 L 365.4,350.0 L 365.9,347.6 L 366.6,344.3 L 366.7,342.4 L 366.9,340.4 L 367.3,337.3 L 367.4,334.4 L 367.4,331.3 L 367.3,329.5 L 366.9,326.9 L 366.5,324.6 L 365.7,321.2 L 364.8,318.3 L 363.7,315.4 L 362.5,312.7 L 360.7,309.3 L 359.1,306.6 L 357.4,304.3 L 355.4,301.9 L 353.7,300.1 L 352.2,298.7 L 350.3,297.1 L 348.7,295.6 L 347.0,294.4 L 345.2,293.1 L 343.5,292.1 L 341.7,291.1 L 339.5,290.2 L 337.6,289.1 L 335.3,288.1 L 333.5,287.5 L 331.4,287.0 L 329.6,286.6 L 327.2,286.3 L 325.6,286.3 L 323.7,286.3 L 321.7,286.2 L 319.6,286.3 L 317.1,286.6 L 315.1,286.9 L 313.8,287.1 L 312.2,287.3 L 309.6,287.9 L 307.0,288.6 L 304.8,289.3 L 302.6,290.2 L 300.4,291.2 L 298.4,292.2 L 296.4,293.3 L 294.5,294.6 L 293.1,295.6 L 291.8,296.6 L 290.4,297.9 L 288.4,299.7 L 286.9,301.2 L 285.5,302.6 L 284.2,304.2 L 282.4,306.4 L 280.9,308.5 L 279.6,310.6 L 278.3,313.0 L 277.3,314.7 L 276.1,316.9 L 274.7,320.1 L 273.7,323.0 L 272.3,326.3 L 270.6,331.5 L 265.6,348.9 L 255.0,385.8 L 244.2,423.1 L 240.4,436.4 L 234.7,456.3 L 205.7,557.6 L 204.5,561.7 L 203.7,563.9 L 202.9,566.2 L 201.8,568.9 L 200.4,571.8 L 198.5,575.2 L 196.2,578.4 L 194.2,580.7 L 191.8,583.2 L 189.5,585.2 L 186.6,587.7 L 183.4,590.0 L 180.1,591.8 L 177.4,593.1 L 174.3,594.4 L 171.1,595.3 L 167.6,596.1 L 164.0,596.5 L 160.8,596.7 L 157.5,596.9 L 120.8,597.2 L 117.7,597.4 L 115.0,597.5 L 112.9,597.7 L 110.1,598.4 L 107.6,598.9 L 104.9,599.8 L 102.4,600.8 L 100.4,601.9 L 98.2,603.1 L 95.4,605.0 L 92.9,606.8 L 90.2,609.2 L 88.1,611.3 L 85.9,614.0 L 84.3,616.3 L 82.8,619.4 L 82.0,621.5 L 81.5,623.0 L 81.0,624.6 L 80.2,627.5 L 79.6,630.0 L 79.2,632.3 L 70.5,676.7 L 66.2,699.9 L 44.1,814.4 L 43.1,819.5 L 42.3,824.6 L 41.7,828.5 L 41.3,831.2 L 41.0,833.4 L 40.8,835.7 L 40.6,837.5 L 40.4,841.1 L 40.0,846.6 L 40.0,851.1 L 40.2,854.7 L 40.2,858.0 L 40.7,862.4 L 41.3,865.8 L 41.8,868.7 L 42.5,871.4 L 43.7,875.6 L 44.8,878.7 L 46.1,882.0 L 47.9,886.0 L 49.9,889.6 L 52.2,893.3 L 54.2,896.1 L 56.2,898.5 L 58.5,901.1 L 61.5,903.9 L 64.8,906.9 L 67.5,909.1 L 70.1,910.9 L 73.9,913.3 L 77.3,915.4 L 80.3,917.3 L 84.6,919.8 L 88.1,921.7 L 91.3,923.4 L 95.1,925.4 L 98.5,927.2 L 101.9,929.0 L 106.8,931.7 L 110.3,933.7 L 113.2,935.1 L 115.3,936.1 L 119.7,938.4 L 123.1,940.1 L 126.3,941.6 L 130.4,943.6 L 133.1,944.9 L 137.6,946.9 L 141.4,948.7 L 145.7,950.5 L 152.1,952.7 L 158.4,954.8 L 161.9,955.8 L 165.7,957.0 L 169.1,957.9 L 172.3,958.4 L 175.7,958.9 L 179.0,959.3 L 182.5,959.6 L 185.5,959.9 L 189.1,960.0 L 192.7,960.0 L 196.2,959.8 L 199.6,959.4 L 203.3,959.0 L 206.4,958.5 L 209.5,957.8 L 212.8,956.7 L 216.0,955.6 L 219.3,954.4 L 222.5,952.9 L 225.4,951.2 L 228.2,949.8 L 231.2,948.2 L 233.8,946.7 L 236.5,945.0 L 239.9,942.7 L 242.3,940.8 L 245.1,938.5 L 247.8,935.8 L 249.7,933.7 L 251.9,931.4 L 254.1,928.8 L 256.1,926.2 L 257.9,923.6 L 259.6,921.1 L 261.4,918.5 L 263.0,915.7 L 264.8,912.2 L 266.2,909.2 L 267.4,905.0 L 270.9,896.9 L 274.1,888.8 L 277.8,877.9 L 289.7,843.1 L 293.9,830.6 L 296.3,822.8 L 299.2,814.2 L 303.7,800.6 L 309.3,787.3 L 310.8,784.2 L 312.0,781.6 L 313.1,779.7 L 314.1,777.5 L 315.6,775.1 L 316.8,773.3 L 318.2,771.0 L 319.4,768.9 L 320.8,766.8 L 322.4,764.8 L 324.0,762.9 L 325.7,761.0 L 327.4,759.2 L 329.2,757.5 L 331.1,755.8 L 333.1,754.2 L 335.1,752.9 L 337.2,751.6 L 339.2,750.2 L 341.6,749.0 L 343.7,747.8 L 345.9,746.5 L 347.8,745.5 L 349.8,744.6 L 351.7,743.8 L 353.5,743.2 L 355.2,742.5 L 357.4,741.9 L 359.1,741.4 L 360.9,740.9 L 363.0,740.5 L 365.1,740.2 L 367.2,739.9 L 369.1,739.6 L 371.6,739.3 L 374.2,739.0 L 378.4,738.7 L 382.3,738.6 L 385.8,738.4 L 389.2,738.4 L 378.4,738.7 L 351.2,735.4 L 348.7,735.3 L 346.1,735.1 L 343.4,734.9 L 340.7,734.7 L 338.0,734.3 L 335.5,733.9 L 333.0,733.4 L 330.7,732.9 L 328.5,732.4 L 326.3,731.7 L 324.3,731.1 L 322.4,730.4 L 320.5,729.6 L 318.8,728.8 L 317.1,727.9 L 315.5,727.0 L 313.9,726.1 L 312.4,725.2 L 310.9,724.2 L 309.5,723.0 L 307.9,721.6 L 306.3,720.0 L 304.6,718.1 L 302.8,715.9 L 300.8,713.4 L 299.0,710.5 L 297.7,708.2 L 296.3,705.3 L 295.4,702.5 L 294.9,699.1 L 295.0,695.3 L 295.9,691.6 L 300.2,681.0" fill="none" stroke="currentColor" stroke-width="10" stroke-linejoin="round" stroke-linecap="round"/></svg>