<svg xmlns="http://www.w3.org/2000/svg" viewBox="0 0 1000 1000" role="img" aria-label="Mugello Circuit track outline"><path d="M 368.3 770.8 L 372.6 769.1 L 375.1 765.7 L 383.0 752.9 L 394.2 734.5 L 410.0 708.0 L 428.7 678.3 L 439.3 661.0 L 442.3 656.0 L 443.8 651.7 L 444.6 647.0 L 445.2 640.6 L 446.4 630.3 L 446.6 628.8 L 447.0 625.6 L 448.5 621.3 L 555.9 385.4 L 566.4 366.9 L 588.5 324.1 L 615.4 272.1 L 643.3 216.0 L 652.0 195.6 L 656.3 185.6 L 661.1 172.4 L 670.8 146.4 L 673.3 129.0 L 657.4 168.3 L 646.8 194.3 L 639.4 211.1 L 616.4 257.9 L 591.9 300.4 L 567.7 340.2 L 550.7 371.0 L 540.6 389.9 L 496.7 485.3 L 378.6 749.1 L 368.3 770.8 L 363.0 782.2 L 354.7 801.2 L 346.4 820.1 L 338.5 836.5 L 336.6 840.2 L 335.3 842.7 L 334.0 844.9 L 332.6 847.1 L 331.1 849.6 L 329.6 851.9 L 328.2 853.9 L 326.0 856.8 L 324.4 858.8 L 323.2 860.4 L 321.6 862.2 L 320.8 863.2 L 320.5 863.6 L 319.4 864.9 L 317.0 867.4 L 315.0 869.2 L 312.9 871.1 L 311.1 872.8 L 309.3 874.2 L 307.1 876.0 L 304.8 877.6 L 302.9 879.1 L 300.6 880.6 L 297.9 882.2 L 295.2 883.6 L 291.9 885.0 L 289.7 885.9 L 287.0 886.8 L 283.7 887.7 L 280.4 888.5 L 276.9 889.2 L 273.8 889.5 L 271.6 889.6 L 269.3 889.7 L 266.7 889.6 L 264.4 889.5 L 261.9 889.1 L 259.2 888.6 L 256.8 887.9 L 254.5 887.3 L 252.2 886.4 L 249.6 885.2 L 247.7 884.5 L 245.2 883.2 L 242.9 881.6 L 240.5 880.1 L 238.2 878.4 L 236.5 876.8 L 234.2 874.6 L 232.4 872.7 L 231.0 871.0 L 229.7 869.1 L 228.2 866.6 L 227.1 864.7 L 226.2 862.9 L 225.4 861.4 L 224.5 859.5 L 223.6 857.3 L 222.8 855.3 L 222.3 853.7 L 221.6 851.4 L 221.0 848.4 L 220.8 846.7 L 220.6 845.0 L 220.6 843.1 L 220.5 842.6 L 220.4 840.1 L 220.5 837.4 L 220.8 834.3 L 221.3 831.5 L 221.9 828.6 L 222.4 825.6 L 223.1 823.3 L 223.8 821.1 L 224.7 818.7 L 225.6 816.3 L 226.6 813.8 L 227.9 811.3 L 229.4 808.8 L 231.2 805.8 L 234.5 800.2 L 239.7 792.3 L 244.1 786.1 L 265.7 757.2 L 287.3 728.0 L 299.7 711.2 L 307.5 700.8 L 366.1 621.7 L 385.6 595.5 L 395.4 582.5 L 398.5 577.5 L 399.4 575.8 L 400.0 574.2 L 401.1 571.4 L 402.0 568.1 L 402.5 566.0 L 402.9 564.0 L 403.1 562.0 L 403.3 559.9 L 403.5 557.6 L 403.5 555.5 L 403.4 552.8 L 403.5 549.9 L 403.3 547.6 L 403.4 520.1 L 403.4 518.3 L 403.5 516.9 L 403.5 515.8 L 403.5 514.8 L 403.6 513.3 L 403.9 511.7 L 404.0 510.4 L 404.5 508.5 L 404.8 507.0 L 405.3 505.0 L 405.7 503.3 L 406.6 501.2 L 407.8 498.8 L 409.0 496.9 L 410.4 494.8 L 412.3 492.4 L 422.5 479.3 L 453.0 440.2 L 454.6 438.1 L 455.8 436.2 L 456.9 434.5 L 458.4 431.7 L 459.3 430.2 L 460.8 427.6 L 461.8 425.6 L 463.0 423.2 L 464.2 421.2 L 465.2 419.1 L 466.3 416.4 L 467.2 414.2 L 467.8 412.6 L 468.5 410.6 L 468.9 409.0 L 469.4 406.9 L 470.1 403.8 L 470.2 402.2 L 470.4 400.3 L 470.6 397.5 L 470.8 394.9 L 470.8 392.1 L 470.6 390.5 L 470.3 388.2 L 470.0 386.1 L 469.3 383.0 L 468.4 380.4 L 467.4 377.8 L 466.3 375.3 L 464.7 372.2 L 463.3 369.8 L 461.8 367.7 L 459.9 365.6 L 458.4 363.9 L 457.1 362.6 L 455.4 361.2 L 453.9 359.9 L 452.3 358.8 L 450.7 357.7 L 449.2 356.7 L 447.5 355.8 L 445.6 355.0 L 443.8 354.0 L 441.8 353.1 L 440.2 352.6 L 438.2 352.1 L 436.6 351.8 L 434.5 351.5 L 433.0 351.5 L 431.3 351.4 L 429.5 351.4 L 427.6 351.5 L 425.4 351.7 L 423.5 352.0 L 422.3 352.2 L 420.9 352.4 L 418.6 352.9 L 416.2 353.5 L 414.2 354.2 L 412.2 355.0 L 410.3 355.9 L 408.4 356.8 L 406.6 357.8 L 405.0 358.9 L 403.6 359.9 L 402.5 360.7 L 401.2 361.9 L 399.4 363.6 L 398.1 364.9 L 396.8 366.2 L 395.6 367.6 L 394.0 369.6 L 392.6 371.5 L 391.5 373.4 L 390.3 375.6 L 389.4 377.1 L 388.3 379.1 L 387.1 382.0 L 386.1 384.6 L 384.9 387.6 L 383.3 392.3 L 378.8 408.0 L 369.3 441.3 L 359.5 475.0 L 356.1 487.1 L 350.9 505.1 L 324.7 596.6 L 323.6 600.3 L 322.9 602.2 L 322.1 604.3 L 321.2 606.7 L 319.9 609.4 L 318.2 612.4 L 316.1 615.3 L 314.3 617.4 L 312.1 619.7 L 310.1 621.5 L 307.5 623.7 L 304.5 625.8 L 301.6 627.4 L 299.2 628.6 L 296.4 629.7 L 293.4 630.6 L 290.3 631.3 L 287.0 631.7 L 284.2 631.9 L 281.2 632.0 L 248.0 632.3 L 245.2 632.5 L 242.8 632.6 L 240.9 632.8 L 238.4 633.3 L 236.1 633.8 L 233.7 634.6 L 231.4 635.6 L 229.6 636.5 L 227.6 637.7 L 225.1 639.3 L 222.8 641.0 L 220.4 643.1 L 218.5 645.1 L 216.5 647.5 L 215.1 649.6 L 213.7 652.3 L 213.0 654.2 L 212.5 655.6 L 212.0 657.0 L 211.3 659.6 L 210.8 662.0 L 210.4 664.0 L 202.6 704.1 L 198.7 725.1 L 178.7 828.5 L 177.8 833.1 L 177.1 837.7 L 176.6 841.2 L 176.2 843.6 L 175.9 845.7 L 175.7 847.7 L 175.6 849.3 L 175.4 852.6 L 175.1 857.6 L 175.0 861.6 L 175.2 864.9 L 175.3 867.9 L 175.7 871.8 L 176.2 874.9 L 176.7 877.5 L 177.3 880.0 L 178.4 883.8 L 179.4 886.5 L 180.6 889.5 L 182.2 893.1 L 184.0 896.4 L 186.0 899.7 L 187.9 902.2 L 189.7 904.5 L 191.7 906.8 L 194.4 909.4 L 197.4 912.0 L 199.9 914.0 L 202.2 915.6 L 205.6 917.8 L 208.8 919.8 L 211.4 921.4 L 215.4 923.6 L 218.5 925.4 L 221.4 926.9 L 224.8 928.8 L 227.9 930.4 L 230.9 932.0 L 235.3 934.5 L 238.6 936.2 L 241.1 937.5 L 243.0 938.5 L 247.0 940.5 L 250.1 942.0 L 253.0 943.3 L 256.7 945.2 L 259.1 946.3 L 263.2 948.2 L 266.6 949.8 L 270.5 951.4 L 276.3 953.4 L 282.0 955.3 L 285.1 956.2 L 288.6 957.3 L 291.7 958.1 L 294.6 958.5 L 297.6 959.0 L 300.6 959.4 L 303.8 959.7 L 306.4 959.9 L 309.7 960.0 L 313.0 960.0 L 316.1 959.8 L 319.2 959.5 L 322.5 959.1 L 325.4 958.6 L 328.2 958.0 L 331.1 957.0 L 334.0 956.0 L 337.0 954.9 L 339.9 953.5 L 342.5 952.1 L 345.0 950.8 L 347.8 949.4 L 350.1 948.0 L 352.5 946.5 L 355.6 944.4 L 357.8 942.7 L 360.3 940.6 L 362.7 938.1 L 364.5 936.2 L 366.4 934.2 L 368.5 931.8 L 370.2 929.5 L 371.8 927.1 L 373.4 924.9 L 375.0 922.5 L 376.4 920.0 L 378.1 916.8 L 379.4 914.2 L 380.5 910.3 L 383.6 903.0 L 386.5 895.7 L 389.8 885.8 L 400.6 854.4 L 404.4 843.1 L 406.6 836.1 L 409.1 828.3 L 413.3 816.0 L 418.3 804.0 L 419.7 801.2 L 420.8 798.9 L 421.7 797.2 L 422.6 795.1 L 424.0 793.0 L 425.0 791.4 L 426.3 789.3 L 427.4 787.4 L 428.7 785.5 L 430.1 783.7 L 431.6 782.0 L 433.1 780.3 L 434.7 778.6 L 436.3 777.1 L 437.9 775.5 L 439.8 774.1 L 441.6 772.9 L 443.5 771.7 L 445.3 770.5 L 447.4 769.4 L 449.4 768.3 L 451.4 767.1 L 453.1 766.3 L 454.8 765.5 L 456.6 764.7 L 458.2 764.1 L 459.7 763.6 L 461.7 763.0 L 463.3 762.6 L 464.9 762.1 L 466.8 761.7 L 468.7 761.4 L 470.6 761.2 L 472.3 760.9 L 474.6 760.7 L 476.9 760.4 L 480.7 760.1 L 484.2 760.0 L 487.4 759.9 L 490.4 759.8 L 528.4 761.0 L 530.0 761.0 L 531.6 761.1 L 533.2 761.2 L 535.0 761.2 L 536.7 761.2 L 538.0 761.2 L 540.1 761.0 L 541.6 760.9 L 543.0 760.7 L 544.4 760.5 L 546.0 760.2 L 547.5 759.9 L 549.0 759.5 L 550.7 759.0 L 552.1 758.5 L 553.7 757.8 L 555.5 757.0 L 557.4 756.0 L 559.2 755.1 L 560.8 754.1 L 562.3 752.9 L 563.7 751.8 L 565.2 750.5 L 566.8 749.0 L 568.0 747.8 L 569.2 746.5 L 570.4 745.0 L 571.4 743.7 L 572.6 742.1 L 579.4 733.5 L 636.4 664.7 L 693.2 595.1 L 694.1 593.8 L 695.3 592.5 L 696.8 590.7 L 698.6 588.2 L 700.1 585.9 L 701.4 583.7 L 702.2 582.2 L 703.2 580.5 L 704.0 578.7 L 704.8 576.6 L 705.4 574.7 L 705.7 572.8 L 706.1 571.0 L 706.5 568.4 L 706.6 566.0 L 706.6 563.0 L 706.5 560.7 L 706.3 558.4 L 706.0 556.6 L 705.5 554.4 L 705.1 552.3 L 704.2 549.9 L 703.2 547.1 L 688.4 517.6 L 687.0 514.5 L 686.0 511.5 L 684.9 508.6 L 684.4 506.1 L 684.2 504.8 L 684.0 502.7 L 683.8 500.8 L 683.7 498.7 L 683.7 497.1 L 683.9 495.3 L 684.3 493.5 L 684.6 491.6 L 685.3 489.6 L 686.0 487.6 L 686.8 485.9 L 687.7 484.2 L 689.0 481.7 L 690.1 480.0 L 691.1 478.3 L 692.5 476.1 L 693.6 474.4 L 694.8 472.5 L 710.4 448.8 L 729.9 419.7 L 757.0 378.6 L 817.4 288.9 L 818.7 286.5 L 820.3 283.6 L 821.6 280.3 L 822.8 276.5 L 823.7 273.3 L 824.3 270.7 L 824.6 268.6 L 824.8 266.6 L 824.9 263.9 L 825.0 261.1 L 824.8 258.8 L 824.5 256.7 L 824.2 254.6 L 823.6 251.9 L 822.9 249.7 L 822.1 247.1 L 821.4 245.0 L 820.2 242.4 L 819.6 241.2 L 819.1 240.3 L 818.4 238.9 L 816.9 236.7 L 815.2 234.5 L 813.6 232.8 L 811.3 230.6 L 809.4 228.7 L 807.9 227.2 L 805.0 225.1 L 802.5 223.4 L 772.5 205.9 L 770.7 204.7 L 768.6 203.3 L 765.5 200.7 L 763.8 199.2 L 762.2 197.5 L 760.8 195.7 L 759.6 193.8 L 758.5 191.9 L 757.6 190.0 L 757.0 188.3 L 756.3 186.8 L 755.8 184.7 L 755.3 182.5 L 755.1 180.6 L 754.9 178.9 L 754.9 177.0 L 755.0 174.9 L 755.3 172.9 L 755.5 171.1 L 755.9 168.9 L 756.3 166.4 L 756.9 163.4 L 768.9 105.0 L 769.5 100.7 L 769.6 99.7 L 769.8 98.0 L 770.0 96.2 L 770.2 94.6 L 770.4 93.0 L 770.6 91.3 L 770.6 90.0 L 770.7 88.2 L 770.8 86.4 L 770.8 85.3 L 770.8 84.5 L 770.8 83.5 L 770.7 82.3 L 770.6 80.8 L 770.5 79.1 L 770.2 76.3 L 769.9 74.8 L 769.6 73.5 L 769.3 72.1 L 769.1 70.8 L 768.6 68.9 L 767.9 66.9 L 767.4 65.1 L 766.8 63.6 L 766.2 62.2 L 765.5 60.8 L 764.7 59.4 L 763.8 58.0 L 762.9 56.5 L 762.0 55.2 L 761.0 54.0 L 760.2 52.9 L 759.3 52.0 L 758.3 51.0 L 757.2 50.0 L 755.9 48.9 L 754.8 47.9 L 753.1 46.5 L 751.8 45.4 L 750.4 44.4 L 748.6 43.8 L 746.4 42.7 L 745.1 42.3 L 744.0 41.8 L 742.0 41.1 L 739.8 40.6 L 737.5 40.3 L 734.9 40.0 L 732.0 40.0 L 729.4 40.2 L 727.3 40.7 L 725.0 41.1 L 723.0 41.8 L 720.4 42.6 L 717.9 43.6 L 715.5 44.6 L 712.9 46.2 L 710.6 47.9 L 708.6 49.5 L 706.7 51.2 L 704.9 53.2 L 703.4 55.1 L 702.2 57.0 L 700.8 59.4 L 699.3 61.6 L 698.0 64.0 L 696.7 66.6 L 695.6 69.2 L 694.6 72.1 L 691.4 80.6 L 685.7 96.3 L 673.3 129.0" fill="none" stroke="currentColor" stroke-width="10" stroke-linejoin="round" stroke-linecap="round"/></svg>