<svg xmlns="http://www.w3.org/2000/svg" viewBox="0 0 1000 1000" role="img" aria-label="Nürburgring track outline"><path d="M282.6,858.4 L 274.8,855.7 L 255.7,853.8 L 252.4,854.1 L 245.8,856.9 L 242.0,856.8 L 237.8,854.1 L 233.7,850.2 L 231.9,847.4 L 228.9,840.8 L 226.1,838.3 L 219.2,833.6 L 217.4,830.6 L 215.6,825.0 L 213.4,823.0 L 191.8,819.0 L 188.3,817.7 L 186.4,815.7 L 185.2,813.3 L 184.9,809.0 L 184.0,804.5 L 181.5,800.8 L 159.8,785.5 L 140.4,772.0 L 134.2,766.1 L 109.3,735.4 L 104.7,729.3 L 103.4,725.0 L 102.4,710.6 L 103.3,706.8 L 110.7,689.0 L 112.0,682.4 L 114.4,667.1 L 114.8,661.2 L 114.6,652.6 L 113.1,636.4 L 111.3,626.3 L 108.5,616.4 L 102.3,601.5 L 94.9,585.2 L 88.4,569.0 L 84.1,558.4 L 79.4,550.6 L 73.8,544.5 L 66.4,539.1 L 60.0,535.9 L 44.1,528.6 L 41.3,525.8 L 40.0,522.3 L 40.1,518.9 L 41.7,515.5 L 45.3,512.5 L 64.5,504.6 L 80.6,496.9 L 88.0,490.3 L 93.5,486.1 L 101.4,480.7 L 119.8,461.7 L 130.4,453.0 L 139.4,443.2 L 145.8,430.3 L 151.1,417.4 L 151.9,414.0 L 151.6,397.4 L 153.0,393.6 L 156.7,389.7 L 161.5,386.6 L 163.6,383.8 L 165.1,379.8 L 164.4,376.6 L 161.8,373.8 L 160.4,371.0 L 160.6,367.7 L 162.5,364.9 L 171.0,357.0 L 185.2,346.2 L 196.8,333.2 L 213.1,317.4 L 218.9,311.3 L 228.7,296.8 L 230.1,292.7 L 230.5,288.5 L 230.0,284.8 L 226.7,271.7 L 224.8,264.9 L 223.4,263.0 L 221.7,261.7 L 219.4,260.8 L 216.2,260.6 L 211.3,260.9 L 208.5,260.6 L 206.4,259.7 L 196.8,253.8 L 187.6,246.5 L 186.6,244.3 L 186.3,242.5 L 186.7,239.8 L 188.5,237.2 L 196.5,233.0 L 204.2,228.9 L 208.5,226.1 L 214.9,220.7 L 217.7,218.0 L 219.4,215.0 L 220.1,212.6 L 220.4,208.2 L 220.9,205.5 L 222.1,203.0 L 229.2,191.5 L 231.1,189.2 L 233.0,187.5 L 235.7,185.7 L 240.7,183.8 L 243.0,183.5 L 245.2,183.6 L 251.9,185.0 L 253.9,185.8 L 262.2,190.9 L 277.9,202.0 L 280.2,204.2 L 281.5,206.9 L 283.6,211.7 L 285.1,212.8 L 287.1,213.4 L 289.0,213.2 L 290.5,211.7 L 293.1,207.3 L 294.8,205.5 L 297.3,204.3 L 300.6,203.6 L 305.4,202.9 L 322.1,201.9 L 332.9,201.4 L 335.8,201.7 L 338.6,202.2 L 353.6,206.0 L 356.1,206.0 L 358.8,205.0 L 361.0,203.0 L 365.3,195.6 L 366.8,190.1 L 366.7,185.5 L 366.5,178.6 L 367.5,176.2 L 370.3,174.0 L 375.2,171.7 L 383.9,168.1 L 397.8,163.3 L 407.2,160.6 L 439.4,153.8 L 444.7,151.8 L 465.9,136.1 L 471.1,133.1 L 475.6,132.5 L 478.5,133.1 L 481.1,134.8 L 483.0,137.8 L 484.6,145.3 L 484.7,151.4 L 483.5,165.3 L 483.8,178.5 L 485.2,194.2 L 489.4,206.7 L 491.9,211.0 L 499.7,219.9 L 508.9,226.6 L 521.2,232.6 L 542.6,241.0 L 549.7,241.4 L 576.9,241.4 L 606.4,244.8 L 631.7,251.6 L 636.0,253.4 L 640.5,255.9 L 644.7,258.9 L 653.6,266.3 L 661.5,270.9 L 677.2,278.0 L 679.6,278.5 L 683.2,278.5 L 692.2,276.7 L 702.1,271.5 L 713.6,264.3 L 730.1,250.7 L 737.5,245.8 L 759.7,241.8 L 772.5,239.4 L 779.0,237.9 L 781.7,238.8 L 783.6,240.3 L 784.9,242.6 L 785.2,245.3 L 783.6,250.9 L 775.1,258.6 L 767.0,264.6 L 761.2,270.0 L 753.4,275.7 L 748.9,278.2 L 745.4,280.9 L 744.6,282.8 L 744.7,285.3 L 745.5,286.9 L 746.9,288.2 L 748.9,288.8 L 751.5,288.5 L 753.1,287.5 L 754.3,285.9 L 756.6,280.2 L 758.6,277.7 L 766.7,271.2 L 770.7,269.2 L 799.4,260.8 L 808.5,259.7 L 811.3,258.7 L 815.2,255.9 L 827.5,245.1 L 834.1,235.1 L 835.0,232.4 L 835.0,230.4 L 834.6,227.7 L 833.5,220.2 L 833.9,217.8 L 837.6,211.9 L 844.0,202.5 L 846.5,200.7 L 850.1,199.6 L 854.4,200.2 L 863.3,204.7 L 867.7,206.2 L 875.1,207.7 L 890.5,212.8 L 894.3,215.7 L 897.1,219.3 L 901.6,225.6 L 905.9,228.5 L 910.8,230.5 L 914.0,230.8 L 919.8,231.5 L 921.6,232.2 L 924.3,234.5 L 938.1,251.0 L 939.5,254.4 L 939.8,258.1 L 939.3,261.1 L 938.0,264.4 L 932.9,276.1 L 930.6,283.8 L 930.3,286.4 L 930.7,288.8 L 932.3,291.3 L 938.4,297.1 L 943.9,299.5 L 952.0,301.0 L 954.9,302.4 L 957.1,305.0 L 959.3,321.6 L 960.0,330.3 L 959.3,332.9 L 957.6,335.5 L 954.0,337.9 L 948.3,338.4 L 923.6,336.5 L 918.8,337.3 L 916.5,338.8 L 914.9,341.0 L 913.2,346.9 L 911.6,350.6 L 901.2,364.1 L 897.8,371.4 L 895.1,379.3 L 894.9,383.8 L 896.3,394.3 L 895.9,403.1 L 896.2,420.2 L 895.4,422.4 L 890.6,428.5 L 887.4,431.4 L 882.1,433.8 L 869.6,437.1 L 865.5,439.9 L 853.1,452.9 L 848.1,459.9 L 839.0,478.7 L 833.7,485.1 L 829.0,488.9 L 823.7,491.3 L 818.0,495.1 L 811.2,500.5 L 804.7,503.1 L 795.2,505.0 L 786.8,507.3 L 764.2,515.4 L 754.1,516.9 L 748.7,516.6 L 744.8,515.0 L 736.9,508.5 L 731.0,504.1 L 728.4,503.1 L 725.8,502.9 L 722.5,503.5 L 715.5,507.6 L 699.8,518.6 L 698.3,520.5 L 697.6,522.4 L 697.6,524.5 L 698.4,526.7 L 702.3,531.5 L 707.8,536.6 L 714.5,540.1 L 739.0,548.6 L 742.5,550.3 L 744.6,552.7 L 749.5,560.5 L 753.1,573.6 L 753.2,578.8 L 752.4,583.0 L 750.5,587.5 L 747.9,591.1 L 744.7,594.3 L 720.0,608.1 L 645.2,653.3 L 571.1,698.9 L 480.4,756.1 L 464.1,766.9 L 458.6,772.3 L 429.3,808.0 L 425.6,813.6 L 422.3,820.4 L 418.5,827.1 L 404.5,841.1 L 402.1,844.1 L 400.2,848.0 L 398.7,851.9 L 396.6,854.1 L 393.3,854.7 L 388.0,853.9 L 384.8,854.6 L 376.2,860.2 L 374.1,860.8 L 371.8,860.0 L 360.9,851.5 L 354.3,844.6 L 348.2,836.0 L 346.5,834.2 L 345.3,833.6 L 344.4,833.3 L 343.6,833.3 L 342.7,833.5 L 341.0,834.6 L 338.9,837.0 L 330.2,852.9 L 325.3,858.1 L 319.3,862.0 L 307.8,867.1 L 303.7,867.5 L 298.8,866.6 L 282.6,858.4 Z" fill="none" stroke="currentColor" stroke-width="10" stroke-linejoin="round" stroke-linecap="round"/></svg>