<svg xmlns="http://www.w3.org/2000/svg" viewBox="0 0 1000 1000" role="img" aria-label="Nürburgring track outline"><path d="M 226.6 505.0 L 229.7 495.3 L 234.0 481.3 L 237.0 471.8 L 237.8 467.8 L 238.2 465.7 L 238.3 463.9 L 238.3 461.9 L 238.1 460.1 L 237.7 458.5 L 237.3 457.0 L 236.4 454.9 L 235.2 452.4 L 233.6 450.4 L 232.0 448.3 L 230.4 446.6 L 228.5 445.1 L 226.1 443.7 L 224.1 442.7 L 214.7 438.6 L 159.0 414.1 L 152.2 411.1 L 149.2 409.4 L 146.3 407.3 L 144.2 405.4 L 142.4 403.5 L 140.8 401.5 L 139.2 398.7 L 137.7 395.7 L 136.8 393.4 L 135.9 389.8 L 134.9 385.6 L 134.5 380.7 L 134.4 375.7 L 134.5 372.0 L 134.9 368.6 L 135.6 365.7 L 136.6 363.3 L 138.0 360.6 L 140.1 357.3 L 142.7 353.5 L 144.5 351.3 L 151.4 342.9 L 169.6 320.9 L 211.1 271.4 L 252.1 221.2 L 261.9 209.2 L 266.4 203.7 L 270.8 198.3 L 276.5 192.3 L 282.3 187.0 L 285.5 184.3 L 288.8 182.0 L 293.1 179.5 L 298.8 176.5 L 305.1 173.8 L 309.4 172.2 L 313.8 170.8 L 319.2 169.4 L 331.5 166.2 L 431.4 139.7 L 448.4 135.3 L 540.2 111.0 L 543.9 110.0 L 556.4 106.7 L 559.5 105.6 L 561.7 104.3 L 563.5 102.9 L 565.0 101.2 L 566.4 99.3 L 567.9 96.7 L 568.8 94.6 L 570.0 90.8 L 572.9 82.6 L 574.0 80.2 L 575.4 77.5 L 576.7 75.1 L 578.0 73.5 L 579.5 71.9 L 580.8 70.7 L 583.5 68.6 L 588.0 65.6 L 594.8 61.9 L 597.0 61.2 L 602.5 59.4 L 622.1 54.4 L 640.1 50.3 L 675.8 42.0 L 681.8 40.8 L 686.5 40.0 L 690.0 40.0 L 692.8 40.6 L 696.2 41.6 L 699.3 43.0 L 702.4 44.4 L 705.3 46.2 L 708.3 49.4 L 711.6 53.2 L 713.6 56.3 L 715.2 61.1 L 715.8 65.9 L 715.9 69.5 L 715.8 73.2 L 715.7 74.7 L 715.3 77.9 L 714.0 81.8 L 713.3 83.9 L 711.6 86.9 L 709.6 89.7 L 708.7 91.0 L 705.2 95.0 L 693.8 106.8 L 618.7 184.1 L 598.7 204.3 L 515.8 288.3 L 497.8 306.6 L 444.9 360.8 L 437.1 368.8 L 423.3 381.7 L 407.2 395.8 L 384.5 413.4 L 364.0 427.0 L 346.6 438.1 L 342.8 440.0 L 341.1 440.5 L 339.6 440.8 L 338.0 440.6 L 336.5 440.0 L 335.1 439.0 L 333.9 437.7 L 332.7 436.0 L 332.0 434.6 L 331.2 432.3 L 330.8 429.8 L 331.0 427.4 L 334.1 413.7 L 336.5 406.4 L 339.2 399.5 L 342.1 392.9 L 350.3 378.3 L 354.9 370.6 L 357.7 365.0 L 359.7 360.6 L 360.6 357.6 L 361.2 354.4 L 361.3 349.0 L 361.1 344.4 L 359.7 338.6 L 357.9 333.6 L 355.4 329.2 L 352.7 325.4 L 348.6 321.4 L 344.6 318.5 L 339.9 315.9 L 335.6 314.7 L 330.6 313.7 L 325.1 313.4 L 318.3 313.7 L 300.5 316.1 L 283.2 319.3 L 270.0 322.6 L 260.4 325.7 L 253.1 328.4 L 247.0 331.1 L 242.8 333.7 L 240.3 335.6 L 237.7 338.3 L 235.1 341.1 L 233.2 343.8 L 231.9 346.5 L 230.9 348.9 L 230.4 350.7 L 229.9 352.8 L 229.8 354.1 L 229.9 355.4 L 230.1 356.7 L 230.7 358.7 L 231.7 361.4 L 232.8 364.2 L 233.7 365.7 L 235.7 367.9 L 238.8 370.4 L 242.5 372.7 L 244.9 373.8 L 246.9 374.5 L 248.7 374.9 L 251.0 374.9 L 267.2 374.1 L 271.3 374.0 L 275.5 374.4 L 279.4 375.0 L 281.6 375.6 L 283.4 376.5 L 285.0 377.6 L 286.8 379.1 L 287.7 380.1 L 288.4 381.5 L 289.1 383.4 L 289.6 385.8 L 290.2 390.0 L 290.6 395.0 L 290.6 398.9 L 286.5 432.3 L 284.7 448.2 L 277.7 487.2 L 276.4 495.6 L 272.3 517.7 L 271.8 520.3 L 269.9 527.7 L 264.5 544.7 L 260.3 558.1 L 252.4 582.8 L 249.7 591.7 L 236.2 634.2 L 234.9 638.2 L 234.2 642.0 L 233.5 647.0 L 233.4 651.7 L 233.6 654.8 L 234.1 657.5 L 234.9 660.7 L 235.9 663.7 L 237.2 666.9 L 238.9 670.2 L 240.3 672.2 L 242.1 674.7 L 243.8 676.7 L 246.2 679.2 L 248.8 681.4 L 251.7 683.5 L 256.2 686.2 L 290.7 702.9 L 298.4 706.6 L 300.6 708.0 L 303.2 710.2 L 305.9 712.7 L 307.4 714.5 L 308.7 716.3 L 309.7 718.5 L 310.4 720.8 L 310.9 724.1 L 311.0 726.9 L 310.9 729.9 L 310.4 733.0 L 309.6 735.4 L 308.3 738.4 L 306.5 741.3 L 304.4 744.1 L 301.2 747.2 L 299.3 748.7 L 296.9 750.4 L 292.5 752.8 L 285.3 756.7 L 254.9 773.2 L 243.7 779.4 L 237.8 783.0 L 233.8 785.4 L 224.5 791.3 L 215.4 797.2 L 208.7 801.9 L 191.4 815.3 L 182.5 822.7 L 171.5 832.2 L 160.0 842.9 L 147.8 855.7 L 143.2 860.8 L 132.9 873.6 L 121.2 888.8 L 115.9 895.8 L 108.7 906.3 L 102.3 916.8 L 97.8 924.7 L 87.5 943.0 L 83.1 949.7 L 80.9 952.5 L 78.2 955.2 L 76.4 956.6 L 74.7 957.6 L 72.1 958.7 L 69.7 959.3 L 67.3 959.7 L 64.7 960.0 L 62.3 959.9 L 60.1 959.4 L 57.1 958.7 L 53.8 957.5 L 50.7 955.9 L 48.8 954.7 L 47.5 953.7 L 46.2 952.4 L 45.3 951.0 L 44.0 949.5 L 42.9 947.5 L 41.9 945.5 L 40.9 942.2 L 40.4 939.4 L 40.0 936.8 L 40.0 933.4 L 40.2 930.8 L 41.0 927.7 L 41.7 925.6 L 42.7 923.7 L 43.7 921.9 L 45.0 920.0 L 46.9 918.0 L 48.5 916.5 L 61.0 904.2 L 81.8 883.3 L 110.4 854.7 L 138.4 826.6 L 161.7 803.3 L 165.7 798.9 L 168.3 795.5 L 169.5 793.4 L 171.0 790.4 L 172.4 786.8 L 173.6 783.2 L 174.9 778.9 L 176.0 774.3 L 176.8 769.4 L 177.2 763.6 L 176.9 755.9 L 176.3 750.4 L 175.4 745.7 L 172.7 737.4 L 170.4 730.1 L 169.3 726.7 L 167.9 720.7 L 167.0 715.9 L 166.4 712.3 L 166.2 708.9 L 166.1 705.6 L 166.3 702.0 L 166.6 698.5 L 167.0 695.1 L 167.9 691.5 L 169.2 686.3 L 175.6 665.2 L 182.9 642.6 L 205.1 576.2 L 211.1 556.9 L 215.1 542.7 L 218.0 532.4 L 218.5 530.3 L 226.6 505.0 L 226.6 505.0 Z" fill="none" stroke="currentColor" stroke-width="10" stroke-linejoin="round" stroke-linecap="round"/></svg>