<svg xmlns="http://www.w3.org/2000/svg" viewBox="0 0 1000 1000" role="img" aria-label="Circuit Paul Ricard track outline"><path d="M 890.1 474.9 L 894.3 476.6 L 898.4 478.4 L 902.2 480.3 L 905.6 482.3 L 909.5 484.8 L 913.0 487.5 L 916.6 490.6 L 920.1 494.0 L 923.3 497.2 L 926.4 500.4 L 929.6 503.9 L 932.7 507.3 L 935.3 510.1 L 938.2 513.7 L 941.1 517.4 L 943.8 521.3 L 946.0 525.4 L 948.4 530.6 L 934.1 496.7 L 932.8 494.0 L 931.9 492.5 L 930.5 491.0 L 929.0 489.8 L 927.0 488.7 L 924.8 487.7 L 890.1 474.9 L 517.0 335.1 L 331.8 266.3 L 291.3 251.0 L 252.6 236.8 L 124.2 188.6 L 121.9 188.1 L 119.9 188.0 L 117.8 188.1 L 115.9 188.8 L 114.3 189.7 L 113.0 191.0 L 112.0 192.4 L 111.0 194.1 L 109.6 196.3 L 108.2 198.5 L 106.5 200.4 L 104.2 202.6 L 101.1 204.5 L 96.7 206.7 L 91.6 209.1 L 87.0 211.6 L 82.6 214.3 L 77.5 217.8 L 71.5 222.1 L 69.5 223.6 L 44.3 240.3 L 43.2 241.1 L 42.2 242.4 L 41.4 243.9 L 40.9 245.2 L 40.5 246.5 L 40.2 247.7 L 40.0 249.3 L 40.2 251.1 L 40.6 252.9 L 41.1 254.4 L 41.7 255.3 L 43.5 257.5 L 47.1 260.2 L 125.5 319.9 L 320.9 467.6 L 331.5 475.7 L 455.7 571.4 L 489.5 596.7 L 504.6 608.1 L 507.8 610.3 L 511.6 612.3 L 512.8 612.8 L 514.0 613.1 L 515.3 613.2 L 516.6 613.2 L 518.0 613.1 L 519.2 612.7 L 520.2 612.2 L 521.4 611.3 L 522.3 610.5 L 523.2 609.7 L 523.9 608.7 L 524.4 607.7 L 524.9 606.5 L 525.4 604.2 L 525.7 601.9 L 525.9 598.9 L 526.3 584.8 L 526.7 555.6 L 526.9 550.6 L 527.4 546.0 L 527.9 544.0 L 528.5 542.2 L 530.1 538.9 L 532.0 535.6 L 534.4 532.2 L 536.4 529.7 L 537.5 528.5 L 538.7 527.4 L 541.9 524.8 L 546.5 521.2 L 551.6 517.9 L 557.1 515.3 L 560.1 513.8 L 562.8 512.8 L 565.6 512.0 L 570.7 511.1 L 576.0 510.7 L 582.1 510.6 L 586.9 511.1 L 591.3 511.8 L 595.4 512.8 L 599.6 514.3 L 603.6 516.1 L 607.2 518.1 L 611.5 521.0 L 615.4 524.2 L 619.4 527.8 L 622.6 531.1 L 626.9 535.5 L 630.7 539.7 L 636.3 545.1 L 642.9 551.1 L 650.0 557.4 L 657.1 563.1 L 664.4 568.2 L 671.2 572.4 L 677.6 575.8 L 684.5 579.1 L 692.4 582.5 L 699.6 585.2 L 706.6 587.2 L 714.2 589.2 L 720.5 590.5 L 727.2 591.7 L 733.2 592.5 L 739.4 593.0 L 746.6 593.3 L 754.6 593.5 L 761.9 593.2 L 769.8 592.7 L 777.4 592.0 L 784.7 591.0 L 792.2 589.6 L 799.1 588.1 L 805.3 586.7 L 810.9 585.1 L 816.8 583.1 L 822.9 580.6 L 828.9 578.1 L 836.7 574.4 L 844.2 570.3 L 849.5 567.1 L 854.5 564.1 L 858.1 562.0 L 860.9 560.6 L 863.1 559.6 L 866.3 558.3 L 869.3 557.4 L 872.0 556.8 L 874.4 556.5 L 877.7 556.3 L 880.1 556.4 L 882.5 556.8 L 885.1 557.3 L 887.3 558.0 L 889.6 558.8 L 891.6 559.8 L 893.4 560.8 L 895.4 562.3 L 897.7 564.4 L 899.9 566.7 L 902.0 569.3 L 904.3 572.6 L 906.3 576.6 L 908.1 580.9 L 909.3 585.1 L 910.0 589.2 L 910.4 594.8 L 910.6 599.8 L 911.0 606.2 L 911.0 609.0 L 911.2 611.0 L 911.6 613.6 L 912.7 616.6 L 914.0 619.6 L 915.4 622.3 L 916.8 624.6 L 918.7 627.2 L 920.6 629.1 L 923.0 631.1 L 939.8 643.5 L 941.8 644.7 L 943.4 645.4 L 945.3 645.8 L 947.2 646.0 L 949.4 646.0 L 951.8 645.7 L 953.8 645.0 L 955.4 644.1 L 956.7 642.8 L 958.0 641.1 L 958.8 639.2 L 959.4 636.6 L 960.0 632.7 L 959.2 732.2 L 959.3 737.2 L 959.2 741.3 L 958.9 745.1 L 958.4 749.6 L 957.7 753.4 L 956.8 758.1 L 955.6 762.5 L 954.1 766.6 L 952.0 770.6 L 949.9 774.8 L 946.9 779.8 L 944.2 783.7 L 941.7 787.2 L 939.5 789.7 L 936.7 792.4 L 933.1 795.7 L 930.4 798.1 L 927.6 800.1 L 924.2 802.3 L 921.3 803.8 L 917.5 805.8 L 913.3 807.4 L 907.7 809.1 L 901.4 810.5 L 894.9 811.5 L 887.6 812.0 L 880.8 811.7 L 873.3 810.5 L 867.3 809.1 L 861.4 806.9 L 855.1 803.8 L 849.0 800.1 L 842.4 795.3 L 837.4 790.9 L 834.0 787.1 L 831.1 783.5 L 828.1 779.5 L 825.7 775.5 L 823.9 771.7 L 823.0 768.7 L 822.6 765.9 L 822.5 763.4 L 822.5 760.8 L 822.8 757.6 L 823.6 752.8 L 825.1 747.6 L 827.0 742.3 L 829.1 737.2 L 832.8 729.9 L 837.3 721.8 L 842.5 713.1 L 846.8 706.0 L 851.7 698.8 L 857.8 690.9 L 890.2 647.3 L 895.4 640.5 L 897.9 637.2 L 900.1 633.8 L 902.1 630.4 L 903.9 627.2 L 905.8 623.8 L 907.2 620.3 L 908.5 616.4 L 909.4 612.3 L 911.0 606.2" fill="none" stroke="currentColor" stroke-width="10" stroke-linejoin="round" stroke-linecap="round"/></svg>