<svg xmlns="http://www.w3.org/2000/svg" viewBox="0 0 1000 1000" role="img" aria-label="Circuit Paul Ricard track outline"><path d="M 930.1,487.5 L 929.9,483.6 L 929.8,480.6 L 929.5,477.2 L 929.1,474.7 L 928.3,472.2 L 927.3,469.5 L 926.0,467.1 L 924.6,465.1 L 923.4,463.5 L 922.0,462.1 L 920.6,460.8 L 919.4,459.9 L 918.3,459.3 L 917.1,458.7 L 915.7,458.2 L 914.4,457.8 L 912.8,457.4 L 911.3,457.2 L 909.8,457.1 L 907.8,457.2 L 906.4,457.4 L 904.7,457.8 L 902.9,458.3 L 900.9,459.1 L 899.6,459.8 L 897.9,460.6 L 895.7,461.9 L 930.1,487.5 L 929.2,491.3 L 928.6,493.7 L 927.8,496.2 L 926.9,498.3 L 925.8,500.4 L 924.7,502.3 L 923.5,504.4 L 922.2,506.5 L 920.6,508.4 L 917.4,512.6 L 897.7,539.2 L 894.0,544.0 L 891.0,548.4 L 888.4,552.7 L 885.2,558.0 L 882.5,563.0 L 880.2,567.4 L 878.9,570.5 L 877.8,573.7 L 876.9,576.9 L 876.4,579.8 L 876.2,581.8 L 876.2,583.4 L 876.2,584.9 L 876.5,586.6 L 877.1,588.4 L 878.2,590.7 L 879.6,593.2 L 881.4,595.6 L 883.2,597.8 L 885.3,600.1 L 888.3,602.8 L 892.3,605.8 L 896.0,608.0 L 899.9,609.9 L 903.5,611.3 L 907.1,612.1 L 911.8,612.8 L 915.9,613.0 L 920.3,612.7 L 924.3,612.1 L 928.1,611.2 L 931.6,610.2 L 934.1,609.2 L 936.4,608.0 L 938.2,607.1 L 940.2,605.8 L 941.9,604.5 L 943.6,603.1 L 945.8,601.1 L 947.5,599.4 L 948.8,597.9 L 950.4,595.8 L 952.0,593.4 L 953.8,590.3 L 955.1,587.8 L 956.4,585.4 L 957.3,582.9 L 958.1,580.2 L 958.6,577.3 L 959.0,575.0 L 959.3,572.2 L 959.5,569.9 L 959.6,567.4 L 959.5,564.4 L 960.0,503.7 L 959.8,475.7 L 959.7,473.1 L 959.5,469.8 L 959.3,466.9 L 959.0,464.2 L 958.5,461.2 L 957.8,457.9 L 957.1,454.8 L 956.1,451.2 L 955.1,447.6 L 954.0,444.5 L 952.9,441.5 L 951.5,438.3 L 950.1,435.8 L 948.5,433.4 L 946.7,431.1 L 944.9,429.0 L 943.3,427.2 L 941.5,425.2 L 939.5,423.1 L 937.6,421.1 L 935.7,419.2 L 933.5,417.1 L 931.4,415.2 L 929.2,413.6 L 926.8,412.0 L 924.8,410.8 L 922.5,409.7 L 920.0,408.5 L 917.4,407.5 L 690.0,322.3 L 577.1,280.3 L 552.4,271.1 L 528.8,262.4 L 450.6,233.0 L 434.3,227.0 L 420.5,221.7 L 357.8,198.4 L 356.9,198.0 L 264.2,163.5 L 244.7,156.2 L 149.1,120.3 L 145.1,118.8 L 141.4,117.1 L 138.4,115.4 L 136.2,113.9 L 134.5,112.5 L 132.7,110.6 L 131.6,109.0 L 130.6,107.3 L 129.4,105.3 L 128.5,103.4 L 127.4,100.9 L 124.7,94.4 L 122.0,87.9 L 119.3,81.4 L 115.6,74.4 L 111.7,68.1 L 108.6,63.7 L 104.7,59.3 L 100.5,55.2 L 96.7,51.9 L 92.4,48.7 L 88.2,46.0 L 85.0,44.1 L 81.9,42.6 L 79.6,41.6 L 77.5,40.9 L 75.7,40.4 L 74.1,40.1 L 72.1,40.0 L 69.2,40.2 L 66.2,40.7 L 63.7,41.5 L 61.4,42.3 L 58.7,44.0 L 57.3,44.9 L 55.6,46.5 L 54.6,47.8 L 53.4,49.4 L 52.7,50.7 L 52.1,52.3 L 51.3,54.5 L 46.9,67.1 L 42.0,81.2 L 41.4,82.8 L 41.0,83.9 L 40.5,85.3 L 40.1,86.5 L 40.0,87.4 L 40.0,88.0 L 40.3,89.0 L 40.6,89.7 L 41.1,90.6 L 41.7,91.2 L 42.4,91.7 L 43.3,92.1 L 44.5,92.5 L 46.0,92.7 L 47.6,92.7 L 49.5,92.5 L 72.7,89.9 L 74.5,89.7 L 76.3,89.7 L 77.9,89.9 L 79.5,90.1 L 81.4,90.3 L 83.0,90.6 L 84.4,91.2 L 86.1,91.8 L 87.7,92.6 L 89.4,93.8 L 90.9,94.9 L 92.5,96.2 L 93.7,97.4 L 94.9,98.9 L 96.1,100.8 L 97.1,102.9 L 97.8,105.0 L 98.3,106.9 L 98.4,108.9 L 98.4,110.9 L 98.2,112.7 L 96.8,122.1 L 96.5,124.7 L 96.4,126.1 L 96.4,127.5 L 96.6,129.2 L 96.8,130.7 L 97.3,132.3 L 97.9,133.7 L 98.7,135.2 L 99.6,136.4 L 100.4,137.4 L 101.4,138.3 L 102.4,139.1 L 105.0,141.1 L 108.4,143.3 L 112.1,145.6 L 116.1,147.9 L 119.7,150.1 L 123.9,152.7 L 130.6,156.5 L 138.6,160.9 L 146.8,165.1 L 154.2,168.5 L 160.9,171.2 L 166.7,173.4 L 171.5,175.2 L 175.1,176.6 L 178.3,178.0 L 181.5,179.5 L 184.6,181.3 L 187.6,182.9 L 190.6,184.6 L 193.3,186.2 L 196.6,188.2 L 200.3,190.5 L 202.3,191.9 L 204.3,193.3 L 208.6,196.3 L 212.9,199.4 L 232.5,214.5 L 239.9,220.1 L 243.9,223.4 L 246.6,225.8 L 249.8,228.9 L 252.5,231.7 L 255.8,235.3 L 259.0,238.4 L 262.4,241.6 L 265.6,244.1 L 267.5,245.4 L 269.6,246.7 L 273.1,248.5 L 296.1,260.5 L 298.4,261.6 L 300.4,262.3 L 302.5,262.8 L 304.7,263.0 L 307.8,263.0 L 310.7,262.8 L 313.4,262.3 L 315.6,261.8 L 317.6,261.0 L 319.9,259.8 L 323.3,257.5 L 343.0,242.7 L 344.2,242.2 L 345.3,241.7 L 346.4,241.4 L 347.8,241.1 L 350.2,241.0 L 352.8,241.2 L 355.6,241.8 L 358.0,242.9 L 363.9,246.4 L 379.8,258.4 L 401.4,275.0 L 403.5,276.6 L 451.3,313.1 L 570.4,403.1 L 576.9,408.0 L 652.6,466.4 L 673.2,481.7 L 682.4,488.7 L 684.4,490.0 L 686.6,491.3 L 687.4,491.6 L 688.2,491.8 L 688.9,491.9 L 689.7,491.9 L 690.6,491.7 L 691.3,491.5 L 691.9,491.2 L 692.6,490.7 L 693.2,490.2 L 693.7,489.7 L 694.2,489.1 L 694.5,488.5 L 694.8,487.7 L 695.1,486.3 L 695.3,485.0 L 695.4,483.1 L 695.6,474.5 L 695.9,456.7 L 696.0,453.7 L 696.3,450.9 L 696.6,449.6 L 697.0,448.6 L 698.0,446.5 L 699.1,444.5 L 700.6,442.4 L 701.8,440.9 L 702.5,440.2 L 703.2,439.5 L 705.2,437.9 L 708.0,435.7 L 711.1,433.7 L 714.4,432.1 L 716.2,431.3 L 717.9,430.6 L 719.6,430.1 L 722.7,429.6 L 725.9,429.4 L 729.6,429.3 L 732.6,429.6 L 735.3,430.0 L 737.7,430.6 L 740.3,431.6 L 742.8,432.6 L 745.0,433.9 L 747.6,435.6 L 749.9,437.6 L 752.4,439.8 L 754.3,441.8 L 756.9,444.5 L 759.3,447.0 L 762.7,450.3 L 766.7,454.0 L 771.0,457.8 L 775.3,461.3 L 779.8,464.4 L 783.9,467.0 L 787.9,469.0 L 792.1,471.1 L 796.9,473.1 L 801.3,474.7 L 805.6,476.0 L 810.2,477.2 L 814.0,478.0 L 818.1,478.7 L 821.8,479.2 L 825.5,479.5 L 829.9,479.7 L 834.8,479.8 L 839.2,479.6 L 844.1,479.3 L 848.7,478.9 L 853.2,478.3 L 857.7,477.4 L 861.9,476.5 L 865.7,475.6 L 869.1,474.7 L 872.7,473.5 L 876.4,471.9 L 880.1,470.4 L 884.8,468.1 L 889.4,465.7 L 892.6,463.7 L 895.7,461.9" fill="none" stroke="currentColor" stroke-width="10" stroke-linejoin="round" stroke-linecap="round"/></svg>