<svg xmlns="http://www.w3.org/2000/svg" viewBox="0 0 1000 1000" role="img" aria-label="Pescara Circuit track outline"><path d="M 450.5 951.7 L 396.2 903.4 L 336.6 855.1 L 285.3 812.9 L 245.3 775.1 L 218.1 746.4 L 208.3 721.5 L 203.6 706.8 L 206.8 686.8 L 213.5 666.5 L 227.9 623.4 L 252.8 538.1 L 295.1 421.9 L 344.1 301.9 L 379.6 240.8 L 440.7 212.9 L 489.8 201.6 L 529.8 167.6 L 559.2 120.8 L 575.8 72.5 L 585.2 54.7 L 598.4 40.8 L 612.4 40.0 L 626.3 48.4 L 652.0 85.4 L 679.2 142.7 L 682.6 180.9 L 680.7 215.1 L 636.9 354.0 L 610.5 395.5 L 595.4 442.3 L 544.1 475.5 L 506.4 501.2 L 476.9 526.1 L 458.1 555.5 L 436.2 597.0 L 420.3 641.5 L 413.6 672.5 L 418.9 688.5 L 430.9 696.6 L 445.3 693.3 L 455.8 680.8 L 496.6 625.7 L 519.9 572.9 L 547.1 540.4 L 592.4 514.0 L 671.6 508.0 L 711.6 521.6 L 740.3 544.9 L 766.7 568.3 L 790.1 601.5 L 796.4 614.8 L 790.9 627.9 L 777.8 641.3 L 766.0 641.5 L 719.2 609.1 L 696.0 597.4 L 670.1 596.3 L 641.5 604.8 L 618.0 621.2 L 598.4 650.6 L 584.9 693.6 L 559.2 729.1 L 547.1 762.3 L 508.4 784.3 L 467.1 787.9 L 418.1 767.6 L 359.2 729.1 L 317.7 685.3 L 324.5 631.0 L 363.7 529.1 L 394.7 452.1 L 449.0 372.9 L 473.2 347.2 L 495.8 337.4 L 518.4 335.2 L 534.3 349.5 L 559.2 357.8 L 577.2 356.8 L 593.9 342.7 L 610.5 308.0 L 621.1 270.2 L 617.5 247.5 L 606.0 223.4 L 594.7 207.3 L 583.3 203.1 L 544.9 218.9 L 504.9 236.3 L 430.9 286.1 L 385.6 357.0 L 326.8 505.7 L 293.6 580.4 L 277.7 642.3 L 258.8 706.4 L 266.1 738.4 L 285.3 758.5 L 335.0 788.7 L 373.6 821.2 L 427.1 855.1 L 458.8 874.0 L 476.4 888.7 L 487.5 903.4 L 496.6 929.8 L 489.0 948.7 L 470.2 960.0 L 450.5 951.7 Z" fill="none" stroke="currentColor" stroke-width="10" stroke-linejoin="round" stroke-linecap="round"/></svg>