<svg xmlns="http://www.w3.org/2000/svg" viewBox="0 0 1000 1000" role="img" aria-label="Phakisa Freeway track outline"><path d="M40.0,299.9 L 86.3,744.8 L 90.2,764.3 L 99.7,786.7 L 111.5,804.0 L 118.2,811.2 L 232.6,909.5 L 247.7,916.2 L 271.7,921.2 L 292.9,921.2 L 311.9,916.7 L 333.6,907.2 L 353.7,888.8 L 367.7,865.4 L 415.7,768.8 L 433.0,742.0 L 447.0,721.9 L 481.3,683.5 L 532.4,626.5 L 548.2,601.9 L 577.0,553.3 L 635.1,443.4 L 653.5,427.7 L 673.6,421.0 L 692.0,421.6 L 700.4,425.5 L 712.1,435.5 L 830.5,568.4 L 854.5,586.8 L 879.6,596.3 L 903.6,597.4 L 925.9,591.3 L 942.7,579.6 L 956.1,563.9 L 960.0,548.9 L 960.0,528.8 L 954.4,515.4 L 942.1,497.5 L 697.6,212.2 L 685.3,201.6 L 668.6,196.0 L 654.6,195.5 L 639.6,198.8 L 624.5,205.5 L 613.3,215.0 L 603.8,230.6 L 588.8,275.3 L 572.0,316.1 L 554.7,347.3 L 541.3,367.4 L 524.3,386.4 L 516.7,394.8 L 455.9,441.1 L 433.6,460.1 L 408.4,488.0 L 386.1,522.1 L 371.0,552.8 L 361.3,580.4 L 305.7,737.5 L 289.5,758.8 L 271.1,774.4 L 247.7,785.6 L 224.2,786.7 L 200.8,778.9 L 181.2,768.8 L 159.5,746.5 L 150.5,729.2 L 145.0,709.6 L 100.8,298.8 L 102.5,279.2 L 108.7,261.4 L 123.2,242.4 L 147.7,226.7 L 172.9,219.5 L 191.3,219.5 L 310.4,240.3 L 382.8,253.0 L 398.4,250.7 L 414.0,243.5 L 423.5,231.2 L 427.4,213.9 L 427.4,197.7 L 424.4,187.4 L 416.8,174.3 L 335.3,103.9 L 315.2,90.5 L 284.5,81.0 L 261.1,78.8 L 242.1,78.8 L 222.0,83.3 L 199.1,91.1 L 187.4,96.7 L 106.4,154.2 L 83.5,176.5 L 67.3,199.9 L 51.7,236.8 L 44.5,263.0 L 40.0,299.9 Z" fill="none" stroke="currentColor" stroke-width="10" stroke-linejoin="round" stroke-linecap="round"/></svg>