<svg xmlns="http://www.w3.org/2000/svg" viewBox="0 0 1000 1000" role="img" aria-label="Phillip Island Grand Prix Circuit track outline"><path d="M459.1,40.9 L 449.3,40.3 L 437.0,40.0 L 426.4,40.2 L 405.9,41.8 L 387.9,44.4 L 378.0,46.7 L 366.9,50.0 L 356.7,53.4 L 347.7,57.8 L 339.6,62.4 L 333.4,66.8 L 327.3,72.2 L 320.8,79.1 L 315.6,86.0 L 310.3,94.1 L 306.5,101.7 L 303.8,109.0 L 301.4,116.5 L 299.1,125.6 L 298.0,133.5 L 298.0,140.4 L 298.0,150.9 L 299.0,162.5 L 300.2,172.9 L 302.3,183.2 L 304.8,192.6 L 309.1,206.8 L 315.2,224.4 L 395.6,462.9 L 406.9,496.2 L 413.9,517.1 L 451.8,629.1 L 458.5,646.9 L 462.6,658.4 L 465.0,665.7 L 467.5,675.0 L 469.3,684.1 L 470.7,694.1 L 471.5,704.7 L 471.8,714.8 L 471.8,724.5 L 470.8,733.1 L 467.5,747.0 L 463.9,757.5 L 459.7,766.7 L 452.8,776.9 L 447.1,783.9 L 440.8,790.4 L 432.5,798.0 L 424.1,804.2 L 367.9,838.5 L 352.0,848.2 L 339.5,858.1 L 334.5,862.7 L 330.7,867.7 L 327.7,872.2 L 324.4,879.4 L 321.9,884.6 L 320.2,891.5 L 319.1,896.9 L 318.5,902.6 L 319.1,908.5 L 320.1,914.4 L 321.9,920.9 L 323.8,925.9 L 326.3,931.0 L 330.0,936.9 L 333.9,942.1 L 338.6,947.1 L 343.9,951.3 L 349.1,954.4 L 355.1,957.2 L 363.3,959.3 L 369.4,960.0 L 375.9,960.0 L 382.0,959.1 L 389.2,957.7 L 396.6,955.7 L 402.9,953.2 L 408.6,950.4 L 413.2,946.9 L 424.1,938.0 L 428.8,932.6 L 445.6,917.0 L 520.4,833.0 L 538.4,811.6 L 542.5,805.0 L 550.3,793.9 L 554.7,786.7 L 558.6,778.5 L 562.8,769.0 L 567.1,757.0 L 570.0,746.6 L 572.3,734.0 L 573.0,724.8 L 572.8,714.9 L 572.0,702.2 L 571.3,691.3 L 570.1,680.6 L 569.0,671.8 L 566.6,656.5 L 557.0,610.2 L 546.6,563.1 L 547.4,555.0 L 548.4,550.9 L 549.8,548.1 L 552.4,544.4 L 555.3,542.4 L 559.7,540.9 L 564.4,540.4 L 569.9,540.9 L 573.4,542.2 L 577.8,544.8 L 582.8,549.8 L 586.6,556.4 L 604.5,584.5 L 608.4,590.7 L 611.6,596.1 L 614.2,601.1 L 617.5,608.5 L 619.0,613.4 L 629.0,644.3 L 631.1,648.3 L 633.7,652.9 L 637.9,658.5 L 642.5,663.2 L 648.7,667.9 L 654.8,670.8 L 659.4,671.8 L 666.4,671.9 L 675.6,670.5 L 683.8,666.7 L 690.3,660.4 L 694.6,654.9 L 697.3,650.2 L 699.4,643.6 L 700.1,637.8 L 701.1,628.4 L 701.6,622.9 L 702.0,598.2 L 701.6,570.3 L 700.9,557.0 L 699.7,542.1 L 698.3,534.3 L 696.2,525.7 L 694.3,519.6 L 691.5,510.3 L 688.0,500.7 L 685.6,495.3 L 658.0,434.4 L 655.0,426.0 L 651.9,416.9 L 649.8,407.6 L 648.3,397.6 L 647.8,390.9 L 647.7,383.1 L 648.8,374.9 L 650.3,366.7 L 651.9,361.2 L 655.4,350.7 L 660.1,339.1 L 668.9,319.4 L 688.5,273.2 L 690.5,265.1 L 693.1,255.4 L 694.3,246.7 L 694.9,241.2 L 695.2,226.0 L 695.2,220.1 L 694.6,215.7 L 693.4,210.1 L 691.5,204.5 L 689.0,198.2 L 686.1,192.6 L 682.5,186.3 L 677.1,180.5 L 671.5,174.9 L 665.2,169.4 L 659.0,165.5 L 652.1,161.7 L 643.8,158.7 L 636.9,156.8 L 630.6,155.5 L 624.7,154.8 L 614.6,154.9 L 606.1,155.8 L 598.1,156.7 L 589.0,158.0 L 582.0,159.5 L 559.1,165.2 L 538.4,170.4 L 533.7,171.4 L 528.1,171.6 L 524.5,171.6 L 519.8,170.6 L 516.9,169.1 L 514.0,166.3 L 512.2,163.2 L 511.1,159.9 L 510.8,155.6 L 511.0,151.1 L 511.9,147.6 L 513.4,144.7 L 524.6,126.2 L 529.5,116.1 L 531.3,110.9 L 532.7,106.1 L 533.3,100.4 L 533.4,95.9 L 533.0,90.0 L 532.4,85.9 L 531.5,82.2 L 530.2,77.9 L 528.7,74.3 L 526.8,70.9 L 524.2,67.1 L 521.3,63.5 L 518.8,60.3 L 513.5,56.0 L 507.9,52.3 L 503.0,49.8 L 498.3,47.9 L 494.0,46.1 L 485.0,43.2 L 477.1,41.8 L 470.9,41.5 L 459.1,40.9 Z" fill="none" stroke="currentColor" stroke-width="10" stroke-linejoin="round" stroke-linecap="round"/></svg>