<svg xmlns="http://www.w3.org/2000/svg" viewBox="0 0 1000 1000" role="img" aria-label="Algarve International Circuit track outline"><path d="M 688.7 732.4 L 638.7 792.7 L 634.2 796.4 L 627.1 800.2 L 621.0 801.7 L 614.1 801.9 L 607.4 800.1 L 601.4 796.5 L 596.0 791.4 L 592.4 785.9 L 590.3 779.3 L 589.7 771.4 L 590.3 764.0 L 603.3 674.4 L 607.5 680.7 L 612.5 686.3 L 652.9 721.3 L 662.7 728.0 L 671.5 732.2 L 679.2 733.5 L 688.7 732.4 L 721.2 692.3 L 727.8 686.3 L 734.6 681.9 L 741.0 679.2 L 747.6 678.0 L 755.1 678.0 L 762.8 679.5 L 769.9 682.6 L 777.2 687.5 L 784.6 694.8 L 789.3 701.3 L 793.8 707.9 L 797.7 717.0 L 800.7 726.6 L 801.9 734.0 L 802.6 742.7 L 802.4 750.6 L 801.2 758.5 L 798.8 768.7 L 795.1 776.5 L 787.8 789.0 L 782.3 796.8 L 719.1 873.5 L 694.8 887.3 L 684.8 892.1 L 674.5 895.8 L 662.6 898.7 L 650.2 900.3 L 547.3 901.8 L 512.0 902.3 L 503.0 901.9 L 494.2 900.6 L 485.4 897.7 L 475.8 893.0 L 466.5 886.7 L 460.5 880.3 L 454.6 872.2 L 450.5 864.1 L 447.3 854.9 L 402.7 697.7 L 260.1 200.5 L 244.2 149.0 L 238.3 133.3 L 231.7 115.8 L 222.9 94.4 L 210.6 66.8 L 197.4 40.0 L 273.1 298.9 L 281.5 327.6 L 350.8 570.2 L 423.2 824.7 L 428.0 841.6 L 433.0 857.4 L 438.6 872.6 L 445.0 885.2 L 450.6 893.9 L 456.5 901.8 L 466.6 913.6 L 476.1 922.6 L 492.9 925.9 L 506.1 927.0 L 654.6 922.6 L 667.5 920.6 L 680.1 917.8 L 660.1 934.3 L 643.3 944.5 L 630.2 950.1 L 613.7 955.4 L 595.0 959.1 L 577.7 960.0 L 561.3 959.5 L 548.1 957.7 L 536.1 954.8 L 523.2 950.7 L 511.0 945.2 L 498.4 939.2 L 486.7 931.8 L 476.1 922.6" fill="none" stroke="currentColor" stroke-width="10" stroke-linejoin="round" stroke-linecap="round"/></svg>