<svg xmlns="http://www.w3.org/2000/svg" viewBox="0 0 1000 1000"><path d="M277.6,275.5 L273.0,265.2 L271.2,258.0 L270.5,250.7 L271.0,243.2 L272.9,234.9 L276.3,227.6 L279.6,222.1 L328.0,165.6 L332.6,161.9 L337.9,159.7 L344.3,158.8 L349.8,159.1 L355.3,160.9 L360.4,164.0 L364.4,168.1 L367.8,173.5 L369.4,178.5 L393.8,348.4 L403.5,416.3 L406.3,427.1 L409.3,435.0 L412.3,441.2 L417.0,448.8 L422.6,455.7 L428.6,462.0 L435.9,468.1 L445.6,474.7 L452.8,478.8 L551.4,528.8 L561.1,534.7 L567.4,539.4 L573.5,545.2 L579.9,552.9 L583.5,558.4 L586.2,563.2 L588.7,568.2 L596.1,590.8 L597.4,597.0 L597.3,604.2 L596.1,609.5 L594.0,613.9 L590.6,617.2 L586.2,620.7 L581.0,623.7 L464.1,658.9 L456.4,662.3 L449.6,666.4 L443.1,671.1 L436.6,676.7 L430.6,682.9 L425.3,690.1 L421.7,696.3 L417.9,704.8 L414.6,715.1 L412.2,727.3 L410.3,740.2 L399.0,818.1 L398.5,824.6 L398.9,831.4 L400.7,837.2 L403.9,842.0 L408.6,846.4 L413.9,849.6 L419.7,851.1 L425.7,851.0 L430.9,849.6 L437.2,846.3 L441.0,843.1 L484.6,790.6 L512.9,755.7 L518.6,750.5 L524.5,746.7 L530.1,744.4 L535.9,743.3 L542.4,743.3 L549.0,744.6 L555.3,747.3 L561.6,751.6 L568.0,758.0 L572.2,763.6 L576.1,769.3 L579.5,777.2 L582.0,785.6 L583.1,792.0 L583.7,799.6 L583.5,806.5 L582.5,813.4 L580.4,822.2 L577.2,829.0 L570.8,839.9 L566.0,846.7 L511.1,913.4 L494.3,933.5 L477.1,952.0 L466.2,954.4 L454.9,956.1 L325.7,960.0 L314.2,959.1 L299.6,956.1 L291.3,948.4 L282.5,938.1 L277.4,931.2 L272.5,923.6 L267.0,912.7 L262.0,899.4 L257.7,885.6 L253.5,871.0 L190.5,649.5 L130.2,438.4 L122.9,413.4 L57.0,188.1 L41.0,131.8 L40.0,125.7 L40.1,120.6 L42.0,115.6 L47.6,109.9 L53.1,106.1 L61.7,109.2 L74.6,114.6 L82.5,118.1 L87.0,119.0 L91.8,118.8 L96.4,117.4 L99.8,114.8 L102.4,111.0 L106.6,102.0 L125.3,52.2 L136.7,44.8 L140.8,42.7 L145.2,41.1 L152.4,40.0 L161.9,41.1 L257.2,64.5 L264.4,67.6 L268.0,70.5 L270.9,75.5 L271.9,80.9 L271.1,85.6 L269.4,88.7 L264.9,94.2 L257.6,99.6 L213.0,125.7 L202.9,132.4 L195.7,139.2 L190.7,145.7 L187.3,152.1 L184.7,158.3 L183.0,166.0 L182.7,172.9 L183.6,181.2 L184.9,187.6 L282.6,526.5 L301.5,594.4 L304.3,599.4 L308.0,602.9 L312.9,604.9 L317.8,605.1 L322.6,603.7 L326.1,601.4 L328.9,597.9 L330.7,594.0 L332.0,586.7 L338.5,520.9 L346.3,447.0 L346.6,433.1 L345.6,420.8 L343.6,410.3 L340.6,400.0 L338.0,392.9 L328.5,371.7 L277.6,275.5 Z" fill="none" stroke="currentColor" stroke-width="10" stroke-linejoin="round" stroke-linecap="round" aria-label="Algarve International Circuit"/></svg>