<svg xmlns="http://www.w3.org/2000/svg" viewBox="0 0 1000 1000" role="img" aria-label="Red Bull Ring track outline"><path d="M 46.6 68.8 L 43.2 65.4 L 41.6 63.4 L 40.5 61.2 L 40.0 59.1 L 40.0 57.0 L 40.3 55.0 L 40.9 53.4 L 41.9 52.1 L 43.7 50.7 L 45.8 49.6 L 48.2 49.0 L 50.7 48.6 L 59.3 47.2 L 81.1 44.2 L 88.1 43.2 L 110.0 41.3 L 124.6 40.7 L 142.8 40.0 L 159.5 40.1 L 176.1 40.4 L 191.6 41.3 L 193.3 41.5 L 213.1 43.3 L 229.8 45.4 L 253.9 49.9 L 275.7 54.0 L 324.0 63.2 L 332.7 64.8 L 416.3 80.3 L 420.5 81.0 L 442.8 84.3 L 459.7 86.4 L 474.3 87.9 L 553.2 91.7 L 599.5 93.6 L 606.7 93.9 L 611.8 94.3 L 614.9 95.0 L 617.9 96.1 L 620.5 97.4 L 622.7 99.1 L 624.2 100.7 L 625.7 103.2 L 627.1 106.2 L 627.9 108.7 L 628.4 111.5 L 628.4 115.8 L 628.1 119.1 L 627.3 122.3 L 624.9 128.1 L 622.8 132.4 L 619.6 137.1 L 617.4 140.1 L 614.8 143.7 L 609.8 150.5 L 604.0 157.7 L 596.2 166.2 L 591.1 170.7 L 584.4 175.9 L 574.9 182.6 L 564.8 188.5 L 553.3 194.2 L 547.6 196.6 L 542.6 198.4 L 537.0 200.3 L 527.5 202.6 L 519.3 204.2 L 510.4 205.4 L 500.3 206.6 L 491.1 206.8 L 483.6 206.2 L 474.6 205.1 L 431.1 198.0 L 422.6 196.6 L 384.0 190.5 L 370.1 188.4 L 364.9 187.6 L 356.1 186.2 L 351.6 186.1 L 347.8 186.3 L 342.3 186.6 L 337.2 187.9 L 329.6 190.4 L 325.5 192.6 L 318.7 196.7 L 311.4 203.1 L 305.5 209.2 L 301.9 214.0 L 298.7 219.4 L 296.8 223.8 L 294.7 229.6 L 293.7 234.7 L 293.2 240.6 L 293.1 246.7 L 293.9 252.9 L 295.1 259.2 L 296.6 264.9 L 299.3 271.1 L 325.1 318.1 L 351.2 361.6 L 356.3 370.0 L 361.2 375.7 L 368.2 381.9 L 376.5 387.0 L 385.6 390.9 L 395.7 392.9 L 404.8 393.4 L 414.2 391.8 L 424.1 388.9 L 431.5 385.5 L 436.1 382.9 L 441.3 378.4 L 444.9 375.1 L 447.7 371.9 L 452.3 365.5 L 456.0 360.2 L 459.4 356.2 L 463.4 351.1 L 467.6 346.6 L 472.2 341.6 L 478.8 336.4 L 487.1 330.4 L 494.6 326.0 L 500.9 322.6 L 510.7 318.1 L 518.8 315.0 L 527.1 311.7 L 537.0 308.8 L 545.4 307.3 L 555.5 306.2 L 569.7 305.7 L 594.5 305.4 L 618.6 305.0 L 660.1 304.4 L 687.1 304.4 L 695.8 304.1 L 758.3 302.3 L 870.5 299.6 L 880.4 299.4 L 886.6 299.7 L 888.0 299.8 L 891.7 300.6 L 892.7 300.9 L 895.0 301.7 L 897.6 302.5 L 898.7 303.1 L 902.4 304.9 L 903.3 305.4 L 906.9 307.5 L 909.9 309.4 L 910.8 310.0 L 913.8 312.8 L 917.0 316.0 L 919.2 318.1 L 923.1 323.5 L 923.7 324.4 L 924.4 325.5 L 926.4 329.2 L 927.1 330.4 L 929.0 335.5 L 929.6 337.6 L 931.0 342.5 L 937.0 363.4 L 944.0 387.3 L 948.5 402.8 L 955.5 426.6 L 958.4 437.2 L 959.5 441.1 L 960.0 443.9 L 960.0 446.8 L 959.6 450.0 L 958.8 452.5 L 956.8 454.9 L 954.1 457.6 L 951.1 460.1 L 947.2 462.9 L 940.4 467.8 L 931.7 473.4 L 920.2 479.4 L 911.1 483.8 L 900.5 488.1 L 890.7 492.3 L 882.3 495.4 L 873.8 498.4 L 862.3 502.3 L 819.7 515.7 L 744.1 536.2 L 659.1 559.2 L 490.8 604.7 L 438.2 619.0 L 431.4 620.8 L 430.9 621.0 L 430.2 621.1 L 429.4 621.2 L 428.2 621.4 L 427.4 621.4 L 426.7 621.4 L 426.1 621.4 L 425.4 621.3 L 424.8 621.2 L 424.1 621.0 L 423.7 620.8 L 423.3 620.7 L 422.8 620.5 L 422.3 620.2 L 421.7 619.8 L 421.1 619.4 L 420.6 619.0 L 420.1 618.6 L 419.6 618.2 L 419.1 617.7 L 418.7 617.3 L 418.4 616.8 L 418.1 616.4 L 417.9 616.0 L 417.6 615.6 L 417.4 615.2 L 417.0 614.5 L 414.1 609.4 L 408.3 598.6 L 404.3 591.6 L 400.5 585.5 L 396.2 579.3 L 392.7 574.2 L 385.2 564.0 L 363.6 533.7 L 345.6 508.7 L 322.5 476.7 L 307.9 456.1 L 294.8 436.7 L 270.5 392.5 L 254.9 361.0 L 246.1 343.2 L 219.5 285.9 L 200.6 245.8 L 197.5 239.8 L 194.9 235.0 L 190.2 227.8 L 186.8 223.1 L 171.6 200.7 L 167.6 195.1 L 164.0 190.0 L 155.2 179.5 L 139.5 163.4 L 90.3 113.0 L 56.0 78.7 L 46.6 68.8 L 46.6 68.8 Z" fill="none" stroke="currentColor" stroke-width="10" stroke-linejoin="round" stroke-linecap="round"/></svg>