<svg xmlns="http://www.w3.org/2000/svg" viewBox="0 0 1000 1000" role="img" aria-label="Red Bull Ring track outline"><path d="M351.9,302.2 L 515.6,557.5 L 550.7,580.9 L 579.9,592.6 L 607.2,590.7 L 630.6,555.6 L 622.8,520.5 L 607.2,479.6 L 546.8,430.8 L 513.7,413.3 L 496.1,380.1 L 511.7,349.0 L 540.9,352.9 L 578.0,370.4 L 626.7,413.3 L 667.7,471.8 L 741.7,604.3 L 774.8,629.7 L 806.0,647.2 L 827.5,637.5 L 839.2,618.0 L 835.3,582.9 L 681.3,372.4 L 603.3,304.2 L 486.4,232.1 L 383.1,185.3 L 311.0,169.6 L 244.7,167.7 L 184.2,200.8 L 160.9,237.9 L 155.0,286.6 L 166.7,364.6 L 158.9,399.7 L 147.2,421.1 L 90.7,454.3 L 51.7,487.3 L 45.9,512.7 L 40.0,540.0 L 55.6,571.2 L 75.1,598.5 L 110.2,625.8 L 270.0,676.5 L 537.0,711.5 L 605.3,734.9 L 848.9,824.5 L 905.4,832.3 L 950.3,822.6 L 960.0,799.2 L 956.1,754.4 L 921.1,729.1 L 856.7,707.6 L 681.3,662.8 L 398.7,631.6 L 248.6,608.2 L 170.6,586.8 L 133.6,563.4 L 127.7,532.2 L 145.3,501.0 L 178.4,491.2 L 217.4,499.0 L 330.5,551.7 L 357.7,551.7 L 385.0,534.1 L 396.7,510.8 L 392.8,481.5 L 371.4,446.4 L 338.2,423.0 L 248.6,343.2 L 223.2,306.1 L 217.4,267.1 L 233.0,241.8 L 266.1,239.8 L 305.1,245.7 L 326.5,261.3 L 351.9,302.2 Z" fill="none" stroke="currentColor" stroke-width="10" stroke-linejoin="round" stroke-linecap="round"/></svg>