<svg xmlns="http://www.w3.org/2000/svg" viewBox="0 0 1000 1000" role="img" aria-label="Circuit Ricardo Tormo track outline"><path d="M498.9,703.3 L 687.8,572.7 L 884.2,436.1 L 894.1,426.8 L 901.6,417.6 L 906.5,408.7 L 909.7,400.5 L 912.1,391.6 L 912.9,382.7 L 912.8,374.7 L 911.9,365.8 L 909.0,354.8 L 896.4,317.9 L 794.6,60.3 L 792.0,56.2 L 789.3,51.7 L 786.1,48.1 L 780.8,44.6 L 774.0,41.7 L 767.8,40.0 L 762.2,40.2 L 756.2,41.5 L 751.1,44.4 L 745.7,47.9 L 741.7,52.2 L 737.9,58.6 L 734.6,65.7 L 714.1,193.7 L 713.9,207.6 L 718.3,218.9 L 725.1,227.3 L 813.4,334.3 L 817.4,344.0 L 818.3,354.2 L 815.2,362.9 L 810.2,369.9 L 796.5,380.3 L 714.0,437.9 L 694.4,443.1 L 680.6,442.2 L 666.3,437.5 L 656.4,429.8 L 645.0,416.2 L 638.5,392.6 L 637.0,185.2 L 635.0,173.3 L 628.8,163.2 L 618.8,156.1 L 610.1,149.8 L 604.2,147.9 L 597.4,147.1 L 592.2,147.3 L 586.4,148.4 L 575.7,152.8 L 564.3,158.9 L 321.9,328.1 L 311.2,337.5 L 302.1,351.4 L 224.9,485.9 L 224.2,503.6 L 226.4,520.5 L 233.8,534.3 L 242.6,544.4 L 253.6,551.5 L 268.4,556.7 L 280.4,556.4 L 291.7,554.6 L 301.9,549.0 L 322.9,534.8 L 343.1,520.5 L 356.7,510.9 L 388.0,489.5 L 397.3,482.8 L 408.9,468.4 L 414.4,455.3 L 430.7,371.8 L 433.3,360.8 L 438.9,350.9 L 445.4,342.1 L 454.0,334.3 L 507.4,294.1 L 520.5,290.4 L 534.7,289.7 L 538.2,290.9 L 545.4,293.1 L 554.0,299.9 L 559.8,308.7 L 563.9,318.5 L 564.5,332.0 L 560.5,344.8 L 469.7,496.0 L 404.2,605.2 L 398.6,611.6 L 390.5,616.2 L 325.3,610.8 L 320.5,610.4 L 307.1,611.6 L 279.9,614.1 L 249.4,621.7 L 230.3,628.7 L 204.9,641.4 L 176.7,662.6 L 154.0,684.6 L 141.7,699.6 L 130.3,717.2 L 116.5,738.0 L 102.5,767.7 L 95.2,796.8 L 89.1,830.1 L 87.8,850.4 L 87.1,868.8 L 92.4,917.2 L 95.5,936.6 L 101.0,947.5 L 112.5,956.8 L 120.2,960.0 L 129.4,959.6 L 136.9,955.1 L 196.2,913.9 L 251.7,875.2 L 257.7,871.0 L 261.1,868.6 L 262.5,867.8 L 265.9,865.3 L 270.2,862.3 L 274.1,859.6 L 277.8,857.1 L 280.2,855.4 L 283.2,853.2 L 285.8,851.1 L 288.2,849.4 L 289.7,848.0 L 293.7,845.2 L 458.5,731.2 L 498.9,703.3 Z" fill="none" stroke="currentColor" stroke-width="10" stroke-linejoin="round" stroke-linecap="round"/></svg>