<svg xmlns="http://www.w3.org/2000/svg" viewBox="0 0 1000 1000" role="img" aria-label="Rouen-les-Essarts (abandoned section) track outline">
  <path d="M 414.4,798.5 L 425.6,797.3 L 428.2,796.4 L 431.7,791.7 L 433.9,786.6 L 435.1,783.0 L 307.1,215.3 L 312.6,208.0 L 320.1,189.9 L 330.2,173.2 L 336.8,163.9 L 342.6,156.4 L 360.3,139.8 L 652.3,40.0 L 704.0,110.4 L 709.5,117.8 L 749.3,185.0 L 723.1,290.5 L 722.7,287.9 L 721.5,286.5 L 719.4,285.4 L 716.8,285.0 L 714.1,285.5 L 706.5,287.7 L 693.4,291.1 L 687.1,293.5 L 676.8,297.5 L 625.0,313.8 L 623.8,314.3 L 618.3,314.2 L 611.7,315.6 L 604.2,317.1 L 595.5,318.3 L 571.4,315.8 L 521.4,308.5 L 510.1,307.6 L 497.8,309.1 L 489.9,311.9 L 483.7,315.2 L 466.7,328.4 L 464.0,330.4 L 462.0,331.9 L 458.7,334.1 L 456.0,336.2 L 450.0,338.1 L 445.2,338.3 L 440.4,338.2 L 438.1,337.6 L 429.0,333.5 L 410.3,323.2 L 387.3,313.6 L 382.1,311.2 L 378.3,310.6 L 372.7,310.6 L 362.9,313.2 L 359.8,314.9 L 354.5,318.8 L 351.0,322.2 L 342.2,333.8 L 335.5,342.6 L 328.4,353.4 L 302.8,399.6 L 735.3,284.1 L 723.1,290.5 L 632.1,335.8 L 488.9,407.3 L 370.5,468.2 L 323.5,491.8 L 314.2,497.4 L 260.3,905.8 L 258.2,914.5 L 254.6,936.0 L 251.4,953.9 L 250.7,957.9 L 250.8,960.0 L 258.5,936.4 L 258.4,934.8 L 258.5,932.0 L 259.4,921.0 L 260.5,910.2 L 260.3,905.8 L 259.3,939.2 L 258.8,937.4 L 258.5,936.4 L 314.2,497.4 L 311.3,497.0 L 304.3,502.3 L 310.4,499.8 L 312.7,498.4 L 314.2,497.4 L 311.3,497.0 L 310.0,497.0 L 304.2,497.6" fill="none" stroke="currentColor" stroke-width="10" stroke-linejoin="round" stroke-linecap="round"/>
</svg>
