<svg xmlns="http://www.w3.org/2000/svg" viewBox="0 0 1000 1000" role="img" aria-label="Sachsenring track outline"><path d="M42.6,438.0 L 45.6,450.6 L 80.6,593.0 L 83.8,607.0 L 97.4,666.8 L 99.2,673.1 L 100.9,678.2 L 103.1,682.7 L 104.5,684.8 L 105.4,686.3 L 108.2,689.7 L 111.6,692.9 L 115.1,695.9 L 118.2,698.0 L 121.8,699.8 L 125.3,701.0 L 129.3,701.9 L 133.4,702.6 L 136.6,702.8 L 140.7,702.6 L 145.5,701.7 L 149.6,700.2 L 153.0,698.4 L 158.6,695.3 L 168.4,687.3 L 261.3,624.5 L 357.4,558.0 L 404.0,525.7 L 458.1,488.2 L 474.6,476.9 L 564.4,414.1 L 646.8,358.9 L 677.8,339.6 L 687.9,333.3 L 694.7,329.6 L 700.7,326.7 L 707.5,323.9 L 710.1,323.0 L 713.4,322.1 L 716.3,321.4 L 719.3,320.8 L 722.5,320.8 L 726.2,321.3 L 728.7,321.9 L 732.1,322.7 L 737.4,324.2 L 742.5,328.5 L 745.1,330.7 L 747.7,333.3 L 749.3,335.3 L 750.7,337.4 L 751.8,339.3 L 753.0,341.6 L 754.1,344.1 L 754.8,347.0 L 755.3,350.0 L 755.4,352.9 L 755.5,357.8 L 755.4,361.3 L 754.9,365.0 L 754.1,368.5 L 753.4,370.6 L 752.3,373.0 L 751.1,375.1 L 749.7,377.0 L 748.1,379.0 L 746.7,380.8 L 733.8,394.9 L 730.8,397.9 L 728.0,400.9 L 724.4,405.2 L 720.7,410.4 L 718.5,414.4 L 716.6,418.1 L 714.7,422.2 L 712.7,426.9 L 710.9,431.8 L 709.6,435.6 L 708.3,440.5 L 707.5,446.0 L 707.0,451.9 L 706.2,459.2 L 705.9,465.0 L 706.1,471.1 L 706.9,477.0 L 707.9,483.7 L 709.2,489.2 L 711.0,495.1 L 713.0,499.8 L 715.6,504.6 L 719.0,509.5 L 723.4,515.2 L 728.0,520.1 L 732.0,523.6 L 736.8,526.9 L 742.0,529.7 L 747.8,532.1 L 754.4,534.0 L 760.5,535.6 L 767.9,538.1 L 775.1,541.1 L 781.6,545.1 L 787.5,549.7 L 792.7,554.4 L 797.6,559.5 L 801.2,564.0 L 803.9,567.8 L 806.3,571.8 L 808.3,575.7 L 809.7,579.0 L 810.9,583.9 L 811.4,587.7 L 811.3,591.5 L 810.9,596.5 L 810.3,601.2 L 809.6,605.4 L 808.4,608.7 L 806.9,612.2 L 805.2,615.3 L 802.9,618.5 L 800.4,621.5 L 797.6,624.5 L 793.4,627.8 L 788.5,631.1 L 783.6,633.5 L 778.5,635.3 L 774.2,636.3 L 769.7,636.7 L 765.1,636.9 L 760.1,636.5 L 755.4,635.7 L 752.0,634.7 L 749.0,633.4 L 746.1,631.9 L 743.2,629.7 L 740.3,627.0 L 737.3,623.3 L 735.1,619.6 L 733.7,616.7 L 733.2,615.8 L 731.4,611.5 L 729.9,606.8 L 728.7,602.0 L 727.6,596.6 L 726.2,588.8 L 724.5,580.3 L 723.1,574.7 L 721.3,569.5 L 719.6,565.3 L 717.7,560.8 L 715.8,557.1 L 713.4,552.8 L 710.9,548.9 L 707.3,544.7 L 705.6,542.7 L 703.1,539.9 L 698.8,535.6 L 694.7,532.0 L 689.2,527.8 L 681.8,522.8 L 671.2,516.0 L 659.9,509.6 L 652.1,506.4 L 647.4,504.9 L 642.8,503.8 L 637.5,502.8 L 631.4,502.4 L 625.5,502.8 L 621.1,503.5 L 617.6,504.7 L 613.6,506.4 L 608.2,509.0 L 600.9,513.1 L 581.8,526.3 L 574.3,531.7 L 567.3,537.4 L 565.2,539.6 L 562.9,542.2 L 560.8,545.6 L 558.8,549.2 L 557.4,552.8 L 556.1,556.9 L 555.4,561.3 L 555.0,566.3 L 554.7,571.1 L 554.9,575.9 L 555.3,579.4 L 556.3,584.5 L 557.5,588.0 L 558.9,592.0 L 560.4,596.3 L 562.7,601.6 L 584.7,651.9 L 589.9,662.2 L 595.9,672.0 L 597.9,674.7 L 600.8,678.8 L 601.8,680.2 L 607.8,687.2 L 613.3,693.2 L 619.9,699.2 L 626.2,704.3 L 634.8,710.1 L 644.5,715.6 L 654.3,719.8 L 665.4,724.0 L 673.4,726.3 L 682.1,728.1 L 691.8,729.4 L 703.4,729.5 L 715.2,728.8 L 724.3,728.0 L 729.3,727.3 L 734.1,726.4 L 738.3,725.3 L 744.4,723.5 L 749.8,721.5 L 755.2,719.1 L 761.7,715.8 L 767.4,712.4 L 772.8,708.6 L 779.8,703.1 L 789.1,695.5 L 846.1,645.8 L 872.6,622.5 L 882.2,613.3 L 892.2,603.0 L 909.4,583.5 L 915.8,577.1 L 929.9,561.8 L 951.8,537.1 L 953.4,534.8 L 954.6,532.7 L 956.4,529.4 L 957.7,525.7 L 958.8,521.9 L 959.4,518.4 L 959.9,514.3 L 960.0,510.0 L 959.8,503.9 L 959.1,493.8 L 958.5,487.0 L 957.5,480.7 L 955.8,471.6 L 953.1,461.5 L 949.1,449.5 L 942.6,434.1 L 936.2,422.2 L 927.8,409.4 L 910.6,384.2 L 873.3,329.7 L 867.8,322.5 L 865.2,319.8 L 862.4,317.1 L 859.0,314.4 L 856.2,312.4 L 851.7,310.1 L 838.4,304.7 L 817.2,296.0 L 796.2,287.4 L 769.9,276.6 L 762.8,273.8 L 757.6,272.3 L 752.3,271.3 L 746.4,270.6 L 741.5,270.5 L 736.9,270.8 L 733.1,271.6 L 727.0,273.0 L 722.2,275.1 L 717.9,277.2 L 694.1,290.7 L 673.9,301.7 L 662.7,308.1 L 652.8,314.5 L 586.4,358.1 L 581.3,361.6 L 576.0,364.4 L 570.3,366.9 L 565.5,368.3 L 560.0,370.0 L 554.1,371.2 L 548.1,371.9 L 541.0,372.0 L 446.5,369.8 L 370.2,366.0 L 318.4,362.1 L 277.2,359.0 L 228.9,353.9 L 159.9,347.0 L 143.8,344.8 L 132.8,343.7 L 124.8,343.4 L 118.0,343.6 L 111.6,344.3 L 104.6,345.8 L 102.8,346.3 L 97.1,347.8 L 88.9,351.1 L 79.4,355.9 L 72.4,360.1 L 66.2,364.9 L 60.9,369.9 L 56.8,374.5 L 53.0,379.4 L 49.2,384.7 L 46.7,389.0 L 44.4,393.3 L 42.4,397.9 L 41.3,401.9 L 40.8,405.7 L 40.2,410.5 L 40.0,414.9 L 40.0,420.5 L 40.5,426.2 L 41.4,431.7 L 42.6,438.0 Z" fill="none" stroke="currentColor" stroke-width="10" stroke-linejoin="round" stroke-linecap="round"/></svg>