<svg xmlns="http://www.w3.org/2000/svg" viewBox="0 0 1000 1000" role="img" aria-label="Salzburgring track outline"><path d="M266.2,545.1 L 255.1,545.0 L 241.3,543.2 L 202.4,531.1 L 134.3,509.4 L 116.2,505.2 L 98.6,502.9 L 70.9,502.3 L 61.8,500.5 L 53.5,497.4 L 46.4,491.0 L 41.6,483.2 L 40.0,475.6 L 41.2,468.0 L 44.6,461.2 L 50.0,455.3 L 56.6,451.1 L 65.7,448.7 L 78.6,447.7 L 90.8,448.6 L 101.9,451.8 L 198.4,494.0 L 222.3,502.7 L 247.8,509.2 L 273.0,513.0 L 290.2,514.1 L 312.1,514.5 L 331.5,513.2 L 354.0,510.5 L 444.8,490.6 L 475.5,481.8 L 502.5,472.3 L 576.9,442.5 L 589.9,438.1 L 601.8,434.5 L 627.3,428.1 L 648.2,425.0 L 668.1,423.4 L 728.7,421.2 L 752.8,416.6 L 770.9,412.2 L 800.5,402.7 L 821.0,397.3 L 838.9,395.8 L 851.8,396.1 L 867.8,398.3 L 881.2,402.3 L 892.5,406.8 L 904.3,413.5 L 914.5,421.8 L 924.8,433.0 L 933.0,445.1 L 940.3,458.6 L 946.8,474.9 L 952.3,493.8 L 957.0,516.5 L 959.1,537.6 L 960.0,554.8 L 959.3,567.1 L 957.4,577.5 L 953.7,587.2 L 947.3,595.2 L 941.4,599.8 L 933.7,603.1 L 925.2,604.2 L 917.1,603.1 L 910.6,600.8 L 902.8,595.1 L 896.7,588.0 L 891.9,579.1 L 888.3,569.7 L 884.4,546.0 L 881.6,531.2 L 878.3,520.1 L 876.4,514.2 L 873.5,509.3 L 869.3,504.6 L 862.6,501.6 L 842.8,498.3 L 833.9,495.3 L 827.2,491.0 L 821.1,484.4 L 808.9,460.8 L 802.7,454.2 L 796.9,449.4 L 786.7,445.1 L 776.9,443.3 L 763.1,443.1 L 746.6,445.0 L 657.6,465.4 L 652.7,466.9 L 507.0,501.9 L 344.8,541.8 L 313.2,551.1 L 309.7,551.8 L 306.0,549.4 L 304.8,542.4 L 302.9,539.4 L 297.3,539.2 L 266.2,545.1 Z" fill="none" stroke="currentColor" stroke-width="10" stroke-linejoin="round" stroke-linecap="round"/></svg>