<svg xmlns="http://www.w3.org/2000/svg" viewBox="0 0 1000 1000" role="img" aria-label="San Carlos Circuit track outline"><path d="M40.0,492.7 L 40.3,505.1 L 41.2,517.5 L 42.8,529.8 L 45.0,542.1 L 47.8,554.2 L 51.2,566.1 L 55.3,577.8 L 59.9,589.4 L 61.9,594.2 L 64.1,598.9 L 66.5,603.5 L 69.2,608.0 L 72.1,612.3 L 75.2,616.4 L 78.6,620.4 L 82.1,624.2 L 85.8,627.8 L 89.8,631.3 L 93.8,634.5 L 98.1,637.5 L 102.5,640.2 L 107.0,642.8 L 111.7,645.1 L 116.5,647.1 L 121.4,648.9 L 126.3,650.5 L 131.4,651.8 L 136.5,652.8 L 141.6,653.5 L 146.8,654.0 L 152.0,654.2 L 157.2,654.2 L 162.4,653.9 L 167.6,653.3 L 172.7,652.4 L 177.8,651.3 L 182.8,649.9 L 187.7,648.2 L 192.6,646.3 L 197.3,644.2 L 201.9,641.8 L 206.4,639.1 L 210.7,636.3 L 329.8,559.6 L 334.0,556.9 L 338.2,554.4 L 342.6,552.1 L 347.1,550.1 L 351.7,548.3 L 356.4,546.7 L 361.1,545.4 L 366.0,544.3 L 370.8,543.5 L 375.7,542.9 L 380.6,542.5 L 385.6,542.4 L 390.5,542.6 L 395.4,543.0 L 400.3,543.7 L 405.2,544.6 L 410.0,545.7 L 414.7,547.1 L 419.4,548.7 L 423.9,550.6 L 428.4,552.7 L 432.7,555.0 L 437.0,557.6 L 441.1,560.3 L 445.0,563.3 L 448.8,566.4 L 452.5,569.8 L 455.9,573.3 L 459.2,577.0 L 462.3,580.8 L 508.1,653.6 L 510.7,658.2 L 513.5,662.6 L 516.5,666.9 L 519.7,671.1 L 523.1,675.0 L 526.8,678.8 L 530.6,682.4 L 534.6,685.8 L 538.8,688.9 L 543.2,691.9 L 547.7,694.6 L 552.3,697.1 L 557.0,699.4 L 561.9,701.4 L 566.8,703.1 L 571.9,704.6 L 577.0,705.8 L 598.4,710.1 L 615.8,713.0 L 620.8,713.1 L 623.2,713.1 L 625.5,713.0 L 627.8,712.7 L 630.2,712.3 L 632.5,711.8 L 634.7,711.1 L 637.0,710.4 L 639.1,709.5 L 641.3,708.5 L 643.4,707.5 L 645.4,706.3 L 647.4,705.0 L 649.3,703.6 L 651.1,702.1 L 652.8,700.5 L 654.5,698.8 L 656.0,697.1 L 657.5,695.3 L 658.9,693.3 L 660.2,691.4 L 661.3,689.3 L 662.4,687.2 L 663.4,685.1 L 664.2,682.9 L 664.9,680.6 L 665.5,678.4 L 666.0,676.1 L 666.4,673.7 L 672.5,625.9 L 672.5,623.4 L 672.3,621.0 L 672.1,618.5 L 671.7,616.1 L 671.2,613.7 L 670.6,611.3 L 669.8,609.0 L 669.0,606.7 L 668.0,604.4 L 666.9,602.2 L 665.7,600.1 L 664.4,598.0 L 663.0,596.0 L 661.5,594.1 L 659.8,592.2 L 658.1,590.4 L 656.3,588.8 L 654.5,587.2 L 652.5,585.7 L 650.5,584.3 L 648.4,583.0 L 646.2,581.8 L 644.0,580.8 L 641.7,579.8 L 639.4,579.0 L 637.1,578.3 L 634.7,577.7 L 584.1,561.1 L 570.0,556.9 L 556.2,552.0 L 542.6,546.5 L 529.2,540.2 L 461.5,511.2 L 450.3,506.8 L 438.9,502.9 L 427.3,499.7 L 415.6,497.0 L 403.7,494.9 L 391.8,493.5 L 379.8,492.6 L 367.8,492.4 L 355.8,492.8 L 343.8,493.8 L 331.9,495.4 L 320.0,497.6 L 308.4,500.4 L 296.8,503.8 L 285.5,507.7 L 274.3,512.3 L 263.4,517.4 L 243.4,527.6 L 238.8,530.2 L 234.4,533.1 L 230.2,536.2 L 226.1,539.5 L 222.2,543.0 L 218.5,546.7 L 214.9,550.6 L 211.6,554.6 L 208.5,558.8 L 205.6,563.2 L 202.9,567.7 L 200.4,572.4 L 199.6,574.8 L 198.7,577.1 L 197.7,579.5 L 196.5,581.7 L 195.3,583.9 L 193.9,586.0 L 192.4,588.1 L 190.8,590.1 L 189.1,592.0 L 187.3,593.8 L 185.4,595.5 L 183.4,597.1 L 181.4,598.6 L 179.2,599.9 L 177.0,601.2 L 174.8,602.4 L 172.5,603.4 L 170.1,604.3 L 167.7,605.1 L 165.2,605.8 L 162.7,606.3 L 160.2,606.8 L 157.7,607.0 L 155.2,607.2 L 152.6,607.2 L 150.1,607.1 L 147.6,606.8 L 145.1,606.5 L 142.6,605.9 L 140.1,605.3 L 137.7,604.5 L 135.3,603.6 L 133.0,602.6 L 130.7,601.5 L 128.5,600.3 L 126.3,598.9 L 124.3,597.4 L 120.9,594.2 L 117.8,590.9 L 114.8,587.4 L 111.9,583.8 L 109.3,580.0 L 106.9,576.1 L 104.6,572.1 L 102.6,567.9 L 100.8,563.7 L 99.2,559.4 L 97.8,555.0 L 96.6,550.6 L 95.7,546.0 L 95.0,541.5 L 94.5,536.9 L 94.4,533.5 L 94.5,530.0 L 94.8,526.6 L 95.2,523.1 L 95.9,519.7 L 96.7,516.4 L 97.6,513.1 L 98.8,509.8 L 100.1,506.6 L 101.6,503.5 L 103.2,500.4 L 105.0,497.5 L 107.0,494.6 L 109.1,491.9 L 111.3,489.2 L 113.6,486.7 L 116.1,484.3 L 118.8,482.0 L 121.5,479.9 L 124.3,477.9 L 127.2,476.1 L 130.3,474.4 L 133.4,472.9 L 136.5,471.5 L 139.8,470.4 L 143.1,469.3 L 146.4,468.5 L 481.8,425.2 L 494.9,424.7 L 507.9,424.9 L 521.0,425.7 L 533.9,427.1 L 546.8,429.2 L 559.6,431.9 L 572.2,435.3 L 584.7,439.2 L 596.9,443.8 L 608.9,448.9 L 620.6,454.7 L 632.0,461.0 L 937.2,614.7 L 938.0,614.9 L 938.8,615.2 L 939.7,615.4 L 940.5,615.5 L 941.4,615.7 L 942.3,615.7 L 943.1,615.7 L 944.0,615.7 L 944.9,615.7 L 945.7,615.5 L 946.6,615.4 L 947.5,615.2 L 948.3,614.9 L 949.1,614.6 L 949.9,614.3 L 950.7,613.9 L 951.5,613.5 L 952.2,613.1 L 953.0,612.6 L 953.7,612.1 L 954.3,611.5 L 955.0,610.9 L 955.6,610.3 L 956.1,609.6 L 956.7,608.9 L 957.2,608.2 L 957.7,607.5 L 958.1,606.7 L 958.5,605.9 L 958.8,605.1 L 959.1,604.3 L 959.4,603.5 L 959.6,602.6 L 959.8,601.8 L 959.9,600.9 L 960.0,600.0 L 960.0,599.2 L 960.0,598.3 L 959.9,597.4 L 959.8,596.6 L 959.7,595.7 L 959.5,594.8 L 959.3,594.0 L 959.0,593.2 L 958.7,592.4 L 958.3,591.6 L 957.9,590.8 L 861.3,370.3 L 856.9,363.0 L 852.2,356.0 L 847.1,349.3 L 841.6,342.8 L 835.8,336.6 L 829.7,330.7 L 823.4,325.1 L 816.7,319.8 L 809.8,314.9 L 802.6,310.4 L 795.3,306.2 L 787.7,302.4 L 779.9,299.0 L 772.0,296.0 L 763.9,293.4 L 755.7,291.3 L 747.4,289.5 L 739.0,288.2 L 730.6,287.3 L 722.2,286.9 L 713.7,286.9 L 705.2,287.3 L 696.8,288.1 L 688.4,289.4 L 680.1,291.1 L 630.3,301.5 L 488.0,331.2 L 183.5,394.8 L 113.0,409.6 L 108.4,410.7 L 103.8,412.0 L 99.4,413.6 L 95.0,415.4 L 90.7,417.4 L 86.5,419.7 L 82.5,422.1 L 78.5,424.8 L 74.7,427.6 L 71.1,430.7 L 67.6,433.9 L 64.3,437.3 L 61.2,440.8 L 58.2,444.6 L 55.5,448.4 L 52.9,452.4 L 50.6,456.6 L 48.5,460.8 L 46.6,465.1 L 44.9,469.6 L 43.4,474.1 L 42.2,478.7 L 41.2,483.3 L 40.5,488.0 L 40.0,492.7 Z" fill="none" stroke="currentColor" stroke-width="10" stroke-linejoin="round" stroke-linecap="round"/></svg>