<svg xmlns="http://www.w3.org/2000/svg" viewBox="0 0 1000 1000" role="img" aria-label="Sebring International Raceway track outline"><path d="M 750.9 377.3 L 765.9 375.3 L 777.4 372.3 L 784.8 370.2 L 800.6 365.7 L 823.6 358.2 L 822.8 366.3 L 821.2 376.9 L 820.1 382.6 L 819.3 389.2 L 819.4 396.1 L 820.0 400.9 L 821.2 405.7 L 822.9 410.5 L 826.2 418.8 L 860.1 498.5 L 863.0 504.0 L 866.0 508.1 L 869.7 512.3 L 946.0 588.2 L 950.4 593.8 L 953.9 599.0 L 956.2 604.1 L 957.9 608.8 L 959.4 614.7 L 960.0 621.3 L 959.9 627.6 L 958.9 634.2 L 957.5 639.0 L 954.5 645.0 L 945.3 660.2 L 941.1 666.7 L 936.1 674.4 L 932.5 680.5 L 929.8 685.9 L 927.9 691.4 L 926.2 698.4 L 916.7 769.2 L 915.6 774.7 L 913.0 780.9 L 909.5 786.4 L 904.8 791.3 L 899.8 795.0 L 895.1 797.7 L 888.6 799.8 L 880.0 800.7 L 272.3 803.1 L 190.6 803.9 L 180.6 801.1 L 171.0 797.1 L 122.3 766.4 L 110.0 757.0 L 101.5 748.7 L 97.3 741.6 L 93.3 731.7 L 91.8 722.6 L 91.5 714.2 L 92.7 707.1 L 94.6 700.4 L 104.2 680.8 L 111.1 669.8 L 115.7 663.4 L 118.5 659.8 L 121.8 656.7 L 128.2 652.3 L 135.9 648.8 L 144.4 645.4 L 159.0 642.0 L 180.5 640.1 L 209.0 637.9 L 273.2 637.7 L 355.8 637.5 L 502.7 636.7 L 653.1 636.3 L 704.9 636.1 L 715.1 635.2 L 725.4 634.3 L 737.5 631.4 L 747.6 626.4 L 758.2 617.9 L 766.5 607.9 L 772.1 597.4 L 776.6 583.1 L 778.8 566.9 L 779.0 554.5 L 777.6 529.0 L 776.7 522.5 L 775.6 514.8 L 771.9 496.8 L 761.2 438.7 L 757.9 425.3 L 755.3 406.3 L 752.5 389.3 L 750.9 377.3 L 750.1 347.6 L 750.1 294.2 L 747.2 282.9 L 742.6 276.4 L 728.0 269.1 L 704.1 268.9 L 696.8 268.3 L 685.1 264.7 L 672.1 256.4 L 659.8 247.5 L 644.6 237.3 L 638.3 234.1 L 632.3 232.3 L 627.2 231.1 L 621.3 231.1 L 614.2 231.3 L 605.1 234.1 L 598.5 237.1 L 590.6 246.4 L 585.9 253.5 L 580.4 266.9 L 570.5 290.8 L 566.1 299.7 L 560.2 308.8 L 554.9 315.9 L 544.6 329.0 L 526.3 350.5 L 518.7 358.6 L 484.3 388.1 L 468.9 398.4 L 436.7 413.8 L 408.0 423.8 L 382.5 429.0 L 344.4 432.7 L 307.2 432.9 L 243.2 432.7 L 193.9 433.0 L 152.5 433.3 L 79.2 433.6 L 61.3 433.9 L 53.6 433.5 L 48.3 431.0 L 44.5 427.6 L 41.4 422.5 L 40.2 417.3 L 40.0 413.2 L 41.0 408.2 L 42.4 404.7 L 45.7 401.3 L 50.9 396.6 L 56.0 390.6 L 58.2 386.1 L 59.6 381.9 L 60.0 377.6 L 60.4 370.1 L 60.6 363.6 L 66.1 346.0 L 71.8 336.9 L 82.3 323.0 L 119.6 284.3 L 127.1 277.1 L 137.0 270.2 L 144.5 266.1 L 152.7 261.8 L 162.9 257.4 L 168.2 255.4 L 265.7 221.4 L 274.2 217.6 L 283.1 212.9 L 291.0 208.4 L 299.6 202.6 L 310.3 193.8 L 343.4 160.4 L 400.5 103.3 L 450.5 53.3 L 459.6 44.3 L 465.1 41.0 L 469.9 40.0 L 476.4 41.0 L 480.6 42.6 L 485.1 45.1 L 495.4 55.0 L 502.1 63.3 L 518.9 86.1 L 523.8 90.8 L 536.5 97.9 L 565.1 108.4 L 584.7 113.1 L 591.2 113.3 L 607.2 110.0 L 624.0 104.4 L 637.3 99.5 L 688.3 72.8 L 697.2 70.1 L 706.5 69.3 L 768.2 68.1 L 788.2 67.5 L 795.8 68.4 L 801.9 70.1 L 806.4 71.7 L 811.0 74.0 L 815.4 77.4 L 818.5 81.4 L 820.7 86.9 L 822.0 92.1 L 822.7 97.3 L 823.4 103.6 L 824.2 248.9 L 824.1 344.6 L 823.9 351.1 L 823.6 358.2" fill="none" stroke="currentColor" stroke-width="10" stroke-linejoin="round" stroke-linecap="round"/></svg>