<svg xmlns="http://www.w3.org/2000/svg" viewBox="0 0 1000 1000" role="img" aria-label="Sentul International Circuit track outline"><path d="M566.1,952.9 L 556.2,950.1 L 551.8,948.2 L 549.6,945.5 L 545.7,937.7 L 543.3,931.7 L 514.9,859.9 L 498.4,818.1 L 397.9,567.5 L 366.6,489.7 L 363.6,482.3 L 360.4,470.4 L 359.0,458.6 L 359.7,453.5 L 361.7,448.1 L 365.6,439.7 L 371.9,432.6 L 377.4,429.0 L 383.2,426.6 L 469.2,390.7 L 481.3,385.7 L 486.5,380.9 L 489.8,376.5 L 495.1,365.3 L 498.3,352.4 L 536.5,198.4 L 571.5,61.0 L 574.4,49.7 L 577.4,44.8 L 580.9,42.7 L 585.8,41.3 L 590.9,41.1 L 623.2,40.0 L 629.0,41.0 L 632.4,42.6 L 638.3,47.9 L 640.1,52.5 L 641.0,57.1 L 640.3,65.0 L 638.8,68.2 L 560.1,235.4 L 555.5,245.0 L 552.9,251.6 L 550.9,258.2 L 549.3,268.5 L 526.5,416.0 L 525.1,422.2 L 522.9,425.5 L 519.1,428.8 L 513.2,430.8 L 502.6,428.9 L 499.7,428.4 L 492.4,428.4 L 487.2,432.3 L 485.2,437.6 L 484.9,443.3 L 489.4,457.0 L 564.3,666.8 L 567.3,675.2 L 568.5,683.4 L 566.8,687.4 L 564.0,691.0 L 552.4,700.6 L 527.3,721.5 L 518.1,730.0 L 515.3,734.6 L 513.1,739.9 L 512.8,748.1 L 515.4,755.0 L 521.8,765.0 L 622.5,922.7 L 629.1,933.1 L 630.1,936.7 L 629.1,940.9 L 626.5,946.2 L 623.1,950.4 L 619.8,954.5 L 613.2,958.4 L 604.2,960.0 L 596.9,960.0 L 588.9,958.0 L 566.1,952.9 Z" fill="none" stroke="currentColor" stroke-width="10" stroke-linejoin="round" stroke-linecap="round"/></svg>