<svg xmlns="http://www.w3.org/2000/svg" viewBox="0 0 1000 1000" role="img" aria-label="Sepang International Circuit track outline"><path d="M 819.8 272.6 L 885.8 348.5 L 954.0 426.8 L 957.6 432.1 L 959.6 436.7 L 960.0 442.5 L 958.8 447.9 L 934.2 505.4 L 931.2 511.6 L 927.8 515.5 L 922.7 518.7 L 915.4 521.1 L 818.8 526.6 L 756.3 532.4 L 560.5 556.5 L 554.3 557.8 L 550.0 560.8 L 547.6 563.5 L 546.2 566.9 L 545.6 571.0 L 546.8 576.0 L 549.5 579.3 L 553.0 582.1 L 599.1 610.2 L 607.7 616.2 L 614.0 622.8 L 622.5 635.8 L 626.3 647.0 L 628.3 657.1 L 629.5 670.3 L 629.5 684.4 L 628.5 697.1 L 627.0 708.7 L 624.5 719.0 L 621.1 731.6 L 616.2 743.5 L 607.1 762.5 L 593.0 783.3 L 583.7 792.4 L 575.5 795.2 L 566.7 795.2 L 559.8 793.8 L 554.0 790.8 L 388.5 654.3 L 379.4 647.5 L 365.2 643.5 L 354.3 643.0 L 341.7 644.6 L 331.6 648.8 L 292.0 670.3 L 269.8 680.5 L 259.0 684.1 L 245.7 686.2 L 230.3 686.7 L 216.1 686.1 L 195.7 682.3 L 175.5 674.3 L 159.8 664.4 L 147.5 653.2 L 139.4 645.0 L 132.1 633.0 L 126.7 619.6 L 126.5 611.6 L 128.3 603.5 L 130.7 598.0 L 135.9 591.9 L 142.3 588.6 L 148.1 586.8 L 248.9 568.7 L 537.3 517.1 L 677.3 491.5 L 745.0 480.2 L 811.0 467.4 L 820.1 464.0 L 827.1 458.4 L 832.8 451.5 L 835.8 444.6 L 836.9 437.4 L 835.7 428.6 L 829.6 419.7 L 824.2 414.6 L 817.9 411.4 L 810.4 409.9 L 797.6 410.1 L 646.3 423.0 L 668.2 417.6 L 682.8 414.4 L 702.5 409.1 L 808.6 371.5 L 819.0 367.8 L 826.6 364.5 L 829.8 362.8 L 832.6 360.5 L 833.7 357.7 L 834.1 355.3 L 834.1 348.6 L 833.0 334.6 L 830.5 318.3 L 827.7 304.9 L 824.4 286.2 L 822.8 280.0 L 819.8 272.6 L 811.0 262.3 L 800.4 251.2 L 787.1 242.5 L 774.2 236.2 L 760.6 232.8 L 746.4 231.2 L 731.0 233.1 L 718.7 236.9 L 706.8 243.1 L 696.8 250.0 L 688.4 258.2 L 682.4 266.3 L 675.0 274.1 L 665.0 282.6 L 653.6 289.7 L 642.2 294.9 L 630.8 297.7 L 616.2 300.1 L 599.1 299.4 L 580.4 295.6 L 565.3 289.1 L 553.7 281.5 L 544.8 274.0 L 536.5 264.9 L 529.5 255.3 L 524.0 246.4 L 519.4 235.6 L 515.7 220.8 L 493.1 99.3 L 485.6 58.6 L 484.8 53.2 L 483.2 48.6 L 481.6 45.8 L 478.5 43.1 L 474.4 40.9 L 469.8 40.1 L 466.6 40.0 L 462.0 40.4 L 457.8 41.9 L 445.0 47.6 L 406.2 66.2 L 392.5 72.4 L 301.9 109.6 L 243.0 130.3 L 175.5 152.2 L 160.7 158.4 L 146.9 165.6 L 131.7 176.1 L 120.4 187.0 L 111.1 197.7 L 102.0 212.4 L 94.8 227.2 L 89.6 241.8 L 86.6 254.6 L 84.3 280.6 L 83.4 297.4 L 83.5 312.7 L 85.3 323.9 L 87.6 336.2 L 92.2 347.5 L 97.5 357.2 L 104.8 367.2 L 118.1 384.8 L 122.0 392.4 L 124.5 399.1 L 125.3 405.7 L 123.6 412.5 L 121.3 417.2 L 117.2 420.9 L 113.1 422.1 L 106.8 422.4 L 99.4 420.6 L 80.3 413.6 L 70.0 411.4 L 63.5 411.6 L 57.8 412.8 L 52.9 415.6 L 48.5 419.3 L 45.8 422.9 L 43.1 427.9 L 40.9 434.3 L 40.0 442.0 L 40.4 447.7 L 42.1 452.9 L 45.2 458.2 L 48.9 462.0 L 55.3 465.9 L 61.8 467.5 L 69.4 468.4 L 83.2 467.9 L 550.5 430.3 L 646.3 423.0" fill="none" stroke="currentColor" stroke-width="10" stroke-linejoin="round" stroke-linecap="round"/></svg>