<svg xmlns="http://www.w3.org/2000/svg" viewBox="0 0 1000 1000"><path d="M819.8,272.6 L885.8,348.5 L954.0,426.8 L957.6,432.1 L959.6,436.7 L960.0,442.5 L958.8,447.9 L934.2,505.4 L931.2,511.6 L927.8,515.5 L922.7,518.7 L915.4,521.1 L818.8,526.6 L756.3,532.4 L560.5,556.5 L554.3,557.8 L550.0,560.8 L547.6,563.5 L546.2,566.9 L545.6,571.0 L546.8,576.0 L549.5,579.3 L553.0,582.1 L599.1,610.2 L607.7,616.2 L614.0,622.8 L622.5,635.8 L626.3,647.0 L628.3,657.1 L629.5,670.3 L629.5,684.4 L628.5,697.1 L627.0,708.7 L624.5,719.0 L621.1,731.6 L616.2,743.5 L607.1,762.5 L593.0,783.3 L583.7,792.4 L575.5,795.2 L566.7,795.2 L559.8,793.8 L554.0,790.8 L388.5,654.3 L379.4,647.5 L365.2,643.5 L354.3,643.0 L341.7,644.6 L331.6,648.8 L292.0,670.3 L269.8,680.5 L259.0,684.1 L245.7,686.2 L230.3,686.7 L216.1,686.1 L195.7,682.3 L175.5,674.3 L159.8,664.4 L147.5,653.2 L139.4,645.0 L132.1,633.0 L126.7,619.6 L126.5,611.6 L128.3,603.5 L130.7,598.0 L135.9,591.9 L142.3,588.6 L148.1,586.8 L248.9,568.7 L537.3,517.1 L677.3,491.5 L745.0,480.2 L811.0,467.4 L820.1,464.0 L827.1,458.4 L832.8,451.5 L835.8,444.6 L836.9,437.4 L835.7,428.6 L829.6,419.7 L824.2,414.6 L817.9,411.4 L810.4,409.9 L797.6,410.1 L646.3,423.0 L550.5,430.3 L83.2,467.9 L69.4,468.4 L61.8,467.5 L55.3,465.9 L48.9,462.0 L45.2,458.2 L42.1,452.9 L40.4,447.7 L40.0,442.0 L40.9,434.3 L43.1,427.9 L45.8,422.9 L48.5,419.3 L52.9,415.6 L57.8,412.8 L63.5,411.6 L70.0,411.4 L80.3,413.6 L99.4,420.6 L106.8,422.4 L113.1,422.1 L117.2,420.9 L121.3,417.2 L123.6,412.5 L125.3,405.7 L124.5,399.1 L122.0,392.4 L118.1,384.8 L104.8,367.2 L97.5,357.2 L92.2,347.5 L87.6,336.2 L85.3,323.9 L83.5,312.7 L83.4,297.4 L84.3,280.6 L86.6,254.6 L89.6,241.8 L94.8,227.2 L102.0,212.4 L111.1,197.7 L120.4,187.0 L131.7,176.1 L146.9,165.6 L160.7,158.4 L175.5,152.2 L243.0,130.3 L301.9,109.6 L392.5,72.4 L406.2,66.2 L445.0,47.6 L457.8,41.9 L462.0,40.4 L466.6,40.0 L469.8,40.1 L474.4,40.9 L478.5,43.1 L481.6,45.8 L483.2,48.6 L484.8,53.2 L485.6,58.6 L493.1,99.3 L515.7,220.8 L519.4,235.6 L524.0,246.4 L529.5,255.3 L536.5,264.9 L544.8,274.0 L553.7,281.5 L565.3,289.1 L580.4,295.6 L599.1,299.4 L616.2,300.1 L630.8,297.7 L642.2,294.9 L653.6,289.7 L665.0,282.6 L675.0,274.1 L682.4,266.3 L688.4,258.2 L696.8,250.0 L706.8,243.1 L718.7,236.9 L731.0,233.1 L746.4,231.2 L760.6,232.8 L774.2,236.2 L787.1,242.5 L800.4,251.2 L811.0,262.3 L819.8,272.6 Z" fill="none" stroke="currentColor" stroke-width="10" stroke-linejoin="round" stroke-linecap="round" aria-label="Sepang International Circuit"/></svg>