<svg xmlns="http://www.w3.org/2000/svg" viewBox="0 0 1000 1000" role="img" aria-label="Shanghai International Circuit track outline"><path d="M564.1,750.5 L 441.9,779.3 L 325.4,806.7 L 301.8,812.2 L 214.0,832.7 L 206.3,834.3 L 197.6,835.1 L 192.2,834.8 L 185.9,833.9 L 180.2,832.9 L 174.6,831.4 L 169.1,829.5 L 163.0,826.5 L 156.4,822.8 L 149.8,818.0 L 145.2,814.4 L 139.9,808.9 L 135.1,802.6 L 130.7,794.7 L 127.5,786.9 L 125.4,778.7 L 124.4,770.8 L 124.2,762.5 L 125.0,754.1 L 126.5,746.8 L 128.8,740.3 L 132.1,734.2 L 136.4,728.4 L 140.6,724.5 L 146.4,720.6 L 152.2,717.9 L 158.8,716.0 L 164.6,715.2 L 171.5,715.2 L 178.9,716.6 L 184.3,718.9 L 188.7,721.6 L 192.3,725.0 L 195.0,728.9 L 196.2,732.3 L 197.3,736.1 L 197.5,740.3 L 197.0,744.2 L 195.7,748.6 L 191.8,758.7 L 190.5,762.4 L 189.3,765.9 L 188.9,770.3 L 189.3,775.7 L 191.1,782.0 L 194.1,786.8 L 198.2,790.8 L 203.1,793.5 L 208.5,795.5 L 211.9,796.1 L 215.7,796.3 L 218.6,795.7 L 222.1,794.6 L 225.2,793.1 L 228.6,790.9 L 233.8,784.7 L 238.3,777.7 L 241.6,771.4 L 244.2,764.8 L 245.8,758.4 L 247.6,750.0 L 248.3,740.1 L 247.8,734.5 L 246.3,727.3 L 244.0,720.7 L 242.0,716.3 L 238.5,711.2 L 227.6,698.3 L 156.0,615.2 L 108.1,561.4 L 101.0,553.1 L 97.8,548.5 L 95.1,543.7 L 91.6,535.3 L 88.8,527.1 L 41.0,388.6 L 40.0,383.8 L 40.2,377.8 L 42.7,373.1 L 46.6,369.8 L 51.1,368.1 L 56.8,368.2 L 62.5,370.5 L 69.0,374.1 L 75.4,378.3 L 88.0,388.2 L 94.6,393.8 L 101.2,400.1 L 111.3,411.3 L 119.5,422.1 L 124.8,429.8 L 129.2,437.6 L 141.2,459.1 L 191.1,545.1 L 194.3,550.6 L 198.4,556.3 L 203.1,562.5 L 208.5,568.5 L 215.2,574.1 L 221.7,578.8 L 228.8,583.3 L 235.5,587.1 L 242.9,589.7 L 248.9,591.5 L 255.1,593.0 L 261.4,594.0 L 267.8,594.6 L 275.6,594.8 L 281.9,594.7 L 288.2,594.0 L 295.1,592.4 L 301.6,590.7 L 309.1,588.0 L 315.7,585.0 L 324.1,579.9 L 332.7,573.7 L 341.4,565.6 L 349.5,556.1 L 353.7,549.8 L 358.5,541.6 L 371.8,511.7 L 382.6,489.2 L 385.5,483.1 L 390.5,475.6 L 395.3,469.7 L 401.5,463.9 L 408.2,459.3 L 415.7,455.4 L 423.4,452.9 L 430.9,451.3 L 439.2,450.7 L 447.6,451.3 L 456.5,452.9 L 464.1,455.7 L 472.3,459.8 L 480.9,466.2 L 487.5,473.1 L 493.5,480.8 L 497.3,488.1 L 518.1,531.9 L 520.2,536.1 L 523.3,540.2 L 526.8,543.3 L 530.3,545.0 L 537.2,546.5 L 542.4,546.2 L 547.2,544.7 L 550.6,542.9 L 553.6,540.9 L 556.7,538.0 L 584.0,503.0 L 586.0,500.2 L 588.3,496.4 L 589.6,492.7 L 590.1,489.0 L 590.2,485.8 L 589.7,481.9 L 588.4,477.9 L 586.6,473.3 L 578.2,459.6 L 550.8,415.5 L 520.7,365.6 L 503.0,336.1 L 501.9,334.4 L 470.1,282.1 L 450.6,250.1 L 413.5,189.2 L 410.2,185.6 L 407.0,183.6 L 403.4,183.1 L 400.7,183.3 L 397.7,184.1 L 394.1,186.1 L 389.3,190.6 L 385.3,195.5 L 382.6,199.1 L 379.7,204.1 L 376.5,208.1 L 374.0,210.1 L 373.0,211.1 L 369.0,213.4 L 365.1,215.1 L 361.3,216.1 L 357.1,216.2 L 352.4,215.7 L 347.7,214.2 L 340.4,209.3 L 335.2,204.4 L 333.7,202.6 L 331.3,199.7 L 326.9,193.5 L 323.9,188.0 L 321.3,181.7 L 318.6,170.2 L 318.5,168.1 L 317.6,158.7 L 317.8,152.8 L 318.5,147.6 L 319.7,142.0 L 321.4,136.3 L 324.9,129.1 L 330.0,121.0 L 335.2,115.0 L 342.8,108.4 L 353.1,103.0 L 365.1,98.8 L 377.2,96.9 L 382.0,96.7 L 388.3,96.5 L 400.4,97.5 L 412.6,100.4 L 424.4,104.3 L 433.7,109.9 L 444.0,117.1 L 452.1,124.9 L 458.1,132.2 L 465.6,142.3 L 565.1,293.6 L 613.0,366.4 L 651.8,425.4 L 668.7,450.9 L 724.2,534.9 L 731.9,546.6 L 775.7,613.1 L 828.3,693.2 L 952.1,880.4 L 957.8,889.7 L 959.2,893.4 L 960.0,895.8 L 959.9,898.8 L 959.0,900.5 L 957.6,901.8 L 955.5,903.3 L 952.7,903.5 L 949.1,902.8 L 944.4,900.9 L 934.5,895.1 L 909.1,879.9 L 904.3,876.7 L 899.6,871.7 L 894.4,865.6 L 795.9,728.3 L 780.4,707.0 L 777.1,703.5 L 775.0,701.9 L 773.1,701.0 L 770.5,700.8 L 767.8,701.0 L 763.0,701.9 L 646.4,731.2 L 588.1,744.8 L 564.1,750.5 Z" fill="none" stroke="currentColor" stroke-width="10" stroke-linejoin="round" stroke-linecap="round"/></svg>