<svg xmlns="http://www.w3.org/2000/svg" viewBox="0 0 1000 1000" role="img" aria-label="Shanghai International Circuit track outline"><path d="M 564.1 694.0 L 441.9 722.7 L 325.4 750.1 L 301.8 755.7 L 214.0 776.1 L 206.3 777.8 L 197.6 778.5 L 192.2 778.3 L 185.9 777.4 L 180.2 776.3 L 174.6 774.9 L 169.1 773.0 L 163.0 769.9 L 156.4 766.3 L 149.8 761.5 L 145.2 757.8 L 139.9 752.4 L 135.1 746.0 L 130.7 738.2 L 127.5 730.4 L 125.4 722.1 L 124.4 714.3 L 124.2 706.0 L 125.0 697.6 L 126.5 690.3 L 128.8 683.7 L 132.1 677.7 L 136.4 671.9 L 140.6 668.0 L 146.4 664.0 L 152.2 661.4 L 158.8 659.4 L 164.6 658.7 L 171.5 658.7 L 178.9 660.1 L 184.3 662.3 L 188.7 665.0 L 192.3 668.4 L 195.0 672.3 L 196.2 675.7 L 197.3 679.6 L 197.5 683.7 L 197.0 687.6 L 195.7 692.1 L 191.8 702.1 L 190.5 705.8 L 189.3 709.3 L 188.9 713.8 L 189.3 719.2 L 191.1 725.5 L 194.1 730.3 L 198.2 734.3 L 203.1 737.0 L 208.5 739.0 L 211.9 739.6 L 215.7 739.7 L 218.6 739.1 L 222.1 738.0 L 225.2 736.6 L 228.6 734.3 L 233.8 728.1 L 238.3 721.1 L 241.6 714.9 L 244.2 708.2 L 245.8 701.8 L 247.6 693.5 L 248.3 683.5 L 247.8 678.0 L 246.3 670.7 L 244.0 664.1 L 242.0 659.8 L 238.5 654.6 L 227.6 641.7 L 156.0 558.7 L 108.1 504.9 L 101.0 496.6 L 97.8 492.0 L 95.1 487.2 L 91.6 478.8 L 88.8 470.6 L 41.0 332.0 L 40.0 327.3 L 40.2 321.3 L 42.7 316.5 L 46.6 313.3 L 51.1 311.6 L 56.8 311.7 L 62.5 314.0 L 69.0 317.5 L 75.4 321.8 L 88.0 331.7 L 94.6 337.3 L 101.2 343.6 L 111.3 354.7 L 119.5 365.5 L 124.8 373.3 L 129.2 381.1 L 141.2 402.6 L 191.1 488.6 L 194.3 494.0 L 198.4 499.8 L 203.1 506.0 L 208.5 512.0 L 215.2 517.6 L 221.7 522.2 L 228.8 526.8 L 235.5 530.5 L 242.9 533.2 L 248.9 535.0 L 255.1 536.5 L 261.4 537.4 L 267.8 538.0 L 275.6 538.2 L 281.9 538.2 L 288.2 537.4 L 295.1 535.9 L 301.6 534.2 L 309.1 531.5 L 315.7 528.5 L 324.1 523.4 L 332.7 517.2 L 341.4 509.0 L 349.5 499.6 L 353.7 493.3 L 358.5 485.0 L 371.8 455.1 L 382.6 432.6 L 385.5 426.6 L 390.5 419.0 L 395.3 413.1 L 401.5 407.4 L 408.2 402.8 L 415.7 398.8 L 423.4 396.3 L 430.9 394.7 L 439.2 394.1 L 447.6 394.7 L 456.5 396.3 L 464.1 399.2 L 472.3 403.3 L 480.9 409.7 L 487.5 416.5 L 493.5 424.3 L 497.3 431.6 L 518.1 475.3 L 520.2 479.6 L 523.3 483.7 L 526.8 486.7 L 530.3 488.5 L 537.2 490.0 L 542.4 489.6 L 547.2 488.2 L 550.6 486.4 L 553.6 484.4 L 556.7 481.5 L 584.0 446.5 L 586.0 443.7 L 588.3 439.8 L 589.6 436.1 L 590.1 432.5 L 590.2 429.3 L 589.7 425.3 L 588.4 421.3 L 586.6 416.7 L 578.2 403.1 L 550.8 359.0 L 520.7 309.1 L 503.0 279.6 L 501.9 277.9 L 470.1 225.6 L 450.6 193.5 L 413.5 132.6 L 410.2 129.0 L 407.0 127.0 L 403.4 126.5 L 400.7 126.8 L 397.7 127.6 L 394.1 129.6 L 389.3 134.0 L 385.3 138.9 L 382.6 142.6 L 379.7 147.6 L 376.5 151.5 L 374.0 153.6 L 373.0 154.5 L 369.0 156.9 L 365.1 158.6 L 361.3 159.5 L 357.1 159.7 L 352.4 159.2 L 347.7 157.7 L 340.4 152.7 L 335.2 147.9 L 333.7 146.0 L 331.3 143.1 L 326.9 137.0 L 323.9 131.5 L 321.3 125.1 L 318.6 113.7 L 318.5 111.5 L 317.6 102.2 L 317.8 96.2 L 318.5 91.1 L 319.7 85.5 L 321.4 79.8 L 324.9 72.5 L 330.0 64.4 L 335.2 58.5 L 342.8 51.8 L 353.1 46.4 L 365.1 42.3 L 377.2 40.3 L 382.0 40.2 L 388.3 40.0 L 400.4 40.9 L 412.6 43.8 L 424.4 47.8 L 433.7 53.4 L 444.0 60.6 L 452.1 68.4 L 458.1 75.6 L 465.6 85.8 L 565.1 237.1 L 613.0 309.8 L 651.8 368.9 L 668.7 394.4 L 724.2 478.4 L 731.9 490.0 L 775.7 556.6 L 828.3 636.6 L 952.1 823.9 L 957.8 833.2 L 959.2 836.9 L 960.0 839.3 L 959.9 842.2 L 959.0 843.9 L 957.6 845.3 L 955.5 846.7 L 952.7 846.9 L 949.1 846.2 L 944.4 844.4 L 934.5 838.5 L 909.1 823.4 L 904.3 820.1 L 899.6 815.2 L 894.4 809.0 L 795.9 671.8 L 780.4 650.4 L 777.1 647.0 L 775.0 645.3 L 773.1 644.5 L 770.5 644.2 L 767.8 644.5 L 763.0 645.4 L 646.4 674.7 L 588.1 688.3 L 564.1 694.0 L 564.1 694.0 Z" fill="none" stroke="currentColor" stroke-width="10" stroke-linejoin="round" stroke-linecap="round"/></svg>