<svg xmlns="http://www.w3.org/2000/svg" viewBox="0 0 1000 1000" role="img" aria-label="Silverstone Circuit track outline"><path d="M 569.6 413.6 L 567.9 418.1 L 566.7 421.3 L 564.9 426.4 L 564.5 428.0 L 563.9 430.4 L 563.2 433.8 L 562.7 437.0 L 562.3 440.5 L 562.0 443.8 L 561.9 447.2 L 561.9 450.1 L 562.3 453.7 L 562.7 456.5 L 563.6 459.9 L 564.6 463.0 L 565.4 465.4 L 566.8 468.3 L 568.4 471.2 L 569.7 473.0 L 571.7 475.6 L 580.9 487.4 L 583.6 490.6 L 584.8 492.2 L 586.2 494.2 L 587.3 495.9 L 588.4 498.5 L 589.6 501.7 L 590.1 503.4 L 590.7 505.8 L 591.3 509.6 L 591.5 511.9 L 591.5 514.1 L 591.4 516.5 L 591.2 518.8 L 590.9 521.9 L 590.3 524.4 L 589.4 527.2 L 588.3 529.7 L 587.0 532.1 L 584.9 535.9 L 583.5 537.9 L 581.4 540.3 L 579.2 542.6 L 574.9 546.1 L 574.7 546.3 L 572.6 547.8 L 570.5 549.3 L 567.6 551.1 L 564.8 552.9 L 561.2 555.2 L 557.6 557.4 L 554.5 559.3 L 551.1 561.4 L 548.5 563.0 L 546.7 563.9 L 543.9 565.4 L 540.1 567.5 L 536.5 570.0 L 534.9 571.2 L 532.7 572.7 L 530.2 574.8 L 528.4 576.4 L 526.6 578.1 L 524.8 580.1 L 523.5 581.6 L 522.0 583.6 L 520.6 585.5 L 518.9 588.2 L 517.0 591.4 L 514.7 595.7 L 476.7 665.1 L 446.7 722.6 L 405.0 801.5 L 390.2 828.7 L 383.5 841.4 L 376.4 854.1 L 374.2 857.9 L 369.7 865.5 L 366.5 870.8 L 364.4 874.4 L 362.3 877.5 L 358.2 884.2 L 354.4 890.2 L 348.0 899.9 L 342.9 907.4 L 340.4 911.1 L 338.2 914.4 L 333.1 921.6 L 329.9 925.9 L 326.3 931.1 L 322.4 936.3 L 319.6 939.9 L 317.8 942.2 L 315.6 944.6 L 313.9 946.3 L 312.4 947.8 L 310.4 949.4 L 309.1 950.4 L 307.7 951.6 L 306.1 952.9 L 304.1 954.1 L 301.6 955.3 L 298.6 956.6 L 296.3 957.5 L 293.7 958.3 L 291.1 959.0 L 287.8 959.5 L 285.5 959.7 L 283.2 959.9 L 281.1 960.0 L 278.5 960.0 L 274.4 959.6 L 271.4 959.1 L 268.6 958.3 L 265.8 957.4 L 263.1 956.4 L 260.2 955.2 L 256.9 953.5 L 254.2 951.8 L 251.8 950.1 L 250.3 948.9 L 248.8 947.5 L 246.8 945.7 L 245.3 944.2 L 243.6 942.2 L 242.3 940.5 L 240.9 938.5 L 239.3 935.9 L 238.1 933.9 L 236.6 930.9 L 235.1 926.9 L 233.7 923.3 L 232.2 920.0 L 230.7 916.5 L 229.3 913.6 L 227.8 910.7 L 226.3 907.9 L 224.5 904.5 L 222.6 901.1 L 220.3 897.0 L 217.3 892.3 L 210.0 881.0 L 207.7 877.5 L 204.8 873.4 L 200.8 867.9 L 198.3 864.8 L 196.2 862.0 L 193.5 858.7 L 191.0 855.9 L 184.9 849.2 L 182.3 846.6 L 165.0 828.2 L 152.9 814.6 L 134.0 792.0 L 126.0 782.7 L 124.4 781.0 L 122.4 779.7 L 120.5 779.0 L 118.1 778.7 L 115.8 779.1 L 113.7 779.7 L 111.6 780.8 L 109.5 782.5 L 97.7 794.4 L 96.6 795.2 L 94.6 796.6 L 91.8 797.5 L 88.2 798.1 L 86.8 798.1 L 84.7 798.0 L 82.2 797.5 L 79.9 796.6 L 77.8 795.4 L 75.3 793.5 L 72.1 790.3 L 67.3 785.3 L 63.0 780.2 L 58.9 775.1 L 57.7 773.4 L 54.5 768.7 L 52.0 764.2 L 49.0 758.4 L 46.3 752.1 L 44.1 745.6 L 42.7 740.4 L 41.3 734.9 L 40.9 732.2 L 40.5 729.6 L 40.0 725.2 L 40.2 721.4 L 40.7 718.3 L 41.7 715.6 L 43.0 713.4 L 45.0 710.7 L 49.2 705.4 L 49.9 704.5 L 51.9 701.9 L 70.9 677.0 L 119.8 612.8 L 174.9 540.7 L 194.7 515.0 L 198.6 509.8 L 202.5 505.0 L 204.4 502.8 L 205.5 501.9 L 206.5 501.0 L 208.1 500.0 L 209.8 499.1 L 211.6 498.2 L 213.4 497.4 L 215.0 496.8 L 217.2 496.3 L 219.4 495.7 L 221.5 495.3 L 224.5 494.8 L 227.9 494.4 L 230.9 494.1 L 233.4 493.9 L 237.0 493.9 L 242.2 494.0 L 245.1 494.2 L 248.0 494.5 L 254.4 495.4 L 261.5 496.5 L 270.0 497.7 L 292.7 501.3 L 299.4 502.4 L 303.2 502.7 L 306.9 502.9 L 311.0 502.8 L 315.7 502.3 L 319.8 501.9 L 323.9 501.2 L 327.7 500.1 L 331.5 499.1 L 334.3 498.2 L 338.3 496.6 L 341.9 495.0 L 346.0 492.9 L 349.9 490.5 L 356.2 485.7 L 431.2 425.6 L 434.1 424.0 L 436.0 423.2 L 437.5 422.7 L 439.1 422.5 L 440.9 422.3 L 442.5 422.2 L 443.8 422.3 L 445.2 422.7 L 446.9 423.4 L 448.2 424.1 L 449.5 425.0 L 450.8 426.0 L 452.0 427.1 L 453.2 429.1 L 454.1 431.4 L 457.0 440.2 L 469.4 480.7 L 469.9 481.8 L 470.3 482.8 L 470.8 483.6 L 471.4 484.5 L 472.3 485.6 L 473.4 486.7 L 474.5 487.7 L 475.8 488.5 L 477.1 489.2 L 478.4 489.8 L 480.1 490.2 L 481.4 490.4 L 482.7 490.4 L 484.2 490.1 L 485.4 489.7 L 487.0 489.0 L 488.6 487.9 L 490.3 486.3 L 491.7 484.7 L 492.8 482.9 L 494.6 479.7 L 495.7 477.8 L 496.9 475.2 L 498.0 472.7 L 499.4 469.2 L 500.7 466.1 L 502.5 461.5 L 504.4 455.8 L 505.8 450.8 L 507.4 445.1 L 508.8 439.0 L 510.0 433.5 L 511.0 427.8 L 511.8 421.4 L 512.3 415.0 L 512.6 410.8 L 512.7 407.1 L 512.8 402.8 L 512.6 399.7 L 512.1 396.6 L 511.4 393.7 L 510.5 391.2 L 509.5 389.3 L 508.4 387.6 L 506.7 385.7 L 501.3 380.5 L 492.1 372.3 L 480.6 361.0 L 470.1 351.4 L 459.5 341.8 L 385.9 274.5 L 349.8 241.8 L 329.5 223.3 L 325.2 219.4 L 289.2 187.0 L 254.1 155.9 L 250.9 153.5 L 248.4 152.0 L 246.3 150.9 L 243.8 149.8 L 241.2 148.7 L 238.7 148.0 L 236.6 147.4 L 234.8 147.0 L 233.4 146.7 L 230.7 146.5 L 227.9 146.5 L 225.2 146.4 L 222.5 146.6 L 219.7 147.0 L 217.1 147.6 L 214.5 148.4 L 211.9 149.3 L 209.4 150.5 L 208.2 151.1 L 206.1 152.4 L 205.3 153.0 L 204.2 153.8 L 203.4 154.6 L 202.0 156.2 L 201.2 157.1 L 200.3 158.2 L 199.6 159.3 L 198.9 160.6 L 198.2 162.0 L 197.5 163.9 L 197.0 165.9 L 196.7 167.8 L 193.5 202.3 L 192.8 206.3 L 191.6 210.0 L 190.7 211.9 L 189.6 213.7 L 188.3 215.7 L 186.8 217.7 L 185.4 219.4 L 183.7 220.9 L 181.5 222.7 L 179.9 223.8 L 178.5 224.7 L 177.3 225.3 L 176.0 225.9 L 174.3 226.6 L 172.3 227.3 L 170.5 227.8 L 168.9 228.0 L 167.0 228.2 L 164.8 228.3 L 162.9 228.2 L 160.8 228.0 L 159.0 227.6 L 157.0 227.0 L 155.2 226.3 L 152.9 225.3 L 150.4 224.0 L 148.5 222.7 L 146.8 221.5 L 145.5 220.2 L 144.2 218.9 L 143.0 217.4 L 141.4 215.2 L 140.9 214.3 L 139.9 212.6 L 139.0 210.8 L 138.4 209.2 L 137.8 207.8 L 137.4 206.5 L 137.0 205.3 L 136.8 204.1 L 136.5 202.8 L 136.3 201.0 L 136.2 199.8 L 136.3 198.3 L 136.3 197.0 L 136.5 195.6 L 136.7 193.7 L 137.2 191.7 L 137.7 189.6 L 138.8 186.9 L 139.9 184.8 L 148.8 167.4 L 159.0 146.5 L 166.7 130.8 L 170.2 123.7 L 171.1 121.9 L 172.1 119.9 L 173.2 118.2 L 174.3 116.5 L 176.2 113.6 L 178.1 111.0 L 179.7 108.9 L 182.5 105.8 L 185.6 102.3 L 188.8 98.7 L 191.6 95.6 L 194.4 92.9 L 201.1 86.8 L 208.4 81.0 L 211.8 78.4 L 214.8 76.3 L 217.2 74.6 L 222.7 71.3 L 227.8 68.5 L 231.5 66.9 L 235.0 65.5 L 239.7 63.9 L 245.4 62.3 L 249.9 61.1 L 254.2 60.3 L 258.9 59.5 L 263.7 58.8 L 269.9 58.1 L 278.6 57.1 L 301.5 54.8 L 372.8 48.0 L 465.6 40.5 L 476.0 40.1 L 478.8 40.0 L 481.3 40.1 L 483.9 40.2 L 486.4 40.7 L 490.4 41.8 L 493.7 43.1 L 497.0 44.5 L 500.7 46.3 L 504.9 48.9 L 509.9 52.9 L 513.1 56.0 L 515.2 58.3 L 517.2 60.9 L 518.9 63.4 L 520.5 66.0 L 522.0 69.1 L 524.9 76.3 L 527.5 83.9 L 529.7 89.9 L 531.4 95.8 L 533.9 104.2 L 539.7 124.9 L 543.6 141.3 L 545.4 150.4 L 547.8 162.7 L 549.8 175.6 L 550.7 182.8 L 551.4 190.0 L 552.3 200.5 L 553.0 210.5 L 554.0 225.1 L 554.9 241.5 L 556.0 266.0 L 556.8 290.3 L 557.1 296.9 L 557.4 303.1 L 557.7 306.6 L 558.2 310.1 L 558.8 313.7 L 559.8 317.8 L 561.1 322.3 L 562.1 325.0 L 563.4 328.2 L 565.0 331.9 L 566.7 335.6 L 568.0 338.3 L 569.3 340.5 L 571.1 343.7 L 573.0 346.5 L 578.2 354.6 L 579.7 357.2 L 580.7 359.9 L 581.6 362.8 L 582.0 364.3 L 582.3 366.0 L 582.5 367.5 L 582.7 369.4 L 582.7 370.8 L 582.7 372.4 L 582.6 374.4 L 582.5 375.9 L 582.3 377.3 L 582.0 378.8 L 581.4 381.0 L 580.6 383.5 L 580.1 385.3 L 579.0 388.3 L 575.3 397.9 L 571.9 407.2 L 569.6 413.6 L 569.6 413.6 Z" fill="none" stroke="currentColor" stroke-width="10" stroke-linejoin="round" stroke-linecap="round"/></svg>