<svg xmlns="http://www.w3.org/2000/svg" viewBox="0 0 1000 1000" role="img" aria-label="Sochi Autodrom track outline"><path d="M 77.4 641.8 L 136.9 636.0 L 175.1 631.6 L 200.3 627.1 L 265.2 609.8 L 303.1 597.4 L 314.5 597.5 L 320.5 601.8 L 325.4 606.0 L 330.3 616.7 L 357.1 700.1 L 362.8 711.5 L 368.4 718.6 L 377.7 724.1 L 396.9 726.2 L 416.5 723.8 L 449.2 715.9 L 463.4 710.8 L 479.7 702.9 L 494.3 692.3 L 505.2 682.3 L 523.2 662.0 L 601.6 544.9 L 603.9 539.7 L 605.6 534.1 L 606.3 529.1 L 606.1 524.3 L 604.5 520.4 L 602.3 516.5 L 599.6 513.2 L 596.2 510.3 L 546.0 475.1 L 540.5 470.6 L 536.1 466.1 L 532.4 461.2 L 529.6 455.9 L 527.3 449.4 L 526.0 443.0 L 525.9 436.9 L 527.1 430.3 L 529.1 423.9 L 532.0 418.3 L 663.1 210.8 L 764.1 52.7 L 767.5 47.6 L 772.4 42.9 L 776.4 41.2 L 780.7 40.4 L 784.7 40.0 L 788.7 40.6 L 952.0 114.7 L 955.9 118.4 L 958.1 122.0 L 959.5 126.3 L 960.0 130.6 L 960.0 134.0 L 959.4 137.3 L 957.1 143.3 L 953.9 148.6 L 626.1 658.5 L 612.5 677.2 L 601.2 690.3 L 586.1 705.6 L 567.6 720.6 L 541.8 737.6 L 515.7 753.2 L 485.1 767.4 L 438.1 783.2 L 286.1 824.8 L 237.8 838.0 L 231.5 837.8 L 225.5 836.2 L 220.1 832.7 L 215.4 827.2 L 202.5 778.6 L 194.5 764.1 L 184.5 751.9 L 171.5 742.8 L 120.3 721.0 L 65.5 706.9 L 45.5 697.6 L 41.9 692.6 L 40.5 686.6 L 40.0 676.7 L 44.1 668.1 L 60.0 650.1 L 69.2 644.0 L 77.4 641.8 L 77.4 641.8 Z" fill="none" stroke="currentColor" stroke-width="10" stroke-linejoin="round" stroke-linecap="round"/></svg>