<svg xmlns="http://www.w3.org/2000/svg" viewBox="0 0 1000 1000" role="img" aria-label="Solitudering track outline"><path d="M960.0,538.9 L 959.5,538.6 L 958.5,537.7 L 956.3,535.5 L 954.8,534.6 L 954.2,534.1 L 953.1,533.0 L 951.7,531.8 L 949.3,530.1 L 947.4,528.9 L 945.1,527.6 L 942.5,526.5 L 940.0,525.4 L 936.7,524.5 L 933.6,523.7 L 930.7,523.2 L 929.6,523.1 L 927.7,523.0 L 925.3,522.8 L 922.6,522.7 L 915.3,522.3 L 895.1,521.4 L 885.2,520.9 L 881.7,520.7 L 879.9,520.8 L 879.1,520.8 L 876.5,521.2 L 873.9,521.8 L 872.1,522.4 L 871.3,522.6 L 868.8,523.7 L 864.7,525.6 L 847.8,533.8 L 845.5,534.9 L 842.6,536.0 L 840.1,536.7 L 837.5,537.3 L 834.6,537.7 L 831.9,537.9 L 829.0,537.9 L 825.1,537.5 L 821.3,536.9 L 806.7,534.7 L 801.5,534.0 L 799.6,533.7 L 796.0,533.3 L 792.9,533.0 L 790.2,533.1 L 787.4,533.3 L 781.6,534.3 L 770.7,536.1 L 768.0,536.5 L 762.6,537.1 L 759.8,537.3 L 757.1,537.3 L 754.1,537.2 L 745.8,537.1 L 743.4,537.0 L 740.5,537.1 L 737.9,537.4 L 735.3,537.9 L 732.7,538.6 L 730.1,539.6 L 727.6,540.8 L 717.4,546.5 L 715.8,547.3 L 713.5,548.5 L 711.1,549.4 L 708.5,550.2 L 705.8,550.8 L 703.3,551.1 L 701.6,551.2 L 697.7,551.1 L 695.1,550.8 L 692.4,550.1 L 690.3,549.4 L 687.2,548.2 L 685.2,547.1 L 682.5,545.4 L 680.6,544.0 L 669.6,535.7 L 667.6,534.3 L 664.7,532.6 L 662.5,531.5 L 660.3,530.7 L 657.7,530.0 L 655.2,529.6 L 652.3,529.5 L 649.6,529.5 L 646.9,529.7 L 638.4,530.6 L 636.3,530.8 L 633.4,531.0 L 631.0,531.1 L 628.2,530.8 L 625.5,530.4 L 622.8,529.6 L 620.2,528.6 L 617.7,527.2 L 615.6,525.7 L 613.5,523.9 L 611.7,522.1 L 610.7,521.1 L 601.2,509.9 L 599.5,507.9 L 597.4,506.0 L 596.4,505.1 L 595.3,504.3 L 594.3,503.7 L 592.9,502.9 L 591.8,502.3 L 590.5,501.7 L 589.4,501.2 L 588.8,501.0 L 588.1,500.8 L 586.9,500.4 L 584.0,499.8 L 581.8,499.4 L 574.7,498.6 L 570.1,498.0 L 564.0,497.2 L 561.0,496.7 L 558.2,496.0 L 555.4,495.1 L 553.4,494.3 L 551.6,493.5 L 549.6,492.3 L 547.3,490.8 L 546.0,489.8 L 544.1,488.1 L 542.3,486.3 L 540.0,483.7 L 525.5,466.0 L 523.7,463.8 L 522.0,461.7 L 520.0,459.4 L 518.2,457.4 L 516.4,455.3 L 514.5,453.3 L 512.4,451.4 L 510.3,449.5 L 508.6,448.0 L 506.3,446.2 L 503.6,444.1 L 484.4,429.3 L 482.4,427.8 L 480.1,426.1 L 477.9,424.6 L 475.7,423.3 L 473.3,422.0 L 470.9,420.8 L 468.5,419.8 L 466.0,418.8 L 463.5,417.9 L 451.4,413.4 L 448.8,412.4 L 446.2,411.1 L 443.6,409.7 L 441.1,408.2 L 438.8,406.7 L 436.6,405.1 L 428.1,397.9 L 423.6,393.8 L 421.4,392.1 L 420.1,391.0 L 418.3,389.7 L 416.1,388.3 L 414.1,387.3 L 411.4,386.2 L 409.4,385.5 L 404.6,384.4 L 397.1,382.7 L 393.9,381.9 L 391.4,380.9 L 389.3,380.0 L 386.5,378.4 L 384.1,376.7 L 381.5,374.4 L 375.6,368.6 L 372.3,365.3 L 370.7,363.7 L 368.7,361.9 L 365.8,359.7 L 363.9,358.6 L 362.0,357.7 L 359.2,356.6 L 356.4,355.9 L 353.4,355.4 L 350.8,355.1 L 346.2,354.8 L 344.8,354.7 L 339.9,354.4 L 337.2,354.1 L 334.6,353.7 L 331.9,353.0 L 329.0,352.0 L 326.6,351.0 L 324.2,349.5 L 321.8,347.7 L 319.4,345.2 L 317.1,342.3 L 315.7,340.0 L 314.8,338.2 L 314.2,336.8 L 313.4,334.4 L 312.8,331.7 L 312.7,329.6 L 312.5,327.6 L 312.4,325.0 L 312.5,323.0 L 312.5,322.0 L 312.7,317.8 L 312.9,313.2 L 312.9,310.6 L 312.8,304.9 L 312.6,302.5 L 312.2,300.2 L 311.5,297.2 L 310.9,294.9 L 310.1,292.2 L 309.1,289.2 L 307.2,283.7 L 305.8,279.7 L 302.5,270.7 L 300.6,265.7 L 299.5,263.0 L 298.3,260.5 L 297.0,258.3 L 295.5,256.1 L 293.9,253.9 L 292.3,252.2 L 290.7,250.6 L 288.6,248.9 L 286.8,247.6 L 284.5,246.2 L 282.0,244.9 L 278.7,243.6 L 276.1,242.7 L 272.1,242.1 L 267.5,241.5 L 253.2,239.7 L 251.2,239.5 L 226.5,236.3 L 219.8,235.3 L 197.3,232.4 L 188.8,231.1 L 187.3,230.9 L 178.1,229.5 L 170.9,228.6 L 160.1,227.3 L 155.9,227.0 L 149.7,227.0 L 142.9,227.1 L 139.2,227.2 L 139.2,228.8 L 139.2,230.7 L 139.2,233.0 L 139.0,236.9 L 138.8,240.1 L 138.5,246.0 L 138.4,249.2 L 138.3,256.8 L 139.0,260.4 L 140.2,264.3 L 141.2,266.3 L 142.1,267.9 L 143.4,269.4 L 144.7,270.7 L 146.8,272.5 L 149.0,273.6 L 151.6,274.7 L 154.5,275.4 L 163.6,277.3 L 172.3,278.9 L 184.7,282.3 L 195.2,285.0 L 197.2,285.6 L 199.4,286.3 L 200.8,286.9 L 202.6,287.9 L 204.5,289.1 L 206.1,290.8 L 206.9,292.7 L 207.2,294.3 L 207.1,296.1 L 206.4,298.4 L 205.2,300.4 L 203.0,302.0 L 198.7,304.0 L 188.4,307.3 L 184.0,308.8 L 181.9,309.7 L 179.0,311.1 L 172.7,314.6 L 167.4,318.2 L 160.8,323.9 L 156.2,329.1 L 145.1,342.2 L 133.3,356.2 L 128.2,362.0 L 122.8,368.5 L 117.7,374.8 L 110.5,384.0 L 108.4,386.7 L 99.4,398.4 L 95.2,403.8 L 91.6,408.6 L 83.4,422.7 L 79.3,434.0 L 77.5,442.3 L 76.7,449.8 L 76.4,457.6 L 77.2,466.0 L 82.0,490.9 L 85.5,516.0 L 86.2,531.3 L 86.5,543.8 L 87.0,555.0 L 87.1,562.1 L 87.1,564.3 L 87.1,566.4 L 87.0,568.8 L 86.6,572.1 L 86.1,575.2 L 85.2,579.1 L 83.8,583.6 L 81.5,589.6 L 75.7,602.7 L 69.5,616.1 L 67.7,620.0 L 66.7,622.5 L 64.2,628.2 L 62.6,632.7 L 61.4,636.3 L 60.9,638.8 L 60.7,640.4 L 60.2,644.7 L 60.0,652.2 L 59.8,655.0 L 59.5,659.7 L 59.1,665.8 L 58.7,671.2 L 58.1,675.2 L 57.5,679.6 L 55.9,688.1 L 53.9,699.3 L 52.4,706.2 L 51.4,711.8 L 49.4,723.2 L 46.0,736.0 L 42.3,747.3 L 40.6,752.4 L 40.0,755.7 L 40.1,759.2 L 41.0,762.3 L 42.2,765.1 L 43.1,766.3 L 44.7,768.4 L 48.2,771.8 L 49.4,772.5 L 50.8,772.9 L 51.6,773.0 L 52.4,773.0 L 53.6,772.9 L 55.3,772.3 L 61.6,769.9 L 83.1,752.0 L 92.4,744.4 L 99.6,739.3 L 108.3,733.5 L 116.2,728.7 L 125.0,724.0 L 133.4,720.0 L 140.9,716.7 L 148.4,713.9 L 156.1,711.2 L 168.5,707.5 L 194.4,700.7 L 219.6,694.4 L 245.3,687.9 L 257.7,684.9 L 266.3,683.3 L 273.8,682.5 L 284.2,682.2 L 290.2,682.5 L 296.3,683.3 L 301.7,684.3 L 308.0,685.9 L 317.9,689.2 L 323.9,691.7 L 330.8,695.3 L 337.6,699.5 L 345.6,705.0 L 368.4,721.3 L 378.4,727.9 L 384.5,731.6 L 388.5,733.7 L 393.3,736.1 L 402.1,739.7 L 408.5,741.8 L 416.8,743.9 L 424.4,745.4 L 429.7,746.0 L 432.5,746.1 L 441.4,746.1 L 447.3,745.8 L 453.9,745.3 L 457.5,744.9 L 500.8,739.3 L 534.1,735.0 L 551.7,732.7 L 562.3,731.3 L 566.9,730.6 L 571.9,729.7 L 578.5,727.9 L 584.2,725.9 L 594.2,721.8 L 616.2,712.8 L 659.7,694.8 L 678.4,687.2 L 700.6,678.2 L 710.9,673.7 L 720.7,668.8 L 749.9,653.8 L 761.3,647.9 L 787.2,634.5 L 800.9,627.6 L 813.0,621.0 L 817.8,618.1 L 821.0,616.2 L 823.7,614.6 L 826.1,613.0 L 840.9,602.9 L 852.0,595.1 L 856.5,591.9 L 860.5,588.8 L 866.1,584.2 L 871.9,579.0 L 875.8,575.7 L 878.1,574.0 L 880.0,572.9 L 881.7,572.3 L 882.8,572.0 L 884.0,571.7 L 885.3,571.5 L 886.8,571.6 L 887.9,571.8 L 889.1,572.1 L 890.4,572.6 L 891.7,573.4 L 892.9,574.3 L 893.5,575.0 L 894.2,575.9 L 894.8,576.7 L 895.3,577.6 L 895.7,578.7 L 896.0,579.7 L 896.3,580.8 L 896.4,581.7 L 896.5,582.8 L 896.4,584.4 L 896.1,585.9 L 895.7,587.7 L 895.1,589.5 L 893.0,595.9 L 892.3,598.3 L 891.9,600.1 L 891.8,601.3 L 891.9,602.6 L 892.0,603.9 L 892.3,605.2 L 892.7,606.2 L 893.2,607.1 L 893.8,608.0 L 894.8,609.1 L 895.9,609.8 L 896.9,610.3 L 898.1,610.8 L 899.6,611.1 L 900.9,611.2 L 902.3,611.1 L 903.5,610.7 L 904.8,610.1 L 905.9,609.5 L 907.0,608.7 L 909.1,606.7 L 910.9,604.7 L 912.1,603.0 L 915.1,598.7 L 919.0,592.9 L 921.5,589.3 L 925.4,583.7 L 933.2,571.9 L 936.4,567.4 L 937.8,565.2 L 938.4,564.2 L 940.6,561.4 L 942.7,558.3 L 943.9,556.7 L 944.6,555.7 L 945.7,554.2 L 949.6,550.4 L 952.4,548.0 L 954.6,546.3 L 955.5,544.9 L 956.9,543.8 L 957.8,543.1 L 960.0,538.9 Z" fill="none" stroke="currentColor" stroke-width="10" stroke-linejoin="round" stroke-linecap="round"/></svg>