<svg xmlns="http://www.w3.org/2000/svg" viewBox="0 0 1000 1000" role="img" aria-label="Circuit de Spa-Francorchamps track outline"><path d="M 105.3 68.6 L 96.4 66.0 L 90.3 63.2 L 84.4 60.3 L 78.8 57.8 L 74.9 56.3 L 71.0 55.1 L 67.7 55.0 L 64.6 55.8 L 62.5 56.9 L 60.6 58.3 L 59.5 60.1 L 58.8 62.0 L 58.6 64.0 L 59.1 66.9 L 60.6 70.1 L 64.6 77.0 L 111.4 160.4 L 130.2 193.1 L 132.8 197.9 L 135.6 202.6 L 137.9 205.0 L 139.5 206.7 L 145.7 213.5 L 151.9 220.3 L 153.6 222.6 L 155.3 225.6 L 161.7 236.7 L 167.0 246.2 L 170.2 252.4 L 173.4 259.4 L 174.1 261.4 L 174.4 263.3 L 174.6 265.8 L 174.3 267.5 L 173.6 269.8 L 172.9 271.3 L 171.9 272.7 L 170.4 274.1 L 169.4 274.9 L 168.3 275.3 L 166.5 275.9 L 164.3 276.3 L 162.2 276.4 L 158.2 275.8 L 153.7 275.2 L 149.0 273.2 L 156.9 273.6 L 158.8 273.3 L 160.8 272.7 L 162.2 271.5 L 163.4 269.9 L 164.0 268.2 L 164.1 266.3 L 164.0 264.5 L 163.5 262.7 L 162.5 260.9 L 157.7 254.2 L 124.8 196.6 L 97.5 148.7 L 54.8 73.5 L 43.2 53.3 L 40.1 47.4 L 40.0 45.3 L 40.6 43.1 L 41.4 41.9 L 42.6 40.7 L 46.3 40.0 L 49.7 41.3 L 53.3 42.8 L 72.5 51.4 L 91.7 60.8 L 105.3 68.6 L 114.2 73.2 L 123.7 78.9 L 132.7 84.7 L 144.3 93.2 L 150.6 98.2 L 156.0 102.9 L 161.3 107.4 L 168.9 114.4 L 178.8 125.0 L 208.4 159.5 L 245.8 203.7 L 250.8 209.7 L 258.7 219.1 L 261.8 222.4 L 263.1 223.9 L 265.7 226.1 L 272.0 230.5 L 275.9 232.8 L 281.8 236.4 L 284.3 237.9 L 287.7 240.2 L 290.9 242.6 L 293.5 244.9 L 296.0 247.3 L 298.3 250.4 L 299.9 252.4 L 301.8 255.5 L 303.5 258.6 L 305.2 261.9 L 307.1 266.6 L 309.2 272.8 L 310.6 278.8 L 311.4 283.7 L 312.0 288.3 L 312.8 294.2 L 313.6 298.9 L 314.0 301.7 L 314.6 304.3 L 315.8 307.6 L 317.3 311.0 L 318.6 313.4 L 319.9 315.6 L 323.9 322.2 L 334.7 339.0 L 367.3 390.1 L 374.6 400.8 L 377.9 405.6 L 380.7 409.9 L 383.3 414.2 L 385.4 418.0 L 387.4 421.9 L 389.7 426.5 L 391.6 431.0 L 394.9 439.8 L 397.9 451.6 L 406.9 483.1 L 439.2 596.5 L 480.4 741.3 L 483.1 750.2 L 485.4 757.9 L 487.3 764.5 L 487.9 767.6 L 488.2 769.9 L 488.2 772.3 L 488.0 774.1 L 487.3 777.0 L 486.3 780.1 L 484.7 782.6 L 482.6 785.4 L 480.1 787.8 L 478.3 788.9 L 475.7 790.3 L 472.0 792.3 L 470.4 793.4 L 469.0 794.6 L 466.6 796.7 L 464.3 799.9 L 463.0 802.3 L 461.9 805.0 L 461.2 807.3 L 460.9 809.6 L 460.9 811.7 L 461.1 813.8 L 461.3 815.8 L 462.2 820.3 L 470.1 852.1 L 471.4 858.1 L 471.9 861.9 L 471.5 865.3 L 471.0 867.1 L 470.4 869.7 L 469.7 871.3 L 468.6 873.4 L 467.5 875.5 L 466.1 877.1 L 464.9 878.7 L 463.1 880.2 L 457.7 884.2 L 450.6 889.0 L 356.9 954.2 L 352.4 957.2 L 349.2 958.7 L 347.1 959.4 L 343.7 960.0 L 340.5 960.0 L 337.4 959.6 L 334.1 958.8 L 330.5 957.2 L 327.8 955.4 L 325.4 953.2 L 323.2 950.3 L 321.6 947.4 L 320.5 944.4 L 319.9 941.5 L 319.6 938.5 L 319.7 935.3 L 320.2 932.3 L 321.1 929.4 L 322.4 926.9 L 324.0 924.4 L 326.0 922.2 L 327.5 920.8 L 330.2 918.8 L 333.5 916.7 L 336.7 914.8 L 355.9 902.6 L 367.7 895.2 L 370.2 893.8 L 374.6 891.1 L 378.6 888.3 L 380.9 886.2 L 383.0 883.5 L 384.6 880.5 L 385.7 877.4 L 386.3 873.9 L 386.5 871.1 L 386.4 868.2 L 385.5 865.0 L 383.3 858.3 L 375.9 836.3 L 368.2 812.1 L 364.2 799.0 L 362.0 791.2 L 364.3 807.8 L 368.5 832.7 L 375.2 869.4 L 376.0 874.1 L 376.3 876.3 L 376.2 878.6 L 376.0 880.8 L 375.6 882.9 L 374.2 886.8 L 372.5 890.0 L 370.2 893.8" fill="none" stroke="currentColor" stroke-width="10" stroke-linejoin="round" stroke-linecap="round"/></svg>