<svg xmlns="http://www.w3.org/2000/svg" viewBox="0 0 1000 1000" role="img" aria-label="Suzuka International Racing Course track outline"><path d="M 646.1 163.2 L 652.7 161.9 L 657.5 161.6 L 663.4 161.8 L 669.7 162.5 L 679.7 165.3 L 687.4 168.2 L 689.0 168.9 L 699.0 173.5 L 705.4 177.4 L 713.4 182.6 L 719.9 187.6 L 724.4 191.4 L 728.8 196.0 L 732.8 200.3 L 741.6 210.1 L 773.6 249.4 L 854.6 347.6 L 866.7 361.2 L 870.0 364.9 L 881.0 376.5 L 902.7 399.4 L 912.8 410.1 L 921.8 419.6 L 939.7 441.3 L 947.7 451.1 L 952.1 456.8 L 955.7 463.2 L 957.8 468.2 L 958.8 471.7 L 959.4 474.5 L 959.9 478.5 L 960.0 481.3 L 959.7 486.1 L 958.9 490.6 L 957.8 494.7 L 955.5 502.3 L 950.9 515.6 L 948.4 520.0 L 946.1 523.4 L 942.4 526.5 L 938.3 529.0 L 933.8 530.7 L 929.1 531.6 L 924.3 531.7 L 919.5 530.9 L 915.0 529.4 L 910.8 527.1 L 907.0 524.2 L 903.1 520.1 L 896.3 508.8 L 866.3 462.0 L 860.4 453.8 L 857.0 450.0 L 852.9 446.7 L 848.5 444.1 L 843.7 442.2 L 838.7 441.0 L 833.5 440.6 L 821.0 440.3 L 816.3 439.9 L 811.7 438.8 L 807.3 437.1 L 803.2 434.9 L 799.5 432.0 L 796.1 428.7 L 793.2 425.0 L 790.9 420.9 L 789.2 416.5 L 787.7 411.9 L 781.0 386.6 L 779.5 381.8 L 777.4 377.2 L 774.7 372.9 L 771.5 369.0 L 767.8 365.6 L 763.7 362.7 L 762.0 361.9 L 759.2 360.4 L 754.4 358.7 L 749.5 357.6 L 744.4 357.3 L 726.5 356.7 L 723.6 356.5 L 719.9 356.3 L 713.8 354.6 L 708.4 352.1 L 703.1 348.9 L 698.4 345.1 L 693.9 340.0 L 690.4 335.1 L 687.9 329.5 L 686.4 323.6 L 685.9 317.6 L 686.6 311.5 L 688.3 305.7 L 690.1 301.0 L 698.4 278.9 L 700.1 273.5 L 701.0 267.9 L 701.0 262.2 L 700.2 256.6 L 698.6 251.2 L 696.2 246.0 L 693.1 241.3 L 689.4 237.1 L 685.0 233.4 L 677.6 229.0 L 668.9 224.7 L 662.0 221.6 L 655.1 218.8 L 650.1 217.0 L 645.5 215.9 L 641.4 214.9 L 635.4 214.1 L 630.3 213.6 L 619.6 213.4 L 613.9 213.7 L 607.5 214.1 L 600.4 215.3 L 593.1 217.9 L 577.8 224.6 L 570.8 228.2 L 563.5 232.7 L 557.6 237.1 L 554.1 240.4 L 551.5 242.9 L 549.0 245.3 L 542.7 251.8 L 501.2 302.0 L 499.3 304.3 L 496.4 307.0 L 493.8 308.2 L 432.7 313.5 L 427.8 313.6 L 425.4 312.8 L 423.3 311.5 L 421.5 309.8 L 420.2 307.7 L 419.3 305.4 L 418.8 303.0 L 396.7 190.9 L 394.3 178.6 L 393.5 171.2 L 393.6 165.4 L 394.6 159.3 L 397.5 150.2 L 402.4 139.8 L 413.1 115.3 L 414.1 111.8 L 413.7 108.0 L 412.4 105.1 L 410.2 102.8 L 407.3 101.3 L 404.2 100.7 L 401.1 101.2 L 398.1 102.6 L 395.6 105.0 L 393.5 107.7 L 381.0 128.8 L 378.4 132.7 L 370.1 145.8 L 361.2 160.1 L 356.1 166.5 L 351.7 171.7 L 345.1 178.3 L 341.4 181.7 L 337.6 184.4 L 326.0 191.2 L 314.9 194.7 L 301.8 196.3 L 293.2 197.0 L 284.5 197.4 L 278.1 197.3 L 270.2 196.6 L 258.6 195.0 L 242.4 191.0 L 228.0 186.2 L 213.4 180.8 L 203.3 176.2 L 193.3 170.4 L 184.8 164.7 L 175.3 156.8 L 169.9 151.2 L 165.1 145.8 L 161.3 141.2 L 157.2 135.5 L 152.0 126.8 L 147.3 117.5 L 133.4 85.3 L 120.5 56.0 L 118.9 53.2 L 117.2 51.0 L 115.1 48.7 L 112.7 46.6 L 109.9 44.6 L 107.1 43.1 L 103.8 41.8 L 100.3 40.9 L 92.9 40.0 L 83.5 40.3 L 77.4 41.0 L 70.5 42.3 L 62.2 44.5 L 57.3 46.3 L 52.8 48.5 L 50.5 49.8 L 48.0 52.0 L 45.7 54.7 L 43.4 58.5 L 41.7 62.3 L 40.3 67.3 L 40.0 72.6 L 40.4 77.3 L 41.8 82.6 L 43.5 87.3 L 46.7 93.1 L 49.1 96.4 L 50.9 98.4 L 57.3 105.7 L 64.7 112.2 L 72.4 118.7 L 86.8 130.0 L 96.7 137.3 L 105.2 143.2 L 125.6 156.5 L 144.1 167.5 L 161.6 176.8 L 175.4 183.5 L 179.3 185.5 L 191.0 190.6 L 206.3 197.1 L 229.9 205.4 L 270.7 219.9 L 322.4 238.3 L 404.4 267.2 L 420.5 272.9 L 425.2 274.4 L 428.3 275.1 L 434.2 275.7 L 440.4 275.3 L 446.6 273.9 L 454.3 271.6 L 461.3 269.3 L 468.5 266.6 L 474.5 263.9 L 480.5 261.3 L 485.6 258.4 L 495.2 252.3 L 501.0 248.4 L 505.3 245.2 L 514.0 237.9 L 532.1 220.9 L 540.7 212.9 L 571.0 185.0 L 573.5 182.9 L 581.6 176.5 L 585.1 174.1 L 588.7 171.7 L 591.1 170.2 L 592.9 169.6 L 594.6 169.3 L 596.2 169.3 L 597.8 169.7 L 599.2 170.4 L 610.1 180.0 L 612.3 181.4 L 614.7 182.2 L 617.2 182.4 L 619.7 181.9 L 622.0 180.9 L 624.0 179.2 L 633.7 170.6 L 640.3 166.1 L 646.1 163.2 L 652.1 160.9 L 660.0 159.7 L 666.1 159.5 L 672.1 159.8 L 676.6 160.4 L 678.8 160.7 L 683.5 161.4 L 686.2 162.0 L 693.9 164.5 L 699.2 166.5 L 710.8 173.0 L 720.4 179.8 L 727.4 185.9 L 734.7 192.9 L 744.2 203.6 L 757.2 219.0 L 861.0 344.9 L 939.7 441.3" fill="none" stroke="currentColor" stroke-width="10" stroke-linejoin="round" stroke-linecap="round"/></svg>