<svg xmlns="http://www.w3.org/2000/svg" viewBox="0 0 1000 1000" role="img" aria-label="Tampere Circuit track outline"><path d="M939.2,674.7 L 933.0,673.8 L 923.5,670.7 L 797.5,619.3 L 779.3,611.5 L 768.2,605.3 L 758.2,598.4 L 708.0,556.4 L 693.5,545.2 L 684.9,539.4 L 675.6,533.9 L 666.2,528.7 L 657.2,524.9 L 648.5,521.7 L 639.2,518.2 L 628.5,515.7 L 621.3,514.5 L 612.6,513.4 L 605.1,513.9 L 596.8,516.0 L 588.0,521.0 L 578.5,527.7 L 549.5,553.2 L 508.4,605.0 L 487.5,617.7 L 459.9,627.8 L 422.6,624.2 L 388.7,613.6 L 349.5,595.1 L 294.5,572.8 L 283.1,569.6 L 274.3,567.6 L 253.7,564.3 L 241.3,563.2 L 228.8,562.8 L 208.4,563.4 L 108.4,569.6 L 85.2,569.6 L 53.3,569.6 L 48.9,568.1 L 45.3,565.3 L 42.5,560.3 L 40.8,554.8 L 40.0,548.7 L 40.8,541.2 L 45.3,529.9 L 62.1,503.6 L 65.0,499.1 L 70.9,491.9 L 95.7,466.7 L 101.4,462.7 L 108.3,460.6 L 115.5,459.1 L 122.7,458.6 L 129.7,458.2 L 193.5,448.4 L 199.0,446.3 L 225.7,432.4 L 287.4,402.9 L 306.5,393.8 L 338.2,379.5 L 390.7,356.3 L 399.6,351.8 L 417.3,335.5 L 423.9,330.2 L 429.1,327.4 L 430.1,328.8 L 437.2,326.7 L 444.1,325.5 L 452.1,325.3 L 549.7,325.7 L 565.2,326.5 L 573.6,328.6 L 589.8,333.2 L 660.8,356.8 L 660.8,372.8 L 709.1,420.3 L 737.3,446.0 L 778.7,469.1 L 809.8,488.9 L 810.4,497.0 L 816.0,502.2 L 828.8,506.0 L 855.1,517.4 L 860.7,521.7 L 871.5,530.8 L 899.8,559.6 L 902.5,566.2 L 903.4,572.0 L 911.5,573.0 L 919.2,589.1 L 922.5,630.0 L 948.6,631.3 L 960.0,654.4 L 940.4,667.4 L 939.2,674.7 Z" fill="none" stroke="currentColor" stroke-width="10" stroke-linejoin="round" stroke-linecap="round"/></svg>