<svg xmlns="http://www.w3.org/2000/svg" viewBox="0 0 1000 1000" role="img" aria-label="Autodromo Termas de Rio Hondo track outline"><path d="M51.8,726.2 L 47.5,720.0 L 43.0,707.4 L 40.8,696.2 L 40.8,686.7 L 41.5,680.2 L 43.7,669.6 L 46.4,662.5 L 50.8,653.6 L 59.2,644.5 L 70.8,636.6 L 401.5,401.2 L 470.0,351.7 L 604.0,254.1 L 901.3,44.6 L 908.4,41.3 L 915.9,40.0 L 926.6,41.1 L 936.5,45.7 L 943.1,51.0 L 948.6,57.6 L 952.0,65.9 L 952.8,75.0 L 951.4,84.4 L 947.5,94.0 L 881.7,159.5 L 868.7,175.1 L 857.1,192.0 L 847.0,210.2 L 838.2,229.7 L 830.8,253.4 L 826.9,274.4 L 825.6,292.1 L 825.7,310.8 L 827.8,328.8 L 830.4,345.1 L 836.6,367.7 L 844.9,389.0 L 850.7,400.5 L 897.2,476.0 L 957.0,577.6 L 959.2,583.9 L 959.0,591.0 L 956.7,597.2 L 952.4,601.7 L 943.0,609.7 L 931.2,617.3 L 920.8,621.4 L 908.5,624.5 L 894.4,626.6 L 880.0,625.5 L 866.6,622.7 L 851.4,617.5 L 834.6,607.6 L 821.2,595.1 L 799.1,565.3 L 788.2,548.6 L 785.8,545.0 L 784.1,542.5 L 782.1,539.5 L 780.1,536.6 L 776.6,531.4 L 771.7,524.1 L 761.1,508.5 L 751.6,494.4 L 740.5,478.0 L 719.0,445.0 L 711.4,436.8 L 705.5,433.0 L 695.2,430.6 L 684.3,431.8 L 671.7,436.3 L 655.8,446.3 L 639.5,457.6 L 618.8,467.7 L 604.5,472.5 L 586.5,475.6 L 575.0,475.5 L 558.6,475.5 L 543.0,476.7 L 530.5,477.9 L 518.2,480.1 L 504.1,483.7 L 493.6,488.0 L 481.5,493.9 L 470.5,500.8 L 459.3,511.4 L 452.8,518.1 L 447.7,524.9 L 441.4,533.2 L 436.4,542.8 L 431.8,553.6 L 428.4,563.8 L 425.5,573.0 L 424.3,580.6 L 423.2,590.2 L 422.7,599.9 L 423.8,611.1 L 424.8,618.6 L 426.6,626.4 L 428.7,633.8 L 432.5,642.9 L 436.4,651.2 L 441.1,660.3 L 471.5,714.8 L 513.9,792.1 L 518.7,801.8 L 524.5,814.5 L 528.4,824.5 L 531.6,834.4 L 536.8,849.6 L 539.4,861.7 L 541.2,882.3 L 541.6,908.2 L 540.3,922.9 L 538.8,933.3 L 537.3,938.8 L 535.6,943.6 L 529.8,952.6 L 524.2,957.1 L 515.2,960.0 L 510.6,960.0 L 504.2,959.1 L 496.2,954.6 L 489.3,949.2 L 484.8,943.1 L 481.8,937.6 L 476.5,925.1 L 466.7,896.0 L 464.0,886.3 L 461.1,881.2 L 458.6,878.9 L 453.0,875.7 L 75.1,740.2 L 58.9,732.2 L 51.8,726.2 Z" fill="none" stroke="currentColor" stroke-width="10" stroke-linejoin="round" stroke-linecap="round"/></svg>