<svg xmlns="http://www.w3.org/2000/svg" viewBox="0 0 1000 1000" role="img" aria-label="Valencia Street Circuit track outline"><path d="M 711.3 74.1 L 717.4 74.1 L 720.6 74.0 L 724.2 73.4 L 727.5 72.2 L 743.5 64.0 L 761.8 56.6 L 776.4 51.9 L 784.3 49.7 L 793.0 47.4 L 803.6 45.3 L 815.8 43.1 L 819.8 42.6 L 826.4 41.9 L 832.8 41.2 L 845.1 40.3 L 859.7 40.0 L 868.3 40.4 L 871.8 41.4 L 875.0 42.4 L 956.3 73.8 L 957.9 74.9 L 958.8 75.8 L 959.7 77.1 L 959.9 78.6 L 960.0 79.9 L 959.7 81.0 L 959.0 82.4 L 957.3 85.3 L 948.0 95.6 L 946.5 97.3 L 945.4 99.4 L 939.8 169.1 L 939.6 170.1 L 939.1 171.5 L 937.8 172.6 L 936.0 173.2 L 934.3 172.8 L 926.6 169.8 L 919.7 166.8 L 915.7 164.9 L 907.5 161.8 L 901.1 159.8 L 894.0 158.1 L 885.3 156.1 L 877.1 154.9 L 868.5 154.2 L 860.8 153.9 L 851.8 154.1 L 841.4 154.8 L 831.6 156.1 L 821.6 158.3 L 811.0 161.4 L 798.7 165.4 L 785.2 171.4 L 772.3 178.5 L 761.6 185.4 L 752.4 192.3 L 743.6 199.6 L 735.3 208.3 L 727.0 217.6 L 706.9 244.0 L 697.9 256.7 L 688.6 270.3 L 681.3 282.5 L 673.1 296.3 L 663.8 310.9 L 647.6 334.5 L 563.6 434.9 L 559.2 441.0 L 555.2 445.5 L 553.4 447.2 L 549.6 449.6 L 547.5 451.2 L 544.1 454.9 L 541.4 457.9 L 540.0 459.4 L 537.4 461.6 L 535.3 463.2 L 533.5 463.3 L 531.1 462.7 L 529.5 462.3 L 527.0 460.6 L 517.0 444.6 L 515.8 443.5 L 514.4 442.1 L 511.5 441.0 L 508.1 440.6 L 504.0 440.9 L 502.3 441.3 L 499.2 442.0 L 495.7 443.3 L 491.5 446.1 L 484.1 451.4 L 483.6 451.7 L 481.1 454.3 L 479.1 457.3 L 478.6 458.2 L 477.3 460.4 L 475.6 465.5 L 473.1 470.5 L 468.4 476.0 L 458.7 490.0 L 451.5 500.0 L 445.7 501.7 L 442.5 502.1 L 439.9 501.8 L 438.0 501.3 L 435.4 500.3 L 383.0 462.4 L 370.9 454.0 L 361.1 448.9 L 347.4 444.0 L 328.3 439.1 L 311.1 434.3 L 301.1 432.9 L 289.7 433.1 L 280.7 434.6 L 271.3 437.8 L 263.0 440.6 L 229.8 449.7 L 213.1 454.1 L 187.4 459.5 L 160.5 464.1 L 150.7 466.5 L 149.7 466.7 L 140.0 469.8 L 127.3 473.3 L 115.7 475.5 L 52.6 485.7 L 49.1 485.7 L 46.0 485.0 L 43.1 483.2 L 41.3 481.2 L 40.0 478.2 L 40.0 475.1 L 40.6 472.5 L 42.0 470.1 L 43.9 468.1 L 91.3 437.3 L 93.7 435.0 L 95.4 432.0 L 96.8 428.1 L 101.5 389.6 L 102.5 386.3 L 104.6 383.3 L 106.8 381.5 L 142.7 356.0 L 146.3 353.8 L 149.9 352.8 L 153.4 352.3 L 158.6 353.1 L 251.6 379.3 L 258.6 382.1 L 264.4 386.0 L 271.6 390.9 L 278.1 394.6 L 281.8 396.7 L 290.0 400.3 L 298.0 402.8 L 307.9 405.5 L 315.7 406.7 L 326.6 407.8 L 356.3 409.7 L 364.6 409.5 L 371.5 408.5 L 377.7 406.8 L 384.3 404.5 L 393.0 400.3 L 397.9 398.0 L 402.5 396.9 L 406.6 396.6 L 412.2 396.9 L 415.7 397.5 L 420.5 398.8 L 425.2 400.3 L 426.2 400.6 L 436.1 403.7 L 439.4 404.4 L 446.0 406.0 L 452.6 407.6 L 459.0 409.0 L 463.0 410.4 L 464.5 410.4 L 467.0 410.3 L 468.4 409.8 L 469.5 408.9 L 470.6 406.9 L 471.1 404.1 L 470.8 401.5 L 469.8 399.4 L 463.3 390.5 L 414.4 313.8 L 408.2 302.3 L 404.3 293.9 L 396.8 275.9 L 384.1 238.2 L 380.1 224.8 L 378.6 218.7 L 377.3 211.8 L 376.9 201.9 L 377.1 198.7 L 377.7 194.4 L 378.7 189.0 L 381.2 178.3 L 383.9 170.3 L 386.9 164.5 L 389.2 160.7 L 403.1 144.1 L 420.9 124.5 L 434.7 108.4 L 443.8 98.3 L 451.1 90.3 L 457.8 84.2 L 466.2 77.1 L 470.1 74.4 L 474.6 71.8 L 487.2 66.7 L 495.5 64.0 L 499.8 62.6 L 502.4 61.9 L 516.2 59.0 L 522.5 58.5 L 525.9 58.3 L 536.3 58.7 L 585.1 62.9 L 645.9 68.3 L 646.9 68.4 L 666.4 69.9 L 690.7 72.2 L 694.3 72.6 L 699.8 73.1 L 703.7 73.4 L 705.7 73.6 L 711.3 74.1 L 711.3 74.1 Z" fill="none" stroke="currentColor" stroke-width="10" stroke-linejoin="round" stroke-linecap="round"/></svg>