<svg xmlns="http://www.w3.org/2000/svg" viewBox="0 0 1000 1000" role="img" aria-label="Circuit Gilles Villeneuve track outline"><path d="M 277.3 559.6 L 282.3 584.5 L 282.7 588.2 L 282.4 590.4 L 281.8 591.9 L 280.9 593.2 L 279.6 594.3 L 277.3 595.3 L 274.6 596.6 L 272.6 598.3 L 271.2 600.1 L 270.3 602.1 L 270.0 604.1 L 270.2 606.4 L 271.2 611.3 L 310.6 798.1 L 310.8 798.9 L 313.9 814.9 L 315.5 829.9 L 315.9 842.8 L 315.7 848.3 L 315.5 857.4 L 314.0 869.4 L 313.4 875.0 L 310.3 899.3 L 309.8 903.1 L 308.8 911.2 L 308.6 914.8 L 309.0 917.8 L 310.0 920.4 L 312.0 923.0 L 314.9 925.1 L 327.4 930.6 L 331.1 932.4 L 333.1 933.6 L 334.9 935.2 L 336.4 936.9 L 337.7 938.9 L 338.4 941.8 L 338.5 945.2 L 337.9 948.1 L 336.7 951.2 L 334.6 953.9 L 332.7 955.7 L 330.2 957.6 L 327.8 958.7 L 325.4 959.5 L 322.9 959.9 L 319.9 960.0 L 317.3 959.9 L 314.1 959.5 L 309.5 958.6 L 303.5 957.2 L 294.8 954.6 L 281.4 950.4 L 272.2 947.5 L 265.0 944.5 L 258.2 940.9 L 251.4 936.9 L 243.6 931.4 L 235.6 925.0 L 222.3 914.0 L 209.9 903.3 L 191.9 886.8 L 188.1 883.1 L 186.7 881.1 L 185.8 879.2 L 185.4 876.6 L 185.6 873.7 L 186.4 870.7 L 189.0 863.4 L 189.7 860.7 L 190.3 857.7 L 190.5 854.6 L 190.3 852.3 L 189.9 850.4 L 188.9 848.1 L 187.5 845.9 L 167.5 821.2 L 152.9 802.3 L 150.7 799.7 L 148.2 797.0 L 145.2 794.5 L 141.4 791.8 L 134.4 787.6 L 130.7 784.9 L 127.2 781.8 L 123.6 778.3 L 121.0 775.1 L 118.4 770.7 L 116.3 766.9 L 113.9 761.5 L 112.2 756.5 L 110.8 750.8 L 109.9 745.4 L 109.4 739.6 L 109.2 733.6 L 109.1 726.1 L 110.2 671.1 L 110.1 666.8 L 109.7 664.3 L 108.8 661.9 L 107.9 660.1 L 106.4 658.0 L 104.9 656.5 L 103.3 655.5 L 101.5 654.7 L 99.1 654.0 L 96.5 653.6 L 94.1 653.7 L 91.5 654.0 L 88.5 655.0 L 84.8 656.2 L 82.2 656.8 L 79.5 656.9 L 76.6 656.7 L 73.2 655.8 L 70.1 654.5 L 67.1 652.7 L 64.2 650.5 L 61.5 648.0 L 57.8 643.7 L 55.3 639.9 L 53.6 636.7 L 52.1 633.5 L 50.2 627.8 L 47.5 616.2 L 45.5 604.5 L 44.6 596.0 L 43.4 582.5 L 42.5 567.0 L 40.4 530.3 L 40.0 517.9 L 40.0 508.6 L 40.3 501.7 L 40.4 499.1 L 40.9 486.7 L 42.1 468.6 L 43.4 456.4 L 44.9 445.0 L 46.3 435.4 L 47.7 427.1 L 49.3 419.0 L 51.0 411.8 L 53.3 403.0 L 65.3 360.1 L 69.2 345.7 L 70.4 341.9 L 71.3 340.1 L 72.6 338.8 L 74.2 338.1 L 75.6 337.9 L 76.6 337.7 L 81.8 337.6 L 85.8 337.5 L 88.2 337.1 L 91.5 335.8 L 94.6 334.1 L 97.3 332.2 L 98.3 331.2 L 100.2 329.2 L 102.0 326.9 L 103.6 324.5 L 105.2 321.9 L 106.4 319.3 L 108.4 313.9 L 111.7 303.6 L 114.1 295.9 L 118.5 280.2 L 120.8 271.4 L 124.1 257.9 L 127.1 244.2 L 129.6 231.4 L 132.3 215.9 L 134.6 201.8 L 136.0 195.0 L 136.8 187.7 L 137.3 182.8 L 138.7 170.4 L 139.6 150.1 L 139.6 143.2 L 139.4 129.1 L 138.9 124.2 L 138.4 119.7 L 137.4 113.4 L 136.2 108.1 L 136.1 107.5 L 124.4 52.5 L 124.0 49.8 L 124.3 46.9 L 125.0 44.6 L 126.3 42.4 L 128.2 41.1 L 130.5 40.2 L 132.8 40.0 L 135.1 40.4 L 136.6 41.1 L 138.3 42.4 L 139.5 43.7 L 140.5 45.3 L 141.5 47.7 L 143.1 54.6 L 144.4 62.0 L 145.1 68.9 L 145.7 81.1 L 145.8 83.9 L 146.2 87.7 L 146.8 90.6 L 147.5 93.4 L 149.0 98.0 L 151.0 103.0 L 151.2 103.4 L 153.2 108.1 L 157.7 116.9 L 165.2 132.5 L 168.2 138.9 L 170.7 144.8 L 181.5 172.9 L 200.2 221.4 L 212.0 253.7 L 213.8 258.6 L 215.4 263.8 L 216.5 268.7 L 217.6 274.1 L 218.3 277.8 L 221.0 291.3 L 229.0 331.6 L 241.9 391.9 L 258.9 472.0 L 265.3 502.5 L 268.5 517.7 L 277.3 559.6 L 277.3 559.6 Z" fill="none" stroke="currentColor" stroke-width="10" stroke-linejoin="round" stroke-linecap="round"/></svg>