<svg xmlns="http://www.w3.org/2000/svg" viewBox="0 0 1000 1000" role="img" aria-label="Circuit Gilles Villeneuve track outline"><path d="M588.0,559.6 L 593.1,584.5 L 593.4,588.2 L 593.1,590.4 L 592.6,591.9 L 591.6,593.2 L 590.3,594.3 L 588.1,595.3 L 585.4,596.6 L 583.3,598.3 L 581.9,600.1 L 581.0,602.1 L 580.8,604.1 L 581.0,606.4 L 582.0,611.3 L 621.3,798.1 L 621.5,798.9 L 624.7,814.9 L 626.3,829.9 L 626.6,842.8 L 626.5,848.3 L 626.2,857.4 L 624.8,869.4 L 624.1,875.0 L 621.0,899.3 L 620.6,903.1 L 619.6,911.2 L 619.4,914.8 L 619.7,917.8 L 620.8,920.4 L 622.7,923.0 L 625.6,925.1 L 638.1,930.6 L 641.8,932.4 L 643.8,933.6 L 645.6,935.2 L 647.2,936.9 L 648.4,938.9 L 649.1,941.8 L 649.3,945.2 L 648.7,948.1 L 647.4,951.2 L 645.4,953.9 L 643.4,955.7 L 640.9,957.6 L 638.6,958.7 L 636.1,959.5 L 633.7,959.9 L 630.6,960.0 L 628.1,959.9 L 624.9,959.5 L 620.2,958.6 L 614.3,957.2 L 605.5,954.6 L 592.1,950.4 L 583.0,947.5 L 575.7,944.5 L 568.9,940.9 L 562.1,936.9 L 554.3,931.4 L 546.3,925.0 L 533.0,914.0 L 520.6,903.3 L 502.7,886.8 L 498.9,883.1 L 497.4,881.1 L 496.5,879.2 L 496.1,876.6 L 496.4,873.7 L 497.1,870.7 L 499.7,863.4 L 500.4,860.7 L 501.0,857.7 L 501.2,854.6 L 501.0,852.3 L 500.6,850.4 L 499.6,848.1 L 498.2,845.9 L 478.2,821.2 L 463.6,802.3 L 461.4,799.7 L 458.9,797.0 L 456.0,794.5 L 452.1,791.8 L 445.2,787.6 L 441.4,784.9 L 437.9,781.8 L 434.3,778.3 L 431.8,775.1 L 429.1,770.7 L 427.0,766.9 L 424.7,761.5 L 423.0,756.5 L 421.6,750.8 L 420.6,745.4 L 420.1,739.6 L 419.9,733.6 L 419.8,726.1 L 420.9,671.1 L 420.8,666.8 L 420.4,664.3 L 419.5,661.9 L 418.6,660.1 L 417.1,658.0 L 415.6,656.5 L 414.1,655.5 L 412.2,654.7 L 409.8,654.0 L 407.3,653.6 L 404.8,653.7 L 402.2,654.0 L 399.2,655.0 L 395.6,656.2 L 392.9,656.8 L 390.3,656.9 L 387.3,656.7 L 383.9,655.8 L 380.8,654.5 L 377.8,652.7 L 374.9,650.5 L 372.2,648.0 L 368.6,643.7 L 366.0,639.9 L 364.3,636.7 L 362.9,633.5 L 361.0,627.8 L 358.2,616.2 L 356.3,604.5 L 355.4,596.0 L 354.2,582.5 L 353.3,567.0 L 351.1,530.3 L 350.7,517.9 L 350.7,508.6 L 351.0,501.7 L 351.1,499.1 L 351.7,486.7 L 352.8,468.6 L 354.2,456.4 L 355.6,445.0 L 357.0,435.4 L 358.4,427.1 L 360.0,419.0 L 361.7,411.8 L 364.1,403.0 L 376.1,360.1 L 379.9,345.7 L 381.1,341.9 L 382.0,340.1 L 383.3,338.8 L 385.0,338.1 L 386.4,337.9 L 387.4,337.7 L 392.5,337.6 L 396.5,337.5 L 399.0,337.1 L 402.2,335.8 L 405.3,334.1 L 408.0,332.2 L 409.0,331.2 L 410.9,329.2 L 412.7,326.9 L 414.3,324.5 L 415.9,321.9 L 417.2,319.3 L 419.2,313.9 L 422.4,303.6 L 424.8,295.9 L 429.3,280.2 L 431.6,271.4 L 434.9,257.9 L 437.8,244.2 L 440.3,231.4 L 443.0,215.9 L 445.4,201.8 L 446.7,195.0 L 447.6,187.7 L 448.1,182.8 L 449.4,170.4 L 450.3,150.1 L 450.4,143.2 L 450.1,129.1 L 449.7,124.2 L 449.1,119.7 L 448.1,113.4 L 446.9,108.1 L 446.8,107.5 L 435.1,52.5 L 434.8,49.8 L 435.0,46.9 L 435.7,44.6 L 437.0,42.4 L 438.9,41.1 L 441.2,40.2 L 443.5,40.0 L 445.8,40.4 L 447.3,41.1 L 449.0,42.4 L 450.3,43.7 L 451.2,45.3 L 452.2,47.7 L 453.9,54.6 L 455.2,62.0 L 455.9,68.9 L 456.4,81.1 L 456.6,83.9 L 457.0,87.7 L 457.6,90.6 L 458.3,93.4 L 459.7,98.0 L 461.7,103.0 L 461.9,103.4 L 464.0,108.1 L 468.4,116.9 L 475.9,132.5 L 478.9,138.9 L 481.4,144.8 L 492.2,172.9 L 510.9,221.4 L 522.7,253.7 L 524.6,258.6 L 526.1,263.8 L 527.2,268.7 L 528.3,274.1 L 529.1,277.8 L 531.8,291.3 L 539.8,331.6 L 552.6,391.9 L 569.7,472.0 L 576.0,502.5 L 579.2,517.7 L 588.0,559.6 Z" fill="none" stroke="currentColor" stroke-width="10" stroke-linejoin="round" stroke-linecap="round"/></svg>