<svg xmlns="http://www.w3.org/2000/svg" viewBox="0 0 1000 1000" role="img" aria-label="Watkins Glen International track outline"><path d="M 255.1 636.6 L 253.5 644.9 L 249.8 653.7 L 241.4 662.6 L 234.8 666.7 L 226.5 669.1 L 221.7 669.5 L 214.4 668.1 L 207.6 665.0 L 126.4 624.9 L 114.9 619.1 L 106.5 616.4 L 97.5 615.2 L 89.2 616.6 L 81.8 620.2 L 74.9 625.7 L 70.9 633.5 L 70.0 641.2 L 70.5 649.6 L 93.3 913.5 L 95.5 927.7 L 97.6 935.0 L 101.9 943.8 L 105.7 948.4 L 112.2 954.1 L 121.3 958.6 L 132.4 960.0 L 142.4 957.6 L 150.3 954.1 L 156.6 947.9 L 160.5 941.5 L 162.5 934.0 L 163.2 924.9 L 162.9 909.6 L 155.4 775.6 L 155.2 767.7 L 155.7 758.6 L 157.3 750.8 L 158.9 744.4 L 161.2 740.1 L 164.4 735.3 L 168.5 730.7 L 173.7 727.0 L 178.3 724.8 L 184.9 723.2 L 190.9 722.2 L 196.8 722.0 L 201.8 722.7 L 209.6 724.6 L 216.7 728.4 L 221.2 730.9 L 225.6 735.0 L 231.2 742.2 L 273.1 796.4 L 299.2 828.2 L 293.7 814.5 L 291.1 802.9 L 284.9 773.6 L 261.3 663.9 L 255.1 636.6 L 223.0 493.3 L 221.1 486.3 L 218.7 480.3 L 215.2 474.1 L 212.1 470.3 L 208.5 466.3 L 203.3 462.0 L 197.1 458.2 L 192.5 456.0 L 186.3 454.2 L 180.0 453.3 L 168.2 452.4 L 75.3 447.0 L 69.1 446.3 L 63.7 444.7 L 58.9 442.0 L 53.2 437.3 L 47.7 430.7 L 43.8 424.2 L 41.3 418.0 L 40.0 409.5 L 40.4 386.9 L 41.7 371.9 L 60.5 75.8 L 62.3 57.1 L 63.3 52.9 L 64.7 50.1 L 66.9 47.2 L 70.8 43.9 L 75.3 41.6 L 80.1 40.5 L 87.8 40.0 L 95.0 40.8 L 101.6 41.9 L 149.3 49.7 L 157.0 52.1 L 160.0 52.8 L 185.1 57.5 L 198.6 60.2 L 204.9 61.5 L 213.4 63.7 L 219.7 66.0 L 225.9 68.4 L 233.3 71.8 L 240.2 76.0 L 246.1 80.9 L 250.5 85.2 L 255.5 90.5 L 260.3 97.0 L 265.5 106.0 L 268.6 112.2 L 272.1 121.2 L 274.8 129.6 L 276.7 137.7 L 278.3 149.6 L 280.7 169.7 L 281.6 176.0 L 282.5 180.4 L 283.6 184.7 L 284.9 188.9 L 287.1 194.4 L 290.7 202.5 L 294.9 210.2 L 298.5 215.6 L 302.9 221.7 L 309.4 229.1 L 313.5 233.2 L 319.3 238.3 L 332.7 249.0 L 347.5 261.1 L 354.1 267.6 L 361.8 276.3 L 367.4 283.5 L 372.9 291.4 L 377.7 298.6 L 382.5 307.3 L 384.9 311.8 L 387.6 317.4 L 390.8 325.2 L 393.3 331.7 L 396.7 342.0 L 398.2 347.6 L 399.8 355.4 L 401.6 367.5 L 401.9 374.7 L 402.2 381.3 L 412.2 655.0 L 415.5 770.5 L 416.8 794.7 L 415.5 812.0 L 412.6 821.2 L 407.8 829.6 L 401.0 837.9 L 393.0 845.9 L 380.2 854.1 L 368.1 857.3 L 356.4 859.3 L 345.0 858.4 L 331.9 854.7 L 319.4 848.1 L 308.8 839.3 L 299.2 828.2" fill="none" stroke="currentColor" stroke-width="10" stroke-linejoin="round" stroke-linecap="round"/></svg>