<svg xmlns="http://www.w3.org/2000/svg" viewBox="0 0 1000 1000"><path d="M332.7,249.0 L347.5,261.1 L354.1,267.6 L361.8,276.3 L367.4,283.5 L372.9,291.4 L377.7,298.6 L382.5,307.3 L384.9,311.8 L387.6,317.4 L390.8,325.2 L393.3,331.7 L396.7,342.0 L398.2,347.6 L399.8,355.4 L401.6,367.5 L401.9,374.7 L402.2,381.3 L412.2,655.0 L415.5,770.5 L416.8,794.7 L415.5,812.0 L412.6,821.2 L407.8,829.6 L401.0,837.9 L393.0,845.9 L380.2,854.1 L368.1,857.3 L356.4,859.3 L345.0,858.4 L331.9,854.7 L319.4,848.1 L308.8,839.3 L299.2,828.2 L273.1,796.4 L231.2,742.2 L225.6,735.0 L221.2,730.9 L216.7,728.4 L209.6,724.6 L201.8,722.7 L196.8,722.0 L190.9,722.2 L184.9,723.2 L178.3,724.8 L173.7,727.0 L168.5,730.7 L164.4,735.3 L161.2,740.1 L158.9,744.4 L157.3,750.8 L155.7,758.6 L155.2,767.7 L155.4,775.6 L162.9,909.6 L163.2,924.9 L162.5,934.0 L160.5,941.5 L156.6,947.9 L150.3,954.1 L142.4,957.6 L132.4,960.0 L121.3,958.6 L112.2,954.1 L105.7,948.4 L101.9,943.8 L97.6,935.0 L95.5,927.7 L93.3,913.5 L70.5,649.6 L70.0,641.2 L70.9,633.5 L74.9,625.7 L81.8,620.2 L89.2,616.6 L97.5,615.2 L106.5,616.4 L114.9,619.1 L126.4,624.9 L207.6,665.0 L214.4,668.1 L221.7,669.5 L226.5,669.1 L234.8,666.7 L241.4,662.6 L249.8,653.7 L253.5,644.9 L255.1,636.6 L223.0,493.3 L221.1,486.3 L218.7,480.3 L215.2,474.1 L212.1,470.3 L208.5,466.3 L203.3,462.0 L197.1,458.2 L192.5,456.0 L186.3,454.2 L180.0,453.3 L168.2,452.4 L75.3,447.0 L69.1,446.3 L63.7,444.7 L58.9,442.0 L53.2,437.3 L47.7,430.7 L43.8,424.2 L41.3,418.0 L40.0,409.5 L40.4,386.9 L41.7,371.9 L60.5,75.8 L62.3,57.1 L63.3,52.9 L64.7,50.1 L66.9,47.2 L70.8,43.9 L75.3,41.6 L80.1,40.5 L87.8,40.0 L95.0,40.8 L101.6,41.9 L149.3,49.7 L157.0,52.1 L160.0,52.8 L185.1,57.5 L198.6,60.2 L204.9,61.5 L213.4,63.7 L219.7,66.0 L225.9,68.4 L233.3,71.8 L240.2,76.0 L246.1,80.9 L250.5,85.2 L255.5,90.5 L260.3,97.0 L265.5,106.0 L268.6,112.2 L272.1,121.2 L274.8,129.6 L276.7,137.7 L278.3,149.6 L280.7,169.7 L281.6,176.0 L282.5,180.4 L283.6,184.7 L284.9,188.9 L287.1,194.4 L290.7,202.5 L294.9,210.2 L298.5,215.6 L302.9,221.7 L309.4,229.1 L313.5,233.2 L319.3,238.3 L332.7,249.0 Z" fill="none" stroke="currentColor" stroke-width="10" stroke-linejoin="round" stroke-linecap="round" aria-label="Watkins Glen International"/></svg>