<svg xmlns="http://www.w3.org/2000/svg" viewBox="0 0 1000 1000" role="img" aria-label="Yas Marina Circuit track outline"><path d="M 220.5 170.5 L 219.5 170.3 L 216.5 169.7 L 210.9 168.8 L 205.7 169.9 L 201.0 175.1 L 199.0 180.1 L 194.6 193.1 L 193.1 201.4 L 190.6 216.7 L 187.5 240.3 L 187.5 245.9 L 188.8 249.0 L 190.8 252.9 L 193.7 255.3 L 190.2 253.5 L 187.7 253.6 L 185.9 254.0 L 184.1 254.8 L 182.2 256.2 L 180.9 257.5 L 160.9 281.0 L 157.3 286.4 L 152.9 293.0 L 184.8 198.5 L 204.6 138.4 L 211.9 115.0 L 220.5 81.0 L 221.5 77.3 L 229.0 54.7 L 230.9 50.8 L 232.3 48.3 L 234.1 45.9 L 235.8 44.1 L 237.5 42.8 L 239.5 41.6 L 241.6 40.8 L 243.7 40.2 L 245.9 40.0 L 248.5 40.2 L 250.4 40.5 L 254.1 41.6 L 256.3 42.8 L 258.8 44.8 L 260.8 46.6 L 262.5 48.6 L 263.8 50.7 L 264.8 52.5 L 266.3 57.1 L 267.7 63.6 L 272.6 103.4 L 274.2 116.0 L 278.9 157.0 L 282.7 189.1 L 284.0 198.9 L 284.7 208.8 L 285.0 218.7 L 284.7 228.6 L 284.0 236.7 L 283.9 238.5 L 282.6 248.3 L 280.8 258.0 L 278.5 267.3 L 277.0 273.5 L 272.4 289.6 L 268.6 302.9 L 267.4 309.0 L 266.4 316.1 L 266.4 322.7 L 266.6 325.2 L 266.8 328.5 L 268.1 335.8 L 269.2 340.3 L 271.0 345.3 L 275.8 352.1 L 278.7 356.1 L 281.8 360.1 L 284.8 363.4 L 287.3 366.0 L 291.3 369.7 L 295.0 372.7 L 298.7 375.4 L 302.5 377.8 L 306.2 379.9 L 310.8 382.1 L 316.5 384.2 L 349.5 394.8 L 354.0 396.3 L 358.3 398.5 L 362.3 401.2 L 365.7 404.6 L 367.4 406.5 L 368.7 408.4 L 369.9 411.1 L 370.9 413.7 L 372.1 417.7 L 373.0 422.0 L 377.7 442.3 L 394.3 511.0 L 395.0 515.3 L 395.2 517.9 L 395.1 520.4 L 394.6 522.9 L 393.4 526.1 L 391.3 529.4 L 389.3 531.9 L 387.0 534.2 L 384.8 535.7 L 382.7 536.5 L 380.3 537.2 L 239.7 557.2 L 181.2 565.7 L 166.9 567.7 L 110.3 575.8 L 105.6 576.8 L 103.6 577.6 L 102.2 578.5 L 100.8 579.8 L 99.6 581.5 L 98.9 582.9 L 98.2 585.0 L 97.8 586.9 L 97.5 588.5 L 97.4 590.2 L 97.4 591.9 L 97.6 594.0 L 97.9 598.7 L 98.9 604.9 L 99.9 609.2 L 101.1 612.6 L 102.0 614.6 L 115.8 637.6 L 139.8 679.4 L 142.9 682.5 L 145.8 684.2 L 151.1 686.2 L 155.4 687.6 L 161.8 689.0 L 165.9 689.4 L 172.6 689.4 L 177.5 689.0 L 259.6 677.0 L 268.4 676.3 L 272.8 676.2 L 277.8 676.3 L 283.2 676.6 L 288.0 677.1 L 291.9 677.7 L 294.1 678.3 L 296.0 678.9 L 297.4 679.5 L 298.7 680.0 L 300.8 681.1 L 301.9 681.9 L 302.6 682.8 L 303.6 684.2 L 305.0 686.8 L 305.8 688.7 L 306.5 691.1 L 306.9 693.0 L 307.2 696.8 L 307.9 712.0 L 307.9 731.5 L 307.4 734.6 L 306.9 736.3 L 306.0 738.2 L 304.0 741.5 L 302.3 743.7 L 300.2 745.6 L 297.7 747.1 L 294.9 748.0 L 292.7 748.7 L 248.8 754.8 L 246.3 755.4 L 245.2 756.0 L 244.5 756.9 L 243.9 758.3 L 243.7 759.4 L 243.9 760.8 L 256.2 815.7 L 258.3 821.5 L 260.4 825.2 L 262.9 828.5 L 264.8 830.6 L 267.3 832.6 L 317.1 864.5 L 319.8 865.7 L 322.1 866.5 L 326.4 867.6 L 329.9 868.1 L 334.4 868.5 L 341.5 869.3 L 413.1 874.3 L 428.5 875.4 L 434.0 876.0 L 439.7 877.0 L 445.4 878.8 L 449.4 880.7 L 452.9 882.9 L 457.1 885.9 L 459.6 888.1 L 461.2 889.8 L 464.2 893.3 L 467.0 897.2 L 469.7 902.3 L 471.3 907.0 L 472.5 912.8 L 473.0 918.1 L 472.9 922.9 L 472.0 930.1 L 471.0 934.2 L 469.5 938.5 L 467.7 942.1 L 465.0 946.6 L 462.9 949.1 L 459.7 952.2 L 457.3 954.0 L 453.2 956.6 L 449.1 958.4 L 444.9 959.4 L 441.1 959.8 L 438.1 960.0 L 435.8 959.9 L 431.6 959.3 L 428.4 958.4 L 425.5 957.4 L 341.1 919.9 L 322.7 911.1 L 310.3 904.0 L 288.7 890.1 L 279.7 883.9 L 265.1 872.9 L 244.9 857.9 L 195.1 818.2 L 157.3 789.3 L 142.6 776.9 L 133.4 768.3 L 121.3 755.6 L 112.3 743.8 L 104.9 731.8 L 101.0 725.4 L 98.0 719.1 L 92.6 699.9 L 87.2 681.7 L 85.3 673.3 L 78.9 649.5 L 78.4 647.9 L 78.0 646.4 L 77.3 645.2 L 76.3 644.3 L 75.0 643.5 L 73.6 643.0 L 72.1 642.8 L 70.6 642.8 L 46.7 646.8 L 45.2 646.8 L 43.7 646.4 L 42.3 645.6 L 41.2 644.6 L 40.4 643.2 L 40.0 641.7 L 40.0 640.2 L 40.4 638.7 L 84.0 507.6 L 89.3 489.2 L 94.1 470.6 L 97.9 456.9 L 104.5 436.7 L 110.0 419.2 L 123.3 380.0 L 145.7 314.4 L 150.1 301.2 L 152.9 293.0" fill="none" stroke="currentColor" stroke-width="10" stroke-linejoin="round" stroke-linecap="round"/></svg>