<svg xmlns="http://www.w3.org/2000/svg" viewBox="0 0 1000 1000"><path d="M307.2,696.8 L306.9,693.0 L306.5,691.1 L305.8,688.7 L305.0,686.8 L303.6,684.2 L302.6,682.8 L301.9,681.9 L300.8,681.1 L298.7,680.0 L297.4,679.5 L296.0,678.9 L294.1,678.3 L291.9,677.7 L288.0,677.1 L283.2,676.6 L277.8,676.3 L272.8,676.2 L268.4,676.3 L259.6,677.0 L177.5,689.0 L172.6,689.4 L165.9,689.4 L161.8,689.0 L155.4,687.6 L151.1,686.2 L145.8,684.2 L142.9,682.5 L139.8,679.4 L115.8,637.6 L102.0,614.6 L101.1,612.6 L99.9,609.2 L98.9,604.9 L97.9,598.7 L97.6,594.0 L97.4,591.9 L97.4,590.2 L97.5,588.5 L97.8,586.9 L98.2,585.0 L98.9,582.9 L99.6,581.5 L100.8,579.8 L102.2,578.5 L103.6,577.6 L105.6,576.8 L110.3,575.8 L166.9,567.7 L181.2,565.7 L239.7,557.2 L380.3,537.2 L382.7,536.5 L384.8,535.7 L387.0,534.2 L389.3,531.9 L391.3,529.4 L393.4,526.1 L394.6,522.9 L395.1,520.4 L395.2,517.9 L395.0,515.3 L394.3,511.0 L377.7,442.3 L373.0,422.0 L372.1,417.7 L370.9,413.7 L369.9,411.1 L368.7,408.4 L367.4,406.5 L365.7,404.6 L362.3,401.2 L358.3,398.5 L354.0,396.3 L349.5,394.8 L316.5,384.2 L310.8,382.1 L306.2,379.9 L302.5,377.8 L298.7,375.4 L295.0,372.7 L291.3,369.7 L287.3,366.0 L284.8,363.4 L281.8,360.1 L278.7,356.1 L275.8,352.1 L271.0,345.3 L269.2,340.3 L268.1,335.8 L266.8,328.5 L266.6,325.2 L266.4,322.7 L266.4,316.1 L267.4,309.0 L268.6,302.9 L272.4,289.6 L277.0,273.5 L278.5,267.3 L280.8,258.0 L282.6,248.3 L283.9,238.5 L284.0,236.7 L284.7,228.6 L285.0,218.7 L284.7,208.8 L284.0,198.9 L282.7,189.1 L278.9,157.0 L274.2,116.0 L272.6,103.4 L267.7,63.6 L266.3,57.1 L264.8,52.5 L263.8,50.7 L262.5,48.6 L260.8,46.6 L258.8,44.8 L256.3,42.8 L254.1,41.6 L250.4,40.5 L248.5,40.2 L245.9,40.0 L243.7,40.2 L241.6,40.8 L239.5,41.6 L237.5,42.8 L235.8,44.1 L234.1,45.9 L232.3,48.3 L230.9,50.8 L229.0,54.7 L221.5,77.3 L220.5,81.0 L211.9,115.0 L204.6,138.4 L184.8,198.5 L152.9,293.0 L150.1,301.2 L145.7,314.4 L123.3,380.0 L110.0,419.2 L104.5,436.7 L97.9,456.9 L94.1,470.6 L89.3,489.2 L84.0,507.6 L40.4,638.7 L40.0,640.2 L40.0,641.7 L40.4,643.2 L41.2,644.6 L42.3,645.6 L43.7,646.4 L45.2,646.8 L46.7,646.8 L70.6,642.8 L72.1,642.8 L73.6,643.0 L75.0,643.5 L76.3,644.3 L77.3,645.2 L78.0,646.4 L78.4,647.9 L78.9,649.5 L85.3,673.3 L87.2,681.7 L92.6,699.9 L98.0,719.1 L101.0,725.4 L104.9,731.8 L112.3,743.8 L121.3,755.6 L133.4,768.3 L142.6,776.9 L157.3,789.3 L195.1,818.2 L244.9,857.9 L265.1,872.9 L279.7,883.9 L288.7,890.1 L310.3,904.0 L322.7,911.1 L341.1,919.9 L425.5,957.4 L428.4,958.4 L431.6,959.3 L435.8,959.9 L438.1,960.0 L441.1,959.8 L444.9,959.4 L449.1,958.4 L453.2,956.6 L457.3,954.0 L459.7,952.2 L462.9,949.1 L465.0,946.6 L467.7,942.1 L469.5,938.5 L471.0,934.2 L472.0,930.1 L472.9,922.9 L473.0,918.1 L472.5,912.8 L471.3,907.0 L469.7,902.3 L467.0,897.2 L464.2,893.3 L461.2,889.8 L459.6,888.1 L457.1,885.9 L452.9,882.9 L449.4,880.7 L445.4,878.8 L439.7,877.0 L434.0,876.0 L428.5,875.4 L413.1,874.3 L341.5,869.3 L334.4,868.5 L329.9,868.1 L326.4,867.6 L322.1,866.5 L319.8,865.7 L317.1,864.5 L267.3,832.6 L264.8,830.6 L262.9,828.5 L260.4,825.2 L258.3,821.5 L256.2,815.7 L243.9,760.8 L243.7,759.4 L243.9,758.3 L244.5,756.9 L245.2,756.0 L246.3,755.4 L248.8,754.8 L292.7,748.7 L294.9,748.0 L297.7,747.1 L300.2,745.6 L302.3,743.7 L304.0,741.5 L306.0,738.2 L306.9,736.3 L307.4,734.6 L307.9,731.5 L307.9,712.0 L307.2,696.8 Z" fill="none" stroke="currentColor" stroke-width="10" stroke-linejoin="round" stroke-linecap="round" aria-label="Yas Marina Circuit"/></svg>