<svg xmlns="http://www.w3.org/2000/svg" viewBox="0 0 1000 1000" role="img" aria-label="Korea International Circuit track outline"><path d="M 250.7 194.7 L 266.0 254.6 L 277.0 297.4 L 276.9 304.3 L 274.7 307.6 L 271.5 309.9 L 263.2 311.2 L 190.5 309.7 L 169.1 310.4 L 147.7 312.6 L 101.1 319.8 L 92.2 321.7 L 83.3 324.5 L 75.4 328.5 L 68.8 332.6 L 62.4 337.9 L 56.6 343.8 L 51.2 350.9 L 47.1 357.8 L 44.4 364.5 L 42.1 371.3 L 41.5 374.4 L 40.6 378.2 L 40.0 384.8 L 40.0 392.5 L 41.1 401.1 L 44.7 421.4 L 46.7 427.7 L 49.7 434.2 L 53.8 440.1 L 58.5 445.1 L 63.8 449.4 L 69.8 453.1 L 76.8 455.9 L 83.3 457.2 L 90.5 457.7 L 97.8 457.2 L 104.2 456.1 L 109.5 454.5 L 115.5 451.7 L 341.9 345.9 L 352.8 339.3 L 362.5 332.2 L 372.4 322.7 L 378.8 314.3 L 385.2 303.4 L 389.4 292.5 L 392.3 281.3 L 393.6 270.0 L 392.8 230.3 L 392.8 229.4 L 392.8 227.1 L 392.8 226.6 L 393.6 224.4 L 394.1 223.1 L 397.0 220.3 L 401.2 218.9 L 401.5 218.9 L 407.1 218.5 L 412.0 218.2 L 416.6 217.9 L 419.5 217.7 L 429.1 217.1 L 447.9 215.8 L 467.8 214.5 L 484.5 213.4 L 502.0 212.2 L 521.4 211.0 L 542.3 209.6 L 562.2 208.3 L 577.0 207.3 L 595.4 206.1 L 611.4 205.0 L 627.2 204.0 L 643.1 202.9 L 661.5 201.7 L 679.2 200.5 L 694.5 199.5 L 716.8 198.0 L 732.8 197.0 L 748.7 195.9 L 763.8 194.9 L 780.0 193.8 L 796.5 192.7 L 810.3 191.8 L 833.4 190.3 L 857.1 188.7 L 878.2 187.3 L 900.5 185.9 L 919.6 184.6 L 934.1 183.6 L 937.7 183.2 L 941.1 182.8 L 945.2 181.6 L 947.2 181.0 L 949.2 179.9 L 950.9 178.9 L 951.8 178.4 L 953.8 176.6 L 955.2 175.5 L 956.6 173.5 L 957.6 172.1 L 958.8 169.3 L 959.3 168.1 L 959.7 165.5 L 960.0 163.4 L 959.5 159.9 L 959.4 159.4 L 959.0 158.4 L 957.9 155.4 L 956.1 151.9 L 953.7 148.8 L 953.4 148.4 L 950.5 146.2 L 949.7 145.5 L 946.4 144.0 L 944.5 143.1 L 939.7 142.1 L 938.5 141.8 L 936.6 141.5 L 926.4 140.0 L 907.4 137.1 L 871.6 131.8 L 869.6 131.1 L 865.8 129.9 L 864.2 128.4 L 861.0 125.5 L 859.9 123.2 L 858.1 119.6 L 858.2 116.1 L 858.4 112.9 L 860.5 107.2 L 872.0 76.1 L 877.3 61.8 L 878.2 58.3 L 878.5 54.6 L 877.9 50.8 L 876.3 47.3 L 873.9 44.2 L 870.4 41.7 L 866.4 40.2 L 862.0 40.0 L 843.5 40.7 L 816.5 41.6 L 789.6 42.6 L 770.5 43.3 L 762.4 43.7 L 758.8 43.9 L 750.3 44.5 L 746.9 44.8 L 744.8 45.0 L 734.9 46.2 L 729.1 47.1 L 723.5 47.9 L 711.3 50.5 L 698.2 53.7 L 684.0 57.6 L 683.8 57.7 L 672.9 61.1 L 669.5 62.2 L 663.4 64.4 L 655.3 67.2 L 654.2 67.7 L 646.2 71.1 L 640.3 73.7 L 614.6 86.7 L 604.2 92.0 L 590.6 98.8 L 582.8 102.6 L 577.5 104.1 L 574.1 105.1 L 569.7 105.7 L 565.7 106.2 L 559.2 105.9 L 556.3 105.7 L 550.3 104.6 L 547.9 104.1 L 541.9 102.1 L 540.1 101.4 L 532.9 97.6 L 532.7 97.5 L 505.7 82.2 L 479.7 67.4 L 472.9 63.5 L 464.7 60.2 L 458.4 57.6 L 448.1 55.1 L 443.5 54.0 L 434.2 53.3 L 428.2 52.8 L 417.8 53.6 L 413.5 54.0 L 400.7 56.4 L 388.4 61.2 L 381.7 64.7 L 377.0 67.2 L 370.7 71.4 L 364.5 75.7 L 282.7 130.9 L 272.8 137.5 L 267.2 142.0 L 262.6 146.3 L 257.5 152.4 L 253.5 159.4 L 250.0 168.0 L 248.6 177.3 L 248.9 185.6 L 250.7 194.7 L 250.7 194.7 Z" fill="none" stroke="currentColor" stroke-width="10" stroke-linejoin="round" stroke-linecap="round"/></svg>