<svg xmlns="http://www.w3.org/2000/svg" viewBox="0 0 1000 1000"><path d="M663.6,749.5 L668.9,751.5 L687.1,758.5 L750.2,782.6 L802.6,802.6 L866.7,826.7 L910.0,843.0 L941.5,854.8 L945.8,856.4 L949.0,857.3 L952.5,857.2 L957.2,853.6 L958.7,847.6 L959.2,832.7 L959.8,807.1 L960.0,793.3 L958.8,787.1 L957.6,782.6 L955.0,777.9 L950.7,773.2 L935.8,759.1 L732.1,566.9 L633.5,474.5 L511.4,360.2 L458.4,310.5 L366.3,224.3 L354.9,213.6 L352.6,211.0 L351.6,208.4 L351.1,207.1 L351.1,205.0 L351.1,204.6 L351.9,202.6 L352.3,201.5 L354.8,199.1 L358.9,197.7 L363.7,197.4 L368.1,197.1 L372.1,196.9 L374.7,196.7 L383.2,196.2 L399.7,195.1 L417.3,193.9 L432.0,192.9 L447.5,191.9 L464.5,190.8 L483.0,189.5 L500.5,188.4 L513.6,187.5 L529.8,186.5 L544.0,185.5 L557.9,184.6 L571.9,183.7 L588.2,182.6 L603.7,181.6 L617.2,180.7 L636.9,179.4 L651.0,178.4 L665.1,177.5 L678.3,176.6 L692.6,175.7 L707.2,174.7 L719.3,173.9 L739.7,172.6 L760.7,171.2 L779.2,169.9 L798.9,168.6 L815.7,167.5 L828.5,166.7 L831.7,166.3 L834.8,165.9 L838.4,164.9 L840.1,164.4 L841.9,163.4 L843.4,162.5 L844.1,162.1 L846.0,160.5 L847.2,159.5 L848.4,157.8 L849.3,156.5 L850.3,154.1 L850.7,153.0 L851.1,150.7 L851.4,148.8 L850.9,145.8 L850.6,144.4 L849.6,141.7 L848.0,138.7 L845.9,135.9 L845.6,135.6 L843.0,133.6 L842.3,133.0 L839.4,131.7 L837.7,130.9 L833.5,130.0 L830.7,129.5 L821.7,128.2 L805.0,125.7 L773.4,120.9 L771.6,120.4 L768.3,119.3 L766.9,118.0 L764.0,115.4 L763.1,113.4 L761.5,110.2 L761.7,107.1 L761.8,104.3 L763.6,99.3 L773.8,71.8 L778.5,59.2 L779.2,56.1 L779.6,52.8 L779.0,49.5 L777.6,46.4 L775.4,43.7 L772.4,41.5 L768.9,40.2 L765.0,40.0 L748.6,40.6 L724.9,41.4 L701.1,42.3 L677.1,43.3 L666.4,44.0 L661.6,44.4 L647.8,46.2 L642.8,46.9 L632.1,49.3 L620.5,52.0 L607.8,55.6 L598.2,58.6 L589.8,61.5 L582.7,64.0 L581.7,64.4 L574.7,67.5 L569.5,69.8 L557.6,75.5 L546.8,81.2 L537.6,85.8 L525.6,91.9 L518.7,95.2 L514.0,96.5 L511.0,97.4 L507.2,97.9 L503.6,98.4 L497.9,98.1 L495.3,98.0 L490.1,96.9 L487.9,96.5 L482.7,94.7 L481.1,94.2 L474.5,90.7 L450.7,77.2 L427.8,64.2 L421.8,60.8 L414.6,57.8 L409.0,55.5 L399.9,53.3 L395.8,52.3 L387.6,51.7 L382.4,51.3 L373.2,52.0 L369.4,52.3 L358.1,54.5 L347.2,58.7 L341.3,61.8 L337.2,64.0 L331.7,67.7 L254.1,120.1 L240.4,129.9 L236.3,133.7 L231.9,139.1 L228.3,145.3 L225.2,152.9 L224.0,161.1 L224.2,168.4 L225.8,176.4 L239.3,229.2 L249.0,267.0 L249.0,273.1 L247.0,276.0 L236.9,279.2 L172.7,277.8 L153.8,278.5 L135.0,280.4 L93.9,286.8 L86.0,288.5 L78.2,290.9 L71.2,294.4 L59.8,302.7 L54.6,307.9 L49.9,314.2 L46.3,320.3 L41.3,334.9 L40.0,344.0 L40.9,358.4 L44.1,376.4 L45.9,381.9 L48.6,387.6 L52.1,392.9 L56.3,397.3 L61.0,401.0 L66.3,404.4 L72.5,406.8 L78.2,407.9 L84.5,408.3 L91.0,407.9 L97.3,407.4 L103.1,407.6 L110.9,409.2 L117.9,412.8 L125.5,418.4 L130.8,425.4 L134.7,433.2 L137.0,441.1 L137.2,444.2 L137.5,449.5 L136.7,458.7 L124.6,545.2 L125.3,560.0 L126.5,564.1 L129.4,570.0 L132.8,574.4 L139.2,580.1 L148.7,585.4 L257.2,641.3 L260.8,643.2 L265.8,648.3 L267.7,652.2 L269.3,657.9 L269.4,664.3 L267.0,673.6 L264.3,682.6 L263.0,686.9 L260.1,698.8 L258.7,709.0 L258.2,712.5 L257.5,723.6 L257.3,734.7 L257.6,741.3 L258.8,746.1 L263.5,752.5 L270.5,756.0 L274.6,756.3 L282.1,755.5 L335.9,747.3 L339.3,746.8 L344.8,742.4 L359.6,708.9 L363.9,699.0 L369.2,690.1 L372.8,683.9 L377.1,678.8 L378.8,676.7 L389.4,667.3 L395.1,663.0 L403.7,658.9 L413.3,655.3 L422.6,653.0 L430.5,652.4 L435.7,652.0 L444.9,652.3 L453.0,654.3 L457.7,655.4 L463.8,657.7 L472.0,661.5 L477.2,664.3 L484.7,669.3 L491.2,675.0 L496.1,680.4 L500.4,684.6 L506.9,689.5 L509.5,691.1 L571.3,714.9 L634.0,738.4 L659.7,748.0 L668.9,751.5 L663.6,749.5 Z" fill="none" stroke="currentColor" stroke-width="10" stroke-linejoin="round" stroke-linecap="round" aria-label="Korea International Circuit"/></svg>