<svg xmlns="http://www.w3.org/2000/svg" viewBox="0 0 1000 1000" role="img" aria-label="Circuit Zandvoort track outline"><path d="M 323.7 186.1 L 320.2 196.3 L 316.5 207.2 L 313.8 216.2 L 311.7 224.8 L 310.2 232.6 L 309.2 238.7 L 308.3 245.8 L 307.6 253.9 L 307.2 261.8 L 307.1 269.0 L 307.1 308.1 L 307.0 310.4 L 306.7 312.8 L 306.1 315.4 L 305.3 317.7 L 304.3 319.9 L 303.3 322.1 L 301.8 324.6 L 299.4 328.4 L 296.6 331.9 L 293.7 335.1 L 290.7 337.7 L 286.9 340.4 L 283.4 342.6 L 279.3 344.7 L 274.3 346.9 L 227.8 364.8 L 223.7 366.4 L 218.5 368.3 L 215.2 370.0 L 211.7 372.5 L 209.4 374.6 L 206.5 378.0 L 204.3 381.6 L 202.4 385.6 L 201.2 389.6 L 200.5 394.0 L 200.4 398.3 L 201.1 403.3 L 202.3 408.4 L 204.0 412.3 L 206.5 416.3 L 209.7 420.4 L 213.3 423.6 L 217.4 426.4 L 222.5 428.8 L 227.0 430.1 L 231.1 430.6 L 234.4 430.7 L 238.3 430.4 L 242.2 429.6 L 247.1 428.4 L 251.7 427.0 L 260.5 424.2 L 309.6 408.0 L 320.5 404.9 L 331.9 401.6 L 344.0 398.6 L 356.1 395.9 L 366.4 394.3 L 376.1 393.2 L 384.7 392.5 L 393.7 392.1 L 402.7 392.2 L 412.0 392.4 L 420.9 392.8 L 428.4 393.6 L 437.9 394.7 L 445.9 396.0 L 455.9 397.9 L 465.9 400.0 L 475.4 402.2 L 511.9 410.7 L 519.6 412.2 L 525.8 413.2 L 531.7 413.9 L 538.9 414.6 L 546.0 415.1 L 553.0 415.2 L 559.4 415.0 L 567.2 414.2 L 574.0 413.2 L 581.7 411.6 L 589.7 409.5 L 597.4 406.8 L 614.2 399.8 L 619.5 397.3 L 626.6 393.5 L 633.0 389.9 L 638.9 386.2 L 647.2 380.8 L 650.2 378.9 L 652.2 377.6 L 657.3 374.3 L 660.5 372.2 L 668.1 367.7 L 675.2 363.5 L 681.5 360.0 L 688.3 356.5 L 695.7 352.9 L 702.9 350.1 L 710.7 347.5 L 720.0 345.0 L 729.7 343.2 L 740.4 341.9 L 746.6 341.5 L 755.2 341.3 L 764.0 341.3 L 772.0 341.6 L 782.2 342.1 L 793.8 342.7 L 857.4 346.5 L 863.8 347.0 L 869.6 347.6 L 875.1 348.3 L 880.9 349.3 L 886.2 350.4 L 892.0 351.9 L 898.2 354.0 L 904.1 356.4 L 908.9 358.7 L 913.2 361.1 L 918.2 364.2 L 923.7 368.3 L 928.8 372.6 L 933.2 376.7 L 937.3 381.2 L 941.5 386.6 L 944.4 390.7 L 947.3 395.3 L 949.9 400.0 L 951.7 404.0 L 953.8 408.8 L 955.4 413.8 L 957.0 419.2 L 958.1 424.1 L 959.0 428.7 L 959.5 433.8 L 959.8 438.5 L 960.0 443.4 L 959.9 447.9 L 959.5 452.9 L 958.8 458.0 L 957.8 463.1 L 956.8 467.4 L 955.5 471.7 L 954.4 475.2 L 952.6 479.6 L 950.7 483.5 L 948.3 488.3 L 946.1 492.0 L 944.1 495.4 L 941.2 499.9 L 938.4 504.1 L 899.6 559.9 L 895.7 565.6 L 892.1 571.2 L 888.9 576.1 L 886.3 580.6 L 883.9 584.9 L 881.4 589.5 L 878.2 596.0 L 875.2 602.5 L 872.1 609.2 L 868.9 616.2 L 866.4 621.5 L 844.9 664.8 L 843.1 668.3 L 841.6 670.5 L 840.2 672.5 L 838.0 674.6 L 836.1 676.1 L 833.6 677.9 L 830.5 679.4 L 827.8 680.4 L 824.2 681.4 L 819.9 682.1 L 814.9 682.7 L 809.1 683.2 L 802.1 683.4 L 794.5 683.3 L 786.6 683.0 L 778.4 682.3 L 771.0 681.4 L 762.4 679.9 L 754.9 678.3 L 747.0 676.2 L 739.6 674.0 L 732.1 671.5 L 728.4 670.2 L 723.2 668.2 L 716.5 665.2 L 709.2 661.7 L 702.1 657.9 L 694.1 653.1 L 685.5 647.5 L 678.7 642.4 L 673.9 638.7 L 668.6 634.1 L 664.2 630.1 L 660.6 626.8 L 657.9 624.1 L 655.7 621.6 L 653.7 619.2 L 651.9 616.6 L 650.8 614.3 L 649.7 611.4 L 648.9 608.4 L 648.5 606.0 L 648.4 603.6 L 648.3 601.2 L 648.6 598.8 L 649.4 595.7 L 650.4 593.2 L 651.8 590.7 L 653.4 588.3 L 655.3 585.9 L 657.3 583.5 L 659.4 581.5 L 661.2 579.9 L 663.3 578.0 L 665.6 576.1 L 667.9 574.5 L 670.1 572.9 L 673.0 570.9 L 675.2 569.5 L 677.3 568.3 L 679.5 567.0 L 681.9 565.8 L 685.1 564.1 L 687.8 562.9 L 690.5 561.7 L 692.7 560.7 L 695.5 559.8 L 697.8 559.1 L 699.9 558.6 L 701.9 558.1 L 703.8 557.7 L 706.5 557.3 L 709.1 556.8 L 713.4 556.2 L 729.7 554.1 L 735.2 553.3 L 740.2 552.5 L 744.9 551.7 L 749.5 550.8 L 754.1 550.0 L 757.8 549.1 L 762.2 548.0 L 766.6 546.8 L 770.6 545.7 L 774.6 544.4 L 778.9 543.1 L 783.5 541.4 L 787.4 540.1 L 791.0 538.7 L 795.0 537.2 L 798.7 535.6 L 802.0 534.2 L 805.1 532.8 L 808.4 531.3 L 811.9 529.5 L 814.3 528.2 L 816.5 526.9 L 818.2 525.9 L 819.8 524.7 L 821.3 523.5 L 822.8 522.2 L 824.1 520.8 L 825.3 519.4 L 827.0 517.5 L 828.1 515.8 L 829.5 513.7 L 830.7 511.9 L 831.5 510.2 L 832.5 508.3 L 833.3 506.7 L 834.0 504.9 L 834.7 502.9 L 835.2 501.2 L 835.6 499.4 L 836.0 497.6 L 836.3 495.4 L 836.6 493.4 L 836.7 491.7 L 836.8 490.1 L 836.8 488.4 L 836.7 486.3 L 836.6 484.6 L 836.4 482.9 L 836.1 480.8 L 835.7 479.4 L 835.2 477.3 L 834.6 475.2 L 833.9 473.4 L 833.2 471.9 L 832.5 470.3 L 831.9 469.2 L 831.2 467.9 L 830.6 466.8 L 829.8 465.4 L 828.9 464.0 L 827.7 462.3 L 826.4 460.6 L 825.3 459.4 L 824.0 457.9 L 822.6 456.5 L 821.1 455.1 L 819.3 453.6 L 817.4 452.2 L 815.7 451.0 L 813.8 449.8 L 811.0 448.3 L 809.2 447.5 L 807.2 446.6 L 804.8 445.9 L 802.4 445.2 L 799.3 444.6 L 795.1 444.0 L 749.9 439.3 L 744.4 438.8 L 739.4 438.3 L 733.8 437.9 L 728.6 437.6 L 723.3 437.4 L 718.4 437.1 L 712.6 437.0 L 706.9 436.8 L 700.3 436.8 L 694.8 436.8 L 688.1 436.9 L 680.8 437.1 L 671.5 437.4 L 660.4 438.0 L 651.3 438.6 L 644.0 439.1 L 634.9 440.0 L 628.3 440.7 L 619.9 441.8 L 612.6 442.7 L 605.7 443.6 L 597.9 444.7 L 591.1 445.6 L 584.5 446.8 L 576.6 448.1 L 568.9 449.5 L 561.3 451.0 L 553.4 452.7 L 544.0 454.7 L 536.4 456.4 L 528.1 458.4 L 518.1 461.0 L 509.2 463.5 L 500.3 466.1 L 491.2 468.8 L 481.9 471.9 L 474.5 474.3 L 466.8 476.9 L 457.9 480.1 L 450.5 482.8 L 442.7 485.8 L 435.1 488.8 L 427.2 491.9 L 418.8 495.4 L 410.7 498.8 L 398.2 504.0 L 389.3 507.9 L 380.8 511.8 L 372.7 515.8 L 365.7 519.4 L 359.9 522.5 L 339.8 534.1 L 337.4 535.4 L 335.3 536.3 L 333.3 537.1 L 331.5 537.4 L 329.5 537.5 L 327.2 537.4 L 325.6 537.1 L 324.2 536.6 L 322.9 536.0 L 321.7 535.1 L 320.6 534.2 L 319.9 533.4 L 318.9 532.3 L 317.8 530.8 L 316.5 528.7 L 311.5 519.2 L 310.0 516.7 L 308.4 514.3 L 306.6 511.5 L 305.4 510.0 L 304.0 508.4 L 302.3 506.9 L 300.9 505.6 L 299.3 504.4 L 296.9 502.9 L 294.9 501.8 L 292.8 500.8 L 290.6 500.1 L 288.3 499.4 L 285.8 499.0 L 283.7 498.7 L 281.3 498.6 L 278.9 498.6 L 276.3 498.8 L 273.8 499.2 L 271.7 499.6 L 269.6 500.3 L 267.3 501.2 L 265.5 502.1 L 263.5 503.2 L 261.5 504.5 L 259.4 505.9 L 257.8 507.2 L 256.5 508.3 L 255.0 509.8 L 253.8 511.1 L 252.7 512.4 L 251.7 514.0 L 250.8 515.4 L 249.9 517.0 L 249.0 518.7 L 248.4 520.3 L 247.8 522.1 L 247.2 524.3 L 246.8 525.9 L 246.6 527.3 L 246.5 528.8 L 246.5 530.2 L 246.5 531.6 L 246.7 533.6 L 246.9 535.2 L 247.2 537.0 L 247.5 539.1 L 248.6 545.5 L 280.8 734.7 L 285.5 762.8 L 285.9 765.4 L 286.2 767.5 L 286.3 769.6 L 286.4 771.8 L 286.3 774.0 L 286.2 776.2 L 285.9 778.4 L 285.6 780.4 L 285.2 782.5 L 284.8 784.4 L 284.4 786.2 L 283.9 788.1 L 283.3 789.8 L 282.6 791.7 L 281.9 793.3 L 281.1 794.9 L 280.2 796.6 L 279.2 798.5 L 278.2 800.1 L 277.1 801.7 L 275.9 803.4 L 274.7 804.9 L 273.2 806.5 L 271.8 808.1 L 270.2 809.7 L 268.6 811.2 L 267.1 812.5 L 265.4 813.8 L 263.6 815.0 L 261.9 816.1 L 260.0 817.2 L 257.7 818.4 L 255.2 819.5 L 252.7 820.5 L 250.1 821.3 L 247.8 821.9 L 246.0 822.4 L 244.1 822.8 L 242.5 823.1 L 240.5 823.4 L 238.4 823.5 L 236.3 823.6 L 233.3 823.7 L 166.7 825.1 L 161.8 825.0 L 157.9 824.9 L 154.8 824.7 L 151.4 824.3 L 148.3 823.9 L 145.2 823.5 L 142.6 823.0 L 140.1 822.5 L 137.3 822.0 L 135.5 821.5 L 133.7 821.1 L 131.8 820.5 L 129.9 820.0 L 127.9 819.4 L 126.0 818.8 L 123.9 818.0 L 121.9 817.3 L 119.7 816.4 L 117.8 815.6 L 115.7 814.7 L 113.6 813.7 L 111.6 812.8 L 109.5 811.8 L 107.5 810.8 L 105.0 809.4 L 102.4 808.0 L 99.9 806.5 L 97.1 804.7 L 94.3 802.8 L 91.6 800.9 L 88.7 798.7 L 86.2 796.7 L 83.0 794.1 L 80.1 791.5 L 77.8 789.4 L 75.2 786.8 L 72.1 783.6 L 69.7 781.0 L 67.8 778.7 L 65.5 775.8 L 63.7 773.3 L 61.8 770.6 L 60.0 768.0 L 57.8 764.5 L 56.2 761.6 L 54.5 758.3 L 52.4 754.0 L 50.9 750.5 L 49.1 746.2 L 47.8 742.7 L 46.2 738.2 L 45.0 734.3 L 44.1 731.2 L 43.5 728.7 L 42.8 725.7 L 42.2 723.1 L 41.7 720.0 L 41.3 717.3 L 40.9 714.5 L 40.6 712.2 L 40.4 709.8 L 40.2 707.0 L 40.1 704.7 L 40.0 702.1 L 40.1 698.3 L 40.1 694.9 L 40.3 690.5 L 40.6 687.6 L 41.0 684.6 L 41.4 681.8 L 41.7 678.9 L 42.3 675.2 L 42.9 672.4 L 43.5 670.0 L 44.1 667.5 L 44.9 664.3 L 45.8 661.6 L 46.9 658.2 L 48.2 654.9 L 49.5 651.5 L 50.8 648.3 L 59.8 626.3 L 69.5 603.1 L 90.8 551.5 L 124.9 468.4 L 178.2 338.7 L 198.0 290.5 L 213.7 252.0 L 291.7 62.1 L 293.5 58.9 L 295.4 55.8 L 298.5 52.1 L 302.5 48.5 L 306.9 45.5 L 311.3 43.2 L 316.2 41.5 L 321.4 40.5 L 327.1 40.0 L 332.2 40.5 L 338.4 42.0 L 343.9 44.3 L 348.3 47.1 L 352.2 50.5 L 355.2 53.8 L 358.9 58.7 L 361.6 63.7 L 363.4 68.7 L 364.4 73.8 L 364.9 79.2 L 364.8 83.6 L 364.3 87.2 L 363.5 90.6 L 362.3 94.2 L 340.4 148.9 L 323.7 186.1 L 335.3 146.9 L 341.2 130.5 L 355.6 89.8 L 356.2 87.3 L 356.5 85.2 L 356.7 83.0 L 356.7 80.4 L 356.4 77.6 L 355.9 74.6 L 354.7 71.0 L 353.1 67.6 L 351.2 64.6 L 348.5 61.4 L 345.5 58.8 L 341.0 55.8 L 336.1 53.6 L 331.1 52.6 L 325.3 52.2 L 319.8 52.8 L 315.7 54.3 L 311.6 56.1 L 308.0 58.9 L 305.5 61.4 L 303.3 64.2 L 301.6 67.8 L 277.3 125.1 L 263.6 158.5 L 262.2 161.9 L 260.9 165.2 L 258.9 169.3 L 256.0 175.0 L 253.9 179.0 L 252.2 182.8 L 198.5 316.3 L 171.5 385.2 L 170.3 388.7 L 168.7 393.5 L 167.2 398.5 L 165.3 405.1 L 164.0 409.9 L 161.8 419.0 L 160.9 422.1 L 159.8 424.8 L 158.4 428.1 L 156.6 431.6 L 154.4 435.4 L 152.5 438.5 L 150.3 441.9 L 141.4 455.6 L 138.5 460.3 L 135.5 465.5 L 132.4 471.2 L 117.2 500.6 L 107.9 519.0 L 90.8 551.5" fill="none" stroke="currentColor" stroke-width="10" stroke-linejoin="round" stroke-linecap="round"/></svg>