<svg xmlns="http://www.w3.org/2000/svg" viewBox="0 0 1000 1000"><path d="M713.4,556.2 L729.7,554.1 L735.2,553.3 L740.2,552.5 L744.9,551.7 L749.5,550.8 L754.1,550.0 L757.8,549.1 L762.2,548.0 L766.6,546.8 L770.6,545.7 L774.6,544.4 L778.9,543.1 L783.5,541.4 L787.4,540.1 L791.0,538.7 L795.0,537.2 L798.7,535.6 L802.0,534.2 L805.1,532.8 L808.4,531.3 L811.9,529.5 L814.3,528.2 L816.5,526.9 L818.2,525.9 L819.8,524.7 L821.3,523.5 L822.8,522.2 L824.1,520.8 L825.3,519.4 L827.0,517.5 L828.1,515.8 L829.5,513.7 L830.7,511.9 L831.5,510.2 L832.5,508.3 L833.3,506.7 L834.0,504.9 L834.7,502.9 L835.2,501.2 L835.6,499.4 L836.0,497.6 L836.3,495.4 L836.6,493.4 L836.7,491.7 L836.8,490.1 L836.8,488.4 L836.7,486.3 L836.6,484.6 L836.4,482.9 L836.1,480.8 L835.7,479.4 L835.2,477.3 L834.6,475.2 L833.9,473.4 L833.2,471.9 L832.5,470.3 L831.9,469.2 L831.2,467.9 L830.6,466.8 L829.8,465.4 L828.9,464.0 L827.7,462.3 L826.4,460.6 L825.3,459.4 L824.0,457.9 L822.6,456.5 L821.1,455.1 L819.3,453.6 L817.4,452.2 L815.7,451.0 L813.8,449.8 L811.0,448.3 L809.2,447.5 L807.2,446.6 L804.8,445.9 L802.4,445.2 L799.3,444.6 L795.1,444.0 L749.9,439.3 L744.4,438.8 L739.4,438.3 L733.8,437.9 L728.6,437.6 L723.3,437.4 L718.4,437.1 L712.6,437.0 L706.9,436.8 L700.3,436.8 L694.8,436.8 L688.1,436.9 L680.8,437.1 L671.5,437.4 L660.4,438.0 L651.3,438.6 L644.0,439.1 L634.9,440.0 L628.3,440.7 L619.9,441.8 L612.6,442.7 L605.7,443.6 L597.9,444.7 L591.1,445.6 L584.5,446.8 L576.6,448.1 L568.9,449.5 L561.3,451.0 L553.4,452.7 L544.0,454.7 L536.4,456.4 L528.1,458.4 L518.1,461.0 L509.2,463.5 L500.3,466.1 L491.2,468.8 L481.9,471.9 L474.5,474.3 L466.8,476.9 L457.9,480.1 L450.5,482.8 L442.7,485.8 L435.1,488.8 L427.2,491.9 L418.8,495.4 L410.7,498.8 L398.2,504.0 L389.3,507.9 L380.8,511.8 L372.7,515.8 L365.7,519.4 L359.9,522.5 L339.8,534.1 L337.4,535.4 L335.3,536.3 L333.3,537.1 L331.5,537.4 L329.5,537.5 L327.2,537.4 L325.6,537.1 L324.2,536.6 L322.9,536.0 L321.7,535.1 L320.6,534.2 L319.9,533.4 L318.9,532.3 L317.8,530.8 L316.5,528.7 L311.5,519.2 L310.0,516.7 L308.4,514.3 L306.6,511.5 L305.4,510.0 L304.0,508.4 L302.3,506.9 L300.9,505.6 L299.3,504.4 L296.9,502.9 L294.9,501.8 L292.8,500.8 L290.6,500.1 L288.3,499.4 L285.8,499.0 L283.7,498.7 L281.3,498.6 L278.9,498.6 L276.3,498.8 L273.8,499.2 L271.7,499.6 L269.6,500.3 L267.3,501.2 L265.5,502.1 L263.5,503.2 L261.5,504.5 L259.4,505.9 L257.8,507.2 L256.5,508.3 L255.0,509.8 L253.8,511.1 L252.7,512.4 L251.7,514.0 L250.8,515.4 L249.9,517.0 L249.0,518.7 L248.4,520.3 L247.8,522.1 L247.2,524.3 L246.8,525.9 L246.6,527.3 L246.5,528.8 L246.5,530.2 L246.5,531.6 L246.7,533.6 L246.9,535.2 L247.2,537.0 L247.5,539.1 L248.6,545.5 L280.8,734.7 L285.5,762.8 L285.9,765.4 L286.2,767.5 L286.3,769.6 L286.4,771.8 L286.3,774.0 L286.2,776.2 L285.9,778.4 L285.6,780.4 L285.2,782.5 L284.8,784.4 L284.4,786.2 L283.9,788.1 L283.3,789.8 L282.6,791.7 L281.9,793.3 L281.1,794.9 L280.2,796.6 L279.2,798.5 L278.2,800.1 L277.1,801.7 L275.9,803.4 L274.7,804.9 L273.2,806.5 L271.8,808.1 L270.2,809.7 L268.6,811.2 L267.1,812.5 L265.4,813.8 L263.6,815.0 L261.9,816.1 L260.0,817.2 L257.7,818.4 L255.2,819.5 L252.7,820.5 L250.1,821.3 L247.8,821.9 L246.0,822.4 L244.1,822.8 L242.5,823.1 L240.5,823.4 L238.4,823.5 L236.3,823.6 L233.3,823.7 L166.7,825.1 L161.8,825.0 L157.9,824.9 L154.8,824.7 L151.4,824.3 L148.3,823.9 L145.2,823.5 L142.6,823.0 L140.1,822.5 L137.3,822.0 L135.5,821.5 L133.7,821.1 L131.8,820.5 L129.9,820.0 L127.9,819.4 L126.0,818.8 L123.9,818.0 L121.9,817.3 L119.7,816.4 L117.8,815.6 L115.7,814.7 L113.6,813.7 L111.6,812.8 L109.5,811.8 L107.5,810.8 L105.0,809.4 L102.4,808.0 L99.9,806.5 L97.1,804.7 L94.3,802.8 L91.6,800.9 L88.7,798.7 L86.2,796.7 L83.0,794.1 L80.1,791.5 L77.8,789.4 L75.2,786.8 L72.1,783.6 L69.7,781.0 L67.8,778.7 L65.5,775.8 L63.7,773.3 L61.8,770.6 L60.0,768.0 L57.8,764.5 L56.2,761.6 L54.5,758.3 L52.4,754.0 L50.9,750.5 L49.1,746.2 L47.8,742.7 L46.2,738.2 L45.0,734.3 L44.1,731.2 L43.5,728.7 L42.8,725.7 L42.2,723.1 L41.7,720.0 L41.3,717.3 L40.9,714.5 L40.6,712.2 L40.4,709.8 L40.2,707.0 L40.1,704.7 L40.0,702.1 L40.1,698.3 L40.1,694.9 L40.3,690.5 L40.6,687.6 L41.0,684.6 L41.4,681.8 L41.7,678.9 L42.3,675.2 L42.9,672.4 L43.5,670.0 L44.1,667.5 L44.9,664.3 L45.8,661.6 L46.9,658.2 L48.2,654.9 L49.5,651.5 L50.8,648.3 L59.8,626.3 L69.5,603.1 L90.8,551.5 L124.9,468.4 L178.2,338.7 L198.0,290.5 L213.7,252.0 L291.7,62.1 L293.5,58.9 L295.4,55.8 L298.5,52.1 L302.5,48.5 L306.9,45.5 L311.3,43.2 L316.2,41.5 L321.4,40.5 L327.1,40.0 L332.2,40.5 L338.4,42.0 L343.9,44.3 L348.3,47.1 L352.2,50.5 L355.2,53.8 L358.9,58.7 L361.6,63.7 L363.4,68.7 L364.4,73.8 L364.9,79.2 L364.8,83.6 L364.3,87.2 L363.5,90.6 L362.3,94.2 L340.4,148.9 L323.7,186.1 L320.2,196.3 L316.5,207.2 L313.8,216.2 L311.7,224.8 L310.2,232.6 L309.2,238.7 L308.3,245.8 L307.6,253.9 L307.2,261.8 L307.1,269.0 L307.1,308.1 L307.0,310.4 L306.7,312.8 L306.1,315.4 L305.3,317.7 L304.3,319.9 L303.3,322.1 L301.8,324.6 L299.4,328.4 L296.6,331.9 L293.7,335.1 L290.7,337.7 L286.9,340.4 L283.4,342.6 L279.3,344.7 L274.3,346.9 L227.8,364.8 L223.7,366.4 L218.5,368.3 L215.2,370.0 L211.7,372.5 L209.4,374.6 L206.5,378.0 L204.3,381.6 L202.4,385.6 L201.2,389.6 L200.5,394.0 L200.4,398.3 L201.1,403.3 L202.3,408.4 L204.0,412.3 L206.5,416.3 L209.7,420.4 L213.3,423.6 L217.4,426.4 L222.5,428.8 L227.0,430.1 L231.1,430.6 L234.4,430.7 L238.3,430.4 L242.2,429.6 L247.1,428.4 L251.7,427.0 L260.5,424.2 L309.6,408.0 L320.5,404.9 L331.9,401.6 L344.0,398.6 L356.1,395.9 L366.4,394.3 L376.1,393.2 L384.7,392.5 L393.7,392.1 L402.7,392.2 L412.0,392.4 L420.9,392.8 L428.4,393.6 L437.9,394.7 L445.9,396.0 L455.9,397.9 L465.9,400.0 L475.4,402.2 L511.9,410.7 L519.6,412.2 L525.8,413.2 L531.7,413.9 L538.9,414.6 L546.0,415.1 L553.0,415.2 L559.4,415.0 L567.2,414.2 L574.0,413.2 L581.7,411.6 L589.7,409.5 L597.4,406.8 L614.2,399.8 L619.5,397.3 L626.6,393.5 L633.0,389.9 L638.9,386.2 L647.2,380.8 L650.2,378.9 L652.2,377.6 L657.3,374.3 L660.5,372.2 L668.1,367.7 L675.2,363.5 L681.5,360.0 L688.3,356.5 L695.7,352.9 L702.9,350.1 L710.7,347.5 L720.0,345.0 L729.7,343.2 L740.4,341.9 L746.6,341.5 L755.2,341.3 L764.0,341.3 L772.0,341.6 L782.2,342.1 L793.8,342.7 L857.4,346.5 L863.8,347.0 L869.6,347.6 L875.1,348.3 L880.9,349.3 L886.2,350.4 L892.0,351.9 L898.2,354.0 L904.1,356.4 L908.9,358.7 L913.2,361.1 L918.2,364.2 L923.7,368.3 L928.8,372.6 L933.2,376.7 L937.3,381.2 L941.5,386.6 L944.4,390.7 L947.3,395.3 L949.9,400.0 L951.7,404.0 L953.8,408.8 L955.4,413.8 L957.0,419.2 L958.1,424.1 L959.0,428.7 L959.5,433.8 L959.8,438.5 L960.0,443.4 L959.9,447.9 L959.5,452.9 L958.8,458.0 L957.8,463.1 L956.8,467.4 L955.5,471.7 L954.4,475.2 L952.6,479.6 L950.7,483.5 L948.3,488.3 L946.1,492.0 L944.1,495.4 L941.2,499.9 L938.4,504.1 L899.6,559.9 L895.7,565.6 L892.1,571.2 L888.9,576.1 L886.3,580.6 L883.9,584.9 L881.4,589.5 L878.2,596.0 L875.2,602.5 L872.1,609.2 L868.9,616.2 L866.4,621.5 L844.9,664.8 L843.1,668.3 L841.6,670.5 L840.2,672.5 L838.0,674.6 L836.1,676.1 L833.6,677.9 L830.5,679.4 L827.8,680.4 L824.2,681.4 L819.9,682.1 L814.9,682.7 L809.1,683.2 L802.1,683.4 L794.5,683.3 L786.6,683.0 L778.4,682.3 L771.0,681.4 L762.4,679.9 L754.9,678.3 L747.0,676.2 L739.6,674.0 L732.1,671.5 L728.4,670.2 L723.2,668.2 L716.5,665.2 L709.2,661.7 L702.1,657.9 L694.1,653.1 L685.5,647.5 L678.7,642.4 L673.9,638.7 L668.6,634.1 L664.2,630.1 L660.6,626.8 L657.9,624.1 L655.7,621.6 L653.7,619.2 L651.9,616.6 L650.8,614.3 L649.7,611.4 L648.9,608.4 L648.5,606.0 L648.4,603.6 L648.3,601.2 L648.6,598.8 L649.4,595.7 L650.4,593.2 L651.8,590.7 L653.4,588.3 L655.3,585.9 L657.3,583.5 L659.4,581.5 L661.2,579.9 L663.3,578.0 L665.6,576.1 L667.9,574.5 L670.1,572.9 L673.0,570.9 L675.2,569.5 L677.3,568.3 L679.5,567.0 L681.9,565.8 L685.1,564.1 L687.8,562.9 L690.5,561.7 L692.7,560.7 L695.5,559.8 L697.8,559.1 L699.9,558.6 L701.9,558.1 L703.8,557.7 L706.5,557.3 L709.1,556.8 L713.4,556.2 Z" fill="none" stroke="currentColor" stroke-width="10" stroke-linejoin="round" stroke-linecap="round" aria-label="Circuit Zandvoort"/></svg>