<svg xmlns="http://www.w3.org/2000/svg" viewBox="0 0 1000 1000" role="img" aria-label="Circuit Zolder track outline"><path d="M 486.5 253.7 L 484.2 242.9 L 480.9 231.4 L 478.2 222.3 L 465.4 183.7 L 458.2 165.3 L 455.7 159.8 L 455.3 156.8 L 455.3 153.4 L 455.9 150.9 L 457.0 149.6 L 458.6 148.3 L 462.8 145.5 L 468.5 142.1 L 470.1 140.5 L 471.6 138.6 L 472.2 136.8 L 472.6 134.5 L 472.4 132.1 L 471.6 128.7 L 470.1 125.9 L 465.8 117.6 L 464.3 114.7 L 462.2 109.2 L 461.3 105.6 L 461.2 100.5 L 461.3 97.4 L 462.3 93.3 L 463.6 89.6 L 465.5 86.2 L 468.4 83.0 L 480.7 73.7 L 511.1 51.2 L 518.3 46.1 L 524.3 43.4 L 531.4 41.5 L 539.1 40.3 L 546.2 40.0 L 551.3 40.5 L 558.9 41.8 L 567.9 44.8 L 574.5 48.1 L 578.9 51.4 L 584.7 56.1 L 636.0 101.2 L 646.1 110.0 L 656.6 118.4 L 661.4 121.8 L 668.3 126.3 L 675.1 130.3 L 678.3 132.1 L 687.8 136.6 L 710.6 145.8 L 736.5 156.4 L 760.4 165.7 L 785.1 175.2 L 814.9 186.9 L 820.6 189.3 L 823.6 191.2 L 825.9 193.6 L 827.7 196.5 L 828.8 198.6 L 829.5 200.8 L 829.7 202.0 L 829.9 204.2 L 829.7 206.1 L 828.6 208.8 L 827.4 211.1 L 824.5 214.4 L 816.5 220.1 L 803.5 228.7 L 793.7 234.9 L 789.4 238.2 L 784.9 242.3 L 781.9 245.5 L 779.5 248.6 L 775.8 254.0 L 764.8 269.6 L 761.1 273.6 L 757.8 276.4 L 714.6 305.5 L 652.4 347.8 L 583.5 394.6 L 546.9 419.6 L 532.6 429.3 L 519.4 438.0 L 516.3 442.8 L 515.5 446.4 L 516.5 450.7 L 517.9 454.6 L 522.4 461.4 L 525.6 466.6 L 526.6 470.9 L 526.9 475.2 L 526.6 479.2 L 524.9 483.4 L 522.3 488.4 L 520.4 490.8 L 517.0 494.8 L 512.4 498.2 L 384.2 579.7 L 319.0 622.5 L 268.3 655.2 L 216.4 689.1 L 204.5 697.0 L 199.7 701.2 L 194.8 705.4 L 190.8 709.5 L 185.6 715.1 L 183.0 718.5 L 180.6 721.6 L 179.6 722.9 L 178.7 725.0 L 178.0 727.3 L 177.5 729.9 L 177.2 732.5 L 177.2 735.7 L 177.6 740.4 L 178.7 745.7 L 180.3 750.5 L 181.8 755.0 L 184.2 761.0 L 187.3 767.1 L 192.7 775.2 L 197.4 782.0 L 202.4 788.7 L 216.5 807.7 L 225.1 820.1 L 251.2 856.1 L 257.0 864.4 L 263.8 874.2 L 265.0 875.9 L 267.3 880.6 L 269.3 885.2 L 273.7 898.8 L 274.7 902.6 L 275.5 908.2 L 275.6 911.3 L 275.4 916.2 L 274.7 921.1 L 274.0 924.1 L 272.3 928.6 L 268.7 933.7 L 265.5 937.4 L 261.8 940.6 L 257.0 943.6 L 251.4 946.4 L 246.1 948.8 L 240.9 950.5 L 233.5 952.4 L 221.3 954.7 L 206.0 957.3 L 197.1 958.8 L 187.5 959.7 L 179.0 960.0 L 172.8 959.5 L 166.5 958.8 L 159.6 957.2 L 153.2 955.1 L 146.2 952.0 L 140.1 948.7 L 134.0 945.1 L 129.2 941.6 L 124.1 937.4 L 119.2 932.9 L 114.2 927.2 L 110.1 922.0 L 106.0 916.0 L 104.3 913.6 L 86.2 879.8 L 60.1 831.8 L 55.2 822.8 L 49.2 811.9 L 45.9 806.0 L 43.7 800.1 L 42.2 795.6 L 41.0 789.9 L 40.2 784.2 L 40.0 778.0 L 40.4 772.5 L 41.5 767.9 L 42.8 762.5 L 46.4 753.6 L 49.1 748.9 L 52.4 744.2 L 58.7 737.3 L 68.0 730.1 L 140.3 680.3 L 191.0 646.1 L 308.7 564.9 L 382.5 516.9 L 387.5 512.6 L 389.6 509.9 L 390.5 507.6 L 390.0 505.0 L 389.1 502.7 L 387.9 500.4 L 385.7 495.5 L 384.9 493.5 L 384.8 490.9 L 385.3 488.5 L 386.6 486.2 L 399.8 465.3 L 420.5 433.0 L 431.0 415.7 L 436.2 406.5 L 452.6 374.7 L 472.5 336.7 L 477.6 325.2 L 481.0 316.5 L 484.1 305.6 L 486.3 295.5 L 487.3 284.4 L 487.7 275.9 L 487.9 264.8 L 486.5 253.7 L 486.5 253.7 Z" fill="none" stroke="currentColor" stroke-width="10" stroke-linejoin="round" stroke-linecap="round"/></svg>