<svg xmlns="http://www.w3.org/2000/svg" viewBox="0 0 1000 1000" role="img" aria-label="Circuit Zolder track outline"><path d="M485.6,433.0 L 496.1,415.7 L 501.3,406.5 L 517.7,374.7 L 537.5,336.7 L 542.6,325.2 L 546.1,316.5 L 549.2,305.6 L 551.3,295.5 L 552.4,284.4 L 552.8,275.9 L 553.0,264.8 L 551.6,253.7 L 549.3,242.9 L 546.0,231.4 L 543.3,222.3 L 530.5,183.7 L 523.3,165.3 L 520.8,159.8 L 520.3,156.8 L 520.3,153.4 L 521.0,150.9 L 522.1,149.6 L 523.7,148.3 L 527.9,145.5 L 533.6,142.1 L 535.2,140.5 L 536.6,138.6 L 537.3,136.8 L 537.7,134.5 L 537.5,132.1 L 536.7,128.7 L 535.2,125.9 L 530.8,117.6 L 529.4,114.7 L 527.3,109.2 L 526.4,105.6 L 526.2,100.5 L 526.4,97.4 L 527.4,93.3 L 528.6,89.6 L 530.6,86.2 L 533.5,83.0 L 545.7,73.7 L 576.2,51.2 L 583.4,46.1 L 589.4,43.4 L 596.4,41.5 L 604.2,40.3 L 611.2,40.0 L 616.4,40.5 L 624.0,41.8 L 632.9,44.8 L 639.6,48.1 L 644.0,51.4 L 649.7,56.1 L 701.0,101.2 L 711.2,110.0 L 721.6,118.4 L 726.4,121.8 L 733.4,126.3 L 740.2,130.3 L 743.4,132.1 L 752.9,136.6 L 775.7,145.8 L 801.5,156.4 L 825.5,165.7 L 850.1,175.2 L 880.0,186.9 L 885.7,189.3 L 888.7,191.2 L 890.9,193.6 L 892.7,196.5 L 893.9,198.6 L 894.5,200.8 L 894.8,202.0 L 894.9,204.2 L 894.7,206.1 L 893.7,208.8 L 892.5,211.1 L 889.6,214.4 L 881.6,220.1 L 868.5,228.7 L 858.7,234.9 L 854.4,238.2 L 849.9,242.3 L 847.0,245.5 L 844.5,248.6 L 840.8,254.0 L 829.9,269.6 L 826.2,273.6 L 822.9,276.4 L 779.6,305.5 L 717.5,347.8 L 648.5,394.6 L 612.0,419.6 L 597.7,429.3 L 584.4,438.0 L 581.4,442.8 L 580.6,446.4 L 581.6,450.7 L 583.0,454.6 L 587.4,461.4 L 590.6,466.6 L 591.7,470.9 L 592.0,475.2 L 591.7,479.2 L 589.9,483.4 L 587.4,488.4 L 585.5,490.8 L 582.1,494.8 L 577.4,498.2 L 449.3,579.7 L 384.1,622.5 L 333.4,655.2 L 281.5,689.1 L 269.6,697.0 L 264.8,701.2 L 259.8,705.4 L 255.9,709.5 L 250.7,715.1 L 248.0,718.5 L 245.7,721.6 L 244.6,722.9 L 243.8,725.0 L 243.1,727.3 L 242.5,729.9 L 242.3,732.5 L 242.2,735.7 L 242.7,740.4 L 243.8,745.7 L 245.4,750.5 L 246.9,755.0 L 249.3,761.0 L 252.3,767.1 L 257.8,775.2 L 262.4,782.0 L 267.4,788.7 L 281.5,807.7 L 290.2,820.1 L 316.3,856.1 L 322.0,864.4 L 328.8,874.2 L 330.0,875.9 L 332.4,880.6 L 334.4,885.2 L 338.7,898.8 L 339.8,902.6 L 340.5,908.2 L 340.7,911.3 L 340.5,916.2 L 339.8,921.1 L 339.1,924.1 L 337.3,928.6 L 333.8,933.7 L 330.6,937.4 L 326.9,940.6 L 322.1,943.6 L 316.4,946.4 L 311.2,948.8 L 306.0,950.5 L 298.6,952.4 L 286.4,954.7 L 271.1,957.3 L 262.1,958.8 L 252.6,959.7 L 244.1,960.0 L 237.9,959.5 L 231.5,958.8 L 224.7,957.2 L 218.2,955.1 L 211.2,952.0 L 205.2,948.7 L 199.1,945.1 L 194.3,941.6 L 189.2,937.4 L 184.3,932.9 L 179.2,927.2 L 175.2,922.0 L 171.1,916.0 L 169.3,913.6 L 151.2,879.8 L 125.1,831.8 L 120.3,822.8 L 114.2,811.9 L 111.0,806.0 L 108.8,800.1 L 107.3,795.6 L 106.1,789.9 L 105.3,784.2 L 105.1,778.0 L 105.5,772.5 L 106.6,767.9 L 107.8,762.5 L 111.5,753.6 L 114.1,748.9 L 117.4,744.2 L 123.8,737.3 L 133.0,730.1 L 205.3,680.3 L 256.0,646.1 L 373.8,564.9 L 447.5,516.9 L 452.6,512.6 L 454.7,509.9 L 455.6,507.6 L 455.1,505.0 L 454.1,502.7 L 453.0,500.4 L 450.7,495.5 L 449.9,493.5 L 449.8,490.9 L 450.4,488.5 L 451.6,486.2 L 464.9,465.3 L 485.6,433.0 Z" fill="none" stroke="currentColor" stroke-width="10" stroke-linejoin="round" stroke-linecap="round"/></svg>